<?xml version="1.0" encoding="utf-8"?>
<!-- Generator: Adobe Illustrator 25.0.0, SVG Export Plug-In . SVG Version: 6.00 Build 0)  -->
<svg version="1.1" id="Camada_1" xmlns="http://www.w3.org/2000/svg" xmlns:xlink="http://www.w3.org/1999/xlink" x="0px" y="0px"
	 viewBox="0 0 1080 1080" style="enable-background:new 0 0 1080 1080;" xml:space="preserve">
<style type="text/css">
	.st0{fill:#010202;}
</style>
<g>
	<path class="st0" d="M399.51,586.45c-11.59,3.26-23.42,6.34-35.14,9.17c-8.95,2.16-18.03,4.21-27,6.11l-1.74,0.37l-4.54,36.87
		l1.78,0.72c9.28,3.77,19.02,5.89,28.92,6.3c1.17,0.05,2.34,0.08,3.52,0.08c13.19,0,26.44-3.09,38.53-9.01l1.49-0.73l-2.82-50.72
		L399.51,586.45z M362,641c-8.7-0.36-17.26-2.13-25.48-5.25l3.63-29.5c8.45-1.8,16.98-3.74,25.39-5.77
		c10.78-2.6,21.64-5.41,32.33-8.38l2.28,41.18C391.43,637.34,378.12,641.68,362,641z"/>
	<path class="st0" d="M471.03,552.36c-2.21-1.78-4.2-1.48-15.59,1.22c-5.82,1.38-8.82,2.16-10.81,2.69
		c-2.26,0.59-3.1,0.81-5.36,1.19c-1.64,0.27-2.87,0.43-3.86,0.56c-1.22,0.16-2.27,0.3-3.12,0.63c-0.84,0.34-1.48,0.88-1.89,1.83
		c-1.33,3.12-0.16,7.02,27.59,23.22l1.38,0.8l1.32-0.91c4.13-2.89,9.55-7.98,11.86-15.81C474.76,560.26,474.23,554.93,471.03,552.36
		z M467.75,566.37c-1.67,5.67-5.41,9.65-8.65,12.18c-15.58-9.15-21.08-13.56-23.02-15.58c0.98-0.12,2.3-0.3,4.01-0.58
		c2.48-0.41,3.53-0.69,5.81-1.29c1.96-0.51,4.93-1.29,10.7-2.66c3.54-0.84,10.07-2.39,11.31-2.18
		C468.95,557.11,469.54,560.27,467.75,566.37z"/>
	<path class="st0" d="M624.75,470.95c-12.48-7.16-26.69-4.46-36.09-2.67c-6.67,1.26-10.5,2.68-13.58,3.81
		c-3.64,1.35-5.83,2.16-10.69,1.93c-4.54-0.22-7.49-1.18-10.09-2.04c-3.28-1.07-6.37-2.09-10.63-0.53
		c-8.67,3.17-14.9,14.41-13.88,25.05c0.14,1.51,0.36,3.83,1.14,6.27c0.78,2.44,2.12,5,4.51,6.99c6.17,5.14,14.36,2.82,22.27,0.57
		c7.01-1.98,13.62-3.85,17.98-0.51c2.47,1.9,3.55,4.97,4.59,7.93c1.33,3.8,2.85,8.11,7.61,9.2c0.6,0.14,1.21,0.22,1.83,0.22
		c2.3,0,4.83-0.99,8.53-3.24c7.83-4.75,12.3-10.01,17.03-15.58c0.64-0.75,1.29-1.51,1.95-2.28c4.35-5.05,7.87-8.68,10.43-11.33
		c5.3-5.46,7.95-8.2,7.16-12.85C633.85,476.16,628.38,473.02,624.75,470.95z M624.07,491.26c-2.61,2.69-6.18,6.38-10.63,11.54
		c-0.67,0.78-1.32,1.55-1.97,2.31c-4.65,5.48-8.67,10.22-15.81,14.55c-4.15,2.52-5.65,2.65-6.66,2.42c-1.97-0.45-2.77-2.46-4-5.99
		c-1.16-3.31-2.61-7.43-6.27-10.23c-2.76-2.12-5.86-2.89-9.13-2.89c-4.25,0-8.79,1.29-13.25,2.55c-6.98,1.98-13.57,3.85-17.71,0.4
		c-3.18-2.66-3.62-7.19-3.88-9.89c-0.8-8.38,4.07-17.49,10.63-19.89c2.62-0.96,4.3-0.41,7.35,0.6c2.76,0.9,6.19,2.03,11.41,2.28
		c5.87,0.27,8.87-0.83,12.67-2.24c2.9-1.07,6.51-2.41,12.77-3.59c8.68-1.65,21.8-4.14,32.68,2.09c2.97,1.71,7.05,4.05,7.63,7.44
		C630.23,484.71,629.25,485.93,624.07,491.26z"/>
	<path class="st0" d="M633.44,361.04c-1.71-0.01-3.53-0.02-5.48-0.04c-7.63-0.08-14.1-0.23-19.31-0.35
		c-4.77-0.11-8.75-0.2-12.11-0.2c-10.85,0-15.1,0.97-18.02,5.42c-2.29,3.51-1.48,6.29-0.54,9.49c0.79,2.71,1.87,6.42,1.84,12.63
		c-0.07,11.14-3.86,28.21-10.41,46.85l-0.1,0.27c-1.07,3.05-2.29,6.51-0.21,9.23c0.64,0.83,1.88,2.45,6.02,2.45
		c4.88,0,13.78-2.24,30.45-10.59c11.36-5.7,37.98-19.03,51.51-47.11c3.15-6.53,7.46-15.48,3.27-22.15
		C656.76,361.2,649.93,361.16,633.44,361.04z M652.58,386.92c-12.79,26.54-37.42,38.88-49.26,44.81
		c-22.16,11.11-29.45,10.61-30.25,9.57c-0.44-0.57,0.44-3.05,0.96-4.53l0.09-0.28c3.96-11.24,10.6-32.49,10.7-48.47
		c0.04-6.94-1.17-11.06-2.05-14.06c-0.47-1.62-0.74-2.59-0.74-3.38c0-0.7,0.21-1.25,0.68-1.97c1.63-2.49,4.78-3.16,13.86-3.16
		c3.19,0,7.12,0.09,11.96,0.2c5.22,0.12,11.72,0.27,19.38,0.35c1.95,0.02,3.78,0.03,5.5,0.04c15.62,0.11,20.66,0.3,22.7,3.55
		C658.83,373.93,655.22,381.44,652.58,386.92z"/>
	<path class="st0" d="M714.99,397.52c2.65,0,6.03-0.24,10.35-0.91c14.55-2.28,24.17-3.78,27.74-11.27
		c2.09-4.38,0.91-8.44-0.05-11.71c-0.87-3-1.17-4.42-0.29-5.46c1.06-1.26,3.19-1.3,6.56-1.26c4.26,0.04,9.55,0.11,13.98-3.95
		c3.15-2.88,4.64-6.09,4.19-9.03c-1.15-7.59-14.49-10.72-23.17-10.97c-13.92-0.41-30.37,6.27-31.49,15.82
		c-0.29,2.47,0.5,4.43,1.2,6.15c0.76,1.9,1.17,3.04,0.63,4.54c-0.72,2.01-3.41,3.68-5.55,4.72c-6.37,3.1-12.26,2.94-16.57,2.82
		c-3.92-0.11-7.3-0.2-8.75,2.75c-0.44,0.91-0.8,2.46,0.01,4.67c1.59,4.28,6.96,9.29,12.49,11.66
		C707.26,396.52,709.61,397.52,714.99,397.52z M698.26,382.12c0.75-0.2,2.68-0.15,4.13-0.11c0.9,0.03,1.9,0.05,2.97,0.05
		c4.33,0,9.93-0.45,15.92-3.38c4.39-2.13,7.03-4.6,8.07-7.53c1.2-3.36,0.14-5.98-0.71-8.08c-0.56-1.4-1-2.5-0.86-3.71
		c0.69-5.89,14.24-11.75,26.38-11.41c8.95,0.26,17.88,3.53,18.37,6.73c0.18,1.19-0.83,2.94-2.63,4.59
		c-2.97,2.73-6.64,2.69-10.54,2.64c-3.83-0.04-7.81-0.09-10.44,3.04c-2.7,3.2-1.63,6.86-0.69,10.08c0.83,2.83,1.61,5.5,0.34,8.16
		c-2.44,5.11-11.02,6.45-24,8.48c-5.33,0.83-12.49,1.48-16.33-0.17C702.35,388.97,698.35,383.72,698.26,382.12z"/>
	<path class="st0" d="M417.19,346.78c3.68,3.39,8.25,5.38,12.91,6.7c4.65,1.3,9.74,1.77,14.63,1.03c2.45-0.29,4.84-0.95,7.19-1.68
		c1.15-0.45,2.33-0.83,3.44-1.38c0.56-0.26,1.13-0.5,1.69-0.78l1.63-0.89c0.55-0.28,1.07-0.63,1.59-0.97
		c0.52-0.35,1.05-0.67,1.55-1.04c0.99-0.78,2.01-1.49,2.91-2.38c1.87-1.67,3.51-3.65,4.87-5.82c1.39-2.15,2.29-4.63,2.91-7.1
		c0.54-2.45,0.75-5,0.49-7.55c-0.24-2.53-0.95-5.09-2.3-7.32c-1.33-2.23-3.2-4.09-5.39-5.35c-2.2-1.23-4.6-1.96-7.01-2.15
		c-2.4-0.2-4.79,0-7.05,0.63c4.63-0.13,9.33,0.9,12.71,3.55c1.69,1.29,3.03,2.98,3.86,4.86c0.09,0.19,0.17,0.39,0.25,0.59
		c-4.26-1.39-8.85-1.83-13.42-1.44c-2.67,0.24-5.32,0.8-7.89,1.64c-1.29,0.44-2.54,0.93-3.73,1.43c-1.21,0.52-2.43,1.09-3.63,1.72
		c-4.77,2.54-9.14,6.51-11.57,11.51c-2.14,4.31-2.84,9.19-2.12,13.7c-0.38-0.13-0.75-0.26-1.12-0.39c-2.07-0.76-4.08-1.72-5.82-3
		c-1.76-1.24-3.23-2.88-3.84-4.9c-0.68-2.02-0.09-4.38,0.92-6.46c-0.75,0.9-1.38,1.92-1.82,3.05c-0.42,1.13-0.66,2.41-0.46,3.67
		C413.86,342.83,415.42,345.07,417.19,346.78z M431.22,336.56c2.67-3.9,6.35-6.82,10.55-9.08c1.05-0.57,2.14-1.1,3.26-1.61
		c1.14-0.55,2.26-1.01,3.35-1.48c2.22-0.92,4.53-1.64,6.9-2.22c4.19-1.01,8.55-1.48,13.09-1.63c0.49,1.47,0.75,3.02,0.75,4.61
		c0.04,2.1-0.32,4.21-0.88,6.26c-0.66,1.98-1.4,3.9-2.63,5.61c-1.18,1.71-2.54,3.34-4.18,4.7c-0.76,0.74-1.65,1.35-2.5,2.01
		c-0.43,0.31-0.9,0.58-1.35,0.88c-0.45,0.29-0.9,0.59-1.38,0.83c-3.75,2.14-7.92,3.65-12.2,4.38c-4.28,0.84-8.64,0.63-13.02-0.14
		c-1.54-0.29-3.06-0.69-4.55-1.16C427.29,344.07,428.82,339.98,431.22,336.56z"/>
	<path class="st0" d="M197.72,608.43c2.17,2.21,4.69,3.97,7.51,5.31c1.44,0.64,2.95,1.17,4.51,1.45c1.56,0.32,3.15,0.46,4.72,0.43
		c3.16-0.01,6.25-0.65,9.16-1.63c2.93-0.96,5.69-2.29,8.32-3.78c2.63-1.51,5.12-3.22,7.49-5.06c1.19-0.94,2.34-1.9,3.46-2.93
		c0.58-0.52,1.12-1.05,1.64-1.55c0.53-0.53,1.06-1.03,1.58-1.58c4.17-4.27,8.08-9.21,10.19-15.22c1.05-2.99,1.59-6.23,1.38-9.44
		c0.01-0.81-0.18-1.6-0.28-2.39c-0.09-0.8-0.29-1.57-0.49-2.34c-0.45-1.52-1-2.99-1.67-4.39c-0.69-1.4-1.44-2.76-2.35-4.03
		c-0.43-0.65-0.94-1.24-1.42-1.85c-0.52-0.59-1.04-1.17-1.61-1.7c-2.26-2.15-4.98-3.9-8.01-4.74c-3-0.85-6.19-0.9-9.11-0.13
		c-2.93,0.76-5.6,2.16-7.87,4c2.57-1.37,5.33-2.32,8.12-2.64c2.79-0.33,5.58,0.03,8.07,1.08c2.51,0.98,4.68,2.67,6.45,4.69
		c1.41,1.62,2.6,3.47,3.53,5.43c-2.27-0.64-4.63-1.02-7-1.27c-3.25-0.27-6.58-0.24-9.89,0.34c-3.3,0.57-6.62,1.64-9.61,3.47
		c-2.96,1.81-5.66,4.27-7.58,7.22c-1.96,2.94-3.17,6.22-3.94,9.5c-0.75,3.29-1.05,6.61-1.09,9.86c-0.02,1.63,0.02,3.25,0.1,4.84
		c0.08,1.61,0.19,3.26,0.39,4.86c0.36,2.55,0.87,5.07,1.63,7.5c-2.58,0.2-5.13-0.18-7.56-1.03c-2.53-0.92-4.99-2.31-7.08-4.06
		c-2.1-1.74-3.79-3.99-4.39-6.64c-0.63-2.65,0.14-5.58,1.6-8.09c-0.96,1.11-1.75,2.37-2.31,3.77c-0.54,1.41-0.8,2.96-0.66,4.52
		C193.89,603.36,195.62,606.21,197.72,608.43z M214.86,604.16c0.1-1.57,0.23-3.1,0.43-4.67c0.19-1.57,0.34-3.13,0.55-4.67
		c0.8-6.13,2.13-12.14,5.29-16.89c0.75-1.21,1.68-2.27,2.68-3.26l0.73-0.76l0.83-0.66c0.56-0.43,1.07-0.93,1.7-1.28
		c2.35-1.65,5.1-2.79,7.97-3.65c2.88-0.84,5.91-1.42,9.01-1.72c2.42-0.27,4.87-0.38,7.35-0.39c0.1,0.22,0.19,0.44,0.28,0.67
		c2.08,5.04,2.13,10.42,0.18,15.37c-1.91,4.95-5.39,9.35-9.32,13.35c-0.48,0.5-0.99,1-1.49,1.5c-0.53,0.51-1.02,1-1.52,1.46
		c-1.01,0.94-2.08,1.84-3.17,2.72c-2.17,1.77-4.46,3.39-6.83,4.85c-4.61,2.83-9.65,5.03-14.84,5.55
		C214.66,609.14,214.69,606.64,214.86,604.16z"/>
	<path class="st0" d="M985.84,314.55c-0.75-18.77-11.34-32.6-20.08-40.9c-6.92-6.56-15.24-12.05-24.03-15.99
		c-21.82-25.27-45.16-39.75-69.36-43.03c-10.47-1.42-18.75-0.5-26.75,0.39c-10.66,1.19-20.72,2.3-35.11-2.34
		c-11.01-3.55-15.83-7.66-21.41-12.42c-5.27-4.5-11.25-9.59-23.26-15.05c-24.3-11.04-45.8-11.21-75.57-11.46
		c-21.1-0.17-30.79,1.61-39.34,3.18c-7.87,1.45-14.67,2.69-28.98,1.93c-19.92-1.07-31.74-4.87-42.16-8.22
		c-11.65-3.75-22.66-7.29-41.87-6.08c-12.82,0.81-36.68,2.3-58.55,18.89c-24.16,18.33-32.54,44.58-35.42,59.46l-33.12,38.98
		c-1.14,0.29-2.38,0.59-3.59,0.99c-2.68,0.85-5.29,2.1-7.53,3.81c-1.67,1.28-3.16,2.76-4.35,4.42c-0.98,0.01-1.97,0.08-2.95,0.23
		c-2.19,0.34-4.35,1.04-6.23,2.16c-0.88,0.53-1.7,1.13-2.45,1.81c-1.07-0.09-2.1,0.03-3.01,0.27c-1.75,0.44-3.23,1.17-4.59,2
		c-1.36,0.83-2.59,1.78-3.74,2.78c-1.15,1.01-2.23,2.07-3.23,3.2c-1.02,1.12-1.96,2.36-2.77,3.62c-1.12,1.79-2.05,3.67-2.73,5.62
		c-1.18,0.18-2.38,0.47-3.58,0.9c-1.76,0.64-3.61,1.74-4.96,3.46c-0.67,0.83-1.2,1.86-1.52,2.87c-0.31,1.02-0.44,1.94-0.55,2.75
		c-0.18,1.62-0.39,2.9-0.82,4.22c-0.4,1.31-1.03,2.61-1.76,3.87c-0.73,1.25-1.57,2.44-2.54,3.59c-0.95,1.17-2.05,2.26-3.14,3.57
		c-0.55,0.65-1.09,1.39-1.56,2.21c-0.46,0.84-0.78,1.83-0.85,2.81c-0.11,1.97,0.67,3.78,1.75,5.09c0.46,0.57,0.96,1.08,1.5,1.54
		c-0.21,0.11-0.42,0.22-0.63,0.34c-2.16,1.21-4.3,2.6-6.21,4.5c-0.47,0.51-0.95,0.96-1.36,1.54l-0.63,0.85
		c-0.19,0.29-0.36,0.62-0.54,0.93c-0.74,1.24-1.18,2.72-1.38,4.2c-0.16,1.51,0.08,3.23,0.75,4.64c0.64,1.41,1.52,2.46,2.31,3.38
		c1.13,1.3,2.19,2.46,3.18,3.67c-12.44,24.18-28.53,46.13-47.86,65.26c-19.41,19.21-41.64,35.14-66.07,47.35
		c-0.12,0.02-0.24,0.04-0.35,0.07c-0.93,0.24-1.91,0.64-2.74,1.23c-1.69,1.2-2.65,2.77-3.39,4.1c-0.74,1.37-1.32,2.66-1.92,3.9
		c-0.61,1.22-1.22,2.42-1.9,3.56c-1.32,2.29-2.89,4.43-4.68,6.37c-0.88,0.98-1.83,1.87-2.83,2.73c-1.01,0.86-2.07,1.65-3.24,2.56
		c-1.14,0.9-2.53,1.99-3.46,3.66c-0.22,0.41-0.43,0.83-0.57,1.26c-0.18,0.43-0.28,0.85-0.37,1.28c-0.06,0.24-0.11,0.48-0.15,0.74
		c-5.54,0-11.25,1.64-16.05,4.93c-2.69,1.82-4.97,3.93-7.26,5.86c-2.29,1.94-4.58,3.86-6.93,5.69c-2.34,1.85-4.73,3.56-7.22,5.34
		c-1.24,0.9-2.53,1.82-3.78,2.94c-1.26,1.11-2.42,2.45-3.32,3.89c-3.05,5.05-4.04,10.83-3.48,16.27c-0.63,0.14-1.26,0.3-1.89,0.5
		c-0.4,0.12-0.79,0.3-1.19,0.46c-0.39,0.15-0.78,0.31-1.17,0.55l-1.15,0.67l-1.07,0.88c-0.37,0.27-0.67,0.64-0.97,1.01
		c-0.29,0.38-0.62,0.7-0.87,1.14c-0.51,0.82-0.93,1.92-1.06,2.95c-0.14,1.03-0.08,1.86-0.05,2.59c0.03,0.73,0.05,1.37,0.04,2.02
		c-0.01,1.29-0.14,2.59-0.38,3.87c-0.24,1.27-0.58,2.48-1.05,3.65c-0.94,2.35-2.46,4.62-4.06,6.99c-1.6,2.36-3.27,4.76-4.83,7.23
		c-1.57,2.49-3.05,4.94-4.52,7.44c-1.48,2.49-2.92,5.03-4.22,7.72c-1.28,2.67-2.49,5.6-2.75,8.8c-0.27,3.1,0.14,6.18,0.99,9.07
		c1.54,4.97,4.3,9.32,7.57,13.08c-0.9,0.74-1.78,1.48-2.66,2.25c-2.16,1.88-4.26,3.86-6.22,6.08c-0.49,0.55-0.95,1.16-1.43,1.74
		c-0.45,0.61-0.9,1.23-1.33,1.88c-0.84,1.31-1.6,2.79-2.07,4.48c-0.46,1.71-0.49,3.58-0.09,5.33c0.44,1.87,1.42,3.4,2.42,4.62
		c1.02,1.24,2.12,2.28,3.23,3.25c1.11,0.98,2.27,1.86,3.43,2.71c1.46,1.07,2.95,2.07,4.46,3.03c-3.56,13.95-6.81,28.21-9.67,42.42
		c-15.15,75.37-28.24,140.47,3.64,176.78c6.23,7.1,20.16,19.42,29.28,19.42c1.5,0,2.88-0.34,4.07-1.09
		c5.41-3.42,3.83-12.48,1.64-25.01c-2.25-12.88-4.19-23.54-5.75-32.11c-2.27-12.5-3.84-21.11-4.72-27.38
		c6.71-1.09,13.29-2.81,19.6-5.13c23.34-8.61,37.64-23.36,42.33-28.21l0.46-0.48c17.82-18.29,58.73-45.34,121.58-80.41
		c2.92,6.08,8.72,12.75,15.23,12.22c5.49-0.48,9.59-6.67,15.3-18.81l30.39-12.96c0.47,0.92,0.93,1.84,1.36,2.76
		c1.39,2.98,2.2,5.3,2.85,7.17c1.13,3.24,2.02,5.79,4.99,6.47c6.92,1.59,14.09-9.5,26.18-29.22c1.48-2.42,2.71-4.49,3.74-6.24
		c3.07-5.2,4.36-7.32,5.48-7.37c0.04,0,0.08,0,0.12,0c5.69,0,13.29,20.65,15.8,27.47c2.63,7.15,4.23,13.07,5.64,18.28
		c2.85,10.56,4.74,17.53,12.22,22.29c3.37,2.14,9.83,5.34,15.21,2.68c6.98-3.44,6.6-13.42,6.13-26.06
		c-0.19-5.02-0.4-10.72-0.14-16.42c0.8-17.76,5.91-37.85,14.64-53.55c11.01-4.05,22.07-8.49,32.88-13.21
		c23.01-10.04,57.77-25.21,94.45-52.37c16.83-12.46,32.82-26.57,47.62-41.95c0.26,5.98-0.27,11.92-0.86,18.26
		c-1.16,12.66-2.48,27.01,2.43,45.8c3.76,14.38,10.05,31.49,18.71,31.49c0.03,0,0.06,0,0.08,0c10.69-0.13,17.9-25.64,18.81-43.22
		c0.82-15.96-3.04-27.16-6.45-37.05c-1.03-3-2.01-5.82-2.84-8.71c-1.97-6.83-3.14-13.86-3.63-20.94
		c10.07-13.4,20.9-26.51,32.19-38.99l0.87-0.96c27.51-30.4,47.39-52.37,78.65-69.5c31.34-17.18,65.31-25.21,76.48-27.84
		c8.04-1.9,14.92-3.21,20.98-4.38c16.54-3.16,27.46-5.25,39.74-14.99C963.13,363.87,987,343.43,985.84,314.55z M482.38,187.45
		c20.66-15.67,43.54-17.11,55.84-17.88c18.28-1.15,28.36,2.09,40.03,5.84c10.71,3.45,22.86,7.35,43.42,8.45
		c14.89,0.8,21.97-0.5,30.15-2c8.33-1.53,17.78-3.27,38.39-3.1c29.15,0.24,50.21,0.41,73.54,11.01c11.37,5.17,16.82,9.81,22.08,14.3
		c5.74,4.89,11.16,9.52,23.12,13.38c15.41,4.97,26.49,3.74,37.2,2.55c7.7-0.86,15.67-1.74,25.53-0.41
		c20.64,2.79,40.74,14.32,59.84,34.28c-1.84-0.55-3.69-1.02-5.54-1.42c-18.49-3.97-37.86-0.31-56.01,10.58
		c-15.13,9.08-28.76,22.97-37.41,38.11c-7.05,12.34-11.12,26.1-12.17,40.97c-9.18-0.48-17.99-2.09-26.24-4.82
		c-10.79-3.58-17.86-8.07-26.05-13.27c-7.69-4.88-16.41-10.42-29.92-16.27c-8.84-3.83-15.57-5.98-22.7-8.26
		c-23.79-7.6-37.94-8.71-49.31-9.61c-9.78-0.77-17.5-1.38-28.14-5.65c-15.61-6.27-22.33-14.45-28.83-22.36
		c-6.97-8.48-14.17-17.25-31.62-22.65c-10.86-3.36-26.17-2.57-53.97-1.13c-25.37,1.31-49.75,2.59-74.42,3.91
		C452.28,227.63,460.5,204.04,482.38,187.45z M339.56,362.62c0.49-3.3,4.01-6.14,7.84-8.22c3.87-2.14,8.18-3.83,12.48-5.58
		c3.68-1.49,7.46-2.76,11.29-3.87c0.57-0.16,1.15-0.33,1.73-0.49c2-0.53,4.01-1.02,6.04-1.45c6.99-1.5,14.15-2.44,21.42-3
		c-6.15-0.89-12.43-1.07-18.69-0.59c-2.3,0.17-4.6,0.44-6.89,0.79c-0.91,0.14-1.82,0.29-2.73,0.46c-4.7,0.85-9.34,2.11-13.85,3.73
		c-3.95,1.44-7.94,2.91-11.84,4.9c-0.42-0.61-0.79-1.23-1.08-1.88c-0.63-1.36-0.87-2.8-0.5-4.01c0.18-0.59,0.44-1.12,0.84-1.62
		c0.42-0.51,0.91-0.99,1.49-1.48c1.13-0.96,2.43-1.99,3.65-3.15c1.23-1.16,2.39-2.47,3.39-3.9c1.01-1.41,1.87-2.96,2.52-4.66
		c0.68-1.68,1.01-3.56,1.24-5.1c0.13-0.77,0.23-1.43,0.41-1.94c0.16-0.51,0.38-0.92,0.72-1.32c0.62-0.81,1.58-1.46,2.79-1.92
		c1.2-0.49,2.58-0.81,4.02-0.98c2.9-0.4,5.98-0.36,9.08-0.23c5.29,0.27,10.63,0.93,16.06,1.5c0.96,0.1,1.93,0.2,2.9,0.29
		c-0.79-0.35-1.58-0.69-2.37-1.01c-5.18-2.12-10.57-3.69-16.16-4.68c-3.24-0.53-6.56-0.85-10.02-0.59
		c-0.16,0.01-0.32,0.02-0.49,0.04c1.07-1.42,2.19-2.74,3.43-3.95c0.99-0.99,2.01-1.9,3.11-2.77c1.1-0.87,2.22-1.7,3.37-2.46
		c2.27-1.51,4.73-2.87,6.94-3.27c1.11-0.2,2.02-0.09,2.66,0.25c0.28,0.16,0.33,0.2,0.9,0.85c0.55,0.63,1.38,1.37,2.15,1.85
		c1.55,0.96,3.23,1.56,4.94,1.86c1.71,0.26,3.41,0.26,5.02,0.04l1.12-0.17c0.32-0.04,0.58-0.08,0.89-0.1
		c0.57-0.04,1.15-0.07,1.76-0.02h0.08c1.25,0.08,2.56,0.31,3.88,0.63c0.49,0.12,0.98,0.25,1.47,0.4c2.14,0.63,4.3,1.46,6.44,2.37
		c2.65,1.09,5.25,2.38,7.95,3.58c-2.07-2.11-4.34-3.98-6.75-5.72c-1.71-1.21-3.5-2.32-5.43-3.28c-0.81-0.39-1.64-0.76-2.49-1.1
		c-0.75-0.29-1.53-0.55-2.33-0.78c-0.73-0.2-1.48-0.37-2.26-0.48c-0.81-0.14-1.65-0.2-2.5-0.2c-0.42,0-0.88,0.04-1.28,0.07
		l-1.04,0.09c-2.54,0.18-4.94-0.23-6.79-1.41c-0.46-0.29-0.73-0.52-1.15-0.97c-0.22-0.23-0.51-0.58-0.94-0.96
		c-0.42-0.38-0.95-0.73-1.45-0.97c-0.06-0.03-0.13-0.06-0.19-0.08c2.1-0.56,4.2-0.78,6.29-0.7c1.85,0.07,3.69,0.34,5.63,0.67
		c1,0.18,1.9,0.32,2.74,0.54c0.82,0.22,1.94,0.54,2.98,0.76c0.77,0.15,1.53,0.29,2.29,0.4c1.31,0.21,2.62,0.36,3.96,0.46
		c0.61,0.04,1.23,0.06,1.82,0.08c0.43,0.02,0.84,0.03,1.22,0.03c0.91,0.03,1.75,0.11,2.63,0.29c3.5,0.66,6.91,2.7,10.31,5.09
		c-1.82-3.72-4.86-7.11-9.15-8.85c-0.67-0.27-1.37-0.49-2.08-0.66c-0.42-0.11-0.83-0.19-1.24-0.25c-1.09-0.19-2.03-0.29-3-0.45
		c-0.42-0.07-0.84-0.13-1.26-0.2c-0.54-0.09-1.08-0.18-1.62-0.29c-0.96-0.16-1.93-0.34-2.85-0.54c-0.94-0.18-1.77-0.42-2.92-0.67
		c-1.13-0.23-2.24-0.35-3.24-0.43c-0.73-0.06-1.47-0.1-2.23-0.11c3.61-2.34,7.48-3.78,11.52-4.43c1.25-0.22,2.5-0.35,3.87-0.57
		l2.07-0.38c0.27-0.05,0.54-0.12,0.81-0.18c0.41-0.11,0.83-0.22,1.25-0.32c1.37-0.38,2.71-0.87,4.04-1.42
		c1.1-0.5,2.18-1.05,3.21-1.62v-0.01c0.19-0.1,0.38-0.21,0.57-0.32c2.4-1.43,4.49-2.91,6.66-4.07c2.18-1.18,4.48-2.11,6.91-2.9
		c4.11-1.35,8.41-2.24,12.88-2.91c-0.54,1.13-0.81,2.19-1.07,3.25c-0.16,0.66-0.27,1.32-0.41,1.97c-0.1,0.65-0.18,1.3-0.27,1.95
		c-0.3,2.6-0.45,5.16-0.55,7.73c-0.11,5.13-0.01,10.23,0.4,15.32c0.71-5.06,1.26-10.11,2.04-15.1c0.39-2.49,0.79-4.98,1.34-7.39
		l0.43-1.79c0.17-0.58,0.31-1.17,0.5-1.74c0.35-1.11,0.8-2.22,1.3-2.92c0.06-0.1,0.12-0.18,0.18-0.24c0.04,0.02,0.09,0.06,0.15,0.11
		c0.37,0.28,0.97,0.79,1.67,1.22c0.71,0.44,1.56,0.8,2.42,0.99c0.86,0.18,1.74,0.23,2.65,0.13c0.91-0.13,1.78-0.42,2.53-0.79
		c1.48-0.75,2.54-1.65,3.55-2.45c1.01-0.8,1.94-1.58,2.91-2.29c0.95-0.71,1.94-1.36,3-2.04c2.06-1.33,4.13-2.51,6.24-3.29
		c2.09-0.77,4.22-1.15,6.07-0.74c0.95,0.2,1.7,0.51,2.37,1.07c0.71,0.53,1.36,1.48,2.51,2.59c1.1,1.14,2.89,2.09,4.49,2.36
		c1.63,0.3,3.36,0.15,4.87-0.35c3.02-1.03,5.03-2.95,6.97-4.3c0.96-0.68,1.91-1.26,2.83-1.58c0.91-0.32,1.82-0.29,2.73-0.12
		c0.43,0.11,0.76,0.26,1.15,0.56s0.81,0.73,1.23,1.17c0.86,0.9,1.75,1.87,2.69,2.77c2.82,2.66,5.84,5.06,9.06,7.12
		c-1.81,0.35-3.54,0.86-5.24,1.39c-3.78,1.26-7.35,2.86-10.81,4.58c-3.41,1.73-6.88,3.53-10.15,5.67
		c-6.54,4.25-12.47,9.39-17.3,15.4c6.26-4.48,12.6-8.58,19.27-12c3.32-1.72,6.73-3.23,10.21-4.78c3.44-1.52,6.88-2.98,10.35-4.12
		c1.73-0.58,3.47-1.08,5.19-1.41c1.72-0.36,3.43-0.52,5.02-0.43c1.58,0.11,3,0.52,4.08,1.35c1.08,0.81,1.92,2.11,2.53,3.72
		c0.64,1.6,1.07,3.41,1.52,5.22c0.43,1.83,0.81,3.7,1.21,5.57c0.69,3.03,1.16,6.12,1.52,9.26c-0.62,0.02-1.25,0.06-1.87,0.09
		c-3.15,0.22-6.27,0.53-9.36,0.97c-3.09,0.45-6.16,0.96-9.22,1.52c-6.11,1.2-12.17,2.54-18.15,4.23c6.18-0.6,12.33-1.29,18.49-1.8
		c6.14-0.55,12.29-0.97,18.36-1.02c1.52,0.01,3.03,0.03,4.51,0.13c1.54,0.06,2.8,0.22,3.83,0.66c1.01,0.41,1.76,1.17,2.07,1.91
		c0.33,0.79,0.4,2.13,0.32,3.56c-0.16,2.88-0.55,6.02-0.83,9.11c-0.29,3.1-0.5,6.23-0.69,9.31c-0.1,1.54-0.18,3.08-0.32,4.54
		c-0.13,1.45-0.37,2.8-0.76,3.8c-0.22,0.48-0.47,0.9-0.81,1.31c-0.38,0.42-0.77,0.81-1.13,1c-0.34,0.22-0.93,0.41-1.77,0.73
		c-0.82,0.3-1.69,0.72-2.45,1.18c-0.79,0.46-1.47,0.97-2.13,1.46c-0.67,0.51-1.32,1.05-1.94,1.62c-1.25,1.13-2.38,2.4-3.38,3.71
		c-2.02,2.64-3.5,5.27-5.26,7.76c-1.72,2.52-3.56,4.89-5.54,7.16c-1.97,2.27-4.15,4.34-6.55,6.12c-4.28,3.26-9.51,5.35-15.07,5.52
		c-0.01-0.03-0.01-0.07-0.02-0.1c-0.49-2.18-0.96-4.35-1.5-6.53c-0.53-2.18-1.08-4.36-1.79-6.56c-0.35-1.09-0.76-2.19-1.28-3.27
		c-0.51-1.11-1.21-2.06-1.84-3.05c-1.44-1.88-3.11-3.53-4.94-4.93c-1.85-1.38-3.85-2.52-5.92-3.45c-4.14-1.87-8.55-2.94-12.98-3.45
		c2.17,0.51,4.3,1.15,6.37,1.93c2.07,0.77,4.09,1.67,5.99,2.76c1.89,1.09,3.7,2.29,5.31,3.71c1.6,1.44,3,3.05,4.14,4.81
		c0.48,0.93,1.07,1.81,1.43,2.76c0.39,0.95,0.7,1.96,0.97,3c0.54,2.08,0.94,4.24,1.34,6.42l1.16,6.55c0.37,2.15,0.75,4.37,0.82,6.34
		c0.01,0.48-0.01,0.93-0.08,1.28c-0.05,0.34-0.17,0.64-0.36,1.04c-0.35,0.71-0.86,1.27-1.56,1.84c-1.42,1.13-3.35,2.07-5.31,2.89
		c-3.95,1.64-8.19,3.03-12.36,4.26c-2.1,0.61-4.13,1.13-6.31,1.61c-2.22,0.49-4.54,1.16-6.68,1.93c-2.16,0.78-4.3,1.61-6.39,2.57
		c-2.09,0.95-4.17,2.03-6.1,3.08c-1.9,1.03-3.56,1.88-5.32,2.25l-1.02-0.8l0.48,0.9c-1.71,0.3-3.65,0.32-5.4,0.08
		c-0.96-0.13-1.89-0.36-2.99-0.66c-1.07-0.29-2.5-0.62-3.97-0.57c-1.47,0.04-2.78,0.36-4.01,0.83c-1.25,0.45-2.49,1.12-3.55,1.96
		c-1.06,0.84-1.92,1.79-2.66,2.64c-0.75,0.85-1.42,1.61-2.12,2.26c-1.37,1.32-3.04,2.19-4.92,2.84c-3.73,1.21-7.99,1.14-12,0.13
		c-2.01-0.47-3.68-1.28-5.54-2.47c-0.94-0.58-2.03-1.25-3.24-1.71c-1.2-0.47-2.46-0.72-3.68-0.84c-1.22-0.1-2.46-0.11-3.68,0.05
		c-1.23,0.16-2.43,0.48-3.53,0.86c-1.1,0.38-2.12,0.8-2.92,0.93c-0.38,0.04-0.67,0.01-0.98-0.09c-0.3-0.15-0.64-0.34-0.86-0.62
		c-0.47-0.51-0.75-1.38-0.9-2.36c0.08-0.04,0.16-0.08,0.22-0.14c0.35-0.28,0.4-0.54,0.4-0.54c0.06-0.16,0.1-0.41,0.03-0.67
		c-0.05-0.26-0.21-0.48-0.34-0.6l-0.33-0.28l-0.17-0.14c-0.03-0.02-0.06-0.05-0.09-0.07c-0.03-0.31-0.05-0.62-0.08-0.93
		c-0.2-2.25-0.51-4.53-1.16-6.73c-0.63-2.19-1.55-4.29-2.69-6.24c-1.15-1.94-2.54-3.72-4.08-5.33c2.7,3.55,4.61,7.64,5.43,11.9
		c0.37,1.94,0.53,3.88,0.57,5.87c-0.99-0.67-1.99-1.3-3.02-1.91c-1.74-1.05-3.55-2-5.4-2.87c-0.93-0.44-1.88-0.84-2.85-1.23
		c-0.96-0.37-1.96-0.72-2.88-1.04c-0.45-0.15-0.87-0.29-1.2-0.43c-0.33-0.14-0.56-0.28-0.85-0.47c-0.59-0.39-1.11-0.9-1.58-1.5
		c-0.95-1.21-1.66-2.81-2.18-4.57c-1.06-3.53-1.44-7.51-2.04-11.58c-1.35,3.62-2.12,7.47-1.86,11.53c-0.3-0.03-0.59-0.1-0.87-0.19
		c-1.07-0.3-2.01-0.9-2.74-1.66c-1.46-1.56-2.23-3.68-2.84-5.86l-0.93-3.38c-0.23-0.7-0.44-1.42-0.67-2.13
		c-0.14-0.45-0.29-0.89-0.47-1.32c-0.48-1.34-1.06-2.66-1.72-3.94c-0.47-0.9-0.97-1.78-1.5-2.65c-0.64-1.06-1.35-2.07-2.07-3.05
		l-2.15-2.78c-0.69-0.89-1.25-1.72-1.54-2.46C339.52,364.11,339.46,363.45,339.56,362.62z M454.47,272.91
		c0.03-0.02,0.04-0.03,0.05-0.02c-0.01,0-0.01,0.01-0.03,0.02C454.49,272.91,454.48,272.91,454.47,272.91z M557.43,312.37
		c-0.11-0.93-0.3-1.93-0.76-2.95c-0.99-2.1-2.8-3.46-4.66-4.15c-1.87-0.69-3.76-0.76-5.3-0.74c-0.79,0-1.58,0.01-2.36,0.04
		c0.43-3.15,0.51-6.36,0.36-9.56c-0.13-1.82-0.21-3.63-0.39-5.48c11.21-0.38,22.38,0.13,33.25,1.55
		c20.49,2.68,39.85,5.2,45.72,17.65c1.74,3.7,1.78,7.12,1.8,9.17c0.14,12.83-9.21,22.07-13.99,25.95
		c-8.64-8.22-22.38-18.08-40.91-21.62c-4.27-0.82-8.65-1.25-13.04-1.32c0-0.01,0-0.02,0-0.02c0.17-1.91,0.32-3.86,0.38-5.91
		C557.55,314.16,557.52,313.29,557.43,312.37z M383.2,410.05c0,0,0-0.01,0-0.02c0.01,0.01,0.02,0.01,0.03,0.02H383.2z
		 M123.24,666.79c-0.72-0.97-1.24-1.88-1.41-2.75c-0.19-0.98-0.17-1.98,0.13-2.96c0.58-2.02,2.09-4.16,3.83-6.11
		c1.71-1.99,3.69-3.86,5.72-5.68c2.01-1.85,4.15-3.59,6.27-5.35c4.29-3.5,8.7-6.87,13.15-10.19c1.51-1.11,3.03-2.21,4.56-3.3
		c2.66-1.9,5.34-3.77,8.05-5.61c4.95-3.37,9.97-6.67,15.03-9.94c-4.49,1.84-8.89,3.87-13.21,6.08c-2.48,1.27-4.95,2.6-7.38,3.98
		c-3.13,1.78-6.22,3.64-9.25,5.59c-4.77,3.01-9.38,6.25-13.88,9.67c-1.21,0.94-2.42,1.88-3.61,2.85c-2.57-4.23-4.68-8.69-5.54-13.38
		c-0.5-2.71-0.61-5.46-0.13-8.08c0.46-2.54,1.58-5,2.96-7.41c1.39-2.42,2.95-4.8,4.52-7.2c1.58-2.38,3.15-4.82,4.73-7.16
		c1.6-2.35,3.25-4.66,4.93-7.03c1.66-2.38,3.4-4.91,4.64-7.92c0.6-1.5,1.03-3.08,1.31-4.64c0.28-1.56,0.43-3.13,0.42-4.73
		c0.01-1.56-0.21-3.22-0.11-4.02c0.05-0.4,0.14-0.68,0.37-1.09c0.09-0.2,0.31-0.37,0.44-0.57c0.15-0.2,0.28-0.41,0.49-0.57
		l0.58-0.52l0.71-0.43c0.22-0.17,0.49-0.28,0.76-0.4c0.28-0.11,0.53-0.25,0.82-0.35c0.6-0.18,1.16-0.41,1.8-0.53l0.95-0.21
		l0.97-0.15c2.63-0.38,5.41-0.39,8.21-0.26c2.79,0.13,5.65,0.47,8.46,0.78c2.79,0.34,5.57,0.87,8.32,1.56
		c1.75,0.42,3.5,0.92,5.22,1.48c1.62,0.51,3.22,1.08,4.82,1.71c2.05,0.79,4.08,1.67,6.09,2.61c-1.77-1.29-3.61-2.47-5.52-3.56
		c-1.45-0.83-2.93-1.6-4.45-2.3c-1.78-0.84-3.6-1.6-5.45-2.29c-2.76-0.99-5.6-1.8-8.48-2.44c-2.88-0.6-5.73-1.08-8.68-1.44
		c-2.95-0.35-5.95-0.54-9.06-0.23c-0.68,0.05-1.36,0.14-2.05,0.27c0.45-2.2,1-4.33,1.78-6.36c1.03-2.74,2.44-5.34,4.14-7.49
		c0.86-1.05,1.82-1.93,2.92-2.76c1.1-0.81,2.34-1.6,3.63-2.41c2.58-1.62,5.19-3.4,7.65-5.32c2.45-1.93,4.79-3.98,7.04-6.12
		c2.25-2.14,4.29-4.35,6.46-6.24c3.77-3.35,8.46-5.73,13.59-7.36c-0.04,0.41-0.04,0.82-0.01,1.23c0.15,1.8,0.71,3.26,1.27,4.64
		c0.58,1.38,1.22,2.68,1.91,3.95c1.37,2.52,2.81,4.97,4.31,7.39c0.22,0.34,0.44,0.68,0.66,1.02c0.95,1.49,1.93,2.96,2.94,4.41
		c1.99,2.89,4.09,5.7,6.33,8.39c-1.78-3.28-3.55-6.55-5.23-9.86c-0.85-1.65-1.68-3.31-2.47-4.99c-0.03-0.05-0.05-0.11-0.08-0.16
		c-1.23-2.52-2.43-5.07-3.51-7.62c-0.52-1.28-1.06-2.55-1.48-3.81c-0.42-1.25-0.76-2.51-0.75-3.53c0-0.95,0.38-2.13,0.88-2.89
		c0.49-0.8,1.38-1.5,2.48-2.28c1.1-0.77,2.35-1.6,3.51-2.53c1.18-0.94,2.32-1.94,3.37-3.02c2.11-2.14,3.93-4.56,5.49-7.12
		c1.55-2.54,2.75-5.32,3.95-7.58c0.6-1.12,1.23-1.99,1.86-2.42c0.56-0.44,1.62-0.7,2.17-0.59c0.58,0.04,2.22,0.88,3.87,1.23
		c0.83,0.19,1.65,0.31,2.47,0.35l1.23,0.04l1.24-0.07c1.63-0.16,3.25-0.51,4.73-1.1c1.48-0.57,2.86-1.3,4.14-2.09
		c2.55-1.58,4.76-3.41,6.97-4.89c1.13-0.78,2.34-1.43,3.61-1.95c2.51-1.03,5.27-1.57,8.1-1.71c1.14-0.06,2.29-0.05,3.44,0.01
		c4.64,0.19,9.26,1.21,13.86,2.49c-0.52,0.65-1.03,1.29-1.55,1.94c-3.01,3.79-5.97,7.6-8.82,11.5c-5.74,7.77-11.23,15.73-16.2,24.05
		c6.63-7.06,12.95-14.33,19.25-21.61c3.17-3.61,6.28-7.28,9.42-10.91c3.2-3.67,5.99-7.49,9.62-8.87c0.9-0.36,1.83-0.62,2.81-0.66
		l0.72-0.08l0.73,0.04c0.5,0.02,0.99,0.03,1.49,0.15c1.99,0.31,3.99,1.12,5.91,2.2c3.85,2.21,7.34,5.35,10.64,8.69
		c3.32,3.44,6.45,6.89,9.08,10.84c1.97,2.85,3.69,5.88,5.26,9.03c-1.21-0.42-2.45-0.62-3.63-0.71c-2.04-0.14-4,0.06-5.88,0.42
		c-3.76,0.71-7.23,2.06-10.54,3.63c-6.63,3.11-12.6,7.22-18.25,11.64c-5.6,4.48-10.86,9.34-15.69,14.59
		c5.58-4.44,11.22-8.74,17.13-12.61c2.94-1.94,5.94-3.8,9.01-5.48c3.06-1.69,6.17-3.28,9.38-4.57c1.59-0.66,3.21-1.24,4.84-1.73
		c1.62-0.5,3.25-0.91,4.87-1.16c1.62-0.25,3.24-0.35,4.74-0.19c1.49,0.16,2.87,0.57,3.88,1.32c0.99,0.71,1.9,1.86,2.65,3.24
		c0.75,1.37,1.36,2.9,1.88,4.49s0.95,3.24,1.33,4.92c0.38,1.67,0.75,3.45,1.04,5.09c0.59,3.32,0.83,6.69,0.62,10.04
		c-0.11,1.67-0.32,3.33-0.63,4.97c-0.31,1.64-0.73,3.26-1.27,4.74c-0.53,1.49-1.3,2.85-2.21,4.42c-0.9,1.54-1.8,3.21-2.57,4.89
		c-1.55,3.35-2.77,6.84-3.61,10.44c-0.85,3.6-1.24,7.29-1.48,10.82c-0.25,3.53-0.6,6.87-2.1,9.87c-1.41,3.04-3.63,5.76-6.3,7.97
		c-2.27,1.89-4.85,3.45-7.57,4.74c-0.2-0.31-0.43-0.62-0.66-0.93c-2.01-2.36-4.51-3.58-6.92-4.71c-4.9-2.15-9.97-3.43-15.05-4.53
		c-10.18-2.15-20.61-2.92-30.92-2.44c10.32,0.39,20.55,1.84,30.43,4.48c4.92,1.37,9.85,2.88,14.32,5.07
		c2.18,1.11,4.37,2.43,5.64,4.11c1.26,1.82,2.13,4.07,2.49,6.38c0.7,4.68-0.27,9.64-2.07,14.15c-0.92,2.25-2.04,4.45-3.44,6.37
		c-1.36,1.94-2.96,3.58-4.89,4.85c-1.92,1.29-4.19,2.27-6.55,3.29s-4.8,2.08-7.16,3.31c-4.75,2.42-9.2,5.43-13.27,8.79
		c-2.06,1.66-4.05,3.46-5.93,5.3l-5.49,5.48c-3.62,3.59-7.39,7.03-11.21,10.44c-3.85,3.38-7.65,6.88-11.71,9.41
		c-2.04,1.26-4.19,2.25-6.48,2.98c-1.14,0.37-2.26,0.64-3.44,0.86l-3.79,0.61c-2.64,0.44-5.26,1.08-7.79,1.82
		c-2.52,0.73-5.06,1.59-7.51,2.55c-1.21,0.47-2.36,0.94-3.29,1.12c-0.9,0.19-2.02,0.15-3.11,0c-2.17-0.29-4.22-1.25-6.23-2.57
		c-2.01-1.31-3.96-2.95-5.94-4.59c-1.94-1.61-3.79-3.3-5.54-5.1c-3.3-3.38-6.28-7.08-8.94-11.02l6.14-10.27l6.59-11.16l6.55-11.2
		c2.19-3.73,4.31-7.5,6.47-11.24c-2.43,3.57-4.91,7.12-7.31,10.71l-7.24,10.76l-7.19,10.79l-7.14,10.83l-0.51,0.78l0.51,0.86
		c2.69,4.51,5.83,8.79,9.41,12.67c1.79,1.95,3.69,3.8,5.67,5.55c1.92,1.69,3.84,3.43,6.07,4.99c-2.19,1.01-4.48,1.71-6.79,2.16
		c-2.33,0.45-4.69,0.64-6.99,0.43c-2.3-0.18-4.54-0.71-6.61-1.58c-2.08-0.8-3.99-2.06-5.76-3.47c-1.73-1.44-3.29-3.05-4.47-4.86
		c-1.18-1.81-2.02-3.78-2.42-5.84c-0.88-4.08,0.42-8.33,2.43-12.47c2.02-4.16,4.62-8.3,6.98-12.57c2.37-4.25,4.7-8.53,6.9-12.88
		c4.45-8.67,8.61-17.48,12.21-26.57c-5.43,8.13-10.53,16.39-15.6,24.66l-7.6,12.4c-2.48,4.15-5.13,8.21-7.39,12.78
		c-1.1,2.3-2.07,4.75-2.62,7.42c-0.29,1.32-0.4,2.71-0.44,4.09c0.04,1.39,0.15,2.8,0.49,4.14c0.64,2.69,1.84,5.23,3.46,7.38
		c0.06,0.08,0.11,0.15,0.17,0.22c-6.65-2.85-13.08-6.07-19.17-9.78c-1.47-0.9-2.92-1.82-4.34-2.77c-0.44-0.3-0.88-0.6-1.32-0.9
		c-2.25-1.56-4.47-3.2-6.59-4.89C126.78,670.49,124.71,668.7,123.24,666.79z M474.42,505.4c2.65,7.9,7.96,12.95,12.56,16.01
		c-1.95,0.02-3.86-0.12-5.75-0.39c-6.85-0.98-11-3.44-15.01-5.83c-3.97-2.36-7.72-4.59-13.29-4.91c-5.47-0.3-8.26,1.58-12.12,4.19
		c-2.93,1.99-6.95,4.71-14.03,7.75c-10.1,4.34-22.67,9.73-36.31,7c-5.1-1.02-8.05-2.75-10.9-4.42c-3.24-1.9-6.59-3.86-12.38-4.31
		c-8.2-0.64-16.62,2.05-25.07,7.98c0-0.01,0-0.01,0-0.02c-0.15-0.67-0.3-1.34-0.46-2.02c-0.43-1.78-0.91-3.57-1.52-5.35
		c-0.61-1.78-1.32-3.55-2.3-5.3c-0.97-1.71-2.24-3.5-4.2-4.8c-0.52-0.35-1.05-0.63-1.6-0.88c-0.98-3.65-2.37-7.2-4.08-10.62
		c-1.13-2.18-2.39-4.31-3.79-6.36c-0.11-0.16-0.22-0.32-0.34-0.47c8.25-7.58,16.18-11.15,23.57-10.58c3.52,0.27,5.6,1.33,8.47,2.79
		c2.63,1.34,5.9,3,11.03,4.29c2.76,0.69,17.24,3.89,31.07-1.09c10.46-3.77,15.25-10.2,19.09-15.37c3.56-4.79,5.61-7.3,9.78-7.46
		c4.43-0.16,7.61,2.68,12,6.63c5.19,4.66,11.64,10.46,22.96,13.7c3.92,1.12,7.98,1.81,12.11,2.04
		C472.77,491.98,472.06,498.38,474.42,505.4z M207.93,794.43l-0.47,0.49c-4.5,4.65-18.2,18.79-40.47,27
		c-5.94,2.19-12.14,3.82-18.47,4.86c-0.65-6.77-0.08-10.09,1.67-13.67c3.63-7.45,13.89-14.01,34.33-27.08
		c7.66-4.9,12.66-7.44,16.31-9.3c5.11-2.6,8.19-4.17,12.75-8.96c7.65-8.05,9.88-15.28,11.85-21.67c1.84-5.96,3.58-11.6,9.56-17.61
		c5.4-5.43,9.31-6.33,14.71-7.56c4.92-1.12,11.03-2.52,19.57-7.92c13.33-8.42,19.93-18.45,25.23-26.52
		c5.08-7.72,8.75-13.31,16.04-13.95c9.05-0.81,20.21,6.06,22.94,14.14c1.33,3.92,0.3,7.32-0.88,11.26
		c-1.27,4.22-2.68,8.95-1.24,14.81C267.69,748.25,226.16,775.73,207.93,794.43z M366.72,704.17c1.12-2.51,2.31-5.2,3.59-8.09
		c0.96-2.17,1.79-4.09,2.52-5.79c3.04-7.05,4.33-9.92,5.73-10.1c3.2-0.44,8.54,5.8,13.03,13.37L366.72,704.17z M632.57,576.64
		c-36.22,26.82-70.67,41.86-93.47,51.8c-8.75,3.82-17.65,7.44-26.56,10.83c5.77-8.3,12.75-14.75,20.82-17.96
		c5.69-2.26,10.24-2.22,14.65-2.19c5.81,0.04,11.81,0.09,19.09-5.26c6.1-4.48,8.4-9.2,10.84-14.18c2.3-4.71,4.68-9.58,10.8-15.08
		c5.77-5.19,9.86-6.39,13.82-7.55c4.02-1.18,8.18-2.4,13.31-7.32c7.2-6.9,8.66-13.78,10.35-21.74c1.49-7.05,3.19-15.04,9.02-25.85
		c4-7.43,13.34-24.73,23.5-24.73c0.09,0,0.18,0,0.27,0c4.37,0.13,11.17,3.62,18.76,19.52c2.56,5.36,4.01,10.35,4.78,15.23
		C667.11,548.53,650.31,563.5,632.57,576.64z M717.35,590.77c-1.01,19.74-8.67,38.41-13.88,38.48c-0.01,0-0.02,0-0.02,0
		c-3.19,0-8.88-8.67-13.87-27.75c-4.69-17.94-3.47-31.22-2.29-44.08c1.27-13.87,2.47-26.97-5.02-42.67
		c-6.96-14.58-14.74-22.11-23.12-22.36c-0.14,0-0.28-0.01-0.42-0.01c-13.14,0-23.09,18.45-27.89,27.36
		c-6.17,11.45-8.02,20.18-9.51,27.19c-1.64,7.74-2.83,13.34-8.91,19.17c-4.25,4.07-7.5,5.02-11.26,6.13
		c-4.28,1.26-9.13,2.68-15.75,8.63c-6.84,6.14-9.55,11.7-11.95,16.6c-2.25,4.61-4.2,8.59-9.31,12.35
		c-5.95,4.37-10.42,4.34-16.1,4.29c-4.66-0.03-9.95-0.07-16.54,2.55c-25.93,10.32-41.47,50.41-42.94,82.89
		c-0.27,5.9-0.05,11.71,0.14,16.83c0.39,10.4,0.72,19.38-3.34,21.38c-2.29,1.13-6.15,0.22-10.32-2.42
		c-5.84-3.71-7.43-9.6-10.07-19.37c-1.36-5.05-3.06-11.34-5.78-18.71c-5.81-15.78-12.19-31.17-20.85-30.73
		c-3.86,0.19-5.52,3.01-9.54,9.83c-1.02,1.74-2.23,3.78-3.7,6.18c-4.65,7.59-9.05,14.77-13,19.96c-5.52,7.26-7.58,7.04-7.8,7
		c-0.33-0.28-0.89-1.86-1.37-3.25c-0.65-1.87-1.54-4.42-3.04-7.63c-1.93-4.13-12.06-24.67-22-23.38c-4.28,0.56-5.86,4.23-9.68,13.08
		c-0.73,1.69-1.55,3.6-2.5,5.75c-7.77,17.59-13.39,30.31-17.84,30.69c-4.03,0.36-9.21-5.84-11.21-11.61
		c-1.84-5.29-0.6-9.41,0.71-13.76c1.31-4.36,2.67-8.87,0.83-14.3c-3.5-10.35-16.64-18.53-28.12-17.52
		c-9.69,0.86-14.36,7.96-19.77,16.19c-5.04,7.66-11.31,17.2-23.72,25.04c-7.82,4.94-13.24,6.18-18.02,7.27
		c-5.51,1.26-10.72,2.45-17.14,8.91c-6.85,6.89-8.85,13.38-10.79,19.66c-1.98,6.43-3.86,12.5-10.7,19.7
		c-3.96,4.17-6.44,5.43-11.39,7.95c-3.75,1.91-8.88,4.51-16.74,9.54c-21.23,13.57-31.88,20.38-36.13,29.1
		c-4.15,8.5-3.02,14.7,3.23,49.11c1.56,8.56,3.49,19.21,5.74,32.08c1.5,8.57,3.2,18.29,0.62,19.92
		c-3.71,2.34-17.29-6.44-26.91-17.41c-30.24-34.45-17.38-98.42-2.49-172.5c2.74-13.63,5.86-27.31,9.25-40.72
		c0.14,0.08,0.28,0.16,0.42,0.24c1.48,0.83,2.97,1.62,4.49,2.37c6.76,3.36,13.87,5.92,21.14,7.63c1.38,1.6,2.99,2.95,4.68,4.13
		c1.08,0.73,2.19,1.4,3.34,1.99c0.59,0.29,1.17,0.57,1.79,0.83c0.63,0.25,1.25,0.41,1.87,0.61c2.51,0.73,5.11,1.06,7.67,0.94
		c2.56-0.15,5.06-0.67,7.39-1.54c2.32-0.86,4.51-2,6.43-3.49c0.02,0.02,0.05,0.03,0.07,0.05c2.23,1.59,4.93,2.95,7.89,3.42
		c1.45,0.22,2.94,0.33,4.58,0.04c1.61-0.31,2.86-0.84,4.06-1.26c2.37-0.89,4.74-1.63,7.18-2.29c2.43-0.66,4.84-1.2,7.3-1.57
		c1.23-0.18,2.5-0.33,3.86-0.57c1.36-0.23,2.75-0.57,4.06-0.99c2.63-0.81,5.21-1.97,7.57-3.41c2.36-1.43,4.49-3.09,6.53-4.76
		c2.03-1.68,3.97-3.38,5.93-5.09c3.91-3.41,7.72-6.97,11.4-10.66l5.43-5.49c1.79-1.78,3.63-3.45,5.57-5.05
		c3.88-3.21,7.99-6.04,12.38-8.4c2.19-1.21,4.46-2.25,6.82-3.31c2.35-1.08,4.83-2.19,7.18-3.81c2.35-1.61,4.37-3.76,5.91-6.07
		c1.57-2.31,2.72-4.78,3.68-7.33c1.83-5.09,2.79-10.64,1.79-16.18c-0.45-2.34-1.3-4.58-2.64-6.63c2.88-0.9,5.69-2.12,8.27-3.83
		c3.05-2,5.71-4.69,7.63-7.94c0.96-1.62,1.69-3.42,2.15-5.24c0.47-1.81,0.77-3.64,1.03-5.4c0.52-3.54,1.02-6.92,2-10.21
		c0.96-3.27,2.28-6.46,3.79-9.52c0.76-1.53,1.6-2.97,2.54-4.46c0.92-1.48,1.97-3.19,2.7-5.03c0.76-1.84,1.22-3.68,1.6-5.52
		c0.37-1.85,0.63-3.72,0.77-5.59c0.22-3.04,0.12-6.07-0.26-9.06c8.13-6.21,16.1-9.06,23.69-8.47c4.65,0.36,7.12,1.81,10.24,3.64
		c3.05,1.79,6.51,3.82,12.44,5c2.88,0.58,5.71,0.83,8.49,0.83c11.83,0,22.54-4.6,30.78-8.13c7.51-3.23,11.76-6.1,14.86-8.21
		c3.6-2.44,5.24-3.55,9.03-3.34c4.35,0.25,7.29,2,11.02,4.22c4.23,2.51,9.02,5.36,16.86,6.48c5.11,0.73,10.38,0.55,15.66-0.54
		l9.14-1.88l-8.85-2.94c-2.2-0.73-13.35-4.97-17.31-16.8c-2.55-7.6-0.79-14.37,0.48-17.72l1.28-3.39l-3.62,0c-0.02,0-0.04,0-0.06,0
		c-4.81,0-9.53-0.66-14.05-1.95c-10.21-2.92-15.94-8.07-20.99-12.61c-4.87-4.38-9.1-8.16-15.54-7.91
		c-6.75,0.26-10.08,4.74-13.6,9.47c-3.62,4.87-7.73,10.39-16.77,13.65c-12.47,4.5-25.65,1.58-28.16,0.95
		c-4.58-1.15-7.45-2.61-9.97-3.9c-3-1.53-5.84-2.98-10.36-3.32c-8.72-0.66-17.79,3.23-26.99,11.57c0,0,0,0,0,0
		c-0.37-0.46-0.74-0.91-1.12-1.37c-3.14-3.79-6.7-7.38-11.12-10.16c-2.22-1.37-4.72-2.47-7.48-2.99c-0.68-0.17-1.39-0.21-2.1-0.24
		l-1.07-0.05l-1.08,0.09c-1.43,0.08-2.86,0.45-4.2,0.97c-2.7,1.08-4.89,2.91-6.67,4.79c-1.05,1.14-1.98,2.26-2.88,3.37
		c-4.37-2.1-9.01-3.74-13.92-4.54c-0.47-0.08-0.95-0.14-1.43-0.2c-2.14-0.24-4.33-0.29-6.53-0.09c-0.3,0.03-0.59,0.06-0.89,0.1
		c-1.49,0.22-2.98,0.55-4.42,1.05c-1.45,0.5-2.86,1.16-4.16,1.91c-2.6,1.48-4.86,3.12-7.17,4.41c-2.31,1.26-4.63,2.16-6.98,2.26
		l-0.88,0.02l-0.88-0.06c-0.23-0.01-0.45-0.04-0.67-0.07c22.65-12.02,43.36-27.24,61.62-45.31c19.08-18.88,35.06-40.46,47.57-64.18
		c0.09,0.16,0.19,0.31,0.28,0.47c0.42,0.71,0.81,1.44,1.18,2.19c0.48,0.88,0.86,1.82,1.28,2.74c0.05,0.12,0.1,0.23,0.15,0.34
		c0.44,1.05,0.85,2.16,1.33,3.27c0.99,2.17,2.15,4.51,4.24,6.08c1.05,0.75,2.27,1.24,3.51,1.35c0.35,0.03,0.7,0.04,1.04,0.01
		c0.01,0.08,0.01,0.15,0.02,0.23c0.22,2.16,0.82,4.43,2.14,6.53c0.66,1.05,1.54,2,2.57,2.79c0.51,0.39,1.15,0.76,1.73,1.02
		c0.59,0.26,1.12,0.45,1.61,0.62c1.91,0.63,3.67,1.24,5.52,1.92l5.53,2.03l4.77,1.73c0.01,0.22,0.02,0.44,0.04,0.67
		c0.09,1.16,0.27,2.52,1.18,3.75c0.44,0.62,1.05,1.07,1.73,1.43c0.72,0.34,1.55,0.46,2.28,0.4c1.43-0.15,2.49-0.58,3.51-0.84
		c1.02-0.29,2-0.48,2.99-0.55c0.99-0.06,1.98,0.01,2.97,0.14c0.99,0.17,1.91,0.43,2.77,0.8c0.86,0.38,1.67,0.9,2.59,1.54
		c1.82,1.3,4.15,2.58,6.47,3.2c4.53,1.35,9.54,1.72,14.34,0.29c2.35-0.72,4.74-1.9,6.65-3.63c1.92-1.7,3.23-3.53,4.63-4.54
		c0.7-0.53,1.46-0.89,2.3-1.2c0.84-0.32,1.74-0.51,2.49-0.51c0.77-0.02,1.53,0.14,2.6,0.44c1.05,0.29,2.28,0.62,3.53,0.8
		c2.52,0.35,4.92,0.35,7.49-0.14c0.36-0.07,0.71-0.15,1.06-0.24l2.67,4.97c2.82,5.24,4.48,11.12,4.81,17
		c0.26,4.65-0.28,9.29-1.6,13.79l-1.39,4.69l4.62-1.63c3.3-1.16,6.71-1.8,10.13-1.9c11.39-0.29,20.04,5.48,24.2,8.95l2.17,1.82
		l1.53-2.38c1.92-2.97,4.19-5.67,6.75-8.03c4.35-4.01,8.75-6.3,12.29-8.14c4.31-2.25,8.04-4.19,8.25-8.2
		c0.12-2.21-0.98-3.46-2.04-4.67c-0.92-1.04-2.18-2.48-3.67-5.44c-1.2-2.39-1.59-3.87-1.91-5.06c-0.39-1.48-0.76-2.87-2.28-4.42
		c-4.57-4.64-13.24-4.26-19.35-1.94c-3.74,1.41-5.29,3.11-6.66,4.61c-1.09,1.2-2.03,2.24-4.36,3.27c-5.6,2.47-12.99,1.98-20.81-1.38
		c-2.47-1.06-4.81-2.44-6.94-4.1l-3.61-2.8c1.06-0.48,2.06-0.99,2.98-1.49c1.98-1.08,3.84-2.08,5.8-2.99
		c1.94-0.91,3.95-1.7,5.98-2.46c2.04-0.75,3.99-1.34,6.12-1.83c2.16-0.5,4.44-1.07,6.59-1.78c4.33-1.41,8.53-2.89,12.76-4.78
		c2.09-0.98,4.22-1.98,6.25-3.69c0.99-0.87,1.97-2.04,2.53-3.37c0.27-0.61,0.52-1.37,0.62-2.14c0.09-0.75,0.07-1.42,0.03-2.05
		c-0.19-2.32-0.64-4.37-1.08-6.45c2.45,0.32,4.99,0.26,7.46-0.27c3.14-0.61,6.13-1.9,8.89-3.52c5.51-3.33,10.01-8.04,13.87-13.01
		c0.96-1.21,1.93-2.5,2.84-3.75c0.91-1.24,1.78-2.46,2.72-3.56c0.93-1.11,1.92-2.11,2.98-3.03c0.54-0.46,1.1-0.89,1.67-1.3
		c0.6-0.41,1.17-0.81,1.73-1.11c0.58-0.32,1.12-0.56,1.75-0.78c0.61-0.23,1.52-0.46,2.52-1.03c1-0.55,1.73-1.27,2.4-1.98
		c0.67-0.76,1.24-1.66,1.66-2.59c0.78-1.88,0.99-3.63,1.18-5.24c0.16-1.63,0.25-3.18,0.36-4.73c0.14-2.58,0.3-5.12,0.5-7.67
		c4.21,0.05,8.4,0.45,12.49,1.23c18.46,3.53,31.88,13.79,39.9,21.78l1.51,1.51l1.72-1.26c4.2-3.06,17.89-14.35,17.71-31.32
		c-0.02-2.3-0.07-6.57-2.28-11.25c-7.04-14.92-27.71-17.62-49.6-20.47c-11.32-1.48-22.96-2-34.63-1.57c0,0,0-0.01,0-0.01
		c-0.09-0.41-0.19-0.82-0.3-1.23c-0.55-1.99-1.56-4.21-3.43-5.86c-1.85-1.67-4.26-2.42-6.45-2.68c-2.11-0.21-4.11-0.08-6.05,0.24
		h-0.01c-2.95-2.71-5.73-5.55-8.19-8.6c-0.79-0.97-1.53-1.95-2.32-2.98c-0.4-0.52-0.81-1.05-1.38-1.6
		c-0.55-0.55-1.33-1.07-2.11-1.36l-0.58-0.2l-0.59-0.12c-0.4-0.07-0.79-0.19-1.2-0.17c-0.4,0.01-0.82-0.02-1.22,0.03l-1.18,0.21
		c-1.53,0.4-2.81,1.1-3.97,1.78c-1.17,0.7-2.21,1.42-3.22,2.02c-1.02,0.58-1.99,1.12-2.92,1.34c-0.92,0.24-1.78,0.23-2.65,0.07
		c-0.88-0.25-1.43-0.54-2.1-1.24c-0.66-0.66-1.45-1.86-2.72-2.94c-1.25-1.11-2.9-1.84-4.43-2.17c-1.55-0.37-3.14-0.38-4.62-0.19
		c-1.5,0.19-2.91,0.57-4.25,1.05c-2.65,1.01-5,2.41-7.19,3.85c-1.06,0.71-2.18,1.48-3.24,2.31s-2.07,1.69-3.01,2.52
		c-0.94,0.81-1.83,1.56-2.61,2c-0.38,0.21-0.73,0.32-1.07,0.4c-0.35,0.06-0.75,0.07-1.14,0.01c-0.8-0.12-1.31-0.44-2.57-1.33
		c-0.32-0.21-0.75-0.49-1.4-0.69c-0.63-0.2-1.5-0.23-2.15,0.03c-1.35,0.48-2.04,1.42-2.43,2.1c-0.01,0.01-0.02,0.03-0.02,0.04
		c-4.64-0.91-9.49-0.91-14.24-0.07c-2.29,0.39-4.59,1.03-6.8,1.92c-0.43,0.17-0.86,0.36-1.28,0.55c-2.61,1.17-4.92,2.72-7.1,3.99
		c-0.25,0.15-0.5,0.29-0.76,0.43l26.22-30.85c25.55-1.37,50.74-2.7,76.99-4.05c29.28-1.51,42.63-2.06,52.24,0.91
		c16.02,4.96,22.44,12.77,29.24,21.04c6.9,8.4,14.03,17.08,30.83,23.82c11.35,4.56,19.81,5.22,29.61,5.99
		c11.11,0.87,24.94,1.96,48.18,9.39c7.31,2.33,13.62,4.35,22.23,8.08c13.15,5.7,21.69,11.12,29.22,15.9
		c8.47,5.38,15.78,10.02,27.16,13.79c8.48,2.81,17.51,4.49,26.91,5.03c-4.04,9.52-9.04,18.57-14.89,26.91
		c-14.46,20.59-28.08,28.43-41.26,36.02c-11.36,6.54-22.09,12.72-32.7,26.17c-19.75,25.04-33.79,71.04-22.4,110.5
		c0.87,3.01,1.86,5.9,2.92,8.95C714.59,565.53,718.12,575.79,717.35,590.77z M465.32,435.19c-0.22-3.95-0.98-7.9-2.22-11.69
		c0.37,0.17,0.74,0.34,1.12,0.51c9.25,3.97,17.83,4.44,24.81,1.35c3.29-1.46,4.75-3.06,6.04-4.47c1.18-1.29,2.11-2.32,4.73-3.31
		c4.68-1.77,11.18-2.1,14.01,0.78c0.58,0.58,0.68,0.91,1.02,2.19c0.35,1.34,0.84,3.17,2.27,6.03c1.78,3.53,3.35,5.32,4.39,6.49
		c0.33,0.38,0.74,0.85,0.8,1c0,0,0,0.03,0,0.1c-0.06,1.17-2.61,2.5-5.57,4.03c-3.6,1.88-8.53,4.44-13.37,8.91
		c-2.21,2.03-4.22,4.29-6.01,6.73c-5.07-3.74-13.58-8.43-24.37-8.43c-0.34,0-0.68,0-1.02,0.01c-2.47,0.07-4.94,0.39-7.38,0.95
		C465.28,442.68,465.54,438.94,465.32,435.19z M955.23,363.75c-11.31,8.98-21.2,10.87-37.57,14c-6.12,1.17-13.05,2.5-21.19,4.42
		c-11.33,2.67-45.8,10.82-77.73,28.33c-31.99,17.54-52.11,39.77-79.95,70.53l-0.87,0.96c-10.02,11.06-19.67,22.63-28.76,34.45
		c-0.01-29.61,11.16-59.08,25.43-77.18c10.01-12.7,20.34-18.64,31.27-24.93c13.65-7.86,27.76-15.98,42.86-37.48
		c6.41-9.13,11.84-19.08,16.14-29.57l0.31,0.01c0.38-15.97,4.34-30.65,11.76-43.65c16.47-28.86,52-54.03,88.03-46.29
		c26.57,5.71,54.75,28.74,55.9,57.4C981.9,341.21,959.69,360.21,955.23,363.75z"/>
</g>
</svg>
