<?xml version="1.0" encoding="utf-8"?>
<!-- Generator: Adobe Illustrator 25.0.0, SVG Export Plug-In . SVG Version: 6.00 Build 0)  -->
<svg version="1.1" id="Camada_1" xmlns="http://www.w3.org/2000/svg" xmlns:xlink="http://www.w3.org/1999/xlink" x="0px" y="0px"
	 viewBox="0 0 1080 1080" style="enable-background:new 0 0 1080 1080;" xml:space="preserve">
<style type="text/css">
	.st0{fill:#010202;}
</style>
<path class="st0" d="M890.51,597.52c-15.98-37.58-40.35-47.68-66.13-68.55c-3.72-17.2-9.12-34.27-16.92-49.86
	c22.38-58.46,21.67-158.99-39.13-221.25c88.84,52.21,85.58,191.24,47.87,241.56l3.48,2.04c26.04-47.14,49.22-127.72-9.37-209.65
	c-22.69-62.41-90.23-100.74-165.52-92.05c20.48-15.55,80.53-62.03,101.73-78.44c-23.21,17.13-83.69,61.76-105.93,78.48
	c-89.55,0.13-172.99,33.58-241.28,86.99c-10.89-1.46-43.51,10.33-50.98,29.29c-11.1,1.36-20.74,8.13-26.96,17.98
	c-9.6,3.82-17.52,10.24-24.05,19.04c-10.96,1.63-16.23,10.15-17.18,22.99c-15.31,3.63-19.55,18.78-20.89,30.85
	c-6.97,0.97-17.69,9.61-9.76,17.2c-16.03,0.54-19.09,69.38-15.99,83.98l-53.59,41.45l53.88-39.8c1.41,7.81,3.58,15.47,6.54,22.91
	l1.23-0.49l-1.2,0.57c0.24,0.53,0.5,1.1,0.75,1.66c-81.93,82.4-68.9,225.39-15.37,317.63l0,0c20.84,37.83,63.43,42.1,102.13,53.08
	c8.59,10.56,21.87,13.96,34.91,10.96c19.79,9.25,41.99,9.5,63.19,13.05l-0.01,0.05c73.81,10.45,150.21,9.77,223.66,1.52l0,0.06
	c49.89-4.39,103.24-6.32,147.38-28.07C844.5,871.12,911.89,652.03,890.51,597.52z M822.43,527.54
	c-30.68-22.51-63.27-44.55-97.28-65.79C773.36,463.11,806.09,505.26,822.43,527.54z M718.36,457.98
	c-68.97,13.91-122.57,97.58-165.55,133.57c-48.8,49.62-207.38,108.32-286.44-20.62c114.74,113.61,266.42,11.15,380-108.03
	c24.35-18.96,56.67-64.76,87.05-57.39c48.62,17.42,67.54,66.89,82.63,106.82C798.08,489.96,762.03,454.04,718.36,457.98z
	 M855.33,704.77c0-0.03,0-0.06,0-0.08l-0.01,0c-22.14-105.41-104.47-140.57-205.59-203.21c4.64-3.99,9.54-8.1,14.75-12.36
	c105.53,29.77,240.67,138.06,195.48,282.89C861.8,749.49,860.26,726.72,855.33,704.77z M842.12,783.71
	c-31.74,85.77-49.08,95.95-91.58,125.68c46.93-48.57,96.57-108.91,86.39-180.23l-0.03,0c-13.21-112.93-120.14-154.33-196.71-219.33
	c2.04-1.82,4.15-3.67,6.31-5.56C767.25,574.57,886.47,640.58,842.12,783.71z M662.08,925.74c-0.49,0.04-0.96,0.07-1.47,0.11
	c103.21-37.48,202.08-187.47,111.83-310.59c30.98,27.19,55.92,72.69,60.41,114.01C836.24,761.65,779.5,923.93,662.08,925.74z
	 M766.84,711.82c-21.1-96.98-85.03-141.47-145.14-184.89c4.76-4.58,9.89-9.37,15.45-14.38c40.76,33.61,81.66,59.44,119.76,89.26
	c87.47,91.3,35.35,237.69-38.59,285.04C763.1,841.39,779.98,779.78,766.84,711.82L766.84,711.82z M618.72,529.81
	c76.1,46.67,184.56,153.42,125.88,264.87c-6.64,34.25-71.5,118.29-133.11,127.96c172.83-72.53,122.1-303.8-17.15-367.83
	C601.44,547.21,609.36,538.93,618.72,529.81z M871.61,694.79c-25.91-132.22-112.47-173.01-203.42-208.67
	c10.71-8.52,19.68-14.38,28.19-18.22c108.77,62.01,225.11,132.38,175.65,265.27C873.15,720.33,873.05,707.49,871.61,694.79z
	 M565.46,585.25c22.59,12.73,79.95,79.15,80.91,143.2c-9.04-42.49-35.75-102.99-88.97-135.64
	C560.15,590.35,562.83,587.83,565.46,585.25z M650.78,754.24l0.13-0.02c9.31-70.38-51.69-155.22-82.57-171.85
	c2.47-2.48,4.95-5.04,7.43-7.67c152.72,88.33,136.4,287.2-24.85,342.67C590.63,900.6,654.51,816.91,650.78,754.24z M509.57,625.62
	c90.38,114.31,30.87,266.93-90.04,293.29c101.33-80.71,149.62-172.02,79.15-287.66C502.46,629.39,506.1,627.51,509.57,625.62z
	 M477.17,640.6c11.31,46.65,8.56,102.3-4.88,146.05c2.35-47.49-1.87-94.24-12.92-140.04C465.5,644.82,471.45,642.79,477.17,640.6z
	 M244.26,819.91c-6.65-20.02,6.13-171.87,16.37-250.3c3.83,5.79,8.13,11.76,12.93,17.74c-5.77,100.09-21.43,189.32-20.55,287.81
	c-0.09-0.07-0.18-0.14-0.28-0.2C248.92,856.88,246.06,838.37,244.26,819.91z M225.35,839.74c-25.68-64.12-48.67-191.84,14.16-280.23
	C210.57,649.61,205.64,747.18,225.35,839.74z M248.13,538.71c114.94,79.57,261.14,19.11,362-47.45
	C498.67,613.54,329.03,672.76,248.13,538.71z M392.17,654.17c12.63,65.78-2.79,103.75-44.06,166.13
	c23.59-53.79,35.07-109.69,33.73-167.3C385.31,653.51,388.75,653.9,392.17,654.17z M377.8,652.33
	c1.58,64.37-12.85,126.3-42.38,185.52c15.96-62.35,23.68-126.09,22.75-190.2C364.58,649.75,371.31,651.21,377.8,652.33z
	 M354.14,646.34c-3.52,82.43,0.41,178.61-55.37,245.02c-7.94,3.54-14.37-3.65-11.37-9.21c15.3-30.25,26.48-61.97,34.3-94.53
	l-0.07-0.02c11.81-49.8,14.16-101.63,7.34-152.45C336.8,639.49,345.18,643.28,354.14,646.34z M324.6,632.66
	c10.9,83.28,4.9,179.06-60.71,239.21c36.7-78.07,54.94-159.42,53.65-243.67C319.84,629.73,322.19,631.22,324.6,632.66z
	 M313.48,625.43c1.67,83.15-15.77,163.57-51.38,240.76c15.56-86.48,24.76-173.82,27.12-261.33
	C296.48,612.13,304.55,619.11,313.48,625.43z M283.14,654.21c-4.09,72.42-12.89,145.43-26.07,217.17
	c-0.59-95.79,14.47-182.01,20.21-279.52c2.55,3.02,5.23,6.02,8.03,8.99C284.86,618.58,284.13,636.52,283.14,654.21z M286.1,853.16
	c9.2-11.72,17.16-24.34,23.86-37.71c-6.89,22.23-15.62,43.95-26.22,65.02c-0.53,1.27-2.02,5.64,0,9.73
	c-8.17-2.5-15.84-5.82-22.9-9.95C270,871.92,278.5,862.84,286.1,853.16z M315.78,895.34c-4.18-0.15-8.8-0.71-12.75-2.92
	c58.13-82.32,114.31-149.68,93.32-237.93c4.19,0.23,8.33,0.37,12.5,0.21C423.59,749.03,371.68,818.48,315.78,895.34z M414.87,699.94
	c0.53-15.08-0.16-30.31-1.99-45.33c6.21-0.27,12.31-0.9,18.31-1.77c22.2,84.45-5.42,196.64-86.06,239.45
	C385.69,825.67,409,775.16,414.87,699.94z M258.62,483.34c-6.25-8.09-10.87-17.57-13.85-28.22c8.54,8.82,17.82,16.5,27.74,23.01
	l-11.11,8.51C260.46,485.55,259.5,484.48,258.62,483.34z M326.46,440.76c91.01,13.29,167.2-8.51,252.42-56.94
	c47.93-27.87,200.61-127.33,175.29-7.23c-38.96-143.6-237.04,149.22-452.49,82.68C304.56,457.11,324.14,442.53,326.46,440.76z
	 M388.52,471.61c120.66,15.33,331.46-206.95,359.36-101.94c-16.64-26.88-50.46-13.83-68.2,0.73
	c-29.44,19.82-61.31,34.14-90.96,53.68c-95.6,53.37-209.8,107.6-310.66,52.79l19.24-14.35
	C337.02,470.34,370.22,471.65,388.52,471.61z M275.89,475.55c-11.35-7.3-21.85-16.25-31.37-26.64c16.11,5.16,32.78,9.57,49.31,12.9
	L275.89,475.55z M274.59,479.47c96.51,56.62,219.01,3.78,316.36-52.02c29.63-19.52,61.5-33.84,90.99-53.71
	c15.08-11.38,42.31-25.79,58.84-6.4c-19.61-13.26-47.43,4.94-56.2,16.14c-36.38,45.46-318.36,219.79-421.78,104.79L274.59,479.47z
	 M751.02,323.1c-87.33-45.47-230.08,151.99-419.88,114.14l18.92-14.22c73.13,3.34,146.3-18.9,220.55-63.89
	c48.03-25.02,85.85-59.81,137.41-61.26c57.59-4.31,72.93,35.07,53.63,88.08c-1.46-1.84-2.94-3.61-4.45-5.28
	C759.52,373.28,768.93,339.38,751.02,323.1z M473.87,381.66c11.74-3.62,102.74-36.36,130.02-46.4
	c-77.15,49.23-167.24,88.48-249.01,84.13l42.68-32.08C447.37,387.2,473.47,381.74,473.87,381.66z M759.29,307.72
	c-35.52-29.71-99.34-8.49-137.05,16.54c-35.28,13.05-124.49,45.2-149.22,53.45c-0.38,0.08-24.3,5.07-70.05,5.53l33.76-25.37
	c62.1-5.03,86.41,1.18,166.19-36.34c94.38-62.04,207.91-74.2,174.89,90.07c-4.1-7.9-8.53-15.32-13.3-21.87
	C778.17,356.09,776.21,324.74,759.29,307.72z M486.95,324.55c41.72-2.58,152.92-54.02,217.06-48.56
	c-40.71,5.47-72.01,23.6-102.98,41.98c-75.77,35.95-101.66,30.88-158.6,35.62c9.13-6.84,28.54-21.46,37.46-28.29
	C482.46,325.04,484.85,324.79,486.95,324.55z M486.09,320.59c25.91-22.05,59.35-15.56,97.53-25.94
	C531.85,310.45,505.44,318.38,486.09,320.59z M752.08,280.63c-3.81-2.07-7.83-3.54-11.98-4.56l0-0.01
	c-39.69-8.32-85.99-3.82-121.8,8.01l0-0.01c-42.84,8.13-79.55,14.71-110.11,19.74l34.36-26.11
	c158.01-29.76,302.78-71.2,250.85,169.89c-3.75-10.22-8-20.53-12.73-30.28C796.11,354.33,784.41,298.19,752.08,280.63z
	 M590.54,237.2c-18.79,0.1-39.71,1.36-62.48,4.65c24.57-6.84,49.35-11.35,74.2-13.46L590.54,237.2z M522.38,246.77
	c22.78-3.64,43.75-5.14,62.7-5.46l-21.21,15.94c-34.9,0.09-59.54-0.64-100.76,3.17C482.54,254.54,502.39,249.95,522.38,246.77z
	 M590.5,241.23c45.74,0.47,71.74,3.56,111.49,9.58c-15.2-0.27-37.05-0.35-50.37,1.48l0-0.04c-28.97,2.67-56.41,4.3-82.07,4.89
	L590.5,241.23z M619.58,258.87c-20.57,5.66-35.32,10.47-70.91,14.16l15.47-11.76C581.79,260.96,600.28,260.17,619.58,258.87z
	 M804.91,474.08c-3.63-6.35-7.19-12.59-9.12-19.83c13.63-49.65,15.93-95.15,7.81-130.22C824.32,376.61,817.99,439.52,804.91,474.08z
	 M774.78,270.6c-54.25-32.96-114.39-27.89-178.98-33.39c1.66-1.26,10.79-8.19,12.22-9.3C669.15,225.73,737.15,221.56,774.78,270.6z
	 M747.89,222.88c25.66,15.77,42.01,37.81,52.19,56.93c-20.85-22.3-44.5-35.79-62.81-43.65l-0.02,0.04
	c-32.9-15.66-82.58-13.51-123.62-12.6l25.81-19.76C685.31,203.33,715.72,203.12,747.89,222.88z M475.13,243.57
	c47.28-24.45,103.92-38.45,159.89-39.63l-26.73,19.94c-37.47,2.58-74.89,10.46-111.61,23.65l0,0.01
	c-18.55,4.04-36.87,9.25-54.73,15.57C452.64,256,463.75,249.46,475.13,243.57z M415.19,278.57c37.16-22.64,103.03-15.5,143.2-17.2
	l-16.39,12.32c-86.77,8.56-123.66,11.65-136.38,12.65C408.66,283.51,411.8,280.85,415.19,278.57z M362.95,304.25
	c13.84-11.97,30.86-13.06,37.25-13.48c0.1,0,27.22-1.77,135.61-12.43l-35.58,26.74c-82.07,13.79-88.97,9.89-146.96,10.53
	C356,311.31,359.22,307.48,362.95,304.25z M337.94,323.58c60.94-11.33,74.15,3.35,155.42-13.32l-14.79,11.12
	c-41.4,5.08-110.25,6.02-150.64,10.56C330.84,328.46,334.17,325.63,337.94,323.58z M318.88,339.6
	c44.05-12.34,104.51-6.19,153.52-13.58c-6.89,5.12-29.58,22.4-36.78,27.87c-48.72,1.98-107.51,2.93-132.98-0.99
	C307.34,347.23,312.75,342.71,318.88,339.6z M291.39,359.56c5.19-3.71,12.05-2.63,14.46-2.25c21.1,3.3,78.98,2.57,124.17,0.83
	l-33.07,25.14c-28.92,0.3-68.88-2.37-112.75-7.54C284.87,367.96,287.28,362.51,291.39,359.56z M265.91,395.27
	c0.76-6.78,13.39-18.7,21.52-15.27c41.46,5.25,76.3,7.11,104.22,7.29L350,418.95c-23.63-2.65-52.49-15.39-86.67-12.74
	C263.66,402.4,264.5,398.73,265.91,395.27z M256.28,412.26c17.21-8.32,64.29,5.45,89.13,10.19l-18.8,14.29
	C284.67,430.04,235.14,427.06,256.28,412.26z M246.3,429.6c19.6-3.98,24.81,5.9,75.7,10.63l-1.37,1.04l-22.54,17.26
	c-18.56-3.59-37.46-8.56-55.49-14.48C242.07,436.83,243.32,431.86,246.3,429.6z M235.9,490.25c-0.18-11.82,1.42-23.48,4.77-34.75
	c3.57,12.93,9.17,24.1,17.54,33.59c-4.86,3.69-16.15,12.42-21.07,16.24C236.39,500.35,235.98,495.32,235.9,490.25z M237.41,507.1
	c5.19-3.82,17.11-12.64,22.14-16.41c105.82,117.77,389.64-57.23,427.84-104.34c41.55-48.53,83.68,4.52,101.77,61.34
	c-25.31-41.03-67.38-67.89-109.1-22.25l-0.01-0.01c-104.8,102.79-289.39,207.64-436.17,105.24
	C240.88,523.02,238.72,515.14,237.41,507.1z M207.06,798.41c-35.69-79.56-27.56-195.17,35.89-260.01c0.84,1.76,1.76,3.63,2.75,5.57
	c-63.75,76.78-57.6,196.71-33.87,267.84C210.29,807.55,208.72,803.1,207.06,798.41z M233.09,855.7
	c-24.71-101.14-20.21-209.6,14.68-307.75c2.67,5.04,5.8,10.54,9.41,16.31c-13.78,122.72-27.89,233.82-9.28,307.04
	C242.07,866.48,237.25,861.32,233.09,855.7z M321.26,897.99c-0.54-0.35-1.08-0.69-1.63-1.02c36.51-44.82,58.86-88.12,80.12-131.26
	C389.9,791.06,348.98,914.72,321.26,897.99z M341.54,910.69c-3.25-1.45-6.25-3.57-8.94-6.33
	c89.56-41.19,127.74-154.17,102.57-252.12c6.95-1.16,13.73-2.69,20.31-4.5c12.13,50.31,15.94,101.83,11.78,154.02
	C446.75,859.19,386.74,922.56,341.54,910.69z M419.71,881.44c45.12-28.13,87.2-163.25,61.36-241.85l-3.2,0.73
	c1.38-0.54,2.77-1.07,4.13-1.62c41.63,103.17,25.29,180.67-65.32,245.43C417.69,883.25,418.7,882.37,419.71,881.44z M370.66,915.02
	c120.52-58.03,169.15-148.88,115.06-277.87c3.19-1.36,6.3-2.75,9.32-4.18c40.69,67.72,50.55,146.79-10.99,215.31
	C456.15,880.34,420.32,939.25,370.66,915.02z M415.87,923.86c126.33-24.41,190.29-181.78,97.25-300.22
	c7.18-4.03,13.61-8.04,19.16-11.74c70.46,73.36,95.34,238.49-27.96,300.01l-0.01-0.02C474.71,924.59,445.34,928.66,415.87,923.86z
	 M457,928.86l0,0.03c-0.04,0-0.08-0.01-0.12-0.01C456.93,928.87,456.96,928.86,457,928.86z M467.79,929.34
	c157.66-37.73,154.27-226.88,67.86-319.71c9.58-6.57,16.06-11.85,18.65-14.05c139.47,96.57,103.6,269.39-20.91,326.79l0.01,0.03
	C512.6,927.49,490.51,929.89,467.79,929.34z M498.34,932.35c199-15.71,259.3-258.71,80.32-360.66c4.95-5.29,9.86-10.65,14.96-16.11
	l-1.34,2.69C790.74,661.43,746.88,959.35,498.34,932.35z M591.87,931.4c105.75-16.22,166.16-119.73,173.53-202.6
	c10.28,71.58-21.44,142.79-79.31,178.04l0.01,0.01C654.79,926.77,626.99,934.48,591.87,931.4z M714.21,921.12
	c-6.63,1.22-11.59,1.73-19.81,2.33C782.74,903.22,829.44,790.14,834.08,747C840.87,796.04,765.01,917.69,714.21,921.12z
	 M842.08,820.74c-32.33,76.19-33.57,80.9-89.91,92.32c46.94-22.08,101.38-103.62,103.05-185.31
	C859.39,759.87,856.26,791.07,842.08,820.74z M888.49,659.28c-21.67-102.67-94.45-136.87-187.42-193.3c5.62-2.09,11.16-3.33,17-3.91
	c45.31,28.07,88.17,57.59,127.38,87.77C878.77,572.75,900.86,607.51,888.49,659.28z"/>
</svg>
