<?xml version="1.0" encoding="utf-8"?>
<!-- Generator: Adobe Illustrator 25.0.0, SVG Export Plug-In . SVG Version: 6.00 Build 0)  -->
<svg version="1.1" id="Camada_1" xmlns="http://www.w3.org/2000/svg" xmlns:xlink="http://www.w3.org/1999/xlink" x="0px" y="0px"
	 viewBox="0 0 1080 1080" style="enable-background:new 0 0 1080 1080;" xml:space="preserve">
<style type="text/css">
	.st0{fill:#010202;}
</style>
<path class="st0" d="M815.14,311.7c-73.4-23.47-170.98-36.57-274.78-36.87c-101.65-0.3-197.86,11.78-270.9,34
	C195.59,331.31,153.06,362,149.7,395.24c-0.15,1.36-0.22,2.76-0.22,4.19c-0.01,3.56,0.43,7.15,1.31,10.68
	c1.74,6.96,3.7,15.21,5.05,23.55c5.66,34.89,9.35,57.74,11.47,70.89l0.17,1.06c9.18,56.85,13.14,81.52,29.69,95.68
	c0.4,7.51,1,15.08,1.79,22.65c-2.32,2.07-5.23,5.58-6.07,10.63c-1.42,8.49,3.76,15.99,10.01,19.59c4.25,29.15,8.7,49.77,22.82,67.22
	c9.75,12.05,19.95,17.55,36.85,26.68c38.44,20.76,72.6,27.75,89.01,31.11c69,14.13,103.62,21.22,138.1,24.22
	c0.52,0.05,20.3,1.68,52.24,1.78c54.16,0.16,143.29-4.13,232.69-28.19c13.27-3.58,58.7-17.71,85.88-49.61
	c9.6-11.27,15.47-23.06,16.11-24.37c7.03-14.39,9.34-26.8,11.72-49.86c6.13-0.4,11.2-3.04,13.62-7.2c1.92-3.33,2.19-7.75,0.78-12.15
	c-1.79-5.54-5.95-10.33-11.56-13.39c0.82-11.33,1.48-22.73,1.94-34.1c12.51-8.47,21.74-31.04,28.05-68.48
	c5.85-34.67,7.75-74.05,8.32-100.97c0.08-3.71,0.45-7.41,0.79-10.54c0.17-1.52,0.26-3.06,0.26-4.58
	C930.62,367.5,889.65,335.53,815.14,311.7z M871.02,700.27c-0.6,1.23-6.15,12.37-15.26,23.06c-26.01,30.55-69.93,44.19-82.76,47.65
	c-141.04,37.96-281.38,26.34-282.78,26.22c-34.12-2.96-68.63-10.03-137.39-24.11c-16.13-3.3-49.68-10.17-87.31-30.5
	c-17.57-9.48-26.38-14.52-34.97-25.12c-12.24-15.13-16.69-32.58-21-61c3.33,0.51,6.4,0.07,8.77-0.56c0.27,3.27,1.3,7.2,4.08,10.73
	c5.35,6.78,14.86,9.29,24.21,6.73c0.36,2.8,1.34,5.9,3.47,8.7c5.39,7.1,16.13,9.41,26.45,5.99c1.55,3.89,4.71,9.28,10.97,12.76
	c7.48,4.14,16.83,3.95,24.69-0.3c3.19,5.84,9.87,14.96,22.13,19.63c16.25,6.2,30.84-0.1,36.61-3.27
	c3.57,4.09,10.46,10.13,20.58,11.17c2.53,0.26,10.23,1.05,17.69-3.75c1.55-1,2.99-2.17,4.29-3.51c2.56,2.18,6.39,4.64,11.44,5.79
	c7.57,1.73,13.99-0.3,17.74-2.08c3.46,3.79,10.86,10.17,22.13,11.3c11.13,1.11,19.58-3.53,23.75-6.52
	c5.81,4.91,14.71,10.52,26.69,12.67c18.59,3.36,33.57-3.66,40.59-7.93c5.23,3.58,17.32,10.22,32.55,7.86
	c9.32-1.45,16.33-5.66,20.96-9.43c6.47,3.86,17.93,9.01,32.64,8.72c15.59-0.32,27.33-6.55,33.97-11.22
	c4.52,4.6,16.01,14.33,32.45,14.37c1.54,0,3.13-0.07,4.75-0.25c15.78-1.73,29.52-12.14,35.96-26.94c4.37,2.58,8.99,4.18,13.8,4.76
	c14.74,1.75,29.93-6.22,40.32-20.99c3.76,2.82,9.98,6.16,17.7,5.47c11.53-1.03,21.27-10.69,24.06-23.43
	c5.59,0.47,14.09,0.06,22.76-4.55c5.46-2.9,9.54-6.69,12.58-10.56C878.42,681.03,875.94,690.2,871.02,700.27z M896.81,635.69
	c0.89,2.73,0.79,5.34-0.24,7.13c-1.21,2.1-4.1,3.57-7.63,4.02c-1.05,0.14-2.15,0.19-3.28,0.13l-2.59-0.12l-0.58,2.52
	c-0.02,0.06-0.03,0.12-0.04,0.19c-0.95,4-4.87,16.57-17.63,23.36c-8.83,4.71-17.51,4.23-21.9,3.53l-3.15-0.51l-0.41,3.17
	c-1.45,11.36-9.44,20.22-18.99,21.07c-7.85,0.71-13.97-4.53-15.66-6.14l-2.76-2.64l-2.02,3.25c-8.95,14.36-23.2,22.63-36.29,21.07
	c-4.97-0.59-9.75-2.55-14.22-5.8l-3.41-2.5l-1.35,4.02c-4.86,14.47-17.5,24.86-32.18,26.46c-20.06,2.19-33.19-13.41-33.74-14.08
	l-1.92-2.34l-2.38,1.86c-5.38,4.19-16.78,11.29-32.59,11.61c-14.69,0.29-25.79-5.47-31.1-8.95l-2-1.31l-1.78,1.6
	c-3.9,3.53-10.46,8.03-19.54,9.44c-14.92,2.32-26.42-5.48-29.59-7.93l-1.76-1.36l-1.86,1.24c-5.33,3.55-19.68,11.45-37.89,8.16
	c-11.96-2.15-20.49-8.2-25.56-12.87l-2.03-1.89l-2.11,1.82c-2.15,1.86-10.03,7.85-21.21,6.74c-11.25-1.13-17.8-8.65-19.53-10.93
	l-1.69-2.21l-2.39,1.44c-2.22,1.34-8.18,4.27-15.52,2.6c-5.47-1.25-9.08-4.5-10.74-6.33l-2.54-2.81l-2.24,3.05
	c-1.39,1.87-3.04,3.43-4.93,4.65c-5.64,3.62-11.72,3-13.71,2.8c-10-1.03-16.3-8.59-18-10.88l-1.77-2.39l-2.46,1.65
	c-1.63,1.09-16.49,10.53-33.39,4.09c-13.01-4.96-18.77-16.2-20.22-19.52l-1.54-3.52l-3.12,2.25c-6.45,4.66-14.75,5.38-21.13,1.84
	c-6.45-3.58-8.56-10.23-9.05-12.17l-0.9-3.61l-3.39,1.54c-8.61,3.91-17.93,2.71-22.15-2.84c-2.23-2.94-2.52-6.58-2.36-9.1l0.33-5.12
	l-4.69,2.1c-7.86,3.52-16.7,2.1-21.03-3.39c-3.13-3.98-2.93-9.05-2.71-11.04l0.69-5.87l-5.23,2.78c-1.01,0.54-6.03,2.95-11.46,1.24
	c-0.5-0.16-1.01-0.36-1.51-0.59c-2.01-0.92-3.96-2.48-5.46-4.43c-1.98-2.59-3.16-5.86-2.59-9.31c0.18-1.07,0.52-2.05,0.95-2.93
	c0.67-1.36,1.55-2.49,2.36-3.33c1.27,1.01,2.56,2,3.85,3c2.59,1.99,5.21,3.95,7.84,5.86c0.27,0.19,26.35,18.99,56.26,33.12
	c60.61,28.63,178.67,39.92,179.84,40.03c71.14,6.65,124.22,5.53,162.97,4.71c1.2-0.02,120.18-2.87,208.64-33.65
	c13.46-4.68,33.3-13.01,50.22-31.15c4.33-4.65,8.25-9.68,11.74-15.07c2.02-3.11,3.88-6.34,5.6-9.69c0.47,0.29,0.92,0.61,1.35,0.93
	C893.61,629.6,895.77,632.49,896.81,635.69z M884.87,621.42c-4.59,9.48-10.47,18.08-17.47,25.58c-15.8,16.94-33.8,24.67-47.72,29.52
	c-87.53,30.46-205.55,33.29-206.74,33.31c-38.6,0.82-91.47,1.93-162.26-4.69c-1.18-0.11-118.16-11.3-177.78-39.47
	c-29.37-13.87-55.01-32.34-55.27-32.53c-4.21-3.06-8.4-6.25-12.47-9.49c-0.62-5.91-1.13-11.83-1.5-17.7
	c15.56,9.4,36.93,11.56,53.49,5.35c12.88-4.83,19.24-13.22,24.84-20.62c5.64-7.43,10.51-13.86,21.02-16.24
	c17.07-3.87,36.35,5.55,45.81,16.36c3.55,4.05,4.64,6.96,5.79,10.05c1.22,3.27,2.61,6.97,6.83,11.73
	c12.42,14,34.59,21.32,52.71,17.41c14.81-3.19,21.56-12.43,28.08-21.36c5.86-8,11.38-15.57,22.81-18.33
	c17.88-4.34,35.32,6.38,55.51,18.8c15.91,9.78,22.63,17.42,28.57,24.16c5.5,6.26,10.26,11.65,20.42,16.84
	c11.68,5.97,25.87,9.1,40.96,9.14c4.67,0.01,9.41-0.27,14.2-0.85c19.49-2.37,38.34-9.47,53.09-19.99
	c14.69-10.47,20.8-21.26,26.72-31.68c6.54-11.52,13.29-23.43,32.23-35.97c12.48-8.26,31.33-20.73,53.1-17.46
	c8.85,1.34,13.89,4.56,21.53,9.43c6.93,4.43,15.55,9.94,30.19,15.88c17.5,7.1,32.62,13.23,43.36,11.14
	c0.62-0.12,1.23-0.26,1.84-0.44C886.29,600.02,885.65,610.75,884.87,621.42z M924.09,405.62c-0.36,3.26-0.75,7.13-0.83,11.09
	c-2.1,100.16-16.87,162.57-39.51,166.94c-8.95,1.73-23.96-4.36-39.85-10.82c-14.12-5.72-22.47-11.07-29.19-15.36
	c-7.71-4.92-13.79-8.81-23.95-10.33c-24.12-3.63-44.18,9.64-57.44,18.43c-20.18,13.35-27.3,25.92-34.2,38.07
	c-5.84,10.29-11.35,20.02-24.92,29.7c-29.45,21.01-73.22,25.83-101.83,11.22c-9.1-4.65-13.29-9.4-18.58-15.41
	c-5.92-6.72-13.28-15.07-29.97-25.35c-17.18-10.56-33.56-20.64-50.43-20.69c-3.24-0.01-6.51,0.35-9.79,1.15
	c-13.63,3.3-20.09,12.15-26.35,20.71c-6.1,8.36-11.88,16.26-24.39,18.95c-15.8,3.41-35.9-3.23-46.76-15.46
	c-3.45-3.89-4.48-6.63-5.66-9.79c-1.24-3.3-2.64-7.05-6.93-11.95c-10.92-12.48-32.23-22.78-51.85-18.33
	c-12.73,2.88-18.76,10.85-24.6,18.54c-5.35,7.06-10.88,14.36-22.08,18.57c-15.14,5.66-34.77,3.53-48.85-5.31
	c-19.04-11.98-22.71-34.74-32.52-95.56l-0.17-1.07c-2.12-13.15-5.81-36-11.47-70.89c-1.39-8.56-3.39-16.97-5.16-24.06
	c-0.75-3.02-1.13-6.1-1.13-9.15c0-1.21,0.07-2.41,0.19-3.57c1.53-15.2,12.49-30.02,32.55-44.05c19.89-13.92,47.77-26.4,82.85-37.06
	c72.46-22.05,168.02-34.03,269.07-33.73c103.18,0.3,200.1,13.3,272.91,36.58c35.22,11.26,62.8,24.29,81.99,38.75
	c19.34,14.56,29.12,29.81,29.07,45.34C924.31,403.01,924.24,404.32,924.09,405.62z"/>
</svg>
