<?xml version="1.0" encoding="utf-8"?>
<!-- Generator: Adobe Illustrator 25.0.0, SVG Export Plug-In . SVG Version: 6.00 Build 0)  -->
<svg version="1.1" id="Camada_1" xmlns="http://www.w3.org/2000/svg" xmlns:xlink="http://www.w3.org/1999/xlink" x="0px" y="0px"
	 viewBox="0 0 1080 1080" style="enable-background:new 0 0 1080 1080;" xml:space="preserve">
<g>
	<path d="M356.59,442.54c-3.38-23.81-7.9-45.97-9.44-68.34c-4.28-62,14.65-114.93,56.07-163.01c37.8-43.89,85.17-64.37,138.68-76.67
		c16.22-3.73,27.55-1.47,34.98,17.29c10.4,26.24,32.54,41.44,58.27,47.32c4.67,19.16,6.54,37.97,13.83,54.37
		c13.21,29.75,37.83,45.55,70.81,48.31c7.73,0.65,15.36,4.22,22.73,7.19c16.27,6.56,32.35,13.59,49.48,20.85
		c22.68,57.26-3.03,108.43-29.97,159.02c51.86,22.36,103.01,40.67,140.45,85.64c40.69,48.88,49.24,105.88,51.31,164.81
		c2.33,66.35-71.13,167.7-141.95,191.48c-121.74,40.86-218.36,3.97-288.62-106.97c-101.72,94.94-210.8,104.34-318.47,18.27
		c-68.89-55.07-90.32-139.37-72.69-218.22C155.91,517.09,240.86,446.66,356.59,442.54z M278.5,875.07
		c45.96,16.04,95.94,16.83,142.6,2.97c9.24-2.75,18.47-6.21,27.1-10.79c56.28-29.87,100.01-74.52,116.53-139.06
		c4.81-18.8,6.07-38.97,5.84-58.48c-0.22-19-5.15-37.9-6.65-56.95c-1.19-15.12-5.42-24.3-23.11-23.91
		c-9.95,0.22-20.36-2.93-29.93-6.33c-59.91-21.33-110.42-54.57-139.15-113.91c-6.32-13.05-15.92-17.27-29.55-16.72
		c-39.26,1.58-76.74,12.85-107.94,34.71c-50.64,35.49-87.78,84.18-96.43,146.78c-7.66,55.44,0.65,108.99,34.05,158.17
		C199.67,832.5,233.96,859.53,278.5,875.07z M628.78,206.94c-29.15-10.59-51.02-28.67-63.82-57.57c-1.99-4.49-12.43-8.5-18.15-7.58
		c-69.11,11.07-125.12,45.81-162.04,104.38c-35.07,55.65-41.43,119.17-21.23,181.58c19.69,60.84,59.8,105.82,119.97,132.96
		c62.78,28.32,125.72,25.98,184.18-3.79c55.83-28.44,99.63-73.62,114.79-137.72c5.64-23.86,2.98-49.78,2.99-74.75
		c0-3.61-5.64-9.35-9.68-10.48c-25.97-7.23-48.07-22.71-75.54-28.53C650.65,294.93,631.6,255.51,628.78,206.94z M533.67,817.88
		c21.85,57.33,67.59,87.99,119.74,107.36c57.36,21.3,117.29,18.27,170.75-11.99c50.61-28.65,91.12-68.81,109.89-127.5
		c16.96-53.05,10.34-105.69-8.08-154.3c-23.12-61.02-74.51-98.14-134.07-122.83c-18.41-7.63-33.81-8.01-52.17,7.25
		c-33.2,27.59-64.23,60.8-110.57,67.61c-18.85,2.77-37.74,5.29-57.15,8c1.46,9.28,2.9,18.48,4.34,27.59
		c17.75-2.38,36.32-12.38,46.36,9.31c8.59,18.54-6.25,36.59-40.52,51.39C585.71,732.78,556.08,774.31,533.67,817.88z"/>
	<path d="M679.78,240.58c-2.28-7.69,1.03-16.13,8.16-19.81c1.39-0.72,2.84-1.23,4.33-1.39c17.41-1.8,31.91,10.23,31.15,24.46
		c-0.58,10.72-3.4,20.63-17.49,20.19C694.67,263.67,683.96,254.65,679.78,240.58z"/>
	<path d="M734.29,167.01c15.39-2.96,20.36,20.09,5.24,24.25c-4.21,1.16-8.34,2.18-12.51,3.04c-1.25,0.26-8.03-11.4-6.48-15.1
		C723.42,172.31,728.2,168.18,734.29,167.01z"/>
	<path d="M780.01,273.05c-4.51,4.69-12.06,4.58-16.42-0.24c-2.96-3.27-4.94-5.74-4.41-7.41c0.98-3.1,2.86-5.91,5.05-8.62
		c4.01-4.99,11.38-5.63,16.18-1.4c0.06,0.05,0.12,0.1,0.18,0.15c4.81,4.23,5.12,11.61,0.68,16.22
		C780.85,272.18,780.44,272.61,780.01,273.05z"/>
	<path d="M338.05,769.34c5.33,10.49,7.22,22.48,4.71,33.97c-0.66,3.02-1.55,5.36-3.19,6.92c-9.31,8.81-25.48,23.65-30.72,20.85
		c-12.98-6.95-23.67-21.3-30.44-35.06c-2.5-5.07,8.35-16.95,13.56-25.44c1.31-2.13,4.19-3.55,6.63-4.71
		c9.82-4.68,25.87-15.23,28.52-12.56C331.69,757.9,335.15,763.62,338.05,769.34z"/>
	<path d="M437.15,647.69c-18.46,0.04-38.12-13.98-38.21-27.24c-0.08-11.81,24.91-31.12,41.01-31.68
		c11.98-0.42,29.89,21.08,30.32,36.41C470.65,638.83,457.69,647.64,437.15,647.69z"/>
	<path d="M498.21,692.06c0.15-17.67,14.1-35.5,27.82-35.55c11.77-0.04,23.64,19.23,23.83,38.71c0.19,19.15-7.11,26.03-28.15,26.54
		C506.96,722.11,498.05,710.86,498.21,692.06z"/>
	<path d="M292.26,680.71c-19.98-0.43-48.25-17.43-43.19-22.77c10.22-10.77,25-20.01,39.39-23.26c15.71-3.54,31.15,13.89,30.42,28.56
		C318.23,676.33,310.94,681.11,292.26,680.71z"/>
	<path d="M322.12,471.97c13.94,1.18,19.7,12.84,19.81,26.49c0.13,16.33-13.5,19.64-25.99,19.31c-13.13-0.35-23.95-6.9-24.84-22.01
		C290.4,483.77,305.49,471.66,322.12,471.97z"/>
	<path d="M430.32,855.75c-11.11,8.43-26.34,9.02-38.31,1.86c-5.94-3.55-10.35-6.79-10.34-10.01c0.09-16.17,16.08-17.42,29.44-17.42
		c13.03,0,25.05,5.88,24,19.19C434.94,851.57,433.1,853.64,430.32,855.75z"/>
	<path d="M187.38,766.55c-5.57-7.39-5.26-17.66,0.27-25.07c4.47-6,8.95-11.92,13.68-12.14c15.1-0.69,18.71,13.17,18.86,26.45
		c0.12,10.82-3.36,19.55-16.22,18.72C196.68,774.04,191.22,771.64,187.38,766.55z"/>
	<path d="M223.44,575.79c7.65,9.17,5.04,23.31-5.66,28.64c-1.99,0.99-3.76,1.44-5.35,1.08c-1.43-0.33-2.81-0.86-4.16-1.56
		c-10.69-5.5-13.04-19.8-4.89-28.65c0.08-0.08,0.15-0.17,0.23-0.25c5.34-5.79,14.55-5.57,19.6,0.48
		C223.29,575.61,223.37,575.7,223.44,575.79z"/>
	<path d="M410.19,761.07c-0.07-0.08-0.14-0.17-0.21-0.25c-5.29-6.34-4.4-15.78,1.98-21.03c0.46-0.38,0.91-0.75,1.37-1.13
		c7.04-5.79,17.7-4.02,22.24,3.88c1.49,2.59,2.53,5.2,2.65,7.85c0.15,3.09-1.78,6.27-4.75,10.14
		C427.65,768.13,416.32,768.42,410.19,761.07z"/>
	<path d="M314.94,525.19c16.45-0.59,23.11,20.89,9.76,30.52c-4.89,3.53-10.96,4.84-18.74,3.1c-3.5-0.79-7.97-17.25-5.06-22.96
		C304.8,528.17,309.59,525.39,314.94,525.19z"/>
	<path d="M620.23,461.93c2.26-9.29,3.54-22.29,7.93-23.44c10.7-2.81,23.57,0.77,35.07,3.67c5.43,1.37,10.5,6.51,14.41,11.07
		c11,12.81,16.93,27.99,7.03,43.22c-10.6,16.3-27.98,10.56-43.22,8.3C623.4,502.05,619.84,463.52,620.23,461.93z"/>
	<path d="M577.68,244.08c15.24,1.36,31.39,1.17,29.72,23.97c-1.54,21.04-22.26,42.75-41.34,40.73c-20.5-2.17-18.47-18.8-18.16-32.97
		C548.45,251.26,556.36,243.25,577.68,244.08z"/>
	<path d="M512.42,450.84c-8.3-2.72-13.31-11.19-12.25-19.86c2.22-18.15,5.77-32.21,22.79-37.23c8.24-2.43,21.98-0.45,27.13,5.13
		c4.66,5.05,4.78,20.64,0.28,26.45c-8.37,10.8-20.78,19.37-33.15,25.65C515.95,451.61,514.28,451.45,512.42,450.84z"/>
	<path d="M430.72,302.12c-0.09,15.18-12.94,28.61-26.75,27.89c-14.98-0.78-20.26-11.36-20.03-23.62
		c0.25-13.64,5.32-26.39,22.49-25.8C419.72,281.05,430.78,285.75,430.72,302.12z"/>
	<path d="M740.6,446.29c-7.67-5.24-10.78-15.05-8.11-23.95c4.8-16,16.52-25.95,28.3-23.57c4.88,0.98,11.27,9.37,11.7,14.79
		c1.4,17.32-14.46,37.53-27.21,34.85C743.64,448.07,742.07,447.3,740.6,446.29z"/>
	<path d="M497.82,210.75c-0.09-0.07-0.18-0.14-0.26-0.21c-10.12-8.1-11.34-23.14-2.5-32.63c0.05-0.06,0.11-0.12,0.16-0.18
		c1.18-1.27,3.79-1.48,5.79-1.67c4.34-0.4,8.68-0.75,13.03-1.08c8.27-0.64,15.52,6.08,14.97,14.35c-0.1,1.48-0.44,2.78-1.18,3.8
		c-4.72,6.59-11.74,11.54-19.44,17.63C505.28,213.22,500.9,213.22,497.82,210.75z"/>
	<path d="M546.22,525.86c5.54-5.41,14.44-5.27,19.81,0.31c6.12,6.37,11.25,11.89,14.58,18.33c1.16,2.25-15.21,17.57-16.77,16.55
		c-6.47-4.23-12.23-9.54-17.86-15.05c-5.6-5.47-5.57-14.48,0.03-19.95C546.09,526,546.15,525.93,546.22,525.86z"/>
	<path d="M419.44,420.94c2.85-0.53,5.76,0.42,7.79,2.49c6.78,6.94,14.46,13.52,17.7,21.84c1.31,3.37-11.46,16.9-18.95,18.01
		c-14.69,2.18-19.61-10.57-18.92-23.14c0.28-5.08,3.59-9.98,6.37-14.92c1.25-2.23,3.42-3.79,5.93-4.26
		C419.38,420.95,419.41,420.95,419.44,420.94z"/>
	<path d="M670.12,374.47c-12.23-7.88-12.56-25.93-0.73-34.4c1.78-1.27,3.18-1.86,4.18-1.45c2.84,1.17,5.43,2.93,7.89,5.01
		c9.61,8.12,9.13,23.35-1.35,30.31c-1.51,1.01-3.09,1.74-4.74,2.09C673.83,376.36,672.1,375.74,670.12,374.47z"/>
	<path d="M430.55,323.58c8.38-13.7,29.63-8.08,30.74,7.94c0.41,6-1.46,11.82-6.64,17.5c-2.33,2.55-19.34-2.25-22.75-7.83
		C427.35,333.73,427.7,328.24,430.55,323.58z"/>
	<path d="M865.42,638.7c-0.04,18.33-23.81,32.38-53.92,31.26c-14.95-0.55-16.67-11.77-16.55-23.29
		c0.27-26.79,21.63-50.71,44.2-49.93C855.9,597.32,865.48,612.62,865.42,638.7z"/>
	<path d="M647.91,772.1c-22.04-0.08-30.2-9.35-30.88-33.94c-0.44-15.75,5.13-24.85,22.35-24.32c22.28,0.69,44.57,18.71,45.35,37.24
		C685.25,763.5,670.05,772.18,647.91,772.1z"/>
	<path d="M827.25,789.02c-12.46,5.15-26.65,3.52-37.95-3.82c-5.72-3.71-11.17-7.76-15.5-12.77c-4.12-4.77-2.6-19.88,2.12-25.24
		c4.34-4.92,17.3-5.87,24.82-3.45c9.13,2.94,17.88,10.1,24.26,17.59c5.19,6.09,10.53,16.63,8.53,22.84
		C832.87,786.18,830.57,787.65,827.25,789.02z"/>
	<path d="M706.43,927.39c-14.02,0.31-23.01-5.91-23.13-22.73c-0.1-14.12,5.92-22.21,20.14-22.7c14.51-0.49,30.96,13.04,29.99,25.36
		C732.23,922.33,722.09,927.94,706.43,927.39z"/>
	<path d="M928.56,700.98c9.02,6.02,10.46,18.7,3.03,26.6c-5.4,5.74-9.95,10.04-15.24,11.32c-11.46,2.77-21.83-7.53-18.85-20.19
		c1.11-4.72,3.67-9.11,6.67-13.39c5.47-7.8,16.15-9.82,24.08-4.54C928.35,700.84,928.46,700.91,928.56,700.98z"/>
	<path d="M557.02,813.47c5.69-7.18,15.64-9.51,24.01-5.78c11.07,4.94,18.25,15.23,16.96,25.94c-0.1,0.85-0.32,1.68-0.63,2.51
		c-3.72,9.9-17.07,11.69-23.75,3.5c-6.24-7.66-12.37-15.4-17.81-23.59C555.53,815.62,556.07,814.66,557.02,813.47z"/>
	<path d="M856.21,877.14c-9.43,10.12-26.48,7.41-31.7-5.41c-0.48-1.17-0.81-2.34-0.96-3.53c-1.46-11.32,0.04-24.76,16.57-24.79
		c14.88-0.03,23.85,10.32,22.13,23.5C861.8,870.37,859.53,873.58,856.21,877.14z"/>
	<path d="M766.19,532.9c3.98,3.15,7.78,6.16,11.49,9.09c8.47,6.7,5.28,20.62-5.38,22.37c-0.29,0.05-0.57,0.08-0.86,0.11
		c-16.24,1.44-33.68-12.24-32.41-24.31c0.15-1.4,0.81-2.75,1.87-4.18C746.81,527.96,758.37,526.72,766.19,532.9z"/>
	<path d="M725.18,641.59c-8.75,8.63-23.71,5.96-28.4-5.4c-0.43-1.05-0.73-2.08-0.88-3.14c-1.55-10.9,3.35-22.86,16.17-19.8
		c5.22,1.25,9.64,5.85,13.97,10.79c4.42,5.03,4.12,12.64-0.64,17.34C725.33,641.44,725.25,641.52,725.18,641.59z"/>
	<path d="M749.61,859.54c0.25,2.16-0.51,4.3-2.04,5.84c-5.89,5.95-12.14,14.38-17.06,13.67c-1.5-0.22-2.98-0.64-4.43-1.21
		c-13.99-5.51-12.85-25.89,1.75-29.51c0.09-0.02,0.17-0.04,0.26-0.06c5.11-1.2,11.43,2.74,17.49,5.62c2.21,1.05,3.73,3.15,4.02,5.58
		L749.61,859.54z"/>
</g>
</svg>
