<?xml version="1.0" encoding="utf-8"?>
<!-- Generator: Adobe Illustrator 25.0.0, SVG Export Plug-In . SVG Version: 6.00 Build 0)  -->
<svg version="1.1" id="Camada_1" xmlns="http://www.w3.org/2000/svg" xmlns:xlink="http://www.w3.org/1999/xlink" x="0px" y="0px"
	 viewBox="0 0 1080 1080" style="enable-background:new 0 0 1080 1080;" xml:space="preserve">
<g>
	<path d="M929.51,653.53c-0.11-0.05-0.21-0.09-0.32-0.14c3.84-3.17,6.75-7.06,8.11-11.61c1.84-6.13,0.96-14.05-3.03-17.38
		c-0.59-11.31-2.22-18.33-5.14-21.75c3.51-3.12,8.75-9.25,9.04-18.19c0.27-8.42-4.17-16.85-10.49-21.23
		c3.85-18.06,2.79-23.93,0.43-26.17c-0.67-8.93-1.8-15.94-3.46-21.13c5.13-9.42,7.62-19.13,7.38-28.91
		c-0.16-6.45-0.78-12.61-3.82-15.12c0.12-14.71-1.61-23.12-5.51-26.43c4.7-11.74,10.28-30.02,3.75-38.41
		c4.46-8.28,7.59-14.5,9.32-18.5c1.36-3.14,2.29-5.63,1.54-7.28c-1.06-10.45-4.54-19.68-10.38-27.41
		c-2.27-3.01-7.34-8.75-12.25-11.7c-8.71-12.86-19.19-23.79-31.17-32.48c-12.68-9.19-21.78-12.17-35.56-16.68
		c-4.95-1.62-10.56-3.46-17.14-5.86c-59.01-21.55-102.45-50.01-102.88-50.29c-2.14-1.42-4.15-2.77-6.04-4.05
		c-12.22-8.25-20.29-13.71-31.04-11.64c-10.07,1.94-14.65,9.01-19.51,16.49c-4.71,7.26-9.57,14.76-20.14,19.7
		c-8.26,3.86-24.31,3.26-56.29,2.06c-11.36-0.43-16.47-0.92-19.86-1.25c-3.46-0.34-5.37-0.52-10.23-0.28
		c-15.66,0.78-24.62,4.06-33.27,7.23c-7.63,2.79-14.84,5.43-26.59,6.57c-12.42,1.2-18.33-0.39-24.05-1.94
		c-5.81-1.57-11.3-3.05-22.11-1.1c-11.57,2.08-17.19,5.91-24.98,11.2c-6.48,4.41-14.55,9.89-29.23,16.55
		c-13.41,6.09-27.28,12.38-46.05,15.12c-13.63,1.99-21.68,0.95-28.79,0.03c-7.88-1.02-14.68-1.91-25.97,1.59
		c-11.45,3.54-17.47,8.45-22.78,12.77c-5.46,4.45-9.78,7.96-18.78,8.57c-7.08,0.48-10.82-1.19-15.99-3.5
		c-5.33-2.38-11.96-5.33-24.21-6.45c-12-1.1-30.13-2.76-41.84,9.16c-6.28,6.39-8.61,14.57-9.33,21.37c-2.06-0.9-4.13-1.17-6.36-0.59
		c-7.79,2.01-10.74,12.88-12.51,19.38c-2.59,9.53-2.65,19.5-0.19,29.63c-1.52,4.63,0.49,9.47,2.2,12.41
		c-3.49,3.1-4.56,8.77-5.12,11.78c-1.8,9.59,1.96,17.52,4.77,21.85c-0.79,0.6-1.57,1.25-2.32,1.97c-5.38,5.21-8.6,12.5-8.62,19.52
		c-0.02,8.78,4.8,17.11,12.78,22.46c-0.44,0.55-0.82,1.17-1.11,1.88c-1.3,3.21-0.32,7.21,2.56,10.96c-2.14,1.14-4.03,2.79-4.89,5.23
		c-1.56,4.38,1.01,8.99,3.53,12.17c-4.4,1.7-8.18,5.79-9,10.44c-0.59,3.34,0.36,6.97,2.69,10.21c1.76,2.45,4.19,4.46,7.02,5.92
		c-1.62,1.72-2.86,4.17-3.47,7.01c-1.04,4.86-0.04,9.84,2.68,13.31c1.1,1.41,2.38,2.47,3.68,3.26c-5.26,3.94-9.09,11.55-8.8,19.04
		c0.25,6.53,3.41,11.33,6.29,14.39c-5.36,1.68-10.63,6.53-13.46,12.37c-2.42,5.01-2.81,10.21-1.1,14.64
		c1.53,3.95,4.45,6.64,7.18,8.4c-3.05,4.13,1.32,11.22,4.61,15.53c-2.5,2.14-6.24,6.23-6.6,11.77c-0.2,3.09,0.71,5.95,2.18,8.5
		c-2.73,8.16-2.58,15.04,0.43,20.45c2.33,4.18,6.3,7.36,11.82,9.47l0.19,0.07c8.15,3.16,26.96,18.62,50.77,38.2
		c56.09,46.11,136.92,112.57,189.71,112.57c8.38,0,16.06-1.68,22.82-5.38c6.62-3.62,11.42-8.66,16.07-13.54
		c7.19-7.54,13.4-14.05,24.95-14.5c7.09-0.28,11.19,1.93,16.88,4.98c5.35,2.87,12,6.44,23.11,8.75c17.27,3.59,35.48,2.28,54.15-3.9
		c12.99-4.31,18.65-8.99,24.11-13.51c4.86-4.02,9.46-7.83,19.51-10.99c13.99-4.4,23.05-2.77,31.81-1.18
		c9.01,1.63,17.51,3.17,29.69-1.96c12.29-5.18,18.26-12.99,23.53-19.89c5.37-7.03,10.01-13.1,20.42-15.2
		c8.34-1.68,13.61,0.55,19.19,2.91c6.04,2.56,12.29,5.2,22.17,3.22c12.59-2.52,18.73-10.08,24.67-17.38
		c5.56-6.83,10.8-13.29,21.32-15.56c9.46-2.04,16.81,0.57,23.91,3.09c7.73,2.75,15.03,5.34,22.85,0.41
		c5.23-3.29,6.61-7.4,8.21-12.15c1.56-4.63,3.32-9.87,9.2-16.67c3.5-4.05,14.15-16.38,28.94-17.52c5.92-0.46,9.64,1.13,13.23,2.66
		c3.95,1.69,8.04,3.43,14.02,1.86c13.33-3.5,21.54-19.14,21.78-32.24C939.02,671.42,938.57,657.52,929.51,653.53z M906.08,508.42
		c-3.63,2.94-8.16,7.5-14.31,13.7l-0.86,0.87c-21.88,22.04-28.48,28.7-39.17,30.6c-2.68,0.48-3.75,0.34-5.36,0.15
		c-1.59-0.2-3.58-0.45-7.4-0.18c-15.22,1.07-24.81,7.87-34.95,15.08c-4.22,3-8.59,6.1-13.61,9c-6.89,3.97-9.6,4.49-16.84,5.86
		c-7.44,1.41-18.68,3.54-42.38,10.77c-25.85,7.88-38.83,11.83-46.64,17.18c-10.18,6.97-16.48,14.39-21.53,20.34
		c-6.37,7.51-10.58,12.46-18.56,12.92c-4.8,0.28-7.71-1.26-11.4-3.2c-4.21-2.22-8.99-4.74-17.42-5.22
		c-9.61-0.56-15.82,2.07-25.21,6.04c-2.36,1-5.04,2.13-8.04,3.32c-24.48,9.74-40.64,16.18-58.67,15.14
		c-8.5-0.49-14.2-2.41-19.71-4.26c-7.43-2.5-14.45-4.87-26.69-3.38c-8.35,1.01-13.62,3.18-19.2,5.47c-1.86,0.76-3.77,1.55-5.88,2.33
		c-28.72,10.61-59.94,7.73-79.57,1.49c-12.85-4.08-17.56-8.72-24.08-15.15c-2.31-2.27-4.82-4.75-7.94-7.46
		c14.66,6.15,30.27,10.16,46.28,10.15c2.46,0,4.92-0.09,7.39-0.29c40.16-3.17,59.79-12.1,60.6-12.48c4.35-2.02,8.06-4.05,11.34-5.84
		c8.14-4.45,14.02-7.67,22.64-6.96c7.67,0.63,11.63,3.83,16.22,7.54c4.62,3.74,9.87,7.97,19.46,10.03
		c19.84,4.27,39.38-4.58,49.26-10.23c5.79-3.31,9.52-6.46,12.51-8.98c4.17-3.52,6.93-5.84,12.7-6.81
		c6.35-1.07,10.04,0.57,14.72,2.64c3.81,1.69,8.13,3.6,14.48,4.27c24.65,2.61,46.55-16.64,57.06-25.89
		c6.71-5.9,11.7-11.64,15.7-16.25c7.11-8.18,10.77-12.1,16.06-11.48c2.99,0.34,4.67,1.94,6.79,3.97c2.35,2.24,5,4.79,9.76,5.93
		c9.71,2.34,17.16-3.71,25.79-10.7c3.97-3.22,8.08-6.55,12.88-9.52c15.61-9.64,28.18-8.85,40.34-8.09
		c12.18,0.76,23.69,1.48,36.45-8.12c9.62-7.25,14.07-15.96,17.99-23.65c4.14-8.12,7.41-14.54,15.57-16.52
		C889.48,500.9,897.35,502.88,906.08,508.42z M894.46,526.5l0.86-0.87c8.55-8.62,16.59-16.78,19.09-16.18
		c2.01,0.48,6.77,4.09,8.63,26.71c-1.43,0.59-2.81,1.75-4.24,2.94c-2.71,2.27-6.42,5.37-12.1,6.86c-3.57,0.94-5.73,0.68-8.71,0.32
		c-2.45-0.3-5.49-0.67-9.96-0.39c-2.79,0.17-9.84,0.59-17.36,3.47C876.67,544.43,883.89,537.16,894.46,526.5z M922.08,509.96
		c-1.78-2.98-3.94-4.75-6.5-5.37c-1.55-0.37-3.16-0.09-4.99,0.8c-4.78-3.24-9.38-5.55-13.8-6.91c4.17-0.45,8.36-1.72,12.73-4.72
		c5.94-4.07,9.56-9.52,12.21-13.5c1.12-1.69,2.63-3.95,3.42-4.46c0.52,0.44,1.7,2.44,1.91,11.36
		C927.23,494.81,925.56,502.46,922.08,509.96z M922.48,403.93c-2.54-1.15-5.62-1.42-8.99-1.07c5.55-0.99,10.1-4.28,13.67-7.87
		C925.91,397.45,924.37,400.4,922.48,403.93z M158.59,413.83c-1.3-2.12-3.24-6.08-1.89-9.23c1.74-4.05,8.28-5,11.08-5.4
		c12.94-1.88,35.77,14.18,62.59,44.05l0.3,0.33c9.55,10.62,89.09,96.91,152.91,96.91c5.39,0,10.68-0.62,15.8-1.95
		c5.22-1.36,10.3-3.47,16.74-6.14c9.91-4.11,23.48-9.75,46.12-16.08c17.3-4.84,27.17-6.33,36.51-1.7
		c6.23,3.09,8.95,7.42,11.58,11.62c2.81,4.48,5.72,9.11,12.44,11.48c11.46,4.04,24.98-3.44,49.53-17.02
		c7.79-4.31,12.8-7.49,16.46-9.82c5.91-3.76,8.12-5.16,13.36-5.98c9.52-1.5,14.95,1.22,20.7,4.1c5.31,2.65,10.8,5.4,19.06,4.34
		c12.97-1.66,19.75-10.88,26.93-20.64c7.33-9.97,14.92-20.28,30.12-24.62c4.38-1.25,6.37-1.15,9.67-0.98
		c3.94,0.2,9.34,0.47,21.4-1.24c19.82-2.82,31.78-4.52,44.54-11.79c9.66-5.5,15.38-11.72,19.98-16.72
		c5.35-5.81,8.88-9.65,15.59-9.77c4.83-0.1,7.7,1.77,10.73,3.73c3.32,2.15,6.75,4.38,12.04,3.09c7.25-1.77,10.2-8.36,13.32-15.33
		c3.21-7.17,6.85-15.3,15.77-20.99c6.15-3.92,12.41-5.88,18.52-5.74c7.11,0.13,11.68,2.99,16.11,5.75c4.37,2.73,8.9,5.53,15.17,5
		c-15.42,2.44-36,16.36-41.1,19.95c-7.92,5.57-11.71,9.55-14.75,12.74c-3.18,3.34-5.69,5.97-11.82,9.32
		c-10.3,5.63-17.33,5.87-25.46,6.15c-7.18,0.24-15.32,0.52-26.98,4.4c-11.46,3.81-16.48,7.82-22.29,12.45
		c-5.62,4.48-11.98,9.57-26.2,15.98c-11.05,4.99-16.92,6.31-22.58,7.58c-5.93,1.33-11.53,2.59-21.93,7.78
		c-13.19,6.58-19.94,12.4-25.37,17.08c-5.96,5.13-9.89,8.52-19.17,10.28c-7,1.33-11.27,0.59-16.68-0.35
		c-5.96-1.03-13.38-2.31-26.71-1.22c-15.48,1.27-27.52,4.79-31.98,6.24c-14.56,4.76-22.08,10.14-28.12,14.47
		c-5.77,4.13-9.95,7.12-17.98,7.62c-7.39,0.46-11.12-1.51-16.28-4.24c-5.58-2.95-12.52-6.62-26.2-8c-7.43-0.75-22.9-2.31-39.53,4.78
		c-7.57,3.23-11.19,6.5-14.39,9.38c-2.81,2.53-5.23,4.72-10.08,6.69c-15.9,6.44-32.58,0.04-48.72-6.14
		c-9.23-3.54-12.88-5.84-33.11-18.59c-5.39-3.4-11.94-7.53-20.08-12.6c-6.13-3.83-12.3-7.86-18.26-11.75
		c-11.93-7.79-24.26-15.84-37.02-22.79c-1.01-0.55-2.01-1.09-3-1.63c-8.89-4.8-16.56-8.95-25.62-17.18c-4.73-4.3-7.05-7.18-9.3-9.96
		c-2.49-3.09-4.85-6.01-9.98-10.07c-7.24-5.72-11.99-7.4-17.02-9.18c-4.42-1.56-8.99-3.18-16.11-7.8
		c-7.04-4.57-12.08-9.18-16.13-12.88C166.71,416.94,162.85,413.43,158.59,413.83z M784.64,290.82c1.96,8.52,13.39,11.09,25.48,13.8
		c12.45,2.79,26.57,5.96,30.56,15.69c2.72,6.63,0.34,14.51-3.41,18.87c-3.44,3.99-9.23,6.27-16.76,6.61
		c-14.98,0.68-33.39-6.52-44.71-17.5c-5.56-5.38-7.02-9.27-8.44-13.03c-1.3-3.45-2.65-7.02-6.97-10.8
		c-13.38-11.72-32.65-6.22-59.31,1.38c-18.55,5.29-41.64,11.88-69.75,14.86c-29.88,3.17-75.86,3.18-80.08-9.78
		c-1.81-5.54,4.52-13.5,8.54-17.33c6.86-6.53,13.63-6.87,23.89-7.39c7.66-0.39,17.2-0.87,29.44-4.27
		c11.59-3.21,18.51-7.05,24.07-10.13c6.61-3.66,10.98-6.08,19.4-5.12c6.67,0.76,11.19,3.11,15.17,5.17
		c4.96,2.58,9.65,5.01,16.41,3.18c7.29-1.97,10.77-7.19,14.14-12.24c2.91-4.36,5.92-8.86,11.59-11.68
		c8.23-4.08,19.24-3.19,32.72,2.66l0-0.01c11.12,6.23,26.09,14.11,43.74,22.14C785.48,281.44,783.61,286.33,784.64,290.82z
		 M675.55,240.38c4.62-7.13,8.28-12.77,16.26-14.3c8.73-1.68,15.71,3.04,27.29,10.87c1.91,1.29,3.93,2.66,6.09,4.08
		c0.08,0.05,1.64,1.08,4.5,2.84c-6.79-0.71-12.83,0.21-18.03,2.79c-6.87,3.41-10.41,8.71-13.53,13.38
		c-3.12,4.67-5.82,8.71-11.29,10.19c-4.88,1.32-8.2-0.41-12.8-2.79c-4.15-2.15-9.32-4.83-16.9-5.7c-1.08-0.12-2.09-0.19-3.07-0.22
		C665.42,255.96,670.8,247.7,675.55,240.38z M183.75,337.2c10.05-10.23,26.76-8.7,37.82-7.69c11.43,1.04,17.38,3.7,22.63,6.04
		c5.39,2.41,10.06,4.48,18.37,3.92c10.58-0.72,15.93-5.07,21.6-9.68c4.96-4.04,10.58-8.61,21.1-11.87
		c10.25-3.17,16.25-2.4,23.85-1.41c7.42,0.96,15.84,2.06,30.16-0.04c19.47-2.85,33.67-9.29,47.4-15.52
		c15.07-6.84,23.33-12.46,29.97-16.97c7.55-5.13,12.53-8.52,23.05-10.42c9.71-1.75,14.44-0.47,19.92,1.01
		c5.86,1.58,12.51,3.37,25.83,2.08c12.39-1.2,20.24-4.07,27.83-6.85c8.69-3.18,16.9-6.19,31.8-6.93c4.5-0.22,6.07-0.07,9.5,0.26
		c3.44,0.33,8.64,0.84,20.15,1.27c20.61,0.77,34.76,1.3,44.76,0.5c-1.55,0.77-3.1,1.62-4.73,2.53c-5.33,2.95-11.97,6.63-22.99,9.68
		c-11.7,3.25-20.55,3.69-28.35,4.09c-10.55,0.54-18.88,0.96-27.08,8.76c-2.19,2.08-12.95,12.96-9.84,22.5
		c3.01,9.25,17.5,14.11,44.28,14.85c19.68,0.54,38.95-1.43,41.09-1.65c28.54-3.03,51.86-9.68,70.6-15.03
		c26.08-7.44,43.31-12.36,54.64-2.43c3.38,2.96,4.36,5.54,5.59,8.81c1.46,3.87,3.28,8.69,9.64,14.85
		c11.71,11.35,30.43,18.95,46.28,18.95c0.72,0,1.43-0.02,2.14-0.05c8.94-0.4,15.97-3.29,20.33-8.34c4.75-5.51,7.73-15.53,4.25-24.03
		c-4.98-12.14-20.45-15.61-34.09-18.67c-10.51-2.36-20.45-4.59-21.7-10.05c-0.85-3.67,2.36-8.15,5.64-11.61
		c10.53,4.67,21.92,9.36,33.96,13.75c6.65,2.43,12.31,4.28,17.3,5.91c13.33,4.36,22.13,7.24,34.18,15.97
		c10.14,7.35,19.18,16.39,26.92,26.9c-0.24,0.09-0.47,0.2-0.69,0.33c-3.18,1.9-2.38,6.09-1.62,10.14c0.72,3.8,1.54,8.1-0.45,10.2
		c-1.41,1.49-3.72,1.16-8.39,0.35c-4.9-0.85-11.61-2.01-20.15-0.32c-8.1,1.61-14.2,5.05-20.66,8.7c-4.7,2.66-7.67,4.84-10.29,6.76
		c-3.43,2.52-5.9,4.34-10.77,6.08c-3.89,1.39-5.86,1.5-8.15,1.62c-2.14,0.12-4.56,0.25-8.55,1.4c-8.27,2.39-12.22,5.96-16.03,9.4
		c-3.03,2.74-5.89,5.33-11.07,7.55c-6.67,2.87-10.95,2.4-15.49,1.91c-4.61-0.5-9.82-1.07-17.37,1.89
		c-8.19,3.22-11.56,7.56-14.82,11.75c-2.71,3.49-5.26,6.79-10.76,9.84c-9.2,5.1-16.32,3.77-24.56,2.22
		c-7.44-1.39-15.86-2.97-26.36,0.66c-12.3,4.26-16.88,12.02-21.31,19.54c-4.26,7.23-8.67,14.71-20.33,20.41
		c-8.92,4.37-15.17,4.34-23.08,4.3c-8.44-0.04-18.91-0.08-35.59,5.53c-8.83,2.97-13.35,5.49-16.98,7.52
		c-3.91,2.18-7,3.91-14.15,5.42c-17.77,3.77-32.78,0.42-51.79-3.82c-11.31-2.53-19.07-5.08-25.31-7.14
		c-10.42-3.43-16.17-5.33-24.44-1.92c-5.99,2.47-9.42,6.17-12.44,9.44c-3.38,3.65-6.3,6.81-12.38,8.04
		c-4.72,0.95-7.33-0.04-12.08-1.85c-3.33-1.27-7.48-2.85-13.68-4.26c-12.45-2.82-20.19-1.99-27.01-1.24
		c-6.58,0.71-12.26,1.33-20.96-1.74c-3.63-1.28-4.63-2.04-7.94-4.58c-3.18-2.44-7.98-6.11-18.35-12.79
		c-5.24-3.37-19.33-12.22-36.95-21.55c-10.26-5.44-16.69-8.39-21.39-10.54c-6.59-3.02-9.06-4.16-13.29-8.2
		c-6.14-5.89-7.71-9.99-9.53-14.73c-1.78-4.65-3.79-9.92-10.24-17.28c-7.26-8.29-12.83-10.92-19.28-13.96
		c-6.32-2.97-13.47-6.35-24.6-16.15c-2.39-2.1-4.53-4.12-6.41-5.9c-2.23-2.11-4.25-4.01-6.18-5.56
		C175.94,351.77,177.67,343.39,183.75,337.2z M156.81,375.17c1.38-5.09,3.96-14.57,8.94-15.85c3.13-0.81,6.49,2.18,12.63,7.99
		c1.91,1.81,4.08,3.86,6.54,6.02c11.66,10.27,19.49,13.96,25.78,16.92c6.19,2.91,11.08,5.22,17.65,12.73
		c5.86,6.69,7.62,11.31,9.33,15.77c1.94,5.09,3.78,9.89,10.74,16.56c4.83,4.63,7.91,6.04,14.66,9.14c4.64,2.13,11,5.04,21.13,10.41
		c17.45,9.25,31.4,18,36.58,21.34c10.2,6.56,14.9,10.16,18.02,12.55c3.39,2.6,4.93,3.78,9.31,5.32c9.78,3.44,16.28,2.74,23.17,1.99
		c6.75-0.73,13.73-1.49,25.37,1.15c5.86,1.33,9.82,2.84,13,4.06c3.73,1.42,6.69,2.56,10.45,2.56c1.34,0,2.79-0.14,4.4-0.47
		c7.67-1.55,11.43-5.62,15.06-9.55c2.93-3.17,5.7-6.16,10.67-8.21c6.56-2.7,11.08-1.21,20.98,2.05c6.01,1.98,14.23,4.69,25.78,7.27
		c18.82,4.2,35.08,7.83,53.92,3.84c7.89-1.67,11.44-3.66,15.55-5.95c3.63-2.03,7.74-4.32,16.13-7.15
		c15.89-5.35,25.51-5.31,33.98-5.27c8.23,0.05,15.33,0.07,25.3-4.81c13.01-6.36,18.02-14.86,22.44-22.36
		c4.33-7.35,8.08-13.7,18.64-17.35c9.25-3.2,16.65-1.81,23.8-0.47c8.43,1.58,17.14,3.21,27.91-2.77c6.39-3.55,9.52-7.58,12.28-11.14
		c3.1-4,5.78-7.45,12.69-10.16c6.4-2.51,10.58-2.06,15-1.58c4.99,0.54,10.14,1.1,18.01-2.28c5.94-2.55,9.25-5.54,12.45-8.44
		c3.7-3.35,6.9-6.24,14.07-8.31c3.44-0.99,5.38-1.1,7.43-1.21c2.46-0.13,4.99-0.27,9.56-1.9c5.56-1.98,8.57-4.2,12.05-6.76
		c2.5-1.84,5.34-3.93,9.79-6.44c6.36-3.59,11.86-6.7,19.17-8.15c7.63-1.52,13.56-0.49,18.32,0.34c5.13,0.89,9.57,1.66,12.88-1.84
		c3.75-3.96,2.63-9.84,1.73-14.57c-0.3-1.61-0.75-3.96-0.59-4.89c2.01,0.09,8.32,4.79,13.44,11.58c5.11,6.78,8.22,14.88,9.28,24.05
		c-0.79,0.79-1.58,1.87-2.44,3.04c-3.39,4.61-9.69,13.2-18.14,14.12c-4.79,0.53-8.16-1.58-12.42-4.24
		c-4.77-2.97-10.18-6.34-18.66-6.5c-0.2,0-0.41,0-0.61,0c-6.94,0-13.9,2.19-20.69,6.53c-10.19,6.5-14.33,15.74-17.65,23.16
		c-2.83,6.33-5.07,11.32-9.94,12.51c-3.04,0.75-4.88-0.32-8.13-2.43c-3.13-2.03-7-4.54-13.14-4.54c-0.13,0-0.26,0-0.4,0
		c-8.85,0.16-13.64,5.36-19.18,11.38c-4.59,4.99-9.8,10.64-18.78,15.76c-11.94,6.8-23.55,8.45-42.78,11.19
		c-11.58,1.65-16.7,1.39-20.44,1.2c-3.55-0.18-6.12-0.31-11.3,1.17c-16.85,4.81-25.31,16.32-32.78,26.47
		c-6.81,9.26-12.69,17.26-23.54,18.65c-6.75,0.86-11.13-1.32-16.19-3.85c-5.91-2.96-12.62-6.31-23.71-4.57
		c-6.26,0.98-9.27,2.89-15.27,6.7c-3.6,2.29-8.54,5.43-16.2,9.66c-25.04,13.85-36.48,19.84-45.45,16.68
		c-5.08-1.79-7.19-5.16-9.87-9.42c-2.86-4.56-6.1-9.72-13.59-13.44c-11.79-5.84-24.05-3.12-40.08,1.37
		c-22.93,6.42-36.66,12.12-46.69,16.28c-6.25,2.6-11.2,4.65-16.08,5.92c-25.93,6.75-61.35-6.12-102.43-37.22
		c-31.97-24.2-56.67-51.1-61.29-56.24l-0.3-0.33c-16.43-18.3-46.99-48.58-67.03-45.66c-2.57,0.37-7.56,1.11-11.27,3.85
		C154.46,390.25,154.8,382.56,156.81,375.17z M153.79,428.59c0.48-2.54,1.59-8.48,4.57-9.62c2.14-0.82,4.92,1.6,10.07,6.3
		c4.19,3.82,9.4,8.58,16.78,13.38c7.62,4.95,12.69,6.74,17.16,8.32c4.83,1.71,9,3.18,15.58,8.39c4.7,3.72,6.78,6.3,9.19,9.29
		c2.25,2.79,4.81,5.96,9.83,10.52c9.5,8.63,17.81,13.12,26.61,17.88c0.98,0.53,1.98,1.07,2.99,1.62
		c12.58,6.86,24.83,14.85,36.67,22.59c5.99,3.91,12.17,7.95,18.35,11.8c8.12,5.08,14.67,9.2,20.06,12.59
		c20.11,12.67,24.29,15.31,33.99,19.02c11.38,4.37,23.82,9.14,36.35,9.14c5.36,0,10.73-0.87,16.04-3.03c5.66-2.3,8.66-5,11.55-7.61
		c3.05-2.75,6.2-5.59,13-8.49c15.45-6.59,30.05-5.12,37.07-4.41c12.71,1.28,18.9,4.56,24.37,7.45c5.44,2.88,10.14,5.37,18.93,4.82
		c9.47-0.59,14.37-4.1,20.58-8.55c5.76-4.13,12.93-9.26,26.76-13.78c4.29-1.4,15.88-4.79,30.83-6.01
		c12.7-1.04,19.48,0.13,25.46,1.16c5.68,0.98,10.58,1.83,18.46,0.33c10.6-2.01,15.41-6.15,21.5-11.4
		c5.22-4.5,11.71-10.09,24.34-16.39c9.86-4.92,14.92-6.06,20.79-7.38c5.64-1.27,12.03-2.71,23.54-7.9
		c14.79-6.67,21.42-11.96,27.27-16.63c5.66-4.52,10.13-8.09,20.75-11.62c10.98-3.65,18.4-3.9,25.58-4.15
		c8.4-0.29,16.34-0.56,27.69-6.76c6.81-3.72,9.69-6.75,13.04-10.26c3.04-3.19,6.5-6.82,14.01-12.11
		c15.24-10.73,40.67-24.31,48.25-17.77c4.65,4.01,3.17,17.17-3.81,34.53c-2.18,0.2-4.05,1.58-5.87,2.93
		c-2.31,1.71-4.93,3.64-8.9,4.13c-4.39,0.55-7.18-1.03-10.4-2.86c-3.16-1.79-6.75-3.8-11.77-3.28c-5.86,0.62-8.88,4.21-13.05,9.17
		c-2.26,2.69-5.08,6.04-9.1,9.9c-5.72,5.48-15.3,14.65-27.38,18.57c-8.48,2.75-13.8,1.57-19.43,0.33
		c-5.61-1.24-11.41-2.52-19.71,0.46c-8.33,3-11.57,7.52-15,12.31c-3.26,4.55-6.63,9.26-15.21,13.88c-16,8.62-33.39,7.74-40.82,7.36
		c-7.84-0.4-11.25-1.57-14-2.51c-2.64-0.91-4.92-1.7-9.33-1.31c-15.81,1.38-24.94,14.42-33.77,27.04
		c-8.04,11.49-15.64,22.34-27.54,23.52c-5.74,0.57-8.46-1.49-12.22-4.33c-3.86-2.91-8.67-6.54-17.8-7.91
		c-18.6-2.78-31.82,6.86-44.61,16.19c-11.61,8.46-22.57,16.46-36.46,13.71c-6.82-1.35-11.39-4.62-16.23-8.09
		c-6.48-4.64-13.2-9.44-24.99-8.81c-7.68,0.41-12.74,2.87-23.82,8.25l-0.88,0.43c-24.1,11.69-41.52,20.14-46.55,22.14
		c-15.16,6.01-32.06-3.74-104.16-51.84l-0.11-0.08c-79.45-53-127.4-84.98-130.25-88.19l-0.13-0.18c-1.65-2.23-6.68-9.03-14.05-9.26
		c-2.1-0.07-4.31,0.42-6.5,1.4C155.55,443.32,152.29,436.62,153.79,428.59z M147.71,471.03c0.01-5.7,2.67-11.65,7.1-15.94
		c3.08-2.98,6.53-4.66,9.48-4.55c4.95,0.15,8.89,5.48,10.19,7.23l0.14,0.18c2.33,3.14,33.45,23.97,131.49,89.37l0.11,0.08
		c60.96,40.66,83.1,54.37,98.65,54.36c3.59,0,6.84-0.73,10.12-2.04c5.21-2.06,21.79-10.11,46.89-22.29l0.88-0.43
		c10.77-5.23,15.23-7.39,21.91-7.75c10.06-0.54,15.5,3.36,21.81,7.88c5.06,3.62,10.28,7.36,18.17,8.93
		c16.04,3.18,28.41-5.84,40.38-14.57c11.98-8.74,24.38-17.76,40.92-15.28c7.88,1.18,11.77,4.12,15.53,6.96
		c4.14,3.12,8.04,6.08,15.73,5.31c14.18-1.4,22.8-13.72,31.14-25.63c8.55-12.21,16.62-23.74,30.11-24.92
		c3.35-0.29,4.82,0.21,7.26,1.06c2.88,0.99,6.83,2.35,15.37,2.78c7.84,0.39,26.21,1.32,43.44-7.96c9.59-5.17,13.48-10.59,16.9-15.37
		c3.22-4.5,5.77-8.05,12.63-10.52c6.95-2.5,11.58-1.47,16.94-0.29c5.75,1.27,12.27,2.72,22.05-0.45
		c13.17-4.27,23.27-13.94,29.3-19.72c4.22-4.04,7.13-7.5,9.47-10.29c4.19-4.98,6.04-7.02,9.75-7.41c3.44-0.37,5.91,1.04,8.78,2.66
		c3.49,1.97,7.45,4.21,13.48,3.47c5.28-0.65,8.73-3.21,11.26-5.07c1.88-1.39,2.99-2.16,3.79-1.92c0.76,0.23,4.45,2.41,4.38,22.24
		c-2.1,0.98-3.8,3.54-5.68,6.36c-2.55,3.84-5.73,8.62-10.87,12.14c-7.04,4.82-13.37,4.3-21.39,3.63c-7.84-0.65-16.72-1.39-27.9,3
		c-7.86,3.09-10.83,6.35-13.71,9.5c-2.58,2.82-5.01,5.48-11.58,8.13c-10.16,4.09-17.4,2.94-25.06,1.73
		c-7.74-1.22-15.74-2.49-26.89,1.28c-8.53,2.89-12.18,6.47-16.04,10.26c-3.66,3.6-7.45,7.32-16.34,11.27
		c-10.49,4.65-16.71,4.52-23.31,4.39c-6.19-0.13-12.58-0.26-22.46,3.2c-14.99,5.24-22.59,13.42-29.3,20.63
		c-6.74,7.24-12.55,13.49-24.62,15.25c-7.04,1.03-11.54-0.09-16.31-1.27c-5.63-1.39-11.45-2.84-20.78-0.19
		c-8.76,2.48-12.63,6.3-17.11,10.71c-3.51,3.46-7.48,7.38-14.88,11.75c-5.4,3.19-33.7,18.7-60.81,10.48
		c-5.69-1.72-8.87-3.74-11.94-5.7c-3.92-2.49-7.63-4.85-15.26-5.88c-10.31-1.39-17,1.02-26.25,4.36c-3.55,1.28-7.56,2.73-12.33,4.14
		c-15.57,4.62-36.89,10.94-56.82,5.35c-9.55-2.68-14.05-6.71-19.75-11.8c-5.57-4.98-11.89-10.63-24.3-16.4
		c-11.85-5.51-18.2-5.98-24.92-6.48c-5.44-0.41-11.07-0.83-20.46-4.31c-18.28-6.79-28.29-16.74-39.89-28.26
		c-10.63-10.57-22.69-22.54-43.28-33.64c-3.78-2.04-6.02-3.06-8.39-4.15c-2.79-1.28-5.68-2.6-11.51-5.8
		c-4.12-2.26-7.77-4.39-10.99-6.27c-11.87-6.94-19.04-11.12-28.24-9.31c-0.88,0.17-2.37,0.47-3.94,1.1
		C152.34,486,147.69,478.7,147.71,471.03z M159.01,497.24c0.85-2.1,4.59-2.84,5.83-3.08c7.33-1.45,13.51,2.16,24.74,8.72
		c3.24,1.9,6.92,4.04,11.1,6.34c5.99,3.28,8.96,4.64,11.83,5.96c2.3,1.05,4.46,2.05,8.1,4.01c19.96,10.75,31.23,21.95,42.13,32.78
		c11.51,11.44,22.38,22.24,41.67,29.4c10.04,3.73,16.03,4.18,21.82,4.61c6.25,0.47,12.16,0.91,23.19,6.03
		c11.73,5.45,17.76,10.84,23.07,15.59c5.94,5.31,11.07,9.9,21.73,12.89c6.07,1.7,12.21,2.39,18.25,2.39
		c15.18,0,29.79-4.33,41.35-7.76c4.9-1.45,8.99-2.93,12.6-4.23c8.91-3.22,14.79-5.34,23.89-4.11c6.54,0.88,9.5,2.76,13.25,5.14
		c3.2,2.03,6.83,4.34,13.17,6.26c29.11,8.82,59.09-7.59,64.81-10.96c7.93-4.69,12.32-9.02,15.85-12.5
		c4.32-4.26,7.44-7.33,14.96-9.46c8.05-2.28,12.76-1.11,18.21,0.24c4.79,1.19,10.22,2.53,18.23,1.36
		c13.8-2.01,20.48-9.19,27.56-16.79c6.62-7.12,13.47-14.49,27.29-19.32c9.03-3.16,14.7-3.04,20.71-2.92
		c6.85,0.14,13.93,0.29,25.44-4.82c9.72-4.31,14.02-8.54,17.82-12.27c3.59-3.53,6.69-6.57,14.14-9.09
		c9.99-3.38,17.04-2.26,24.51-1.08c7.99,1.27,16.26,2.58,27.71-2.03c7.63-3.07,10.57-6.28,13.41-9.39
		c2.61-2.85,5.07-5.55,11.85-8.22c8.26-3.25,15.05-3.4,21.44-2.99c-9.79,2.74-13.81,10.57-18.04,18.87
		c-3.67,7.21-7.84,15.37-16.54,21.92c-11.28,8.49-21.41,7.85-33.13,7.12c-12.34-0.77-26.32-1.64-43.28,8.83
		c-5.07,3.13-9.5,6.72-13.4,9.89c-7.91,6.42-14.16,11.48-21.47,9.72c-3.44-0.83-5.4-2.7-7.47-4.68c-2.35-2.25-5.01-4.8-9.68-5.33
		c-8.15-0.91-13.29,4.99-20.4,13.17c-4.11,4.73-8.77,10.09-15.23,15.77c-9.98,8.78-30.76,27.06-53.24,24.67
		c-5.57-0.59-9.34-2.26-12.98-3.87c-5.01-2.22-9.74-4.31-17.57-3c-7.13,1.19-10.65,4.16-15.1,7.92c-2.99,2.52-6.37,5.37-11.77,8.46
		c-9.26,5.3-27.51,13.6-45.72,9.68c-8.43-1.81-12.97-5.48-17.37-9.03c-4.79-3.87-9.75-7.88-18.95-8.63
		c-10.11-0.84-16.88,2.87-25.45,7.55c-3.21,1.75-6.85,3.74-11.04,5.69c-0.19,0.09-19.74,8.94-58.89,12.03
		c-50.83,4.01-99.29-37.08-125.34-59.16c-13.1-11.11-25.94-23.68-38.36-35.84c-26.48-25.94-49.36-48.35-64.76-45.91
		c-0.87,0.14-2.14,0.34-3.56,0.69C159.49,501.85,158.3,498.99,159.01,497.24z M156.75,513.22c1.12-3.17,7.45-4.17,9.52-4.49
		c12.92-2.06,36.02,20.58,60.48,44.54c12.48,12.22,25.38,24.86,38.62,36.09c7.87,6.67,17.75,15.04,29.13,23.42
		c-7.44-2.84-13.34-4.32-18.54-5.62c-9.77-2.45-16.23-4.06-25.63-13.08c-9.26-8.88-14.49-18.43-19.11-26.86
		c-6.22-11.36-11.6-21.17-24.29-23.58c-4.91-0.93-9.18-0.41-12.95,0.06c-5.32,0.66-9.51,1.18-14.51-2.01
		c-4.28-2.73-6.61-6.64-8.67-10.09c-2.27-3.8-4.61-7.72-9.15-8.55C158.57,520,155.84,515.8,156.75,513.22z M153.32,541.45
		c-1.51-2.1-2.18-4.44-1.83-6.42c0.67-3.77,5.17-7.45,8.82-7.14c2.49,0.21,3.84,2.29,6.21,6.26c2.23,3.73,5,8.38,10.28,11.74
		c6.51,4.16,12.26,3.44,17.81,2.76c3.57-0.44,7.26-0.9,11.41-0.11c10.37,1.97,14.76,9.98,20.83,21.07
		c4.79,8.74,10.22,18.65,20.03,28.06c10.36,9.94,18.09,11.88,27.87,14.33c9.07,2.27,20.35,5.09,38.52,15.16
		c17.85,9.89,25.6,17.53,31.82,23.67c6.75,6.66,12.08,11.91,26.08,16.36c10.62,3.37,24.5,5.8,39.59,5.8
		c13.92,0,28.87-2.07,43.22-7.37c2.19-0.81,4.15-1.61,6.05-2.39c5.49-2.25,10.22-4.2,17.9-5.13c11.12-1.35,17.32,0.74,24.49,3.16
		c5.55,1.87,11.84,3.99,21.02,4.52c19.12,1.08,35.71-5.5,60.81-15.49c3.04-1.21,5.74-2.35,8.13-3.36
		c9.05-3.83,14.51-6.14,22.97-5.65c7.35,0.42,11.43,2.57,15.37,4.65c4.03,2.12,7.84,4.12,14.02,3.77
		c10.12-0.58,15.4-6.8,22.09-14.68c5.11-6.03,10.91-12.86,20.54-19.45c7.18-4.91,19.91-8.79,45.27-16.52
		c23.44-7.14,34.52-9.24,41.85-10.63c7.41-1.4,10.79-2.05,18.41-6.44c5.23-3.01,9.69-6.19,14.01-9.25
		c9.97-7.08,18.58-13.2,32.4-14.16c3.33-0.23,4.98-0.03,6.43,0.15c1.77,0.22,3.43,0.43,6.86-0.18c1.96-0.35,3.8-0.84,5.59-1.5
		c-3.38,3.22-5.39,6.61-7.23,9.7c-2.67,4.48-4.97,8.35-10.77,11.69c-3.94,2.27-6.89,2.76-12.25,3.65c-1.16,0.19-2.41,0.4-3.8,0.65
		l0.01,0.03c-2.9,0.52-20.13,3.87-44.87,13.11c-15.92,5.94-24.1,11.8-30.08,16.07c-6.34,4.54-10.17,7.28-18.91,7.52
		c-8,0.22-13.2-1.89-17.8-3.76c-5.36-2.17-10.41-4.22-17.51-1.43c-7.42,2.91-10.28,8.42-13.31,14.24
		c-2.87,5.51-6.11,11.75-14.05,17.46c-2.22,1.6-13.96,9.49-29.37,9.49c-0.18,0-0.36,0-0.54,0c-8.84-0.11-13.84-2.73-18.66-5.26
		c-4.76-2.5-9.25-4.86-16.17-3.91c-9.66,1.32-13.93,7.69-18.46,14.44c-3.96,5.9-8.45,12.6-17.56,17.21
		c-14.63,7.41-35.4,6.56-58.48-2.4c-6.86-2.66-11.26-5.38-14.79-7.57c-5.16-3.2-9.23-5.69-16.79-5.62
		c-9.53,0.13-15.42,4.25-22.25,9.01c-4.4,3.07-9.39,6.55-16.25,9.58c-15.26,6.73-28.63,6.35-44.11,5.92
		c-38.68-1.1-73.02-27.76-116.5-61.52c-14.48-11.24-30.06-21.42-45.14-31.27c-17.56-11.47-35.72-23.33-52.08-36.86l-0.26-0.22
		c-3.57-2.96-10.03-8.31-15.97-9.27l0-0.01C159.66,546.99,155.67,544.72,153.32,541.45z M157.7,558.34
		c0.55-2.57,1.81-4.71,3.22-5.45c0.69-0.36,1.53-0.42,2.46-0.29c0.05,0.01,0.09,0.02,0.14,0.03l0-0.01
		c4.5,0.73,11.07,6.17,13.52,8.2l0.27,0.22c16.58,13.71,34.85,25.64,52.53,37.19c14.99,9.79,30.49,19.91,44.81,31.03
		c44.2,34.32,79.1,61.42,119.43,62.57c3.65,0.1,7.25,0.21,10.84,0.21c11.56,0,22.98-1.06,35.42-6.55
		c7.31-3.22,12.51-6.85,17.1-10.06c6.66-4.65,11.47-8,19.46-8.11c6.13-0.08,9.1,1.78,14.08,4.87c3.71,2.3,8.32,5.16,15.61,7.99
		c24.42,9.48,46.64,10.26,62.55,2.2c10.27-5.2,15.15-12.47,19.46-18.88c4.22-6.29,7.56-11.26,14.99-12.27
		c5.34-0.73,8.79,1.09,13.17,3.38c4.85,2.54,10.88,5.71,20.93,5.83c17.25,0.18,30.43-8.65,32.9-10.43
		c8.9-6.41,12.59-13.51,15.56-19.21c2.92-5.61,5.03-9.66,10.7-11.89c5.24-2.06,8.65-0.68,13.8,1.41c4.81,1.95,10.79,4.37,19.82,4.12
		c10.26-0.28,15.05-3.71,21.68-8.45c6.07-4.34,13.61-9.74,28.92-15.45c25.61-9.56,43.81-12.87,43.99-12.9
		c1.36-0.24,2.6-0.45,3.74-0.64c5.54-0.92,9.2-1.53,13.92-4.25c6.94-3.99,9.8-8.81,12.57-13.46c2.53-4.25,4.92-8.26,10.52-11.88
		c8.79-5.67,19.14-6.29,22.54-6.5c4.01-0.24,6.69,0.08,9.06,0.37c3.26,0.39,6.08,0.74,10.58-0.45c6.76-1.77,11.14-5.44,14.04-7.86
		c0.9-0.75,2.08-1.74,2.73-2.08c0.46,0.9,1.48,4.8-1.67,20.03c-0.46-0.15-0.93-0.29-1.4-0.4c-6.13-1.37-10.74,1.43-17.71,5.67
		c-0.79,0.48-1.63,0.99-2.5,1.51c-8.62,5.17-17.99,9.45-27.06,13.58c-5.93,2.71-12.07,5.51-17.99,8.55
		c-17.26,8.88-25.93,13.33-30.46,15.24c-9.69,4.07-15.42,5.71-20.96,7.3c-5.18,1.48-10.53,3.02-18.87,6.49
		c-10.12,4.21-14.96,7.22-20.09,10.4c-4.15,2.58-8.44,5.24-16.01,8.79c-12.95,6.08-19.41,7.25-26.25,8.5
		c-6,1.09-12.2,2.22-22.71,6.79c-15.42,6.71-25.81,14.57-34.15,20.89c-10.45,7.91-17.35,13.13-27.16,11.12
		c-4.49-0.92-6.61-2.68-9.07-4.72c-2.79-2.31-5.94-4.93-12.46-6.02c-11.02-1.83-18.5,2.73-29.82,9.64
		c-5.14,3.14-10.98,6.7-18.46,10.52c-23.15,11.81-38.44,19.62-55.1,16.62c-8.66-1.56-13.91-5.28-18.99-8.88
		c-6.11-4.34-11.88-8.42-22.16-8c-8.76,0.37-13.94,3.84-19.93,7.86c-3.58,2.4-7.64,5.12-13.18,7.69
		c-24.08,11.18-48.03,6.97-58.26,5.17c-15.82-2.78-21.91-8.14-31.12-16.25c-8.91-7.84-19.99-17.59-44.04-29.49
		c-8.75-4.33-16.61-7.64-23.55-10.56c-17.98-7.57-29.86-12.57-37.4-26.68c-1.22-2.29-2.14-4.45-3.03-6.55
		c-2.13-5.04-4.15-9.81-9.77-14.82c-7.16-6.38-13.59-7.38-20.41-8.44c-5.78-0.9-11.77-1.83-18.99-6.37
		c-7.83-4.92-12.07-10.9-15.48-15.71c-3.63-5.12-6.79-9.55-12.5-9.19c-1.71-0.28-4.65-1.11-6.62-3.63
		C157.61,565.21,156.97,561.77,157.7,558.34z M166.14,576.15c2.95-0.32,4.78,2.09,8.33,7.09c3.47,4.9,8.22,11.6,16.9,17.05
		c8.1,5.09,14.89,6.14,20.88,7.07c6.33,0.98,11.79,1.83,17.85,7.23c4.78,4.26,6.5,8.33,8.49,13.04c0.93,2.2,1.89,4.47,3.22,6.96
		c8.38,15.67,21.58,21.23,39.87,28.93c6.87,2.89,14.65,6.17,23.27,10.43c23.46,11.6,34.27,21.12,42.95,28.76
		c9.49,8.35,16.35,14.39,33.55,17.42c4.7,0.83,13.15,2.32,23.5,2.32c11.15,0,24.5-1.73,37.73-7.87c5.9-2.74,10.13-5.57,13.86-8.08
		c5.81-3.89,10.01-6.71,17.36-7.01c8.57-0.36,13.43,3.09,19.06,7.09c5.26,3.74,11.23,7.97,20.99,9.73
		c18.32,3.3,34.21-4.81,58.26-17.08c7.65-3.9,13.57-7.52,18.79-10.7c10.73-6.55,17.21-10.5,26.39-8.97
		c5.19,0.86,7.46,2.75,10.09,4.93c2.6,2.16,5.55,4.6,11.26,5.77c12.03,2.46,20.48-3.93,31.18-12.04
		c8.13-6.16,18.26-13.82,33.13-20.29c9.98-4.34,15.63-5.37,21.61-6.46c6.85-1.25,13.94-2.54,27.48-8.89
		c7.83-3.68,12.25-6.42,16.52-9.07c4.95-3.07,9.63-5.98,19.37-10.03c8.07-3.36,13.05-4.79,18.32-6.3
		c5.68-1.63,11.55-3.31,21.51-7.49c4.71-1.98,13.44-6.46,30.82-15.4c5.81-2.99,11.9-5.76,17.78-8.45
		c9.19-4.19,18.7-8.53,27.55-13.84c0.88-0.53,1.73-1.04,2.53-1.53c6.84-4.16,10.03-5.96,14.02-5.07
		c6.99,1.56,12.88,10.41,12.6,18.93c-0.28,8.59-6.59,14.13-8.88,15.86c-3.08-0.12-5.44,2.28-7.73,4.61
		c-2.52,2.56-5.37,5.46-9.7,6.27c-4.8,0.9-8.27-1.38-12.29-4.02c-4.06-2.67-8.66-5.71-15.02-5.21c-6.08,0.47-8.91,3.7-13.2,8.59
		c-2.93,3.35-6.58,7.52-12.73,12.66c-8.18,6.85-20.54,17.2-37.02,19.35c-6.49,0.85-9.86-0.08-13.13-0.97
		c-3.57-0.98-7.26-1.99-13.9-0.52c-8.58,1.9-13.11,5.93-17.9,10.19c-4.37,3.89-9.32,8.29-18.53,12.16
		c-4.33,1.82-11.61,3.3-24.81,5.98c-16.18,3.29-23.6,4.24-28.51,4.87c-4.09,0.52-6.55,0.84-10.76,2.08
		c-16.45,4.84-24.68,13.53-31.94,21.2c-6.99,7.38-13.02,13.76-25.16,15.49c-7.68,1.1-11.59-0.49-16.12-2.32
		c-4.57-1.85-9.76-3.95-19-3.05c-16.36,1.58-24.79,10.26-32.94,18.65c-6.92,7.12-13.45,13.86-24.71,15.84
		c-13.93,2.46-24.14-4.15-34.95-11.16c-11.27-7.3-22.92-14.85-38.74-11.02c-10.85,2.62-16.27,8.9-21.51,14.97
		c-4.56,5.28-9.27,10.73-17.91,14.25c-10.78,4.39-29.51,5.86-79.02-22.08c-4-2.26-98.8-55.92-162.78-109.27l-0.16-0.13
		c-3.91-3.26-11.98-9.99-20.66-10.91c-1.75-1.22-7.86-6.03-8.16-13.95C155.05,584.42,161.03,576.67,166.14,576.15z M147.7,621.85
		c2.23-4.6,6.45-8.54,10.5-9.8c8.43-2.61,18.48,5.78,22.78,9.36l0.16,0.13c64.32,53.64,159.5,107.52,163.52,109.79
		c34.83,19.65,55.32,25.14,68.58,25.14c6.3,0,10.97-1.24,14.78-2.79c9.75-3.97,15.09-10.16,19.8-15.61
		c5.16-5.97,9.61-11.13,18.9-13.38c13.72-3.32,23.98,3.33,34.84,10.36c11.15,7.22,22.67,14.68,38.53,11.88
		c12.85-2.27,20.26-9.9,27.42-17.28c7.86-8.1,15.29-15.75,29.83-17.16c8.03-0.77,12.21,0.92,16.64,2.71
		c4.76,1.93,9.69,3.92,18.7,2.63c13.87-1.98,20.77-9.27,28.08-17c7.16-7.56,14.56-15.38,29.72-19.84c3.83-1.13,6.02-1.41,9.99-1.92
		c4.98-0.64,12.51-1.6,28.87-4.93c13.51-2.75,20.96-4.26,25.75-6.27c9.98-4.19,15.25-8.89,19.91-13.03
		c4.67-4.15,8.35-7.43,15.66-9.05c5.43-1.2,8.11-0.47,11.5,0.46c3.57,0.98,7.61,2.09,15.1,1.11c17.92-2.34,30.96-13.25,39.58-20.48
		c6.44-5.39,10.39-9.91,13.28-13.2c3.96-4.53,5.77-6.59,9.82-6.9c4.66-0.37,8.17,1.95,11.89,4.4c4.3,2.83,9.17,6.03,15.96,4.76
		c5.87-1.1,9.61-4.9,12.34-7.67c1.68-1.71,3.27-3.32,4.2-3.08c0.65,0.17,3.8,1.81,4.85,17.72c-2.4,0.35-5,1.91-8.33,3.93
		c-1.94,1.17-4.13,2.5-6.83,3.97c-4.33,2.35-15.57,8.04-26.31,10.1c-6.51,1.25-9.63,0.54-12.93-0.21
		c-3.19-0.72-6.48-1.46-12.25-0.58c-10.28,1.58-15.92,6.53-21.38,11.32c-5.02,4.41-10.21,8.96-19.55,11.73
		c-6.36,1.89-9.49,1.43-13.11,0.91c-3.74-0.54-7.98-1.16-15.83,0.58c-12.06,2.69-18.41,7.74-25.12,13.09
		c-5.29,4.22-10.76,8.58-19.72,12.32c-10.43,4.35-15.76,3.78-21.41,3.17c-5.73-0.61-11.66-1.25-22.21,2.94
		c-12.88,5.11-20.44,12.47-27.75,19.58c-8.43,8.2-15.71,15.29-29.97,17.81c-2.14,0.38-3.75,0.53-5.62,0.71
		c-2.71,0.26-5.78,0.55-11.26,1.6c-16.82,3.21-28.63,8.2-34.31,10.6l-0.66,0.28c-37.89,15.96-62.93,26.5-83.12,18.37
		c-6.38-2.57-9.71-5.88-12.93-9.08c-4-3.98-7.78-7.73-16.05-8.71c-9.3-1.09-14.89,2.44-21.97,6.91
		c-5.28,3.33-11.85,7.48-21.99,10.82c-24.98,8.22-42.42,4.99-52.66,0.83c-6.44-2.62-8.72-4.94-11.6-7.88
		c-3.12-3.18-6.66-6.79-15.83-11.21c-8.75-4.21-15.15-5.55-21.94-6.97c-6.91-1.45-14.06-2.95-24.88-7.62
		c-7.27-3.14-11.91-5.88-21.17-11.35c-21.21-12.53-37.2-25.37-44.84-31.92c-11.69-10.01-17.88-16.83-22.39-21.81
		c-5.88-6.48-9.11-10.04-17.63-12.4c-4.11-1.14-8.15-1.66-12.06-2.16c-6.91-0.89-13.44-1.73-19.37-5.92
		c-1.89-1.34-7.04-4.57-14.02-5.76c-1.34-0.23-2.95-0.5-4.55-0.55c-2.33-0.9-7.06-3.23-8.85-7.85
		C145.56,629.38,145.89,625.59,147.7,621.85z M153.3,645.68c0.34-0.34,1.67-0.59,6.04,0.15c5.96,1.02,10.36,3.78,12,4.94
		c6.91,4.88,14.37,5.84,21.58,6.77c3.73,0.48,7.6,0.98,11.36,2.02c7.12,1.97,9.5,4.6,15.26,10.94c4.61,5.08,10.92,12.03,22.85,22.25
		c7.76,6.65,24.01,19.71,45.55,32.43c9.43,5.57,14.17,8.37,21.72,11.63c11.28,4.87,19.01,6.49,25.83,7.92
		c6.76,1.42,12.6,2.64,20.8,6.59c8.39,4.03,11.46,7.17,14.43,10.2c3.03,3.09,5.89,6,13.29,9.01c11.01,4.47,29.68,7.99,56.11-0.71
		c10.73-3.53,17.59-7.86,23.1-11.34c6.73-4.25,11.18-7.07,18.72-6.17c6.56,0.77,9.45,3.65,13.11,7.28
		c3.41,3.39,7.27,7.22,14.59,10.17c22.1,8.9,47.89-1.96,86.92-18.4l0.67-0.28c5.52-2.33,17.01-7.18,33.3-10.29
		c5.25-1,8.2-1.28,10.8-1.53c1.89-0.18,3.68-0.35,6.02-0.76c15.78-2.79,23.95-10.74,32.59-19.15c6.96-6.77,14.16-13.78,26.11-18.52
		c9.41-3.73,14.47-3.19,19.83-2.62c6.03,0.64,12.25,1.31,23.87-3.53c9.6-4.01,15.61-8.8,20.91-13.02
		c6.52-5.2,12.15-9.69,23.09-12.12c6.95-1.55,10.54-1.02,14.02-0.52c3.85,0.56,7.83,1.14,15.25-1.06
		c10.39-3.08,16.25-8.23,21.42-12.77c5.37-4.71,10-8.78,18.84-10.14c4.83-0.74,7.41-0.16,10.39,0.51c3.49,0.79,7.44,1.68,14.98,0.24
		c11.42-2.19,23.21-8.16,27.75-10.62c2.81-1.52,5.15-2.94,7.04-4.09c4.03-2.44,6.18-3.68,7.27-3.13c2.11,1.06,3.37,7.1,1.79,12.37
		c-1.57,5.25-5.99,9.54-11.65,12.63c-2.55,0.62-5.01,1.78-7.18,3.08c-4.57,1.5-9.45,2.34-14.05,2.41
		c-6.85,0.14-10.87-1.52-14.42-2.96c-3.86-1.56-7.52-3.04-13-1.55c-8.75,2.38-11.93,9.59-14.99,16.55
		c-2.77,6.29-5.64,12.79-12.56,17.49c-8.2,5.57-15.87,4.34-24.74,2.91c-9.17-1.48-19.56-3.15-31.68,3.07
		c-9.8,5.03-13.77,11.63-17.27,17.45c-3.34,5.56-6.23,10.36-13.83,13.06c-9.4,3.34-16.85,0.2-24.74-3.13
		c-8.27-3.49-16.82-7.1-27.98-3.8c-10.93,3.23-15.04,10.38-19.39,17.94c-4.15,7.22-8.44,14.69-19.38,20.55
		c-9.27,4.96-16.06,4.83-24.66,4.67c-8.78-0.17-19.7-0.37-36.23,5.12c-9.7,3.23-13.58,5.85-17.32,8.38
		c-3.64,2.47-7.41,5.02-17.19,8.48c-12.61,4.46-42.14,14.92-71.14,5.34c-4.79-1.58-7.87-3.13-10.59-4.51
		c-4.16-2.1-7.45-3.76-13.83-4.04c-14.96-0.68-25.74,7.21-34.41,13.54c-2.67,1.95-5.2,3.79-7.56,5.18
		c-10.06,5.9-36.16,10.95-97.91-21.5c-51.58-27.11-91.62-61.58-120.85-86.75c-24.41-21.02-40.72-35.06-51.86-35.06
		c-1.39,0-2.7,0.22-3.93,0.67C153.58,649.74,152.96,646.25,153.3,645.68z M152.3,670.33c0.3-4.7,4.78-8.47,6.48-9.53
		c0.95-0.59,2.05-0.86,3.32-0.86c9.31,0,26.95,15.19,48.59,33.82c29.41,25.33,69.7,60.02,121.79,87.39
		c63.9,33.58,91.81,27.81,102.77,21.39c2.58-1.51,5.2-3.43,7.98-5.46c8.46-6.18,18.04-13.17,31.24-12.59
		c5.31,0.24,7.89,1.54,11.8,3.51c2.73,1.38,6.13,3.09,11.27,4.79c30.63,10.11,61.29-0.74,74.38-5.38
		c10.38-3.68,14.42-6.41,18.33-9.05c3.62-2.46,7.05-4.77,16.1-7.78c15.71-5.22,25.72-5.04,34.55-4.87
		c8.96,0.17,16.7,0.32,27.11-5.26c12.21-6.53,17.07-15,21.36-22.47c4.17-7.25,7.45-12.98,16.47-15.64
		c9.44-2.79,16.81,0.32,24.62,3.62c8.43,3.55,17.14,7.23,28.36,3.24c9.28-3.3,12.92-9.35,16.44-15.19
		c3.31-5.5,6.74-11.2,15.27-15.57c10.65-5.47,19.77-4,28.6-2.58c9.09,1.46,18.5,2.98,28.35-3.71c8.11-5.51,11.42-13,14.33-19.61
		c2.95-6.7,5.28-11.99,11.73-13.74c3.86-1.05,6.23-0.09,9.81,1.36c3.8,1.54,8.51,3.46,16.38,3.33c1.57-0.03,3.17-0.13,4.78-0.31
		c-5.03,4.85-6.98,9.32-8.87,13.66c-1.4,3.21-2.84,6.52-5.61,10.23c-8.21,10.98-20.47,14.29-40.78,19.76
		c-11.65,3.14-16.96,3.32-22.09,3.5c-4.61,0.16-8.97,0.3-17.02,2.65c-17.61,5.12-27.29,13.36-35.06,19.97
		c-7.94,6.76-14.23,12.1-26.05,12.1c-0.07,0-0.14,0-0.21,0c-3.08-0.02-6.17-0.39-9.16-0.75c-7.72-0.93-15.69-1.89-22.99,3.54
		c-2.28,1.7-3.68,3.4-5.03,5.04c-1.67,2.03-3.12,3.78-6.19,5.51c-4.59,2.58-8.23,2.52-12.43,2.43c-2.34-0.04-4.76-0.09-7.43,0.34
		c-10.8,1.76-15.41,9.7-19.87,17.39c-4,6.89-7.77,13.39-15.85,16.44c-6.74,2.54-11.88,0.87-18.4-1.25
		c-7.17-2.34-16.1-5.24-29.45-2.7c-5.76,1.1-8.15,2.4-11.76,4.36c-2.96,1.61-6.65,3.61-13.97,6.49
		c-11.46,4.51-34.34,12.07-58.83,12.08c-0.03,0-0.05,0-0.08,0c-11.94,0-18.4-1.83-25.25-3.77c-5.07-1.43-10.31-2.92-18.02-3.87
		c-23.05-2.84-36.78,3.15-50.07,8.94c-9.24,4.03-18.79,8.2-31.67,9.43c-61.69,5.91-134.33-60.32-157.77-95.41
		c-0.73-1.09-1.47-2.25-2.26-3.47c-6.24-9.7-14.8-22.98-31.14-28.9c-5.24-1.9-9.95-2.55-14.5-3.18c-6.98-0.97-13.58-1.88-21.74-7.28
		C156.24,680.7,151.98,675.28,152.3,670.33z M857.19,717.56c-6.52,7.55-8.54,13.54-10.15,18.35c-1.45,4.32-2.41,7.17-6.14,9.51
		c-5.77,3.63-11.39,1.64-18.51-0.89c-7.41-2.63-15.8-5.61-26.64-3.27c-12.23,2.64-18.29,10.09-24.14,17.29
		c-5.63,6.93-10.96,13.47-21.78,15.64c-8.37,1.68-13.65-0.56-19.24-2.92c-6.03-2.55-12.27-5.19-22.12-3.21
		c-12.24,2.47-17.66,9.56-23.4,17.06c-5.13,6.71-10.44,13.66-21.5,18.32c-10.81,4.55-18.25,3.21-26.86,1.65
		c-8.92-1.61-19.03-3.44-34.2,1.33c-10.99,3.46-16.18,7.75-21.2,11.91c-5.11,4.23-10.4,8.6-22.5,12.62
		c-17.82,5.9-35.16,7.17-51.56,3.75c-10.4-2.16-16.44-5.41-21.76-8.26c-5.9-3.17-11-5.91-19.44-5.57
		c-13.58,0.53-21.1,8.42-28.38,16.04c-4.38,4.6-8.92,9.35-14.85,12.6c-46.35,25.37-146.88-57.28-206.95-106.67
		c-25.1-20.64-43.24-35.55-52.14-39l-0.21-0.08c-1.63-0.62-6.61-2.52-9.23-7.23c-1.91-3.42-2.25-7.81-1.02-13.07
		c3.28,3.44,7.06,5.93,8.95,7.18c9.11,6.02,16.59,7.06,23.81,8.06c4.49,0.62,8.73,1.21,13.48,2.93
		c14.75,5.35,22.78,17.81,28.64,26.9c0.8,1.24,1.57,2.43,2.31,3.54c10.49,15.71,33.97,41.95,65.61,64.21
		c24.35,17.13,60.92,36.84,96.79,33.4c13.67-1.31,23.6-5.64,33.19-9.83c13.25-5.78,25.77-11.24,47.45-8.56
		c7.33,0.91,12.39,2.34,17.28,3.72c7.19,2.04,13.98,3.96,26.61,3.96c0.03,0,0.05,0,0.08,0c25.31-0.02,48.87-7.79,60.66-12.43
		c7.61-2.99,11.61-5.17,14.52-6.75c3.42-1.86,5.31-2.89,10.31-3.84c12.08-2.31,19.99,0.27,26.96,2.54
		c6.85,2.23,13.33,4.34,21.71,1.18c9.74-3.68,14.34-11.61,18.4-18.61c4.23-7.29,7.88-13.58,16.35-14.96
		c2.22-0.36,4.31-0.32,6.53-0.28c4.52,0.08,9.2,0.17,14.98-3.08c3.89-2.19,5.86-4.58,7.6-6.69c1.22-1.48,2.37-2.88,4.16-4.21
		c5.7-4.24,12.05-3.47,19.41-2.59c3.13,0.38,6.36,0.77,9.73,0.78c0.08,0,0.16,0,0.25,0c13.66,0,20.9-6.16,29.29-13.29
		c7.8-6.63,16.63-14.15,33.22-18.98c7.45-2.17,11.32-2.3,15.79-2.45c5.17-0.17,11.02-0.37,23.22-3.66
		c6.99-1.89,13.18-3.55,18.67-5.42C863.32,710.46,859.19,715.25,857.19,717.56z M933.94,675.49c-0.2,11-7.16,24.64-18.05,27.5
		c-4.33,1.14-7.04-0.02-10.79-1.62c-3.32-1.42-7.36-3.14-13.18-3.14c-0.77,0-1.56,0.03-2.39,0.09c-1.73,0.13-3.41,0.4-5.02,0.76
		c3.61-2.42,6.76-5.34,9.52-9.03c3.12-4.17,4.75-7.92,6.19-11.23c2.07-4.74,3.85-8.84,9.51-13.64c2.21-1.88,4.28-3.41,6.21-4.6
		c2.32-0.8,4.57-1.76,6.7-2.87c1.84-0.36,3.46-0.23,4.87,0.39C932.45,660.29,934.06,668.84,933.94,675.49z"/>
	<path d="M309.98,412.25c18.92-0.69,31.92-3.77,41.42-6.02c12.24-2.9,18.99-4.5,27.75,0.35c9.85,5.45,13.45,14.19,17.26,23.45
		c4.16,10.09,8.45,20.53,21.43,24.98c3.93,1.35,8.28,1.99,12.76,1.99c10.13,0,20.88-3.3,28.63-9.27c4.52-3.48,6.2-6.43,7.56-8.8
		c1.18-2.07,1.96-3.43,4.39-4.78c6.73-3.73,13.98-0.07,23.16,4.56c9.37,4.73,21.04,10.61,35.56,9.54c9.51-0.7,13.91-3.87,18.57-7.23
		c4.66-3.36,9.48-6.83,20.76-8.89c11.84-2.16,20.23-0.83,27.64,0.36c8.47,1.35,15.79,2.51,23.88-3.05c4.46-3.07,6.2-6.15,8.4-10.04
		c2.32-4.1,5.21-9.2,12.68-17.11c8.18-8.66,12.29-13,18.01-14.63c7.11-2.02,12.11,1.09,19.69,5.81c5.15,3.2,11.55,7.19,20.16,10.23
		c33.51,11.83,66.14-2.6,78.62-9.35c15.61-8.45,22.72-15.37,21.11-20.55c-1.51-4.88-8.05-4.34-17.94-3.54
		c-13.28,1.08-33.35,2.71-52.23-7.13c-9.8-5.11-14.46-10.74-18.58-15.7c-4.58-5.53-8.54-10.3-17.51-11.37
		c-12.13-1.44-20.99,5.49-29.57,12.18c-8.79,6.86-17.87,13.96-31.07,13.08c-6.54-0.44-9.59-2.45-13.11-4.78
		c-3.78-2.5-8.07-5.34-16.75-5.94c-12.33-0.84-20.29,3.69-27.98,8.08c-7.26,4.15-14.77,8.44-26.65,8.76
		c-13.97,0.38-30.48-4.65-32.76-12.73c-0.92-3.25,0.88-6.42,2.96-10.1c2.61-4.61,5.56-9.83,3.96-16.61
		c-2.12-8.95-10.8-13.75-16.54-16.93c-20.28-11.22-42.16-9.29-50.63-7.94c-21.54,3.44-31.62,12.03-42.29,21.13
		c-8.42,7.18-17.13,14.61-32.49,20.36c-21.38,8.01-38.05,6.15-54.18,4.34c-18.63-2.09-36.24-4.06-58.78,8.85
		c-12.92,7.4-33.83,23.41-30.28,36.53C242.27,413.73,298.72,412.66,309.98,412.25z M269.77,362.13
		c21.12-12.1,37.94-10.21,55.74-8.22c16.71,1.87,33.99,3.8,56.49-4.63c16.18-6.06,25.64-14.12,33.98-21.24
		c10.56-9,19.68-16.78,39.83-20c7.96-1.27,28.5-3.09,47.42,7.38c5.27,2.92,12.49,6.91,14.1,13.71c1.15,4.87-1.08,8.81-3.45,12.99
		c-2.41,4.26-4.9,8.67-3.42,13.92c3.36,11.91,24.08,16.72,37.71,16.37c13.13-0.36,21.56-5.17,28.99-9.42
		c7.69-4.39,14.32-8.19,25.15-7.44c7.37,0.51,10.76,2.75,14.34,5.12c3.77,2.5,7.67,5.08,15.54,5.6c15.1,1.01,25.4-7.04,34.48-14.13
		c8.49-6.63,15.82-12.37,25.9-11.16c6.99,0.83,9.88,4.32,14.26,9.6c4.2,5.07,9.43,11.37,20.12,16.94
		c20.16,10.51,41.09,8.81,54.95,7.68c5.24-0.43,11.77-0.96,12.75,0.04c0.41,1.32-4.81,7.15-18.72,14.68
		c-11.89,6.43-42.95,20.19-74.57,9.03c-8.09-2.85-13.98-6.52-19.18-9.76c-8.08-5.03-14.46-9-23.7-6.38
		c-7.05,2-11.47,6.68-20.28,16.01c-7.89,8.35-11.07,13.98-13.4,18.09c-2.1,3.72-3.37,5.96-6.88,8.38
		c-6.45,4.44-11.94,3.56-20.26,2.24c-7.42-1.18-16.65-2.65-29.33-0.34c-12.39,2.26-17.92,6.24-22.79,9.75
		c-4.42,3.18-7.91,5.7-16.01,6.3c-13.15,0.96-23.66-4.33-32.94-9.01c-9.67-4.88-18.79-9.48-27.84-4.47c-3.66,2.03-5,4.39-6.31,6.68
		c-1.25,2.19-2.54,4.45-6.26,7.32c-9.96,7.66-25.4,10.4-36.73,6.51c-10.84-3.72-14.36-12.26-18.43-22.16
		c-3.79-9.2-8.08-19.62-19.46-25.92c-4.89-2.71-9.32-3.71-13.93-3.71c-5.23,0-10.71,1.3-17.39,2.88
		c-9.81,2.32-22.02,5.21-40.45,5.89c-31.54,1.15-65.02-3.37-67.96-14.24C239.65,384.94,254.32,370.98,269.77,362.13z"/>
</g>
</svg>
