<?xml version="1.0" encoding="utf-8"?>
<!-- Generator: Adobe Illustrator 25.0.0, SVG Export Plug-In . SVG Version: 6.00 Build 0)  -->
<svg version="1.1" id="Camada_1" xmlns="http://www.w3.org/2000/svg" xmlns:xlink="http://www.w3.org/1999/xlink" x="0px" y="0px"
	 viewBox="0 0 1080 1080" style="enable-background:new 0 0 1080 1080;" xml:space="preserve">
<style type="text/css">
	.st0{fill:#010202;}
</style>
<path class="st0" d="M979.36,311.59c-24.25-28.61-58.88-54.26-102.91-76.23c-72.69-36.27-164.66-59.38-264.31-66.92
	c-3.19-4.91-6.25-10.04-9.17-15.39l-4.41-8.1l-4.38,8.13c-2.53,4.71-5.18,9.29-7.95,13.76c-15.31-0.74-30.79-1.11-46.37-1.11
	c-92.8,0-181.59,13.19-257.78,37.8c-0.28-0.49-0.55-0.98-0.82-1.47l-5.48-9.98l-3.64,10.79c-0.51,1.5-1.03,3-1.57,4.49
	c-23.84,8.21-46.37,17.56-67.3,28c-44.03,21.97-78.66,47.62-102.91,76.23c-25.45,30.02-38.35,62-38.35,95.07
	c0,2.96,0.1,5.86,0.3,8.58c0.28,4.1,0.76,8.19,1.44,12.25c-0.84,1.05-1.34,2.39-1.33,3.84l1.76,240.79
	c0.23,30.5,7.55,60.98,21.17,88.16c13.69,27.3,33.79,51.33,58.13,69.49c88.9,66.36,237.08,105.98,396.38,105.98
	c127.06,0,246.6-24.73,336.59-69.63c44.03-21.97,78.66-47.62,102.91-76.23c25.45-30.02,38.35-62,38.35-95.07V406.66
	C1017.71,373.59,1004.81,341.61,979.36,311.59z M871.98,244.31c87.53,43.67,135.73,101.33,135.73,162.35
	c0,25.72-8.48,50.79-24.99,74.54l2.77-4.29c-11.52-7.43-27.59-17.34-47.53-28.55c0.66-4.77,0.89-9.74,0.59-14.91
	c-1.38-23.76-13.75-39.69-34.23-66.09c-12.02-15.49-21.13-24.04-34.92-36.99c-7.28-6.85-15.54-14.6-26.27-25.28
	c-15.09-15.02-29.8-30.57-43.7-46.24l-4.52-5.09l-3.5,5.83c-9.39,15.6-20.5,30.07-33.02,43.02c-5.15,5.33-9.51,9.34-13.41,12.59
	c-0.07-20.33-6.49-40.36-18.37-55.59c-10.67-13.69-21.97-18.63-35.05-24.35c-7.98-3.49-17.03-7.44-27.49-14.08
	c-16.68-10.58-31.59-24.69-44.54-42.12C714.75,187.12,802.4,209.59,871.98,244.31z M172.96,356.84
	c4.88-19.31,16.46-28.99,32.48-42.39c14.95-12.5,33.56-28.06,51.67-56.76c2.79-4.42,5.44-8.95,7.94-13.56
	c-0.11,0.52-0.21,1.04-0.31,1.56c-1.23,6.31-2.18,12.67-2.91,19.07c-0.35,3.2-0.64,6.4-0.88,9.62c-0.22,3.2-0.37,6.45-0.52,9.56
	c-0.27,6.25-0.74,11.93-2.94,16.74c-1.03,2.44-2.6,4.69-4.38,6.76c-1.75,2.11-3.95,3.9-6.29,5.56c-2.36,1.65-4.99,2.99-7.71,4.26
	c-2.77,1.16-5.62,2.27-8.59,3.12c-5.92,1.81-12.15,2.98-18.49,4.09c1.59,0.27,3.19,0.46,4.79,0.64c1.61,0.15,3.22,0.27,4.84,0.33
	c3.25,0.17,6.51,0.03,9.79-0.26c3.28-0.29,6.55-0.92,9.82-1.74c1.61-0.49,3.25-0.93,4.83-1.6c0.8-0.32,1.61-0.59,2.39-0.96
	l2.34-1.15c3.05-1.67,6.08-3.62,8.62-6.2c2.61-2.49,4.88-5.42,6.56-8.73c1.73-3.29,2.74-6.87,3.4-10.33c0.6-3.46,0.83-6.83,1-10.05
	l0.4-9.47c0.11-3.13,0.31-6.26,0.47-9.39c0.35-6.27,0.8-12.53,1.25-18.82c0.52-7.14,1.14-14.28,1.7-21.47c0,0,0.01,0,0.01-0.01
	c1.3-3,2.55-6.03,3.73-9.09c0.04,0.07,0.08,0.13,0.13,0.2c-0.54,1.06-1.03,2.14-1.47,3.25c-1.15,2.88-2.04,5.94-2.43,9.15
	c-0.38,3.21-0.31,6.56,0.4,9.87c0.69,3.3,2.11,6.53,4.03,9.43c0.51,0.7,0.99,1.44,1.54,2.1l1.71,1.93c1.2,1.18,2.45,2.34,3.72,3.33
	c2.52,2.06,5.13,3.74,7.46,5.42c2.35,1.66,4.49,3.29,6.26,5.08c1.83,1.74,3.13,3.74,4.23,5.9c1.13,2.14,1.8,4.56,2.21,7.03
	c0.42,2.48,0.45,5.07,0.24,7.71c-0.2,2.64-0.73,5.32-1.41,8.01c-0.71,2.68-1.6,5.36-2.61,8.09c-0.54,1.42-1.03,2.67-1.56,3.99
	c-0.58,1.28-1.15,2.57-1.8,3.83c-1.29,2.52-2.74,4.99-4.38,7.37c-3.27,4.77-7.25,9.14-11.74,13.25c5.65-2.27,10.89-5.75,15.44-10.06
	c2.26-2.16,4.36-4.54,6.24-7.1c0.97-1.26,1.8-2.62,2.66-3.96c0.78-1.38,1.63-2.8,2.29-4.13c2.86-5.48,5.31-11.56,6.27-18.18
	c0.49-3.31,0.54-6.76,0.12-10.2c-0.47-3.45-1.41-6.88-3.01-10.08c-1.61-3.16-3.74-6.18-6.3-8.54c-2.55-2.36-5.26-4.28-7.91-5.92
	c-5.27-3.25-10.13-5.8-13.4-9.61c-1.63-1.91-3.03-4.07-3.99-6.53c-0.96-2.45-1.56-5.12-1.79-7.9c-0.3-3.33-0.08-6.77,0.44-10.26
	c7.11,10.91,15.32,20.89,24.48,29.76c10.48,10.15,20.32,17.01,29.52,22.31c0.98,2.08,1.93,4.12,2.81,6.16
	c0.99,2.31,1.95,4.58,2.83,6.86c0.86,2.3,1.68,4.58,2.44,6.89c1.5,4.63,2.76,9.33,3.79,14.23c1.09,4.91,1.84,9.97,2.94,15.53
	c3.02-4.82,4.45-10.38,4.88-16.01c0.39-5.64-0.34-11.4-2.09-16.82c-0.89-2.71-2.01-5.34-3.37-7.84c-0.41-0.74-0.85-1.48-1.3-2.2
	c2.11,1.03,4.19,2.02,6.22,2.99c13.97,6.66,26.04,12.41,37.87,25.83c0.68,0.77,9.86,11.34,16.91,26.86
	c1.37,3.02,2.66,6.23,3.79,9.59c3.09,9.15,5,19.43,4.15,30.11c-7.87,5.99-15.25,12.51-23.02,22.57
	c-4.65,6.02-16.14,20.88-22.57,41.22c-15.02,9.02-32.94,15.69-52.58,19.03c-3.63-2.46-7.34-5.25-11.11-8.43
	c-16.03-13.52-29.18-30.67-39.07-50.96l-4.69-9.62l-4.37,9.77c-8.5,19.02-18.41,35.09-29.6,48.08c-9.3,0.6-17.65-0.93-24.87-4.55
	c-8.36-4.2-15.54-11.54-21.04-20.66c-1.69-2.81-3.22-5.79-4.58-8.9C170.84,394.23,168.5,374.5,172.96,356.84z M483.21,327.44
	c-0.54,1.68-0.95,3.41-1.3,5.17c-0.18,1.17-0.35,2.35-0.45,3.54c-0.07,0.75-0.12,1.51-0.12,2.27c-0.17,3.92,0.4,7.94,1.39,11.65
	c0.98,3.74,2.37,7.06,3.21,10.06c0.93,3.01,1.28,5.69,1.02,8.49l-0.08,1.06l-0.19,1.06l-0.18,1.07l-0.3,1.06
	c-0.22,0.71-0.35,1.43-0.63,2.12c-0.28,0.69-0.56,1.38-0.82,2.07c-1.22,2.74-2.87,5.32-4.8,7.78c-3.93,4.89-9.06,9.08-14.64,12.71
	c-1.41,0.9-2.82,1.78-4.31,2.64c-1.47,0.82-2.89,1.64-4.39,2.37c-2.98,1.48-6.09,2.76-9.3,3.82c-3.22,1.07-6.53,1.89-9.92,2.56
	c-1.7,0.32-3.41,0.59-5.14,0.79c-1.74,0.24-3.48,0.38-5.25,0.52c6.89,1.64,14.19,1.9,21.4,0.89c3.61-0.51,7.19-1.35,10.68-2.52
	c1.76-0.55,3.48-1.28,5.17-1.97c1.63-0.7,3.32-1.45,4.94-2.3c3.28-1.66,6.47-3.55,9.49-5.77c3.03-2.21,5.92-4.71,8.49-7.62
	c2.57-2.89,4.78-6.2,6.55-9.8c0.4-0.92,0.78-1.85,1.16-2.78c0.38-0.94,0.61-1.93,0.91-2.9c0.14-0.49,0.29-0.97,0.41-1.46l0.29-1.51
	l0.28-1.52l0.15-1.56c0.12-1.04,0.1-2.1,0.08-3.15c0.02-1.06-0.16-2.1-0.26-3.15c-0.15-1.02-0.35-2.04-0.57-3.03
	c-0.25-0.97-0.48-1.97-0.8-2.86c-1.21-3.69-2.6-6.82-3.54-9.82c-0.99-3-1.53-5.95-1.69-9.03c-0.05-0.86-0.06-1.73-0.04-2.59
	c0.06-2.24,0.34-4.48,0.82-6.72c0.24-1.13,0.53-2.25,0.86-3.36c1.51-5.05,3.97-9.98,6.95-14.67l1.39-2.15l1.48-2.1
	c0.95-1.44,2.06-2.76,3.08-4.17c1.04-1.39,2.19-2.71,3.28-4.08c0.04-0.04,0.07-0.09,0.11-0.13c0.65,0.88,1.33,1.76,2.01,2.63
	c-0.6,4.05-0.81,8.19-0.63,12.35c0.19,4.01,0.75,8.05,1.71,12.02c0.57,2.38,1.29,4.73,2.17,7.03c0.38,1.02,0.79,2.02,1.22,3.02
	c0.87,2.03,1.85,4.01,2.9,5.91c1.54,2.86,3.26,5.52,4.82,8.13c1.59,2.6,3.1,5.12,4.41,7.71c1.37,2.57,2.57,5.2,3.61,7.93
	c0.57,1.34,1.05,2.72,1.54,4.11c0.5,1.38,0.97,2.91,1.46,4.32c0.99,2.86,1.83,5.63,2.34,8.22c0.51,2.58,0.55,5.02,0.15,7.59
	c-0.39,2.55-1.27,5.05-2.5,7.48c-2.48,4.85-6.46,9.24-11.01,13.11c-4.56,3.9-9.69,7.31-15.1,10.49c3.09-0.57,6.15-1.42,9.13-2.51
	c2.99-1.07,5.91-2.39,8.74-3.95c5.63-3.13,10.99-7.32,14.95-13.1c1.94-2.89,3.54-6.16,4.39-9.69c0.93-3.48,1.07-7.34,0.6-10.87
	c-0.46-3.54-1.41-6.73-2.29-9.76c-0.47-1.54-0.92-2.96-1.44-4.51c-0.53-1.54-1.05-3.09-1.66-4.61c-1.21-3.05-2.62-6.05-4.21-8.93
	c-1.61-2.86-3.36-5.61-5.15-8.2c-1.81-2.59-3.57-5.07-5.23-7.51c-0.27-0.41-0.54-0.82-0.8-1.23c-1.32-2.06-2.55-4.14-3.67-6.31
	c-0.66-1.25-1.28-2.53-1.85-3.83c-1.81-4.06-3.24-8.34-4.37-12.76c-0.71-2.79-1.27-5.62-1.72-8.51
	c6.17,7.63,12.83,14.86,19.91,21.57c0.29,0.28,0.57,0.55,0.86,0.82c3.93,3.69,7.63,6.91,11.17,9.76
	c8.26,6.66,15.58,11.34,22.52,15.31c1.19,2.86,2.34,5.63,3.39,8.42c1.99,5.19,3.72,10.33,5.22,15.54
	c1.47,5.23,2.71,10.51,3.72,15.98c1.05,5.47,1.78,11.07,2.85,17.13c1.57-2.67,2.63-5.54,3.45-8.49c0.81-2.94,1.3-5.98,1.52-9.04
	c0.43-6.13-0.26-12.35-1.92-18.3c-1.51-5.33-3.83-10.41-6.85-15.01c9.97,5.37,19.5,10.63,30.64,20.39
	c11.41,10.01,46.15,40.45,44.25,79.23c-1.36,28.01-21.8,47.7-39.83,65.07c-6.57,6.32-18.94,16.95-36.45,26.58
	c-17.5,9.63-40.14,18.25-67.23,20.55c-15.33,1.3-34.4,2.91-57.1-5.34c-10.52-3.82-21.17-9.6-31.06-16.95
	c-0.61-3.39-1.31-6.66-2.12-9.81c-5.03-19.67-13.98-34.94-26.62-45.41c-5.07-4.2-10.36-7.36-15.85-9.97
	c-1.31-6.24-1.93-12.67-1.74-19.23c0.2-6.98,1.29-13.56,2.94-19.66c1.67-6.22,3.92-11.94,6.37-17.07
	c5.55-11.57,12.17-20.14,15.69-24.69c3.95-5.11,7.83-9.25,11.77-12.9c4.14-3.83,8.35-7.11,12.77-10.35c1.84-1.35,3.72-2.7,5.65-4.09
	c3.26-2.34,6.64-4.76,10.23-7.48c11.88-8.98,23.24-19.08,34.02-30.24C477.63,333.56,480.44,330.54,483.21,327.44z M686.91,392.34
	c5.83-11.82,12.53-21.69,18.65-29.43c2.55-3.21,4.99-6.06,7.24-8.53c0.96-1.06,1.88-2.04,2.76-2.96
	c6.53-6.82,11.71-10.96,16.72-14.55c1.64-1.18,3.26-2.3,4.9-3.43c2.2-1.51,4.48-3.08,6.92-4.87c5.86-4.3,12.66-9.89,21.48-19.01
	c4.18-4.31,8.2-8.8,12.06-13.43c-0.52,1.23-1,2.48-1.44,3.75c-2.37,6.6-3.27,13.9-3.31,20.68c-0.04,6.8,0.06,12.78-1.22,18.64
	c-0.27,1.47-0.67,2.92-1.06,4.38c-0.21,0.72-0.46,1.45-0.69,2.17l-0.35,1.09l-0.39,1.14c-1.03,3.02-2.16,5.84-3.48,8.54
	c-2.11,4.29-4.79,8.22-8.14,11.57c-0.84,0.85-1.74,1.67-2.67,2.44c-0.55,0.52-1.17,0.93-1.77,1.39c-0.61,0.44-1.18,0.94-1.82,1.33
	l-1.93,1.22c-0.57,0.36-1.18,0.66-1.77,0.99h-0.01c-0.08,0.04-0.15,0.08-0.22,0.12c-2.7,1.43-5.58,2.66-8.6,3.56
	c-3.01,0.95-6.15,1.64-9.35,2.15c-1.6,0.26-3.22,0.46-4.86,0.58c-1.64,0.17-3.28,0.23-4.96,0.3c3.2,0.99,6.53,1.57,9.9,1.88
	c3.38,0.31,6.82,0.26,10.26-0.12c3.44-0.37,6.87-1.16,10.21-2.34c2.35-0.79,4.63-1.85,6.82-3.09c0.94-0.52,1.86-1.08,2.76-1.67
	l2.22-1.56c0.73-0.53,1.41-1.13,2.12-1.69c0.89-0.79,1.77-1.61,2.6-2.46c0.44-0.44,0.87-0.9,1.28-1.36
	c2.46-2.68,4.54-5.69,6.29-8.82c1.78-3.11,3.15-6.41,4.38-9.58l0.44-1.18l0.43-1.25c0.28-0.84,0.57-1.68,0.83-2.53
	c0.49-1.72,0.98-3.44,1.33-5.2c0.71-3.53,1.07-7.14,1.15-10.65c0.04-3.52-0.12-6.89-0.25-10.09c-0.14-3.2-0.13-6.26,0.06-9.31
	c0.21-3.05,0.65-6.09,1.32-9.1c1.33-6.02,3.62-11.92,6.57-17.6c1.45-2.87,3.13-5.63,4.87-8.4l0.09-0.15
	c-1.04,4.54-1.45,9.26-1.23,14.03c0.28,5.83,1.55,11.72,3.92,17.25c0.55,1.4,1.26,2.75,1.95,4.11c0.77,1.33,1.54,2.67,2.45,3.91
	c1.73,2.55,3.83,4.84,5.78,6.89c1.98,2.06,3.79,3.86,5.14,5.72c1.39,1.84,2.42,3.78,3.2,5.99c0.18,0.56,0.43,1.08,0.56,1.67
	l0.44,1.73c0.37,1.14,0.41,2.36,0.64,3.55c0.13,0.59,0.13,1.2,0.18,1.81l0.12,1.82c-0.03,1.24-0.02,2.47-0.09,3.72
	c-0.35,4.98-1.45,10.07-3.14,15.06c-1.68,4.99-3.88,9.93-6.48,14.65c-1.35,2.45-2.87,4.83-4.53,7.16c-1.53,2.17-3.18,4.29-4.93,6.39
	c2.75-1.47,5.35-3.24,7.78-5.27c2.01-1.64,3.9-3.46,5.65-5.42c3.86-4.35,7.12-9.21,9.74-14.5c0.66-1.31,1.24-2.68,1.83-4.04
	c0.52-1.4,1.08-2.78,1.5-4.23l0.67-2.15l0.52-2.22c0.38-1.46,0.55-3,0.81-4.51c0.21-1.52,0.26-3.08,0.35-4.63l-0.05-2.34
	c-0.02-0.79-0.01-1.57-0.13-2.36c-0.21-1.56-0.32-3.14-0.75-4.68l-0.56-2.33c-0.17-0.77-0.49-1.53-0.74-2.3
	c-1.1-3.03-2.74-6.05-4.78-8.61c-2.06-2.55-4.3-4.61-6.3-6.44c-2.03-1.84-3.8-3.59-5.43-5.48c-1.61-1.9-3.08-3.94-4.37-6.17
	c-2.66-4.42-4.65-9.34-6.1-14.51c-0.73-2.59-1.29-5.25-1.76-7.97c-0.37-2.21-0.66-4.47-0.91-6.76l0.3-0.46l1.33-1.9
	c10.4,11.52,21.22,22.97,32.28,34.14c1.55,3.56,3.14,7.06,4.7,10.56l10.04,22.05l10.02,22.07c3.4,7.39,6.73,14.84,10.75,22.29
	c0.03-8.47-1.35-16.76-3.36-24.87c-2.06-8.1-4.84-16.01-8.3-23.62c-1.51-3.33-3.14-6.61-4.92-9.81c4.98,4.78,9.39,8.92,13.49,12.77
	c13.44,12.62,22.32,20.96,33.86,35.83c19.95,25.71,30.94,39.88,32.15,60.55c0.18,3.08,0.14,6.09-0.11,9.03
	c-0.28,3.63-0.87,7.15-1.69,10.54c-6.79,28.11-29.52,47.28-32.61,49.78c-26.46,21.41-56.52,21.59-69.2,20.48
	c-3.11-1.64-6.46-3.35-10.08-5.2c-4.11-2.11-8.76-4.49-13.8-7.14c-36.23-19.09-60.67-35.56-72.64-48.95
	c-7.43-8.31-13.9-17.6-19.23-27.61l-4.25-7.99l-4.5,7.85c-8.36,14.58-17.72,28.18-27.98,40.68c-1.67-14.08-1.34-28.14,0.99-41.95
	c1.66-9.84,4.26-18.97,7.42-27.35C682.73,401.33,684.76,396.7,686.91,392.34z M795.29,272.24c0.38-0.58,0.76-1.17,1.13-1.75
	c0.14,0.15,0.27,0.3,0.41,0.45C796.31,271.36,795.79,271.8,795.29,272.24z M661.85,469.33c0.4,5.39,1.06,10.8,2.01,16.19
	c-3.75,4.16-7.61,8.18-11.58,12.05c-3.16,3.09-6.26,5.96-9.29,8.65C651.67,495.6,658.83,483.62,661.85,469.33z M663.61,431.89
	c-0.54,3.22-0.98,6.45-1.32,9.69c-1.72-9.91-5.3-19.1-9.79-27.39c5.57-0.86,11.01-2.09,16.31-3.67
	C666.66,417.24,664.88,424.37,663.61,431.89z M330.06,463.32c13.06-3.08,25.35-7.56,36.54-13.31c-0.7,4.08-1.14,8.32-1.27,12.7
	c-0.14,4.99,0.12,9.98,0.8,14.94c-2.91-1.09-5.86-2.12-8.85-3.17C348.82,471.51,339.72,468.33,330.06,463.32z M434.72,358.78
	c-3.16,2.39-6.19,4.57-9.12,6.67c-0.23-8.48-1.83-16.55-4.16-23.96c12.43-1.5,23.23-2.52,32.08-3.36c2-0.19,3.99-0.37,5.98-0.53
	C451.53,345.25,443.26,352.32,434.72,358.78z M199.06,448.93c6.08,3.06,12.76,4.9,19.95,5.52c-5.36,5.11-10.99,9.58-16.86,13.4
	c-1.24,0.81-2.68,1.71-4.28,2.72c-10.64,6.68-28.46,17.85-47.19,37.89c-4.66,4.98-9.11,10.23-13.27,15.66
	c-16.3-13.55-29.72-27.83-40.05-42.64c17.39-15.47,35.96-29.97,55.19-43.1c7.09-4.84,14.19-9.44,21.28-13.8
	C180.06,434.96,188.49,443.61,199.06,448.93z M145.21,530.38c4-5.23,8.28-10.29,12.77-15.09c17.84-19.09,34.97-29.83,45.21-36.25
	c1.65-1.04,3.13-1.97,4.42-2.81c20.24-13.18,37.62-33.29,51.82-59.9c-1.28,9-2.94,17.84-5.19,26.49
	c-1.73,6.68-3.75,13.24-6.14,19.66c-0.64,1.59-1.23,3.19-1.85,4.79l-2.01,4.71c-0.63,1.59-1.41,3.11-2.11,4.66
	c-0.7,1.54-1.47,3.12-2.25,4.69c-1.5,3.14-3.06,6.2-4.68,9.18c-1.6,3.01-3.33,5.91-5.17,8.71c-1.83,2.81-3.8,5.52-5.92,8.09
	c-1.03,1.32-2.19,2.51-3.29,3.78l-1.74,1.8l-0.88,0.9l-0.92,0.85c-9.69,9.31-21.89,16.14-35.38,20.72
	c14.27-0.48,28.69-5.66,40.46-14.75l1.11-0.84l1.07-0.9l2.13-1.81c1.35-1.28,2.74-2.53,4-3.9c2.61-2.66,4.95-5.57,7.14-8.55
	c4.4-5.98,7.89-12.48,11.06-18.89c0.77-1.6,1.53-3.2,2.28-4.89c0.73-1.67,1.54-3.3,2.19-5c0.66-1.7,1.34-3.39,1.97-5.1
	c0.59-1.72,1.2-3.44,1.76-5.17c2.18-6.94,3.84-14.03,4.88-21.19c1.67-11.36,1.95-22.88,0.64-34.16v-0.01
	c0.08-0.15,0.16-0.29,0.23-0.44c1.29,2.32,2.63,4.59,4.01,6.82c-0.73,9.75,0.58,19.78,3.82,29.28c2.04,6.07,5.05,11.9,8.54,17.23
	c1.73,2.68,3.63,5.19,5.39,7.63c1.78,2.42,3.51,4.74,4.78,7.03c1.32,2.28,2.21,4.53,2.68,6.91c0.09,0.61,0.22,1.2,0.3,1.81
	l0.11,1.88c0.06,1.27-0.06,2.56-0.16,3.85c-0.6,5.16-2.73,10.38-5.39,15.61c-1.33,2.62-2.79,5.25-4.26,7.91
	c-1.49,2.71-2.88,5.24-4.48,7.8c-3.12,5.11-6.67,10.01-10.47,14.91c5.26-3.29,10.03-7.37,14.34-11.93c1.09-1.14,2.11-2.33,3.14-3.53
	c1.02-1.21,1.97-2.44,2.92-3.63c1.9-2.42,3.78-4.9,5.55-7.54c1.77-2.63,3.45-5.41,4.85-8.44c1.42-3.02,2.53-6.3,3.15-9.75
	c0.29-1.74,0.49-3.49,0.49-5.27l-0.05-2.7c-0.08-0.9-0.22-1.81-0.34-2.72c-0.6-3.62-2-7.11-3.7-10.12
	c-3.53-6.01-7.67-10.39-11.06-15.13c-3.48-4.67-6.51-9.53-9.05-14.78c-2.53-5.24-4.62-10.76-6.25-16.49
	c-0.38-1.31-0.74-2.64-1.07-3.97c8.35,12.33,18.07,23.2,29.09,32.5c10.61,8.95,20.64,14.95,30.08,19.44c0.78,1,1.52,2.02,2.22,3.06
	c1.65,2.46,3.13,4.96,4.41,7.54c0.57,1.32,1.24,2.58,1.7,3.94c0.6,1.3,0.97,2.69,1.43,4.04c0.28,0.66,0.4,1.36,0.6,2.05
	c0.17,0.69,0.37,1.37,0.53,2.07c0.26,1.4,0.61,2.79,0.76,4.22c0.48,2.84,0.62,5.76,0.66,8.73c0.05,2.98-0.14,6.02-0.47,9.12
	c-0.32,3.12-0.83,6.26-1.42,9.58c2.5-2.29,4.46-5.11,6.08-8.1c1.61-3.01,2.82-6.27,3.59-9.66c0.77-3.39,1.16-6.93,0.99-10.47
	c0.02-1.79-0.32-3.54-0.52-5.31c-0.13-0.88-0.38-1.74-0.57-2.61c-0.22-0.86-0.37-1.75-0.68-2.58c-0.6-1.68-1.12-3.39-1.91-4.99
	c-0.66-1.49-1.48-2.93-2.3-4.33c3.11,1.15,6.14,2.21,9.1,3.25c5.1,1.79,9.92,3.48,14.49,5.4c4.43,1.86,8.63,3.95,12.64,6.57
	c1.85,1.21,3.66,2.53,5.43,4c10.25,8.49,17.7,20.76,22.33,36.71c1.48,5.08,2.67,10.53,3.57,16.35c3.2,20.64,2.81,45.96-1.2,75.83
	c-95.57-13.43-180.56-41.81-243.14-82.24c-2.47-1.59-4.89-3.2-7.26-4.82c-0.79-0.54-1.58-1.08-2.36-1.62
	c-0.78-0.55-1.56-1.09-2.33-1.64c-0.94-0.66-1.88-1.33-2.8-2c-1.39-1-2.76-2-4.12-3.02c-0.01,0-0.01,0-0.01,0
	C147.87,532.42,146.53,531.4,145.21,530.38z M423.51,560.85c8.27,5.32,16.99,9.72,25.79,12.91c15.2,5.53,29.05,6.98,41.04,6.98
	c7.55,0,14.36-0.57,20.32-1.08c27.76-2.34,51.09-10.96,69.37-20.76c-3.55,4.42-6.85,9.33-9.86,14.95
	c-9.83,18.41-14.21,39.79-13,63.59c-5.75,0.11-11.52,0.16-17.31,0.16c-40.68,0-80.5-2.55-118.72-7.48
	C424.68,603.76,425.47,580.58,423.51,560.85z M567.17,637.21c-1.16-22.07,2.82-41.79,11.82-58.64
	c9.98-18.67,23.38-28.49,40.34-40.93c11.72-8.6,25.01-18.34,39.94-32.91c8.71-8.5,16.94-17.68,24.65-27.48c0,0,0-0.01,0.01-0.01
	c-0.22,1-0.43,2.01-0.61,3.03c-0.67,3.6-1.08,7.28-1.14,11.04c-0.1,3.74,0.31,7.55,0.6,10.88c0.29,3.36,0.36,6.26-0.12,9.33
	c-0.42,3.06-1.22,6.19-2.21,9.23c-4.11,12.14-12.01,23.17-22.54,30.95c-2.66,1.9-5.41,3.72-8.36,5.23
	c-2.94,1.51-6.02,2.82-9.22,3.88c-3.2,1.07-6.51,1.86-9.9,2.49c-1.69,0.31-3.41,0.55-5.14,0.73c-1.73,0.22-3.48,0.33-5.25,0.44
	c3.43,0.89,6.97,1.4,10.56,1.58c3.59,0.2,7.22,0.02,10.84-0.48c3.61-0.52,7.2-1.4,10.69-2.62l2.6-0.98l2.54-1.14
	c0.86-0.36,1.68-0.79,2.5-1.23c0.82-0.44,1.66-0.86,2.45-1.34c12.89-7.56,22.88-19.98,27.73-34.33c1.15-3.62,2.05-7.3,2.53-11.18
	c0.47-3.87,0.27-8.01-0.25-11.59c-0.53-3.61-1-6.75-1.21-10.01c-0.18-3.23-0.14-6.55,0.12-9.88c0.4-5.98,1.45-11.92,3.03-17.81
	c3.67-5.25,7.2-10.64,10.57-16.18c0.37,0.61,0.75,1.23,1.14,1.83c0.01,0.02,0.02,0.03,0.03,0.05c1.15,9.93,3.66,19.73,7.32,29.14
	c2.21,5.77,4.98,11.4,7.97,16.74c1.48,2.67,3.03,5.26,4.41,7.8c1.41,2.52,2.68,4.99,3.58,7.44c0.95,2.43,1.53,4.86,1.76,7.39
	c0.09,0.63,0.1,1.27,0.12,1.91c0.03,0.65,0.05,1.29,0.01,1.81c-0.06,1.07-0.3,2.33-0.58,3.65c-0.6,2.65-1.49,5.43-2.38,8.22
	c-0.92,2.78-1.9,5.59-2.89,8.4c-3.97,11.28-8.24,22.48-12.23,34.04c7.65-9.56,13.93-20.07,19.43-30.97c1.36-2.74,2.7-5.5,3.91-8.35
	c1.24-2.85,2.36-5.76,3.32-8.94c0.47-1.6,0.88-3.29,1.08-5.23c0.11-0.98,0.12-1.86,0.12-2.71c0.01-0.86,0.02-1.73-0.06-2.6
	c-0.22-3.48-1.04-6.98-2.24-10.18c-2.5-6.41-6.05-11.5-9.18-16.54c-3.21-5-6.18-9.99-8.98-15.19c-2.93-5.38-5.6-10.91-8.15-16.57
	c0,0,0.01,0.01,0.01,0.01c2.77,3.75,5.69,7.35,8.77,10.8c9.15,10.23,24.77,21.96,46.62,35.02c0.96,3.14,1.94,6.18,2.84,9.22
	c1.59,5.21,3.01,10.35,4.31,15.51c1.26,5.17,2.42,10.37,3.42,15.72c1.06,5.36,1.9,10.82,3.22,16.68c2.83-5.32,4.14-11.18,4.61-17.1
	c0.44-5.92-0.14-11.92-1.54-17.72c-1.44-5.78-3.75-11.35-6.88-16.39c-0.04-0.06-0.08-0.13-0.12-0.19c0,0,0,0,0,0l0.01,0.01
	c5.93,3.38,12.24,6.83,18.95,10.36c5.09,2.68,9.77,5.08,13.9,7.19c20.42,10.44,30.67,15.68,38.83,28.81
	c3.69,5.95,6.41,12.58,8.09,19.76C777.96,612.56,676.34,634.13,567.17,637.21z M866.46,571.8c-1.95-7.46-4.91-14.4-8.82-20.69
	c-4.56-7.35-9.62-12.57-15.95-17.2c16.33-1.2,38.47-6.33,58.76-22.75c5.36-4.34,27.49-23.64,35.39-52.49
	c18.68,10.57,33.58,19.78,44.04,26.52c-16.07,21.78-38.94,42.41-68.26,61.35C897.64,555.57,882.54,564,866.46,571.8z M598.62,165.63
	c0.39,0.66,0.78,1.31,1.18,1.96c0.02,0.05,0.05,0.1,0.09,0.14c-2.3,3.01-4.39,6.19-6.26,9.51c-3.39,5.97-6.11,12.36-8.13,19.02
	c-1.86,6.07-2.85,12.29-3.99,18.1c-1.12,5.83-2.46,11.51-4.11,17.19c-0.78,2.84-1.67,5.82-2.5,8.65c-0.81,2.86-1.7,5.63-2.69,8.1
	c-0.5,1.24-1.05,2.37-1.68,3.43c-0.33,0.52-0.67,1.03-1.03,1.54l-1.23,1.52l-0.61,0.77c-0.23,0.24-0.47,0.46-0.7,0.69
	c-0.47,0.46-0.95,0.92-1.41,1.4c-0.5,0.44-1.03,0.85-1.54,1.29l-0.78,0.64c-0.27,0.21-0.56,0.38-0.84,0.58
	c-2.19,1.63-4.71,2.86-7.27,4.08c-2.63,1.1-5.36,2.1-8.2,2.87c-2.84,0.78-5.75,1.43-8.72,1.95c-2.97,0.5-6,0.92-9.06,1.28
	c6,1.45,12.26,1.99,18.59,1.59c3.16-0.2,6.33-0.72,9.49-1.49c0.79-0.22,1.57-0.45,2.36-0.7l1.17-0.37l1.15-0.45
	c0.77-0.31,1.55-0.6,2.32-0.93l2.24-1.14c0.37-0.2,0.76-0.38,1.12-0.59l1.07-0.69c0.71-0.46,1.44-0.91,2.14-1.4
	c0.68-0.53,1.34-1.08,2.01-1.63c0.33-0.28,0.67-0.54,0.99-0.83l0.91-0.93l1.81-1.87c0.6-0.68,1.15-1.4,1.67-2.14
	c1.04-1.49,1.92-3.05,2.66-4.58c2.86-6.22,4.37-11.97,6.18-17.9c0.86-3,1.59-6.06,2.27-9.13c0.62-3.08,1.16-6.18,1.58-9.26
	c0.4-3.08,0.75-6.12,1.07-9.08c0.35-2.96,0.71-5.87,1.22-8.75c1.15-6.91,2.92-13.74,5.11-20.56c0.85-2.65,1.76-5.31,2.73-7.97
	c0.47,0.77,0.95,1.54,1.44,2.3c0.3,2.02,0.67,4.02,1.12,6.01c1.23,5.44,3,10.8,5.21,15.98c1.13,2.64,2.43,5.24,3.85,7.75
	c1.39,2.53,2.94,4.88,4.2,7.11c1.28,2.23,2.32,4.34,3.13,6.66c0.84,2.3,1.54,4.76,2.04,7.22c0.58,2.46,0.9,4.97,1.13,7.49
	c0.28,2.53,0.28,5.08,0.24,7.64c-0.14,5.12-0.79,10.25-2.15,15.2c-1.33,5-3.3,9.88-5.82,14.59s-5.61,9.21-9.15,13.57
	c9.84-5.48,17.8-14.72,22.37-25.59c0.54-1.36,1.11-2.73,1.57-4.16c0.46-1.41,0.85-2.85,1.19-4.28c0.71-2.88,1.16-5.8,1.44-8.76
	c0.53-5.9,0.22-11.93-1.05-17.8c-0.29-1.47-0.71-2.91-1.12-4.36c-0.19-0.72-0.44-1.44-0.68-2.15c-0.24-0.72-0.51-1.44-0.79-2.15
	c-1.15-2.84-2.64-5.67-4.29-8.11c-1.65-2.46-3.26-4.64-4.79-6.8c-1.19-1.73-2.35-3.46-3.45-5.24c12.46,15.4,26.53,28.1,42.07,37.97
	c2.45,1.55,4.81,2.96,7.1,4.24c0.15,1.92,0.3,3.73,0.41,5.53c0.23,3.52,0.38,6.86,0.38,10.22c0.04,3.35-0.13,6.69-0.32,10.22
	c-0.2,3.55-0.61,7.19-0.8,11.52c3.78-2.18,6.46-5.6,8.34-9.39c1.85-3.81,2.8-8.1,2.78-12.37c0-3.86-0.76-7.73-2.29-11.23
	c4.74,2.34,9.13,4.25,13.25,6.05c12.8,5.6,22.05,9.64,31.17,21.33c11.85,15.2,17.62,36.67,15.89,57.31
	c-1.05,0.73-2.08,1.44-3.11,2.15c-7.1,4.89-13.8,9.51-23.17,19.29c-1.92,2-4.05,4.33-6.3,6.97c-2.22,2.59-4.57,5.48-6.95,8.66
	c-7.54,10.01-15.6,22.91-21.94,38.43c-8.26,3.07-17.08,5.21-26.3,6.31c-11.03-16.46-24.65-28.4-31.18-34.12
	c-12.44-10.9-23.25-16.7-33.7-22.32c-6.02-3.24-12.14-6.52-18.78-10.87c-4.67-3.06-9.6-6.65-14.92-11.11
	c-2.58-2.17-5.26-4.54-8.05-7.16c-10.7-10.05-20.44-21.3-28.95-33.44l-4.14-5.91l-4.08,5.96c-3.88,5.67-7.88,11.17-11.99,16.48
	c1.07-6.77,2.88-13.26,5.42-19.4c7.94-19.19,20.63-29.57,36.7-42.71c6.99-5.71,14.21-11.62,21.87-18.9
	c13.58-12.93,25.81-27.75,36.52-44.25c2.05-3.16,4.05-6.39,5.97-9.67C597.91,166.85,598.27,166.24,598.62,165.63z M539.86,175.73
	c13.45,0,26.81,0.28,40.05,0.84c-9.47,13.89-20.1,26.46-31.75,37.55c-7.39,7.03-14.46,12.82-21.31,18.41
	c-16.47,13.48-30.7,25.11-39.61,46.62c-4.71,11.38-7.17,23.78-7.32,36.88v0.01c-3.16,3.67-6.38,7.25-9.67,10.72
	c-5.91,0.38-11.8,0.85-17.67,1.41c-9.48,0.9-21.18,2-34.69,3.67c-7.45-17.66-17.88-29.94-19.81-32.13
	c-13.19-14.95-26.73-21.4-41.07-28.24c-14.29-6.8-29.06-13.84-46.01-30.25c-8.87-8.59-16.78-18.27-23.62-28.89
	C362.07,188.5,448.98,175.73,539.86,175.73z M207.74,244.31c18.17-9.06,37.56-17.29,58.01-24.65c-4.83,11.38-10.55,22.32-17.1,32.69
	c-17.27,27.37-34.46,41.75-49.63,54.43c-16.14,13.5-30.08,25.16-35.75,47.61c-4.76,18.85-2.69,41.99,5.94,61.29
	c-7.43,4.57-14.87,9.38-22.3,14.45c-19.17,13.08-37.69,27.51-55.09,42.9c-4.35-7.09-7.99-14.29-10.94-21.58c0,0,0,0,0-0.01
	c-0.42-1.04-0.82-2.09-1.21-3.13c-0.2-0.56-0.41-1.12-0.61-1.68c0,0,0,0,0-0.01c-0.45-1.27-0.89-2.55-1.3-3.83
	c-0.3-0.93-0.58-1.86-0.86-2.79c-0.58-1.99-1.12-3.98-1.6-5.97c-0.31-1.27-0.6-2.55-0.86-3.83c0-0.04-0.01-0.08-0.02-0.12
	c-0.01-0.03-0.01-0.05-0.02-0.08c-1.05-5.12-1.75-10.28-2.11-15.46c-0.19-2.51-0.28-5.16-0.28-7.88
	C72.01,345.64,120.21,287.98,207.74,244.31z M1007.71,694.82c0,61.02-48.2,118.68-135.73,162.35
	c-88.63,44.23-206.58,68.58-332.12,68.58c-157.22,0-303.16-38.87-390.4-103.99c-46.7-34.86-74.84-90.83-75.28-149.74l-1.57-214.33
	c9.28,21.95,24.55,43.01,45.48,62.72c1.4,1.31,2.82,2.62,4.26,3.93c1.54,1.38,3.11,2.77,4.71,4.15c0.83,0.7,1.66,1.41,2.5,2.12
	c0.87,0.72,1.75,1.45,2.63,2.18c0.91,0.75,1.83,1.49,2.76,2.24c1.98,1.58,4,3.16,6.06,4.73c0.62,0.47,1.24,0.94,1.87,1.41
	c1.88,1.41,3.79,2.81,5.73,4.2c0,0,0,0,0.01,0.01c1.23,0.88,2.48,1.76,3.74,2.64c3.35,2.33,6.79,4.64,10.32,6.92
	c43.71,28.24,100.42,51.59,164,67.53c66.52,16.68,138.24,25.13,213.18,25.13c74.94,0,146.66-8.45,213.18-25.13
	c63.58-15.94,120.29-39.29,164-67.53c31.83-20.56,56.63-43.43,73.72-67.98c1.35-1.94,2.65-3.89,3.89-5.84
	c0.38-0.58,0.75-1.17,1.11-1.76c0.79-1.27,1.56-2.54,2.31-3.82l1.11-1.92c0.36-0.64,0.72-1.28,1.07-1.92
	c1.29-2.34,2.51-4.69,3.66-7.05c0.35-0.71,0.69-1.43,1.02-2.15c0.38-0.8,0.75-1.6,1.11-2.41c0.58-1.31,1.13-2.61,1.67-3.91V694.82z"
	/>
</svg>
