<?xml version="1.0" encoding="utf-8"?>
<!-- Generator: Adobe Illustrator 25.0.0, SVG Export Plug-In . SVG Version: 6.00 Build 0)  -->
<svg version="1.1" id="Camada_1" xmlns="http://www.w3.org/2000/svg" xmlns:xlink="http://www.w3.org/1999/xlink" x="0px" y="0px"
	 viewBox="0 0 1080 1080" style="enable-background:new 0 0 1080 1080;" xml:space="preserve">
<style type="text/css">
	.st0{fill:#010202;}
</style>
<path class="st0" d="M829.39,572.35l-0.12-0.14c-19.02-22.93-29.25-36.9-36.72-47.1c-10.43-14.24-15.19-20.74-30-31.83
	c-11.85-8.87-29.75-20.39-47.75-24.85c-7.28-1.81-17.08-4.23-28.99-2.97c1.01-4.13,1.57-8.32,1.64-12.51
	c0.31-17.19-7.03-33.68-21.83-49.01c-27.09-28.07-67.51-28.08-103.17-28.08c-17.89-0.02-31.99,0-48.9,7.02
	c-20.1,8.35-33.48,22.21-47.64,36.89c-8.24,8.54-15.93,17.71-22.91,27.29c-4.51-3.76-9.71-6.95-15.71-9.12
	c-10.63-3.84-19.42-2.8-43.29,0.78c-53.88,8.08-69.62,10.54-74.38,13.45c-9.63,5.89-11.94,10.53-20.53,27.8
	c-5.95,11.98-14.95,30.07-31.77,59.79l-2.04,3.59c-9.07,15.97-14.07,24.77-15.44,38.72c-0.38,3.87-3.01,38.4,21.01,60.35
	c7.74,7.07,16.81,11.43,47.41,17.06c31.48,5.79,53.84,9.9,71.66,9.9c4.44,0,8.59-0.26,12.54-0.81c18.44,2.35,36.88,4.96,54.82,7.78
	c6.28,0.99,11.84,1.89,16.88,2.72c19.61,3.2,31.65,5.16,45.84,5.16c2.33,0,4.72-0.05,7.21-0.16c13.36-0.59,26.72-2.65,39.78-6.1
	c18.22,16.65,22.72,19.87,29.02,22.55c7.8,3.33,15.17,4.36,22.11,4.36c5.91,0,11.5-0.74,16.76-1.44
	c28.3-3.76,47.9-17.32,70.61-33.01c9.19-6.35,16.57-11.46,22.37-16.52c9.37,2.62,27.13,6.78,45.1,6.78
	c15.01,0,30.16-2.91,40.71-12.04c0.93-0.8,4.08-4.27,21.37-23.41c10.59-11.71,14.97-16.56,16.05-24.09
	C842.89,588.62,834.44,578.44,829.39,572.35z M473.11,426.71c14-14.51,26.1-27.05,44.28-34.6c14.32-5.95,25.83-6.26,44.87-6.26
	c0.06,0,0.13,0,0.19,0c35.32,0,71.84,0.01,95.98,25.03c12.89,13.35,19.29,27.44,19.02,41.88c-0.09,5-1,10-2.7,14.9
	c-19.72,5.79-33.28,20.18-40.97,30.79c-17.68-10.16-30.18-15.56-45.89-16.88c-44.94-3.75-83.7,22.73-100.26,34.05
	c-3.69,2.52-7.31,5.19-10.84,7.96c-0.75-12.16-3.25-24.74-8.24-37.33c-2.67-6.74-8.14-20.52-18.31-32.12
	C457.17,444.48,464.85,435.27,473.11,426.71z M310.08,649.64c-30.78-5.66-37.02-9.62-42.47-14.6
	c-20.78-18.98-17.93-50.65-17.8-51.99c1.16-11.83,5.24-19.02,14.18-34.76l2.05-3.61c16.95-29.95,26.02-48.19,32.02-60.26
	c8.15-16.38,9.61-19.33,16.77-23.71c3.74-2.07,30.37-6.06,70.67-12.1c24.01-3.6,30.43-4.15,38.41-1.26
	c21.57,7.79,31.22,32.17,35.35,42.59c20.14,50.84-3.79,102.12-15.02,121.81c-10.29,18.04-18.41,32.29-35.77,41.45
	C388.03,663.97,361.98,659.18,310.08,649.64z M516.78,674.07c-16.62,0.73-28.11-1.14-51.01-4.88c-5.05-0.82-10.64-1.73-16.93-2.72
	c-11.35-1.78-22.9-3.47-34.52-5.08c19.11-10.53,28.16-26.38,38.6-44.69c3.88-6.8,9.17-17.16,13.82-29.92
	c14.82,15.88,41.85,44.56,64.61,67.24c4.18,4.16,8.91,8.57,16.81,15.83C537.8,672.18,527.29,673.61,516.78,674.07z M689.82,662.18
	c-22.53,15.58-40.33,27.88-66.24,31.33c-10.68,1.42-21.72,2.89-33.63-2.2c-4.87-2.08-8.56-4.56-28.24-22.61
	c-12.11-11.11-18.18-16.68-23.3-21.78c-24.73-24.64-54.55-56.43-68.09-70.98c3.53-11.91,6.17-25.35,6.65-39.6
	c5.2-4.42,10.67-8.62,16.31-12.47c15.67-10.71,52.38-35.79,93.78-32.33c19.05,1.59,33.79,10.55,63.18,28.4
	c31.39,19.07,58.5,35.54,69.9,66.88c2.74,7.53,10.01,27.52,1.66,46.3C717.51,642.76,708.9,649,689.82,662.18z M831.2,599.72
	c-0.59,4.11-2.93,7.03-13.57,18.8c-11.68,12.92-19.44,21.51-20.56,22.6c-17.65,15.21-54.02,8.74-71.24,4.51
	c2.04-2.63,3.74-5.4,5.1-8.45c9.98-22.47,1.71-45.22-1.4-53.78c-12.6-34.65-41.1-51.96-74.12-72.02c-4.65-2.82-8.94-5.43-12.96-7.83
	c7.2-9.62,21.57-24.81,42.26-27.88c11.12-1.64,20.3,0.63,27.68,2.46c16.37,4.06,33.05,14.83,44.16,23.15
	c13.62,10.2,17.52,15.52,27.93,29.74c7.55,10.31,17.88,24.42,37.09,47.58l0.12,0.14C825.94,583.86,832.36,591.6,831.2,599.72z"/>
</svg>
