<?xml version="1.0" encoding="utf-8"?>
<!-- Generator: Adobe Illustrator 25.0.0, SVG Export Plug-In . SVG Version: 6.00 Build 0)  -->
<svg version="1.1" id="Camada_1" xmlns="http://www.w3.org/2000/svg" xmlns:xlink="http://www.w3.org/1999/xlink" x="0px" y="0px"
	 viewBox="0 0 1080 1080" style="enable-background:new 0 0 1080 1080;" xml:space="preserve">
<style type="text/css">
	.st0{fill:#010202;}
</style>
<g>
	<path class="st0" d="M933.41,435.03l-7.34-5.75l6.35-10.27l-7.17-9.33l-3.52-19.03h-7.77l-1.98-17.12h-12.39l-8.13-17.62l-1.82,0.6
		c-15.77,5.23-31.46,10.8-47.05,16.69l-9.57-9.13l4.88-8.74l-9.05-11.07l4.06-13.09l-14.84-8.13v-14.49l-24.75,4.7l-3.67-17.91
		l-10.56,8.8c-5.94,3.78-12.07,7.51-18.24,11.07c-1.44,0.83-2.86,1.64-4.26,2.43l-3.87-8.65h-11.43l-5.5-7.56l-1.43,0.39
		c-20.6,5.6-41.2,11.14-61.23,16.46c-15.94,4.24-29.59,7.83-41.74,11.03c-38.18,10.05-61.23,16.12-93.32,25.87
		c-14.63,4.45-29.25,9.09-43.48,13.79c-11.27-5.25-22.63-10.33-34.07-15.23c-0.03-0.02-0.06-0.03-0.09-0.05l-0.01,0.01
		c-26.78-11.47-53.99-21.97-81.47-31.42l-2-0.69l-2.8,7.72l-17.93-7.97l-4.95,17.67l-16.09,4.2l5.46,18.74l-15.15,6.54l4.1,17.77
		l-9.49,10.43l14.84,17.69l-11.91,11.66l3.81,0.89c4.37,1.03,8.73,2.15,13.06,3.34c-43.02,18.08-84.53,39.84-123.48,64.75
		c-10.76,6.88-21.48,14.12-31.91,21.51l-1.38-1.48l-7.52,28.5l-26.76-4.51l13.3,24l-15.81,13.13l18.07,21.26l-6.31,21.23l18.3,4.58
		l2.42,20.24l15.13-1.58l15.95,15.95l14.9-13.68c16.2,5.84,16.58,5.47,17.68,4.4l0.98-0.99l-0.4-1.21
		c-0.25-1.18-1.37-10.24-2.12-16.53l33.71-24.01l-0.65,3.15l-23.24,21.35h-1.88l3.51,14.91l-12.29,22.58l-1.34,0.81l11.89,19.59
		l-5.56,32.67h24.1v25.65l21.71-5.6l12.43,16.58l12.32-11.64l25.06,17.69l-4.23-28.18l23.64,5.56l-1.39-2.96
		c3.75-5.99,7.9-11.78,12.38-17.23c6.95-8.44,14.79-16.21,23.31-23.13l10.83,9.24l-8.45,21.35l22.88,4.85l7.44,31.8l12.92-3.59
		l17.03,14.3l6.58-5.92l18.54,15.69l4.29-24.3h24.44l-1.76-2.16c10.2-12.91,21.08-25.47,32.38-37.35
		c27.59-29.01,58.63-55.1,92.26-77.56c7.26,8.01,14.53,16.42,21.95,25.43c13.89,16.88,27.2,34.51,39.58,52.42l-0.87,1.92h31.27
		l3.56,30.4l20.51-19.05l24.95,10.79l13.31-27.05l21.54,5.38l4.78-22.07l21.97-4.25L827,681.51l13.29-18.78l-10.38-13.62
		l16.62-17.31l-22.81-10.54l-7.02-36.05l-1.53,3.44c-16.68-15.98-33.79-31.46-51.3-46.41c13.51-10.54,27.62-20.55,41.99-29.77
		c36.91-23.68,76.86-43.1,118.73-57.73l2.21-0.77l-4.84-10.84L933.41,435.03z M926.21,434.86l-7.97,5.65
		c-47.78,18.52-93.47,41.97-135.79,69.68c-10.5,6.88-20.94,14.13-31.08,21.55c-5.56-4.62-11.16-9.19-16.8-13.7
		c21.76-12.89,44.12-25.36,66.51-37.08c40.03-20.94,81.52-40.22,123.43-57.35l-4.13,6.67L926.21,434.86z M921.21,411.48l5.18,6.73
		c-43.22,17.53-86.03,37.35-127.29,58.94c-22.95,12.01-45.86,24.8-68.12,38.02c-6.99-5.55-14.03-11.02-21.14-16.4
		c26.65-14.27,53.77-28.45,80.69-42.16c41.46-21.12,83.82-41.86,125.93-61.66h1.68L921.21,411.48z M909.92,393.29
		c-40.6,19.15-81.39,39.14-121.34,59.5c-27.53,14.03-55.29,28.54-82.52,43.14c-6.57-4.94-13.19-9.81-19.85-14.61
		c13.27-8.55,26.89-16.87,40.55-24.75c54.96-31.69,113.65-58.17,174.44-78.73h6.94L909.92,393.29z M895.62,375.21
		c-59.55,20.44-117.07,46.53-171.01,77.63c-14.21,8.2-28.39,16.87-42.16,25.78c-6.98-4.99-14.01-9.89-21.1-14.72
		c23.23-13.47,47.17-26.32,71.21-38.22c50.39-24.93,103.07-46.62,156.59-64.47L895.62,375.21z M838.11,374.89
		c-36.59,13.96-72.57,29.67-107.45,46.93c-24.74,12.24-49.38,25.49-73.25,39.38c-4.94-3.34-9.9-6.64-14.89-9.91
		c9.28-6.14,18.78-12.12,28.3-17.8c49.07-29.27,102.1-52.86,157.69-70.19l-0.88,1.58L838.11,374.89z M832.7,355.8l-1.15,2.06
		c-57.48,17.54-112.3,41.74-162.93,71.94c-10.11,6.03-20.2,12.4-30.03,18.94c-6.85-4.45-13.75-8.82-20.69-13.12
		c19.74-12.38,40.15-24.14,60.72-34.99c47.05-24.8,96.67-45.75,147.55-62.32l-2.14,6.89L832.7,355.8z M827.74,333.26l-0.01,0.02
		c-52.12,16.79-102.96,38.16-151.12,63.55c-21.29,11.22-42.41,23.43-62.8,36.27c-6.62-4.07-13.28-8.07-19.98-12
		c18.62-10.79,37.6-21.44,56.49-31.68c47.41-25.69,96.38-50.01,145.56-72.29l17.86-3.39v11.85L827.74,333.26z M762.97,318.94
		c6.26-3.62,12.49-7.4,18.52-11.24l5.36-4.45l2.49,12.16c-47.67,21.72-95.11,45.33-141.07,70.24
		c-19.64,10.64-39.38,21.73-58.7,32.95c-5.57-3.24-11.17-6.44-16.79-9.58c15.8-10.14,32.1-19.37,48.5-27.45
		c22.44-11.06,41.4-18.24,59.74-25.18C706.58,346.7,730.73,337.56,762.97,318.94z M554.18,398.81c-0.13-0.07-0.25-0.13-0.38-0.2
		c15-5.97,30.28-11.67,45.5-16.94c12.58-4.36,25.33-8.5,38.15-12.41c-5.8,2.57-11.8,5.35-18.08,8.45
		c-17.22,8.48-34.33,18.22-50.87,28.94C563.75,404,558.98,401.38,554.18,398.81z M752.79,319.75
		c-28.02,15.47-50.07,23.82-73.3,32.61c-1.64,0.62-3.29,1.25-4.94,1.87c-25.74,6.81-51.54,14.67-76.66,23.37
		c-16.44,5.69-32.94,11.87-49.09,18.36c-8.15-4.32-16.35-8.55-24.61-12.68c20.23-6.81,40.79-13.54,61.23-20.04
		c17.31-5.5,40.34-12.59,68.45-21.06c31.63-9.54,64-19.1,96.23-28.44L752.79,319.75z M539.3,359.3
		c32.01-9.73,55.03-15.78,93.16-25.82c12.15-3.2,25.81-6.79,41.75-11.03c19.57-5.2,39.69-10.61,59.82-16.08l4.54,6.24
		c-28.82,8.39-57.67,16.94-85.94,25.46c-28.13,8.48-51.18,15.57-68.51,21.08c-21.83,6.94-43.82,14.15-65.38,21.43
		c-6.13-3.03-12.29-6.01-18.48-8.94C513.09,367.43,526.18,363.28,539.3,359.3z M379.53,327.04c26.66,9.22,53.04,19.43,79.03,30.55
		c100.11,56.88,172.02,103.65,205.94,128.47c2.67,1.95,15.98,12.01,40.14,30.27c35.84,27.08,46.32,35.33,59.05,47.88
		c9.41,9.29,18.1,19.34,25.88,29.91l-7.42,3.5l-15.17-4.57c-27.34-27.01-56.06-52.64-85.38-76.16
		c-86.52-69.4-171.58-115.24-253.84-159.57c-16.53-8.91-33.25-17.7-49.73-26.15L379.53,327.04z M354.72,342.55l4.27-15.26
		l15.44,6.86c16.98,8.7,34.23,17.76,51.29,26.95c82.09,44.24,166.98,89.98,253.19,159.13c28.79,23.1,57.01,48.23,83.89,74.72
		l-12.65,12.65l-18.04-6.52c-15.94-15.34-32.48-30.36-49.15-44.64C572.02,461.4,464.57,406.29,393.47,369.82
		c-16.44-8.43-33.03-16.65-49.42-24.49L354.72,342.55z M341.25,348.75c16.65,7.96,33.53,16.31,50.26,24.89
		c70.92,36.38,178.09,91.35,288.65,186.07c16.53,14.16,32.93,29.06,48.75,44.27l2.97,23.33l-23.35,7.33
		c-53.7-56.88-112.19-107.6-173.9-150.76c-70.66-49.42-135.77-82.04-160.28-94.32c-13.55-6.79-27.36-13.41-41.13-19.74l12.57-5.43
		L341.25,348.75z M331.04,373.54c13.85,6.37,27.76,13.03,41.39,19.86c24.43,12.24,89.34,44.76,159.74,94
		c61.65,43.13,120.1,93.83,173.74,150.72l3.62,18.65l-13.36,13.9c-16.33-16.7-32.88-33.57-49.29-50.23l-0.27-0.28
		c-42.39-43.03-63.67-64.63-70.23-70.88c-28.46-27.16-104.05-99.3-216.04-142.03c-11.03-4.21-22.3-8.07-33.55-11.55l7.47-8.22
		L331.04,373.54z M218.72,498.65c40.24-25.74,83.23-48.1,127.79-66.48c9.4,2.77,18.68,5.91,27.8,9.42
		c-38.26,14.45-74.83,33.01-108.76,55.2c-16.56,10.84-32.74,22.71-48.09,35.29l-19.97-1.62l-10.04-10.76
		C197.68,512.47,208.18,505.39,218.72,498.65z M259.47,582.96c21.79-16.81,44.42-33.07,67.28-48.33
		c33.93-22.66,69.43-43.84,105.53-62.97c3.73,2.5,7.67,5.22,11.84,8.2l-181,128.9l-13.15-13.72L259.47,582.96z M324.36,531.05
		c-22.7,15.15-45.17,31.3-66.83,47.98l-16.24-5.08l-1.03-19.61c17.69-13.43,36.13-26.26,54.84-38.14
		c35.71-22.68,73.6-42.7,112.61-59.51c6.33,3.42,13.03,7.39,20.49,12.25C392.68,487.87,357.76,508.74,324.36,531.05z M292.79,512.58
		c-18.87,11.98-37.47,24.92-55.31,38.47l-14.03-2.26l-2.93-13.66c15.13-12.38,31.06-24.07,47.38-34.74
		c34.6-22.63,71.97-41.47,111.07-55.97l-0.43-1.17c2.88,1.15,5.74,2.32,8.58,3.55c5.22,2.24,10.36,4.62,15.7,7.35
		C364.72,470.76,327.73,490.4,292.79,512.58z M225.02,639.68l-1.23-0.44l-13.78,12.66l-14.49-14.49l-12.96,1.35l-2.27-18.98
		l-16.82-4.2l5.69-19.16l-16.76-19.72l15.21-12.62l-10.7-19.31l21.83,3.68l6.53-24.76l10.2,10.93l20.89,1.69l3.48,16.27l16.13,2.59
		l1.16,22l17.18,5.37l-10.06,12.77l13.21,13.79l-21.12,18.87l0.13,1.11c0.84,7.04,1.46,12.11,1.89,15.17
		C235.25,643.29,229.89,641.44,225.02,639.68z M447.8,482.51c5.25,3.81,10.88,8.03,16.96,12.7c-38,21.69-74.07,46.92-107.24,75.05
		c-16.4,13.91-32.35,28.75-47.43,44.13l-15.49,11.59l-19.89-20.21L447.8,482.51z M502.61,719.18l-7.8-2.48l6.28-19.3
		c8.69-10.87,18.07-21.34,27.91-31.13c21.51-21.4,45.8-40.16,72.2-55.81c5.29,5.08,10.49,10.22,15.63,15.48
		c-27.73,20.71-55.15,42.5-81.52,64.82C524.34,700.05,513.35,709.61,502.61,719.18z M525.97,663.23
		c-9.67,9.62-18.91,19.9-27.49,30.57l-19.08-7.3l6.57-22.71c9.38-11.87,19.64-23.21,30.5-33.7c17.41-16.83,36.71-31.86,57.4-44.7
		c8.36,7.38,16.35,14.64,24.11,22C571.67,623.09,547.45,641.86,525.97,663.23z M513.48,626.99c-10.9,10.54-21.2,21.91-30.63,33.81
		l-18.92,3.44l-5.23-22.64c10.82-13.21,22.89-25.47,35.93-36.45c17.76-14.95,37.4-27.64,58.41-37.75
		c6.02,5.11,11.82,10.09,17.45,15.02C549.96,595.27,530.79,610.25,513.48,626.99z M491.86,601.87
		c-13.48,11.35-25.96,24.05-37.1,37.76l-7.05,7.58l-21.75-20.84c2.7-2.75,5.43-5.47,8.2-8.14c28.55-27.49,61.2-50.73,97.07-69.12
		c6.31,5.24,12.38,10.31,18.23,15.26C528.77,574.5,509.4,587.1,491.86,601.87z M431.17,615.13c-12.19,11.73-23.76,24.38-34.43,37.59
		h-2.49l4.75,9.33c-7.34,7.34-14.7,14.83-21.89,22.27c-4.14,4.29-8.32,8.67-12.46,13.04l-12.42-10.26l7.21-19.23
		c10.31-11.08,21.04-22.03,31.9-32.54c37.86-36.63,79.49-70.12,123.76-99.57c4.28,3.53,8.45,6.98,12.52,10.35
		C492.03,564.58,459.59,587.77,431.17,615.13z M423.18,629.23l-3.56,23.5h-17.33C408.94,644.64,415.92,636.78,423.18,629.23z
		 M388.37,632.26c-10.73,10.38-21.32,21.19-31.52,32.13l-19.91-3.98l2.94-22.33c12.86-13.42,26.39-26.5,40.22-38.89
		c34.36-30.77,71.98-58.5,111.81-82.46c4.19,3.4,8.56,6.98,13.13,10.74c2.24,1.84,4.44,3.66,6.61,5.45
		C467.57,562.34,426.1,595.74,388.37,632.26z M377.23,595.98c-13.91,12.46-27.51,25.61-40.44,39.1l-17.75,2.86l-5.17-21.27
		c14.78-15.03,30.39-29.54,46.43-43.14c33.41-28.34,69.79-53.73,108.14-75.48c6.16,4.78,12.77,10.02,19.92,15.79
		C448.79,537.76,411.41,565.38,377.23,595.98z M272.5,616.18l-2.91,14.15H257.1L272.5,616.18z M253.86,651.52l1.64,6.94l-8.09,4.92
		L253.86,651.52z M331.29,729.75l3.67,24.5l-19.71-13.92l-11.38,10.75l-11.27-15.03l-19.12,4.93v-24.4h-23.31l4.98-29.23
		l-10.5-17.29l15.74-9.57l-6.1-25.87h18.79l4.15-20.16l16.93,17.2l16.02-11.98l5.63,23.13l19.52-3.15l-3.18,24.15l22.54,4.51
		l-7.55,20.14l14.45,11.93l-17.56,16.52l8.4,17.8L331.29,729.75z M367.79,718.04c-4.02,4.88-7.77,10.05-11.23,15.37l-7.31-15.49
		l18.83-17.72l-0.1-0.09c4.06-4.29,8.17-8.59,12.23-12.8c6.85-7.1,13.85-14.22,20.85-21.23l4.11,8.07l-18.34,17l4.27,3.64
		C382.59,701.78,374.75,709.58,367.79,718.04z M482.88,756.76l-3.61,20.48l-15.7-13.28l-6.59,5.93l-15.9-13.35l-10.79,3l-7.04-30.1
		l-20.58-4.36l7.71-19.48l-17.09-14.57l17.18-15.92l-9.2-18.08h22.05l3.61-23.78l20.96,20.08l7.3-7.85l5.48,23.73l20.33-3.7
		l-6.83,23.59l22.33,8.54l-7.11,21.84l10.3,3.28c-11.59,16.62-10.11,18.59-9.3,19.67c1.06,1.42,7.64,9.55,11.53,14.34H482.88z
		 M538.44,718.58c-11.17,11.75-21.94,24.15-32.04,36.9c-3.26-4.01-10.27-12.67-12.21-15.15c0.66-2.46,5.8-10.6,10.54-17.29
		c10.94-9.77,22.17-19.52,33.36-29c26.44-22.39,53.95-44.24,81.76-64.99c3.69,3.83,7.37,7.72,11.04,11.71
		C597.19,663.33,566.1,689.49,538.44,718.58z M659.08,666.68c-45.4-55.17-85.26-88.05-151.3-142.52
		c-64.54-53.23-90.7-69.15-118.96-81.31c-18.43-7.93-37.66-14.37-57.23-19.18l9.18-8.99l-11.48-13.69
		c9.91,3.14,19.81,6.58,29.52,10.29c111.18,42.42,186.32,114.12,214.6,141.12c6.51,6.21,27.77,27.79,70.14,70.79l0.27,0.28
		c16.44,16.68,33.02,33.58,49.37,50.31l-0.21,0.22l16.93,15.66l-12.51,27.63C685.37,699.99,672.5,682.98,659.08,666.68z
		 M839.25,633.17l-14.99,15.61l10.69,14.04l-13.05,18.44l7.75,13.55l-18.86,3.65l-4.44,20.51l-20.6-5.14l-13.03,26.49l-23.77-10.28
		l-16.36,15.19l-3.02-25.79h-28.43l13.97-30.86l-14.76-13.65c-0.39-0.4-0.78-0.8-1.17-1.19l15-15.6l-3.8-19.57l26.22-8.23
		l-3.08-24.17l17.73,6.41l15.2-15.2l16.02,4.83l9.91-4.67l16.29,16.29l6.4-14.41l4.83,24.82L839.25,633.17z M807.3,606.36
		l-12.82-12.82c-8.28-11.47-17.63-22.37-27.78-32.39c-12.91-12.74-23.46-21.03-59.48-48.25c-24.18-18.27-37.5-28.34-40.19-30.31
		c-29.65-21.69-88.19-60.09-169.12-107.31c18.34,8.65,36.44,17.76,54.23,27.31c94.9,50.93,182.76,114.93,261.17,190.23L807.3,606.36
		z M803.54,508.86c-14.74,9.46-29.2,19.73-43.02,30.55c-1.91-1.62-3.82-3.23-5.74-4.83c9.8-7.16,19.88-14.15,30.02-20.8
		c41.58-27.24,86.44-50.31,133.34-68.62l2.82,6.31C879.58,466.11,840.08,485.41,803.54,508.86z"/>
	<path class="st0" d="M203.73,562.72c-11.96,0-21.68,12.44-21.68,27.73s9.73,27.73,21.68,27.73c11.96,0,21.68-12.44,21.68-27.73
		S215.69,562.72,203.73,562.72z M203.73,613.87c-9.59,0-17.39-10.51-17.39-23.43c0-12.92,7.8-23.43,17.39-23.43
		c9.59,0,17.39,10.51,17.39,23.43C221.12,603.36,213.32,613.87,203.73,613.87z"/>
	<path class="st0" d="M301.95,660.32c-15.53,0-28.16,12.63-28.16,28.16c0,15.53,12.63,28.16,28.16,28.16s28.16-12.63,28.16-28.16
		C330.11,672.95,317.48,660.32,301.95,660.32z M301.95,712.34c-13.16,0-23.86-10.7-23.86-23.86c0-13.16,10.7-23.86,23.86-23.86
		c13.16,0,23.86,10.7,23.86,23.86C325.81,701.64,315.11,712.34,301.95,712.34z"/>
	<path class="st0" d="M449.78,679.24c-13.53,0-24.54,13.63-24.54,30.38c0,16.75,11.01,30.37,24.54,30.37s24.54-13.63,24.54-30.37
		C474.32,692.87,463.31,679.24,449.78,679.24z M449.78,735.69c-11.16,0-20.24-11.7-20.24-26.08c0-14.38,9.08-26.08,20.24-26.08
		s20.24,11.7,20.24,26.08C470.02,723.99,460.94,735.69,449.78,735.69z"/>
	<path class="st0" d="M770.98,646.14c-16.84,0-30.54,13.7-30.54,30.54s13.7,30.54,30.54,30.54s30.54-13.7,30.54-30.54
		S787.82,646.14,770.98,646.14z M770.98,702.91c-14.47,0-26.24-11.77-26.24-26.24c0-14.47,11.77-26.24,26.24-26.24
		c14.47,0,26.24,11.77,26.24,26.24C797.22,691.14,785.45,702.91,770.98,702.91z"/>
</g>
</svg>
