<?xml version="1.0" encoding="utf-8"?>
<!-- Generator: Adobe Illustrator 25.0.0, SVG Export Plug-In . SVG Version: 6.00 Build 0)  -->
<svg version="1.1" id="Camada_1" xmlns="http://www.w3.org/2000/svg" xmlns:xlink="http://www.w3.org/1999/xlink" x="0px" y="0px"
	 viewBox="0 0 1080 1080" style="enable-background:new 0 0 1080 1080;" xml:space="preserve">
<path d="M955.12,471.51c-5.39-7.37-12.24-13.65-20.36-18.73c0-0.01,0-0.01,0.01-0.02c2.12-6.24-1.91-14.99-5.67-19.98
	c-4.64-6.16-10.19-8.45-16.63-11.1c-1.41-0.58-2.87-1.18-4.42-1.86c-11.45-5.02-16.58-9.4-21.11-13.27
	c-4.82-4.11-8.99-7.66-18.53-10.43c-3.12-0.91-7.36-2.14-12.23-2.75h-0.01c0,0-0.01,0-0.01,0c-5.26-6.32-11.49-11.62-18.56-15.73
	c-5.52-3.21-11.46-5.64-17.66-7.24c0,0,0-0.01,0-0.01v-0.01c-2.62-4.94-5.82-9.44-9.52-13.4c-10.33-11.09-19.54-12.74-37.89-16.02
	c-10.4-1.86-23.32-4.18-41.42-8.95l-0.28-0.07c-5.99-1.59-17.71-4.67-24.39-0.44h0c-5.06-5.08-14.19-12.29-27.42-15.23
	c-10.82-2.4-20.25-1.06-26.74,0.73c0,0,0,0,0-0.01c-7.74-8.7-25.1-13.15-37.12-14.08c-4.79-0.36-16.8,2.23-43.12,7.92
	c-1.13,0.24-2.18,0.47-3.16,0.69c0,0,0,0-0.01,0c0,0-0.01,0-0.01,0c-8.42-1.84-17.05-3.11-25.66-3.77
	c-23.52-1.8-41.7,1.36-51.47,3.06c-15.14,2.63-30.15,6.8-44.62,12.37c0,0-0.01,0-0.01-0.01c-12.35-6.78-27.25-3.18-44.41,0.97
	c-20.4,4.93-35.13,8.5-40.55,20.27c-0.18,0.4-0.36,0.81-0.51,1.21c0,0.01,0,0.01-0.01,0.02c-9.28-0.13-18.56,0.54-27.66,2.04
	c-19.02,3.14-44.24,12.75-61.15,22.68l7.12,2.96c16.32-9.58,36.58-17.15,54.93-20.18c8.39-1.39,16.93-2.04,25.48-1.99
	c-0.75,8.48,3.51,17.83,10.07,28c0,0,0,0.01,0.01,0.01c-7.86,0.3-15.7,1.31-23.32,3.02c-15.78,3.54-30.69,10.01-44.37,19.23
	c-0.77-1.51-1.48-3.05-2.24-4.65c-3.48-7.37-7.08-14.99-15.84-21.37c-10.76-7.84-22.39-8.7-26.21-8.98
	c-27.33-2.04-61.46,15.95-67.34,43.21c0,0.01,0,0.01,0,0.02c-5.47,2.76-10.85,5.84-16,9.22c-13.57,8.89-41.82,27.4-54.28,61.21
	c-5.39,14.62-7.22,30.47-5.48,47.12c-6.18,14.3,1.42,35.47,2.47,38.24c5.38,14.26,15.89,26.77,30.61,36.8
	c6.67,19.84,15.92,38.57,27.53,55.67c30.3,44.65,67.9,65.93,83.95,75.02c12.87,7.28,47.06,26.63,188.93,39.85
	c3.11,0.29,59.21,5.4,141.41,5.4c27.97,0,58.99-0.59,91.94-2.17c33.98-1.63,62.74-3.86,97.53-16.28
	c53.34-19.05,86.72-49.66,98.6-61.95c1.02-1.06,2.07-2.13,3.14-3.23c16.71-17.17,39.6-40.69,48.34-77.04
	c1.04-4.33,1.87-8.76,2.47-13.17l-0.14-0.02c0.54-0.56,1.09-1.11,1.62-1.68c16.27-17.19,27.07-28.6,27.93-44.83
	c1.53-3.95,5.79-16.11,7.09-31.45C970.57,504.82,965.98,486.38,955.12,471.51z M883.36,410.76c4.58,3.92,10.28,8.78,22.48,14.13
	c1.6,0.7,3.09,1.32,4.54,1.91c6.15,2.53,10.59,4.36,14.31,9.31c3.91,5.19,6.63,13.02,4.28,15.96c-1.01,1.27-2.99,1.14-7.28,0.54
	c-4.85-0.69-10.89-1.54-17.22,1.76c-7.02,3.65-10.13,10.26-12.41,15.1c-0.85,1.8-2.43,5.15-3.16,5.15c-0.01,0-0.01,0-0.01,0
	c-0.66-0.02-2.17-3.41-3.06-5.44c-1.33-2.98-2.97-6.69-5.56-10.81c-10.21-16.2-25.54-23.63-33.78-27.62
	c-8.39-4.06-17.35-6.84-26.66-8.28c1.98-5.94,6.57-15.49,16.46-20.64c11.45-5.96,23.43-2.48,30.6-0.4
	C875.27,403.87,878.83,406.91,883.36,410.76z M905.99,599.47c-0.13,11.33-0.26,21.11-6.58,28.45c-5.43,6.31-12.61,7.97-23.78,9.97
	c-17.26,3.08-34.97,5.78-52.78,8.04c5.23-5.83,10.32-13.83,12.44-24.11c1.04-5.06,4.22-20.47-4.44-28.57
	c-1.22-1.14-2.52-1.99-3.77-2.65c2.83-0.37,6.22-0.84,9.8-1.71c11.65-2.84,19.57-8.45,28.75-14.94c5.36-3.79,8.96-6.92,11.85-9.44
	c4.75-4.13,6.39-5.43,9.3-5.18c5.64,0.48,9.76,6.4,12.48,10.32C906.24,579.71,906.1,590.66,905.99,599.47z M547.46,646.5
	c-1.07-3.7-2.48-7.33-4.19-10.85c8-0.22,16.05-0.47,24-0.74c14.89-0.51,22.42-0.85,26.92-1.07c5.19-0.24,5.98-0.27,9.16-0.15
	c6.87,0.27,11.74,0.79,15.67,1.21c7.47,0.8,11.59,1.23,18.12-1.41c1.42-0.58,2.74-1.21,4.01-1.82c3.63-1.74,5.94-2.75,7.6-1.91
	c1.78,0.91,2.59,3.94,3.36,8.86c1.48,9.33,2.65,16.73,2.65,22.4c0,5.2-0.99,8.96-3.62,11.42c-2.72,2.54-5.81,2.72-15.15,2.86
	l-1.74,0.02c-18.61,0.31-26.56,1.17-32.95,1.85c-6.4,0.69-10.63,1.14-22.49,0.57c-10.93-0.53-21.97-1.63-32.89-3.31
	c0.73-0.91,1.37-1.87,1.93-2.88C552.34,663.36,549.74,654.4,547.46,646.5z M538.8,673.7L538.8,673.7
	c-27.38,5.91-55.16,7.48-82.59,4.67c-11.07-1.14-22.15-3.01-33.04-5.57c4.07-1.98,8.12-4.71,11.77-8.5
	c8.99-9.31,15.04-24,12.24-34.26c0,0,0,0,0,0l57.58,6.95l0-0.01c0,0,0,0,0,0c4.14,0.51,8.37,0.75,12.68,0.75
	c6.42,0,13.04-0.55,19.82-1.67c2.06,3.84,3.69,7.87,4.88,11.97c2.09,7.21,4.25,14.67,0.84,20.88
	C541.99,670.72,540.58,672.33,538.8,673.7z M214.04,614.4c-10.51-17.37-10.31-44.21,0.37-51.28c5.79-3.83,13.02-0.8,28.8,6.43
	c12.33,5.65,29.23,13.39,52.97,19.92c9.36,2.57,18.91,4.72,28.51,6.4c0,0,0,0,0,0c-3.96,2.38-9.97,7-13.37,14.59
	c-6.61,14.8,0.75,33.44,11.45,44.19c1.48,1.49,3.08,2.77,4.87,3.95c-33.14-3.62-62.75-11.5-88.19-23.51
	C230.08,630.66,220.52,625.09,214.04,614.4z M162.7,519.7C162.7,519.7,162.7,519.7,162.7,519.7c0,0,2.92-0.51,3.01-1
	c2.95-0.99,5.89-2.01,8.81-3.05c22.96-8.21,44.83-17.96,66.88-29.79c1.87-1,3.71-2,5.52-3.01c2.33,0.66,4.81,1.3,7.51,2
	c9.62,2.49,22.8,5.9,43.31,13.84c11.9,4.61,27.31,10.58,44.64,20.16c-10.76,10.15-23.15,19.36-40.48,26.72
	c-22.05,9.35-46.55,13.4-72.85,12.03c0,0,0,0-0.01,0c-6.65-2.17-11.95-2.47-16.86,0.4c-28.05-1.69-46.14-8.95-53.76-21.59
	c-0.94-1.55-1.81-3.33-2.73-5.2c-1.29-2.63-2.65-5.4-4.38-7.92C155.11,522.14,158.91,520.95,162.7,519.7z M208.58,457.66
	c5.03,5.44,10.3,9.98,14.7,13.43c6.01,4.69,11.01,7.4,16.39,9.42c-0.29,0.16-0.58,0.32-0.88,0.47
	c-21.8,11.71-43.43,21.34-66.13,29.46c-1.82,0.66-3.65,1.29-5.49,1.93c0,0,0,0-0.01,0c2.86-10.66,7.67-20.83,14.11-29.75
	C188.51,472.59,197.92,464,208.58,457.66C208.57,457.66,208.57,457.66,208.58,457.66z M389.51,396.3
	c19.53-9.08,45.82-19.52,75.83-25.87c1.85-0.39,3.71-0.77,5.59-1.13c27.38-5.25,57.61-6.92,88.47-1.06
	c3.61,0.69,7.3,1.49,11.11,2.35c11.14,13.31,22.72,26.43,34.55,39.13c1.42,1.53,2.79,3,4.13,4.4c-35.71,2.04-67.84,5.41-85.32,7.91
	c-1.07,0.15-2.13,0.31-3.19,0.46c-2.5,0.36-4.96,0.71-7.4,1.06c-30.92,4.49-56.25,8.9-81.21,20.31c-1.82,0.84-3.65,1.7-5.46,2.62
	c-6.62,3.31-13.24,7.16-19.97,11.67c-4.27,2.87-8.22,5.76-11.91,8.67c-17.68-13.21-31.87-22.56-46.35-29.99
	c-2.48-1.28-4.94-2.5-7.32-3.69c-3.21-1.59-6.33-3.14-9.33-4.74c10.02-6.61,20.19-12.89,31.19-18.73
	c5.23-2.78,12.51-6.65,21.5-10.96C386.05,397.93,387.76,397.12,389.51,396.3z M653.68,358.68c3.77,3.61,7.55,7.26,11.33,10.93
	c1.46,1.42,2.92,2.84,4.38,4.27c10.66,10.41,21.33,21.02,31.85,31.68c2.82,2.86,5.52,5.6,8.11,8.26h0.01
	c2.01,2.07,3.96,4.07,5.86,6.02c8.39,8.65,15.62,16.26,22.3,23.36c-4.91,0.89-9.83,1.7-14.76,2.43c-33.66,4.98-52.33,3.96-68.8,3.06
	c-0.54-0.03-1.07-0.06-1.59-0.09h-0.01c-1.95-1.82-3.84-3.57-5.71-5.3c-7.61-7.04-14.91-13.8-25.13-24.28
	c-1.61-1.66-3.31-3.42-5.08-5.28c-2.3-2.4-4.73-4.98-7.33-7.78c-10.1-10.84-20-21.98-29.6-33.29c-2-2.34-3.97-4.7-5.94-7.05
	c-0.91-1.09-1.81-2.17-2.71-3.26c4.72,0,9.72-1.76,15.15-3.66c9.54-3.35,21.42-7.52,38.29-5.55c5.98,0.69,11.84,2.08,17.03,3.29
	C646.37,357.63,650.53,358.61,653.68,358.68z M693.35,360.44c1.82,0.64,4.36,0.55,7.27,0.46c3.9-0.13,8.75-0.31,14.17,0.69
	c2.62,0.48,3.31,0.84,7.12,2.83c2.8,1.46,7.04,3.67,14.57,7.23c3.88,1.84,7.2,3.35,10.12,4.69c8.67,3.96,13.89,6.35,21.58,11.44
	c2.01,1.33,4.01,2.73,5.93,4.14l1.32,0.97c-1.83,3.02-3.99,5.74-6.44,8.14c-15.25,14.9-39.18,14.37-51.26,13.47
	c-3.91-4.03-8.08-8.29-12.56-12.83c-10.01-10.14-20.14-20.22-30.27-30.14c1.18-0.54,2.38-1.12,3.56-1.73
	C683.65,367.15,688.63,364.01,693.35,360.44z M840.02,546.79c7.88,7.25,15.87,14.44,23.93,21.55c-0.49,0.36-1,0.73-1.52,1.1
	c-8.71,6.16-16.24,11.49-26.87,14.08c-3.65,0.88-7.21,1.34-10.06,1.71c-4.26,0.55-7.36,0.96-8.5,2.83
	c-5.12-0.58-10.21-1.5-15.19-2.73c-20.11-5-34.26-14.23-48.51-28.02c-1.56-1.51-3.13-3.08-4.71-4.7c-7.76-8-15.75-17.34-24.93-28.07
	c-4.48-5.24-9.16-10.71-14.18-16.45c0.59-0.06,1.18-0.1,1.78-0.15c23.5-1.8,44.23-0.13,62.53,1.33c9.88,0.79,19.37,1.55,28.67,1.74
	c10.47,10.34,21.2,20.62,32.15,30.78C836.41,543.47,838.21,545.14,840.02,546.79z M538.67,630.25l-4.31,0.67
	c-16.63,2.45-32.13,1.37-46.14-3.21c-8.04-2.64-14.14-5.9-20.38-10.59c5.78-2.99,11.52-6.05,17.21-9.15
	c20.85-11.35,36.93-21.08,50.22-29.52c6.96,2.3,13.38,3.87,20.03,5.5c11.37,2.79,23.14,5.68,39.17,12.64
	c17.03,7.4,33.18,16.93,48.12,28.4c-1.29,0.49-2.57,1.1-3.84,1.71c-1.2,0.57-2.44,1.17-3.7,1.67c-5.24,2.12-8.24,1.81-15.46,1.03
	c-4-0.43-8.99-0.96-16.04-1.23c-3.42-0.13-4.36-0.09-9.63,0.15c-4.48,0.21-12,0.55-26.84,1.06
	C557.66,629.71,548.1,630,538.67,630.25z M474.16,627.73l-21.97-2.65c0,0,0,0,0,0h0.01c3.42-1.69,6.84-3.42,10.25-5.17
	C466.29,622.96,470.06,625.53,474.16,627.73L474.16,627.73z M534.54,490.02c-6.46-3.2-11.42-5.17-15.57-6.46
	c-3.16-0.98-5.85-1.56-8.4-2c-1.57-0.27-3.09-0.49-4.62-0.71c-6.8-0.97-13.84-1.99-28.34-8.41c-16.02-7.1-29.39-15.58-40.75-24.63
	c24.9-10.88,50.55-14.95,82.19-19.49c1.13,0.93,2.28,1.87,3.45,2.83c17.45,14.33,31.01,21.96,44.2,28.36
	c2.53,1.24,5.06,2.42,7.59,3.61h0.01c1.04,0.48,2.08,0.97,3.13,1.45c10.35,4.81,21.05,9.77,34.3,17.61
	c14.77,8.75,28.94,18.9,42.45,30.44c1.68,1.42,3.35,2.87,5,4.36c15.64,13.9,30.37,29.67,44.05,47.2
	c-31.04,9.72-48.31,19.52-58.95,26.36c-0.99,0.63-1.97,1.27-2.94,1.92c-8.21-11.98-17.19-23.63-26.73-34.66
	c-4.81-5.56-10.1-11.66-15.98-17.98c-1.29-1.39-2.61-2.79-3.97-4.2C579.18,519.5,559.77,502.51,534.54,490.02z M574.82,457.25
	L574.82,457.25c-15.11-7.07-29.03-14.2-48.36-30c18.54-2.56,51.57-5.95,87.72-7.86c12.13,12.62,20.23,20.12,28.71,27.97
	c0.3,0.28,0.61,0.56,0.92,0.84c-12.34-0.46-25.52-0.17-44.5,3.49C590.78,453.32,582.63,455.19,574.82,457.25z M708.9,562.44
	c-13.47-17.43-27.93-33.16-43.29-47.12c11.67-2.86,24.08-5.16,37.1-6.58h0.01c6,6.83,11.51,13.27,16.75,19.4
	c8.3,9.7,15.64,18.29,22.74,25.81c-7.75,1.67-16,3.65-24.62,6.01C714.59,560.78,711.69,561.61,708.9,562.44z M610.43,561.4
	c9.4,10.87,18.26,22.36,26.35,34.17c-4.36,3.06-8.62,6.3-12.72,9.65l0.69,0.85l0.02,0.01l0.01,0.01l0,0c-0.01,0-0.01-0.01-0.02-0.01
	l-0.01-0.01c-9.05-5.5-18.42-10.36-28.08-14.55c-16.45-7.14-28.45-10.09-40.06-12.94c-5.11-1.25-10.09-2.47-15.27-4.02
	c4.9-3.16,9.42-6.13,13.68-8.92c8.71-5.71,16.22-10.66,23.82-15.16c3.7-2.19,8.63-4.98,14.63-8.08
	C599.76,549.08,605.36,555.55,610.43,561.4z M650.47,624.14C650.47,624.14,650.47,624.14,650.47,624.14
	c-6.99-5.64-14.24-10.84-21.73-15.6c5.91-4.78,12.14-9.27,18.52-13.37c10.59-6.82,27.93-16.61,59.56-26.34
	c0.08,0.09,0.15,0.19,0.22,0.28l0.77-0.58c0,0,0-0.01,0.01-0.01c3.56-1.08,7.29-2.16,11.22-3.24c9.77-2.68,19.06-4.86,27.69-6.65
	c15.8,15.9,31.07,26.43,53.74,32.06c3.48,0.87,7.01,1.58,10.57,2.14c-2.11,1.53-4.28,2.97-6.5,4.3
	c-10.4,6.26-24.28,12.09-79.12,14.72c-3.91,0.19-7.54,0.34-10.96,0.48c-19.21,0.78-31.91,1.3-50.17,6.9
	C659.63,620.66,654.99,622.32,650.47,624.14z M804.8,505.56c-2.66-0.03-5.34-0.12-8.07-0.24c-7.21-0.33-14.66-0.92-22.49-1.56
	c-18.5-1.48-39.47-3.17-63.39-1.33c-1.97,0.15-3.92,0.32-5.87,0.51h-0.01c-2.26,0.22-4.5,0.47-6.72,0.75
	c-13.23,1.63-25.84,4.14-37.63,7.17c-14.6-12.75-29.99-23.92-46.1-33.45c-12.19-7.22-22.23-12.02-31.79-16.47
	c5.68-1.39,11.56-2.67,17.6-3.84c21.78-4.18,35.2-3.87,49.71-3.09h0.01c1.19,0.06,2.38,0.13,3.59,0.19
	c1.62,0.09,3.26,0.18,4.93,0.27c15.6,0.79,34.07,1.19,64.98-3.39c6.16-0.92,12.31-1.95,18.44-3.11c2.14-0.39,4.26-0.81,6.39-1.26
	h0.01c23.1-4.67,45.95-11.08,68.18-19.12c9.64,1.22,18.88,3.95,27.49,8.12c7.74,3.75,22.15,10.72,31.52,25.59
	c2.38,3.78,3.94,7.29,5.19,10.1c1.12,2.52,2.11,4.76,3.39,6.33c-5.45,4.62-11.26,8.77-17.33,12.36
	C845.38,502.83,825.93,505.82,804.8,505.56z M814.38,421.36c-0.16,0.46-0.29,0.89-0.41,1.3c-22.83,8.22-46.29,14.68-70.02,19.31
	c-6.25-6.65-12.93-13.71-20.56-21.64c13.77,0.46,34.86-1.1,49.46-15.36c1.33-1.3,2.59-2.69,3.76-4.15c0,0,0-0.01,0.01-0.01
	c3.24,2.95,6.68,5.67,10.29,8.11c8.35,5.63,17.59,9.79,27.48,12.42C814.38,421.35,814.38,421.36,814.38,421.36z M409.71,462.74
	c7.22-4.85,14.35-8.9,21.51-12.35c12.14,9.94,26.58,19.31,44.15,27.1c13.19,5.85,20.77,7.46,27.02,8.42
	c-18.18,10.02-32.89,20.71-44.54,30.69c-24-19.28-42.7-34.31-58.55-46.32C402.55,467.74,406.01,465.23,409.71,462.74z
	 M457.98,523.81c1.36-1.21,2.77-2.44,4.23-3.68c12.62-10.71,28.84-22.23,49.19-32.79c5.11,1.03,11.15,2.9,20.69,7.62
	c23.85,11.82,42.46,27.87,57.43,43.28c-5.48,2.86-10.01,5.43-13.48,7.49c-7.71,4.57-15.27,9.54-24.03,15.3
	c-5.33,3.5-11.07,7.27-17.46,11.34c-1.9,1.22-3.86,2.46-5.88,3.73c-12.49,7.84-27.42,16.76-46.25,27.02
	c-6.37,3.47-12.81,6.88-19.27,10.22c-1.76,0.92-3.52,1.82-5.29,2.72c-4.85,2.46-9.7,4.89-14.55,7.25
	c-4.24-4.06-10.45-4.17-18.08-4.29c-3.35-0.06-7.15-0.12-11.38-0.49c-21.38-1.88-36.21-10.1-48.13-16.72
	c-5.58-3.09-10.82-6-16.06-7.85c10.33-2.51,20.37-5.87,29.99-10.05c10.67-4.63,19.86-9.85,27.92-15.3c1.59-1.07,3.14-2.16,4.65-3.25
	c13.1-9.5,23.11-19.48,31.86-28.21c2.9-2.89,5.63-5.61,8.32-8.18C454.16,527.27,456.02,525.55,457.98,523.81z M377.44,578.83
	c-14,6.08-28.92,10.39-44.36,12.81c-11.92-1.79-23.82-4.31-35.43-7.5c-23.32-6.42-39.98-14.05-52.14-19.62
	c-0.88-0.4-1.74-0.79-2.58-1.18c21.81-0.47,42.31-4.72,61.11-12.69c18.81-7.98,31.94-17.97,43.36-28.94
	c2.79,1.62,5.62,3.33,8.49,5.15c10.09,6.4,24.62,17.91,43.19,34.21c1.44,1.26,2.85,2.5,4.21,3.72
	C395.77,569.79,387.24,574.58,377.44,578.83z M326.7,650.75c-9.37-9.42-15.92-25.5-10.32-38.03c4.26-9.54,13.83-13.52,14.23-13.69
	c2.81-1.14,5.5-1.65,8.17-1.65c7.59,0,14.97,4.1,24.26,9.24c12.38,6.87,27.78,15.42,50.33,17.39c4.43,0.39,8.33,0.45,11.77,0.51
	c8.55,0.14,12.77,0.36,15.25,3.8c5.3,7.32-0.61,23-9.42,32.13c-9.91,10.27-23.08,11.64-30.95,12.47
	c-14.53,1.52-25.24-2.18-46.58-9.54C338.47,658.23,331.64,655.73,326.7,650.75z M657.57,637.76c-0.58-3.62-1.22-6.93-2.69-9.42
	c0,0,0,0,0,0c3.63-1.4,7.33-2.68,11.05-3.82c17.59-5.39,30-5.89,48.78-6.66c3.44-0.14,7.08-0.29,11-0.48
	c56.12-2.7,70.67-8.87,81.7-15.51c3.97-2.39,7.79-5.1,11.41-8.06c0.01,0,0.01,0,0.02,0c0.65,0.06,1.3,0.12,1.95,0.17
	c0.01,0.01,0.02,0.01,0.02,0.01c0.06,0.02,0.11,0.04,0.17,0.06c1.88,0.66,4.21,1.48,6.09,3.24c4.25,3.98,5.19,11.86,2.81,23.43
	c-2.31,11.22-8.66,19.45-14.33,24.82c0,0,0,0.02-0.01,0.01c0,0,0,0,0,0c-8.82,3.08-17.73,5.8-26.58,8.12
	c-23.84,6.24-40.52,7.99-110.73,15.38l-19.59,2.06C661.69,663.78,660.01,653.16,657.57,637.76z M897.32,558.65
	c-2.7-2.48-6.03-4.48-10.1-4.83c-5.36-0.46-8.56,2.31-13.39,6.51c-1.55,1.34-3.3,2.87-5.41,4.58c-7.16-6.29-14.25-12.65-21.26-19.05
	c6.4-0.94,13.19-2.23,21.13-4.14c13.55-3.26,26.95-7.55,39.85-12.75c0.04,1.46,0.24,2.91,0.45,4.34c0.45,3.18,0.92,6.47-0.1,10.5
	C907.1,549.32,903.34,554.3,897.32,558.65z M908.54,525.2L908.54,525.2l-0.83-2.02c-13.15,5.4-26.85,9.83-40.7,13.17
	c-9.61,2.31-17.53,3.68-25.14,4.63c-10.72-9.9-21.24-19.9-31.51-29.95c19.69-0.36,38.79-4.01,59.31-16.17
	c6.77-4.02,13.23-8.68,19.25-13.89c4.77,3.88,8.83,8.44,12.07,13.6c6.54,10.39,8.31,20.83,8.61,28.03
	C909.1,523.46,908.76,524.33,908.54,525.2z M823.43,377.23c3.96,1.36,7.77,3.1,11.39,5.2c5.02,2.92,9.58,6.48,13.62,10.62
	c0,0,0,0,0,0c-4.73,0.22-9.76,1.29-14.71,3.88c-9.22,4.8-14.46,12.76-17.36,19.22c-9.51-2.46-18.38-6.42-26.38-11.8
	c-3.57-2.41-6.97-5.13-10.15-8.07c0.02-0.03,0.03-0.05,0.05-0.08l1.07,0.79l-0.53-1.68c0.5-0.82-1.23-3.88-1.23-3.88l-0.81-2.55
	c-0.73-2.29-1.63-6.8,0.47-11.29c1.42-3.05,4.76-7.04,12.6-8.75c6.24-1.37,11.85,0.71,17.8,2.91c2.57,0.96,5.08,2.11,7.47,3.45
	L823.43,377.23z M729.42,337.29l0.28,0.07c18.31,4.83,31.37,7.17,41.86,9.05c17.67,3.17,25.74,4.6,34.82,14.35
	c1.68,1.81,3.25,3.73,4.7,5.77c-6.39-2.37-13.02-4.79-20.8-3.09c-10.04,2.19-14.47,7.62-16.42,11.81c-1.38,2.96-1.83,5.89-1.82,8.47
	c-0.27-0.18-0.54-0.36-0.81-0.54c-8.04-5.33-13.73-7.92-22.33-11.86c-2.9-1.33-6.2-2.83-10.06-4.66
	c-7.43-3.51-11.61-5.69-14.38-7.14c-4.02-2.09-5.23-2.72-8.67-3.36c-3.86-0.71-7.46-0.88-10.59-0.88c-1.75,0-3.35,0.06-4.77,0.1
	c-0.3,0.01-0.62,0.02-0.93,0.03c0.66-0.58,1.03-2.76,1.03-2.76c1.76-1.89,3.65-4.37,5.19-7.74c1.13-2.49,1.51-4.26,1.79-5.56
	c0.13-0.64,0.23-1.07,0.35-1.4c0.13-0.34,0.27-0.59,0.51-0.88C711.97,332.68,724.65,336.03,729.42,337.29z M677.82,321.67
	c12.17,2.7,20.49,9.42,24.98,14.02c-0.35,0.86-0.53,1.68-0.7,2.49c-0.25,1.17-0.53,2.49-1.41,4.44c-2,4.4-4.79,6.95-6.83,8.8
	c-1.39,1.27-2.82,2.57-3.24,4.16c-4.64,3.56-9.55,6.68-14.67,9.3c-1.77,0.91-3.54,1.74-5.3,2.5c-3.76-3.67-7.53-7.31-11.28-10.91
	c0.13-0.17,0.24-0.36,0.34-0.56c1.26-2.45-0.06-4.59-1.33-6.67c-1.1-1.78-2.45-3.99-3.27-7.34c-1.04-4.28-0.38-6.99,0.32-9.87
	c0.58-2.39,1.18-4.86,0.59-7.85c-0.15-0.78-0.37-1.54-0.66-2.27C661.1,320.53,668.94,319.7,677.82,321.67z M573.2,316.24
	c23.03-4.98,36.22-7.83,40.87-7.83c0.24,0,0.46,0.01,0.66,0.02c13.34,1.03,33.97,7.1,35.87,16.82c0.36,1.8-0.04,3.43-0.54,5.49
	c-0.74,3.07-1.67,6.89-0.32,12.47c1.03,4.21,2.78,7.06,3.94,8.94c0.21,0.34,0.43,0.71,0.63,1.04c-2.29,0.09-7.66-1.15-11.72-2.11
	c-5.33-1.26-11.36-2.67-17.65-3.4c-18.13-2.12-31.21,2.47-40.75,5.82c-9.49,3.33-14.67,4.9-19.62,1.33
	c-4.33-3.12-7.36-9.37-8.08-16.71c-0.7-7.07,0.93-13.69,4.25-17.25C562.87,318.56,565.43,317.92,573.2,316.24z M492.68,316.26
	c9.53-1.66,27.26-4.74,50.1-2.99c5.36,0.41,10.72,1.06,16.03,1.95c0,0,0,0,0,0c0,0,0,0-0.01,0c-0.74,0.54-1.44,1.15-2.12,1.88
	c-4.44,4.77-6.57,12.83-5.71,21.56c0.86,8.74,4.6,16.34,10.05,20.43h0.01c1.24,1.54,2.49,3.07,3.74,4.6
	c-1.46-0.31-2.9-0.6-4.34-0.88c-28.9-5.49-59.69-5.08-91.84,1.22c-0.55-1.38-1.08-2.79-1.59-4.24c-1.1-3.17-2-6.31-2.88-9.35
	c-2.55-8.86-4.98-17.3-11.6-23.39C465.6,322.25,479.08,318.62,492.68,316.26z M365.92,351.3c0.53,0.02,1.89-5.45,1.89-5.45
	c-0.07,0-0.14,0-0.2-0.01c4.74-8.67,18.11-11.89,36.37-16.31c17.21-4.16,30.81-7.45,41.44-0.93c8.1,4.96,10.44,13.09,13.4,23.38
	c0.89,3.1,1.82,6.32,2.97,9.63c0.42,1.22,0.86,2.4,1.31,3.57c-8.45,1.81-16.98,4.03-25.6,6.65c-19.99,6.08-37.39,13.36-51.39,19.94
	C374.76,376.53,364.81,362.22,365.92,351.3z M348.32,387.57c7.91-1.78,16.07-2.77,24.24-2.96c0,0,5.44,5.5,8.46,9.57
	c-8.41,4.09-15.39,7.79-20.7,10.62c-12.08,6.42-23.13,13.32-34.05,20.59c-8.22-4.85-15.36-10.53-20.8-19.16
	C318.68,397.27,333.08,390.99,348.32,387.57z M196.26,411.96c2.1-11.77,10.4-22.51,23.36-30.25c11.81-7.05,26.17-10.71,38.41-9.8
	c3.43,0.25,13.88,1.03,23.37,7.94c7.62,5.56,10.77,12.22,14.1,19.27c1.19,2.52,2.42,5.12,3.87,7.67
	c5.69,10.03,13.3,16.62,21.86,21.97c1.73,1.09,3.49,2.12,5.29,3.11c3.92,2.17,7.97,4.18,12.08,6.23c2.36,1.18,4.81,2.39,7.25,3.65
	c13.85,7.12,27.53,16.1,44.45,28.68c1.49,1.11,3.01,2.25,4.55,3.41c15.85,11.98,34.6,27.03,58.78,46.46
	c-1.76,1.58-3.44,3.13-5.04,4.66c-2.74,2.61-5.49,5.36-8.41,8.26c-8.79,8.78-18.9,18.86-32.19,28.34c-1.7-1.52-3.44-3.05-5.25-4.64
	c-28.32-24.84-40.03-32.27-43.88-34.72c-2.49-1.58-4.95-3.09-7.37-4.51c-1.67-0.99-3.32-1.94-4.96-2.87
	c-18.23-10.23-34.39-16.48-46.79-21.29c-20.8-8.05-34.16-11.51-43.91-14.03c-0.69-0.17-1.36-0.35-2.01-0.52
	c-2.76-0.72-5.24-1.37-7.55-2.08c-6.98-2.12-12.46-4.63-19.57-10.17C213.5,456.46,192.03,435.67,196.26,411.96z M126,481.96
	c11.83-32.1,39.04-49.93,52.12-58.5c3.92-2.57,7.98-4.97,12.11-7.18c-0.65,14.13,6.2,26.91,14.64,37.15c0,0,0,0,0,0
	c-10.94,6.67-20.61,15.59-28.09,25.95c-7.54,10.44-12.96,22.48-15.84,35.07c0,0-0.01,0-0.01,0c-4.53,1.49-9.08,2.91-13.62,4.25
	c0,0,0,0,0,0c-1.71-1.48-3.72-2.69-6.15-3.46c-6.75-2.14-15.32-0.16-20.82,4.82c0,0-0.01,0.01-0.01,0.01
	C119.73,506.65,121.62,493.86,126,481.96z M122.97,563.46c-0.44-1.17-10.65-28.69,1.08-39.3c4.06-3.67,10.55-5.2,15.45-3.65
	c5.68,1.8,8.5,7.56,11.23,13.12c0.93,1.9,1.9,3.86,2.96,5.62c8.1,13.43,25.89,21.45,52.91,23.86c-9.21,12.58-7.02,38.04,2.72,54.13
	c0.3,0.5,0.61,0.97,0.93,1.44c-8.3-0.81-16.46-2.44-24.34-4.91C153.78,603.73,131.43,585.86,122.97,563.46z M877.48,690.66
	c-1.07,1.1-2.13,2.18-3.15,3.25c-11.6,12-44.24,41.93-96.48,60.58c-34.08,12.17-62.42,14.36-95.94,15.96
	c-129.4,6.19-228.42-2.83-232.58-3.22c-140.69-13.11-174.13-32.03-186.72-39.15c-15.72-8.9-52.53-29.73-82.1-73.31
	c-10.06-14.82-18.31-30.9-24.59-47.88c8.38,4.8,17.87,8.89,28.33,12.17c9.83,3.08,20.08,4.93,30.5,5.53
	c6.55,7.32,14.52,11.8,22.35,15.5c29.95,14.14,65.49,22.68,105.61,25.39c0,0,0,0,0.01,0c2.68,0.97,5.64,1.99,8.93,3.13
	c18.22,6.29,29.47,10.17,42.13,10.17c2.22,0,4.48-0.12,6.82-0.36c3.46-0.36,8.19-0.86,13.36-2.23c0,0,0.01,0,0.01,0
	c13.66,3.65,27.68,6.24,41.68,7.68c9.01,0.92,18.05,1.39,27.11,1.39c19.12,0,38.3-2.06,57.28-6.16c12.74,2.16,25.68,3.57,38.49,4.18
	c3.83,0.18,6.91,0.26,9.53,0.26c5.81,0,9.39-0.38,13.81-0.86c6.28-0.67,14.09-1.51,32.46-1.82l1.73-0.02
	c4.66-0.07,8.27-0.13,11.26-0.68c2.67-0.49,4.85-1.38,6.84-3.02c0,0,0,0,0.01-0.01l24.63-2.59c70.55-7.42,87.31-9.18,111.55-15.53
	c6.81-1.78,13.65-3.8,20.47-6.03l4.55-0.54c20.63-2.47,41.23-5.53,61.22-9.09c9.79-1.74,19.91-3.55,27-11.8
	c1.54-1.79,2.78-3.67,3.77-5.64v0c6.36-4.67,12.46-9.76,18.23-15.19c-0.36,1.84-0.75,3.67-1.18,5.48
	C916.02,651.06,894.65,673.02,877.48,690.66z M956.18,557.07c-0.59,14.42-10.32,24.7-26.45,41.74
	c-6.03,6.37-12.51,12.33-19.35,17.81c1-5.39,1.07-11.15,1.14-17.09c0.11-9.08,0.27-21.52-7.75-33.05c-0.77-1.1-1.67-2.39-2.71-3.72
	c0,0,0,0,0,0c6.8-5.05,11.11-10.96,12.8-17.6c1.29-5.09,0.69-9.27,0.21-12.64c-0.52-3.67-0.74-5.68,0.6-7.65
	c3.33-4.89,13.76-5.6,21.02-3.17C949.05,526.17,956.73,543.54,956.18,557.07z M960.17,543.95c-3.17-12.09-11.05-23.58-22.73-27.48
	c-6.28-2.1-16.1-2.63-22.71,1.12c-0.86-7.4-3.24-16.7-9.08-25.97c-3.28-5.2-7.31-9.84-11.99-13.87c0,0,0.01-0.01,0.01-0.01
	c1.33-1.55,2.34-3.71,3.38-5.92c2.15-4.58,4.6-9.76,9.96-12.55c4.76-2.49,9.61-1.8,13.9-1.19c3.73,0.52,7.55,1.06,10.51-0.86
	c7.7,4.74,14.18,10.63,19.24,17.56C967.83,498.26,964.25,527.54,960.17,543.95z"/>
</svg>
