<?xml version="1.0" encoding="utf-8"?>
<!-- Generator: Adobe Illustrator 25.0.0, SVG Export Plug-In . SVG Version: 6.00 Build 0)  -->
<svg version="1.1" id="Camada_1" xmlns="http://www.w3.org/2000/svg" xmlns:xlink="http://www.w3.org/1999/xlink" x="0px" y="0px"
	 viewBox="0 0 1080 1080" style="enable-background:new 0 0 1080 1080;" xml:space="preserve">
<g>
	<path d="M461.52,264.85c51.23,0,102.47,0,153.7,0c2.01,0.99,3.93,2.33,6.05,2.92c35.18,9.65,71.38,16.54,105.37,29.33
		c66.36,24.98,123.95,63.8,161.63,125.48c14.99,24.53,23.11,53.25,34.35,80.07c0,24.17,0,48.33,0,72.5
		c-8.4,22.43-14.08,46.39-25.69,67.01C848.3,728.58,768.19,772.28,676.48,798.2c-27.61,7.8-56.28,11.88-84.46,17.66
		c-36.73,0-73.47,0-110.2,0c-2.17-0.84-4.28-2.16-6.53-2.45c-44.04-5.61-87.03-15.47-128.15-32.43
		c-69.84-28.81-129.65-70.44-167.09-137.99c-11.21-20.22-17.43-43.21-25.93-64.93c0-26.1,0-52.2,0-78.3
		c1.71-4.29,3.96-8.45,5.03-12.89c6.87-28.47,19.51-54.26,37.1-77.42c52.32-68.94,123.93-107.75,205.8-130
		C421.73,274.08,441.68,269.69,461.52,264.85z M214.97,418.7c-0.8,0.87-1.6,1.73-2.39,2.6c-1.16,0.77-2.62,1.3-3.43,2.34
		c-51.04,64.7-54.86,149.45-8.99,218.53c39.81,59.96,97.44,96.65,163.55,121.18c93.04,34.53,188.64,38.2,284.99,18.58
		C729.39,765.5,801.09,730.61,857,668.07c63.32-70.83,68.62-161.71,13.92-239.08c-36.64-51.83-87.63-85.14-145.38-108.41
		c-83.27-33.56-169.72-42.24-258.58-30.08c-73.36,10.04-141.89,32.68-201.06,78.18C247.18,383.08,231.85,401.9,214.97,418.7z"/>
	<path d="M212.58,421.3c0.8-0.87,1.6-1.73,2.39-2.6c13.77-16.36,31.77-25.36,51.59-32.78c11-4.12,23.78-11.79,28.96-21.48
		c11.86-22.2,28.69-30.77,52.61-30.73c22.28,0.04,43.91-2.22,63.4-15.96c8.19-5.77,19.74-7.86,30.09-9.28
		c22.93-3.14,46.22-3.73,69.08-7.24c80.58-12.38,156.31,0.14,227.11,41.28c9.02,5.24,18.95,9.95,29.06,12.09
		c26.93,5.72,43.63,21.42,55.18,46.13c6.23,13.34,16.74,25.72,28.01,35.41c15.68,13.48,22.22,29.34,23.05,49.22
		c0.7,16.72,1.55,33.66,4.81,50c5.9,29.55,3.81,56.05-17.65,79.77c-6,6.63-9.76,18.23-9.24,27.25c1.32,22.77-9.7,39.24-26.34,50.04
		c-25.04,16.25-46.56,39.67-79.11,42.85c-6.07,0.59-12.18,5.77-17.33,9.98c-28.57,23.31-62.01,33.1-97.96,33.77
		c-44.42,0.83-88.87,0.1-133.3-0.64c-9.99-0.16-20.17-2.27-29.86-4.93c-43.12-11.84-86.11-24.15-129.12-36.4
		c-18.88-5.38-35.25-14.64-49.24-28.94c-11.36-11.61-24.2-21.91-37.12-31.84c-33.72-25.92-62.83-53.65-53.82-102.34
		c1.35-7.31-2.26-16.05-5.16-23.52c-6.27-16.13-10-32.24-4.75-49.33C196.1,474.47,204.36,447.89,212.58,421.3z M555.18,315.12
		c-33.26,3.75-71.67,7.45-109.86,12.75c-12.08,1.68-23.48,7.95-35.36,11.55c-14.91,4.52-29.84,9.19-45.06,12.37
		c-10.79,2.25-22.36,0.93-33.02,3.53c-6.9,1.68-16.01,6.1-18.55,11.79c-10.98,24.56-31.3,35.55-55.12,42.8
		c-25.27,7.69-38.65,25.12-43.41,50.81c-2.43,13.14-6.59,26.15-11.57,38.57c-5.16,12.86-4.58,24.36-0.51,37.63
		c4.98,16.24,8.94,33.76,8.22,50.5c-0.79,18.15,3.42,32.45,16.47,44.05c12.95,11.51,26.72,22.1,40.05,33.18
		c7.4,6.15,15.9,11.5,21.7,18.93c16.05,20.56,37.44,30.56,62,36.93c35.81,9.29,70.89,21.58,106.91,29.86
		c24.14,5.55,49.3,7.43,74.13,8.99c23.04,1.45,46.31-0.8,69.37,0.51c43.69,2.49,84.25-4,120.16-31.68
		c10.28-7.93,24.04-11.36,36.22-16.8c8.26-3.7,17.07-6.48,24.73-11.16c11.89-7.27,23.3-15.41,34.35-23.92
		c10.72-8.26,22.22-17.24,20.49-32.67c-2.11-18.89,3.97-34.14,16.66-47.34c13.34-13.88,14.97-30.28,12.34-48.41
		c-3.17-21.85-4.16-44.04-8.01-65.75c-1.62-9.16-5.91-20.46-12.84-25.55c-16.69-12.25-28.4-27.27-35.85-46.07
		c-7.98-20.13-22.5-31.39-43.74-35.74c-10.18-2.09-20.81-5.72-29.36-11.45C683.18,327.48,622.57,318.82,555.18,315.12z"/>
	<path d="M643.45,597.54c-18.34,6.47-38.68,5.15-55.65-4.34c-4.86-2.72-9.39-6.04-13.57-10.23c-18.06-18.1-17.33-42.71,1.51-59.98
		c23.09-21.17,68.68-21.69,92.42-1.06c22.51,19.57,22.48,48.34-2.27,65.1C659.14,591.61,651.4,594.74,643.45,597.54z M592.98,580.93
		c17.9,8.84,38.83,9.27,57.16,1.36c5.21-2.25,10.15-4.71,14.73-7.72c14.74-9.68,14.86-26.39,3.15-38.71
		c-21.41-22.51-67.71-22.92-89.63-0.79c-12.43,12.55-13.59,26.89,0.52,37.44C583.24,575.76,587.99,578.46,592.98,580.93z"/>
	<path d="M513.51,530.26c-16.64,5.1-34.57,4.21-50.66-2.42c-5.97-2.46-11.74-5.26-16.94-8.89c-22.78-15.92-21.88-47.15-0.17-64.51
		c22.89-18.3,61.25-19.74,85.57-3.21c29.13,19.79,28.29,56.06-2.71,72.97C523.93,526.74,518.88,528.61,513.51,530.26z
		 M530.14,464.75c-23.89-14.83-54.31-14.72-78.33-0.1c-1.18,0.72-2.34,1.47-3.47,2.25c-14.81,10.21-14.17,27.55-1.22,39.83
		c21.26,20.16,65.17,20.53,86.81,0.72c13.96-12.77,14.86-29.79-0.68-40.66C532.23,466.08,531.19,465.4,530.14,464.75z"/>
	<path d="M777.99,549.8c-13.39,4.16-27.79,3.58-40.84-1.53c-7.89-3.09-15.49-6.47-22.03-11.3c-23.19-17.13-22.11-45.78,0.13-64.26
		c22.73-18.89,66.05-19.09,89.04-0.4c23.95,19.47,23.23,51.91-3.14,67.95C794.23,544.47,786.41,547.19,777.99,549.8z M725.99,532.29
		c16.18,9.91,36.18,11.25,53.88,4.41c7.78-3.01,15.37-6.28,22.07-10.86c15.84-10.82,15.1-27.41,1.06-40.53
		c-22.28-20.81-65.71-20.23-87.54,1.16c-11.67,11.44-12.16,24.94-0.64,36.87C718.28,526.92,722,529.85,725.99,532.29z"/>
	<path d="M331.37,499.79c21.91,15.33,21.45,44.82,1.33,62.44c-25.19,22.06-69.94,21.59-94.6-1c-17.75-16.26-18.3-42.15-1.05-59.07
		c12.7-12.46,28.41-17.05,45.49-17.79c1.26-0.05,2.52-0.06,3.77-0.22C289.52,483.74,319.16,491.24,331.37,499.79z M248.65,554.71
		c22.3,12.69,49.69,13.29,72.47,1.48c1.55-0.8,3.07-1.66,4.55-2.57c18.08-11.18,18.21-29.34,2.39-43.35
		c-21.86-19.36-64.04-18.92-85.5,0.91c-13.83,12.78-14.3,30,1.39,40.62C245.47,552.83,247.04,553.8,248.65,554.71z"/>
	<path d="M608.45,652.74c0.78,0.05,1.56,0.09,2.34,0.08c17.34-0.24,32.98,4.87,45.82,16.83c19.09,17.77,18.6,43.48-0.59,60.9
		c-23.7,21.51-70.06,21.62-93.42,0.22c-21.01-19.25-20.49-48.65,3.18-64.32C577.32,658.81,604.75,652.52,608.45,652.74z
		 M569.41,721.69c23.48,14.68,53.34,15.02,77.35,1.23c1.2-0.69,2.38-1.41,3.53-2.17c16.55-10.93,15.99-28.09,1.38-41.53
		c-21.82-20.07-64.98-19.64-86.61,0.87c-12.8,12.13-13.35,29.31,1.38,39.63C567.4,720.4,568.4,721.06,569.41,721.69z"/>
	<path d="M339.22,388.89c18.32-6.47,38.43-5.81,56.23,1.98c5.28,2.31,10.34,4.9,14.96,8.13c21.54,15.06,21.82,43.18,2.89,61.49
		c-24.06,23.27-72.86,23.02-96.67-0.49c-19.42-19.18-16.76-49.44,7.6-64.26C328.85,392.92,333.89,390.77,339.22,388.89z
		 M329.32,455.35c22.01,11.71,48.39,11.31,70.59-0.03c2.73-1.4,5.38-2.92,7.9-4.62c15.04-10.13,14.24-27.01,1.14-39.61
		c-21.37-20.55-64.7-21-86.47-0.9c-14.67,13.54-14.5,31.84,2.48,42.62C326.37,453.72,327.83,454.56,329.32,455.35z"/>
	<path d="M384.25,695.2c-20.92,5.65-43.44,1.55-60.64-11.64c-0.48-0.37-0.96-0.74-1.43-1.13c-21.67-17.46-21.36-47.71,0.47-64.84
		c22.83-17.91,61.57-19.17,85.74-2.78c29.09,19.72,27.9,56.44-3.24,72.85C398.67,691.09,391.51,693.24,384.25,695.2z M340.1,678.89
		c16.67,7.12,35.45,7.45,52.44,1.13c5.16-1.92,10.06-4.1,14.56-6.91c18.89-11.81,18.3-31.43,0.69-45.32
		c-21.87-17.25-61.17-16.63-82.25,1.29c-15.24,12.96-15.84,31.46,0.84,42.6C330.64,674.52,335.26,676.82,340.1,678.89z"/>
	<path d="M664.23,466.58c-20.09,8.2-42.78,7.97-62.62-0.82c-3.23-1.43-6.33-3.04-9.24-4.93c-28.93-18.75-27.04-55.01,3.31-71.7
		c25.37-13.95,51.68-14.52,77.04,0.67c29.47,17.64,30.52,54.02,1.2,71.96C670.87,463.63,667.62,465.2,664.23,466.58z M598.99,451.1
		c21.31,11.11,46.69,11.93,68.17,1.14c2.02-1.01,3.98-2.11,5.85-3.33c19.26-12.44,18.82-30.84,0.98-45.17
		c-22.41-17.99-61.69-16.99-83.14,2.11c-14.04,12.5-15.04,29.94,0.48,40.66C593.77,448.21,596.34,449.72,598.99,451.1z"/>
	<path d="M774.08,664.22c-16.58,4.23-34.27,2.21-49.18-6.2c-4.82-2.72-9.34-6.06-13.55-10.14c-17.55-17.05-17.02-42.16,0.76-59
		c23.63-22.38,70.14-22.89,94.51-1.03c22.59,20.26,19.54,52.3-7.97,67.68C791.18,659.71,782.67,662.03,774.08,664.22z
		 M731.76,646.68c17.43,8,37.41,8.24,55.06,0.73c5.37-2.28,10.44-4.81,15.08-7.96c15.78-10.72,15.13-27.58,1.26-40.52
		c-22.31-20.82-65.65-20.31-87.36,1.04c-12.48,12.27-13.16,28.52,1.21,38.53C721.58,641.67,726.54,644.28,731.76,646.68z"/>
	<path d="M506.13,635.39c-16.02,5.34-33.37,5.36-49.37-0.06c-5.54-1.87-10.76-4.02-15.47-6.98c-29.04-18.23-28.01-54.75,1.74-71.9
		c26.19-15.1,53.43-15.34,79.4,1.17c27.81,17.68,28.52,52.84,0.48,70.28C517.77,631.1,512.08,633.41,506.13,635.39z M444.48,616.48
		c22.61,12.7,50.26,13.32,73.21,1.24c1.54-0.81,3.05-1.68,4.51-2.6c17.1-10.83,17.04-28.82,2.14-42.52
		c-21.99-20.22-64.9-19.69-86.25,1.06c-12.99,12.62-13.67,29.53,1.23,39.65C440.99,614.43,442.72,615.49,444.48,616.48z"/>
	<path d="M515.2,322.74c5.33-0.55,10.7-0.58,16.03,0c3.08,0.34,6.24,0.79,9.27,1.68c23.28,6.84,39.19,25.48,38.93,44.79
		c-0.27,19.62-17.96,37.85-41.92,43.77c-22.22,5.49-43.15,2.89-62.05-10.17c-14.03-9.69-22.41-23.41-19.01-40.78
		c3.75-19.13,16.82-31.13,35.5-35.92C499.35,324.22,507.07,323.58,515.2,322.74z M478.23,390.68c23.67,14.53,53.65,14.71,77.59,0.62
		c1.13-0.67,2.24-1.36,3.33-2.09c16.45-11.03,15.69-28.24,0.86-41.46c-21.89-19.52-63.79-19.43-85.45,0.19
		c-13.87,12.56-14.67,30.22,0.66,40.79C476.21,389.4,477.21,390.05,478.23,390.68z"/>
</g>
</svg>
