<?xml version="1.0" encoding="utf-8"?>
<!-- Generator: Adobe Illustrator 25.0.0, SVG Export Plug-In . SVG Version: 6.00 Build 0)  -->
<svg version="1.1" id="Camada_1" xmlns="http://www.w3.org/2000/svg" xmlns:xlink="http://www.w3.org/1999/xlink" x="0px" y="0px"
	 viewBox="0 0 1080 1080" style="enable-background:new 0 0 1080 1080;" xml:space="preserve">
<path d="M998.4,405c-7.4-13.6-21.6-22.1-31.8-24.4c-0.3-0.1-0.6-0.1-0.9-0.2c-14.4-6.7-29.3-12.9-44.2-18.4
	c-41.3-15.1-74-21.5-89.7-24.6l-0.5-0.1c-67.8-13.2-100-21.1-121.4-26.4c-22.1-5.4-33.3-8.2-60.5-11.2c-3.8-0.4-8.5-0.9-14-1.4
	c-2.1-2.7-4.5-5.2-6.9-7.4c-3.2-2.9-6.6-5.4-10.1-7.7c0.1-0.2,0.1-0.5,0.2-0.7c1.1-5.1-0.1-10.8-3-15c-2.9-4.2-6.9-7.1-11.1-9.1
	c-2.1-1-4.3-1.8-6.5-2.4c-0.6-0.2-1.2-0.3-1.7-0.4c0,0,0,0,0,0c0.3-0.7,0.6-1.5,0.8-2.2l0.4-1.6c0.1-0.5,0.2-1.1,0.3-1.6l0.2-1.6
	c0-0.6,0.1-1.1,0.1-1.7c0.1-2.3-0.3-4.6-0.9-6.8c-0.7-2.2-1.8-4.3-3.2-6.1c-1.4-1.8-3-3.3-4.6-4.5c-1.7-1.3-3.4-2.4-5.1-3.4
	c-3.5-2-6.9-3.6-10.5-5.1c-2.4-1-4.8-1.8-7.3-2.5c-0.1-0.1-0.1-0.2-0.2-0.3c-2.3-3.1-4.6-5.5-6.6-8.1c-2-2.6-3.8-5.4-5.3-8.3
	c-3-5.8-5-12.1-6-18.6l-2.6-16.4l-4.1,16.2c-2.2,8.5-5,16.8-9.5,24.1c-2.2,3.6-4.8,7-7.8,9.8c-1.5,1.4-3.1,2.7-4.9,3.8
	c-1.7,1.1-3.7,2.2-5.7,3.5c-4,2.5-7.9,5.5-11,9.1c-0.8,0.9-1.5,1.8-2.2,2.8c-0.7,1-1.3,1.9-2,2.9c-1.3,2-2.5,4.1-3.4,6.3
	c-0.9,2.3-1.5,4.8-1.3,7.3c0.2,2.5,1.1,5,2.6,6.9c1.5,2,3.4,3.4,5.5,4.5c2.1,1.1,4.3,1.8,6.5,2.2c-2.1-0.8-4.1-1.9-5.9-3.2
	c-1.8-1.3-3.3-2.9-4.3-4.7c-1.1-1.8-1.5-3.8-1.4-5.8c0.1-2,0.8-3.9,1.7-5.8c1-1.8,2.2-3.6,3.5-5.3c0.7-0.8,1.4-1.8,2.1-2.5
	c0.7-0.8,1.4-1.6,2.2-2.3c3-3,6.5-5.4,10.3-7.4c1.9-1.1,3.9-2,6-3.3c2.1-1.2,4.1-2.7,5.9-4.3c3.7-3.2,6.8-7,9.3-11
	c2.9-4.6,5.1-9.4,6.9-14.4c1.1,2.9,2.5,5.8,4,8.5c1.8,3.1,3.9,6.2,6.3,8.9c2.4,2.7,5,5.1,7,7.5c1,1.2,1.8,2.4,2.4,3.8
	c0.6,1.4,1,2.9,1.2,4.4c0.4,3.1,0.2,6.4-0.6,9.5c-0.8,3.1-2.4,6-4.9,8.3c-2.4,2.3-5.6,3.7-9,4.2c3.5,0.1,7.1-0.8,10.1-2.9
	c1.5-1,2.9-2.3,4-3.8c1.1-1.5,2-3.1,2.7-4.8c1.4-3.4,2-7.2,1.8-10.9c-0.1-1.9-0.4-3.8-1-5.7c-0.2-0.8-0.6-1.5-0.9-2.2
	c1.4,0.9,2.8,1.9,4.1,2.8c3,2.2,6.2,4.5,9.2,6.7c2.9,2.3,5.7,4.6,7.4,7.2c0.9,1.3,1.5,2.7,1.9,4.2c0.4,1.5,0.6,3,0.5,4.6
	c0,3.2-1,6.4-2.5,9.6c-1.4,3.2-3.4,6.3-5.6,9.1c-4.3,5.7-10.3,10.3-17.3,13.6c2-0.1,3.9-0.5,5.8-1c1.9-0.5,3.8-1.2,5.6-2
	c3.7-1.7,7-4.1,10-7c2.9-2.9,5.4-6.1,7.4-9.8c0.4-0.7,0.8-1.5,1.1-2.3c0,0,0,0,0,0c2.5,1.4,4.8,2.8,7,4.5c3.4,2.6,6.4,5.6,8.1,9
	c1.8,3.4,2.2,7.2,1.2,10.7c-0.9,3.6-3,7-5.6,10.2c-1.3,1.6-2.7,3.1-4.2,4.6c-0.1,0.1-0.2,0.2-0.4,0.4c-1.4,1.4-2.8,2.7-4.3,4
	l-2.5,2.1l-0.6,0.6l-0.6,0.5l-1.2,1c-1.6,1.4-3.3,2.6-5.1,3.9c-7,4.9-15,8.6-23.5,11.4c9,0,18.1-2.4,26.3-6.7c2-1.1,4-2.3,5.9-3.6
	l1.4-1l1.3-1l2.7-2.1c0.8-0.7,1.6-1.3,2.5-2c2.4-2,4.7-4.2,6.8-6.7c0.3-0.3,0.6-0.6,0.8-1c1.5-1.9,2.9-3.9,4.1-6.1
	c0.9-1.8,1.8-3.7,2.3-5.8c3.2,2.6,6.2,5.4,8.9,8.4c1.6,1.8,3.2,3.8,4.6,5.7c1.7,2.4,3.2,4.8,4.5,7.4c0.1,0.1,0.2,0.3,0.2,0.5
	c0.5,1.3,1.2,2.5,1.5,3.8c0.2,0.6,0.5,1.3,0.6,1.9l0.5,1.9c0.2,0.6,0.2,1.3,0.3,1.9c0.1,0.7,0.2,1.3,0.2,1.9l0.1,1.9l-0.2,1.9
	c0,0.6-0.2,1.2-0.3,1.9l-0.2,0.9c-0.1,0.3-0.2,0.6-0.3,0.9c-0.3,1.2-0.9,2.3-1.5,3.4c-1.2,2.2-2.9,4.1-4.8,5.8
	c-1.9,1.7-4.1,3.2-6.5,4.5c-2.3,1.3-4.8,2.4-7.3,3.4c-5,2-10.4,3.5-15.8,4.7c-5.4,1.2-11,2.3-16.3,3c-5.4,0.7-10.7,0.7-16.1,0.1
	c-2.7-0.3-5.5-0.7-8.3-1.1c-2.9-0.3-5.8-0.7-8.8-0.7c-5.9-0.2-11.8,0.3-17.5,1.3c-5.7,1-11.4,2.3-16.9,4c-2.8,0.9-5.5,1.8-8.1,2.8
	c-2.7,0.9-5.2,1.8-7.8,2.5c-2.6,0.6-5.2,1.1-7.9,1.2c-2.7,0.1-5.4,0.1-8.1-0.1c-5.5-0.4-11-1.4-16.3-3c-2.7-0.8-5.3-1.7-7.8-2.8
	c-2.5-1.2-4.9-2.6-6.7-4.4c-0.9-0.9-1.6-2.1-1.7-3.2c-0.2-1.2,0.2-2.5,0.9-3.6c1.1-1.8,2.7-3.2,4.4-4.6c0.1,0.1,0.3,0.1,0.4,0.2
	c1.7,0.7,3.4,1.2,5.1,1.6c1.7,0.4,3.3,0.6,5,0.8c0.8,0.1,1.7,0.2,2.5,0.2c0.8,0.1,1.7,0.1,2.5,0.1c3.4,0,6.7-0.4,9.9-1.3
	c-3.3-0.6-6.4-1.2-9.4-2.1c-0.8-0.2-1.5-0.4-2.2-0.7l-2.3-0.7c-1.5-0.5-3-1-4.4-1.6c-1.4-0.6-2.8-1.2-3.9-1.9
	c-1.2-0.7-2.2-1.5-2.6-2.2c-0.8-1.1-0.9-3.7-0.2-6.4c0.6-2.7,1.8-5.5,3.1-8.2c1.2-2.6,2.7-5.2,4.1-7.8c0.1-0.1,0.2-0.3,0.2-0.4
	c1.4-2.4,2.9-4.8,4.4-7.2c1.3-2,2.6-4,3.8-6c1.1,1.6,2.4,2.9,3.7,4.2c0.4,0.3,0.8,0.7,1.2,1c4.2,3.3,9.4,5.1,14.4,5
	c-2.9-1.7-5.6-3.6-7.8-5.6c-1.4-1.3-2.7-2.7-3.8-4.1c-2.9-3.8-4.7-8.1-4.5-12.3c0-4.2,2-8.4,5-12.3c1.5-2,3.2-3.9,5-5.6
	s3.9-3.3,6.2-4.9c-2.8,0.1-5.5,0.8-8.1,2.1c-2.6,1.2-4.9,2.8-7.1,4.7c-2.1,1.9-4.1,4.2-5.5,6.9c-0.7,1.3-1.3,2.8-1.7,4.3
	c-0.2,0.8-0.3,1.6-0.5,2.3c-0.2,0.8-0.1,1.6-0.2,2.4c0,0.8,0.1,1.6,0.1,2.4c0.1,0.8,0.2,1.6,0.4,2.4c0.2,0.8,0.4,1.5,0.7,2.2
	c0.3,0.7,0.5,1.5,0.9,2.1c0.3,0.6,0.6,1.2,1,1.7c-3.2,2.4-6.2,5-9,7.9c-5.9,0.7-12,1.4-18.1,2.3c-75,10.2-150.5,30.6-218.4,59.2
	c-21,8.8-41.9,18.7-62.1,29.2c-4.4,0.7-9.5,1.7-15.3,2.8c-25.1,4.7-43.2,8.1-50.7,22.5c-2.5,4.9-2.7,8.9-2.8,12.5
	c-0.1,3.8-0.2,7.1-3.2,11.8c-3.4,5.3-7.8,8-11.4,10.2c-3.8,2.3-7.7,4.7-7.5,9.4c0.4,10,19.7,15.3,28,17.1c0.7,0.2,1.4,0.3,2,0.4
	c0,0,0,0,0,0c8.1,9,15.8,18.6,22.6,28.8c7.4,10.9,11.2,18.3,15.6,26.8c4.4,8.5,9.3,18.1,18.9,32.9c6,9.3,14.5,21.6,27.2,35
	c10.4,11,16.9,15.5,21.4,18.2c12.8,7.8,24.6,10.1,30.2,11.2c20.2,4,63.4,11.2,118.3,19.3c-8.5,0.8-15.4,3.6-20.5,8.5
	c-1.8,1.7-5.9,6-6.4,9.7c-0.6,4.5,3.3,9,12.6,14.3c1.8,20.8,4,41.7,6.5,62.4c0.6,4.8,1.2,9.7,1.8,14.6c-0.9,0.1-1.7,0.2-2.6,0.4
	c-1.7,0.3-3.5,0.8-5.2,1.7c-1.7,0.8-3.4,2.1-4.7,3.7c-1.3,1.6-2.2,3.6-2.6,5.5c-0.4,1.9-0.5,3.7-0.4,5.5c0.2,3.5,1,6.7,2.1,9.8
	c2.1,6.1,5,11.6,8.3,17c3.5,5.4,7.9,10.2,12.9,14.2c5,3.9,10.6,7.1,16.3,9.5c5.7,2.4,11.5,4.6,17.4,6.3c5.9,1.8,11.7,3.3,17.6,4.8
	c11.8,2.9,23.5,5.6,35.3,8.4c23.5,5.5,47,11,70.3,16.9c11.7,3,23.3,6.1,34.9,9.4c5.8,1.6,11.7,3.3,17.5,4.7
	c5.9,1.5,11.8,2.9,17.6,4.3c11.8,2.8,23.5,5.5,35.1,8.6c11.6,3.1,23,6.7,34.2,11.1c5.6,2.2,11.2,4.4,17,6.4c5.8,2,11.7,3.7,17.9,4.5
	c6.2,0.9,12.7,0.4,18.8-1.9c0,0,0,0,0,0c0.8,0,1.6-0.1,2.3-0.1c3-0.2,5.9-0.5,8.9-1.1c2.9-0.6,5.8-1.3,8.7-2.2
	c2.9-0.9,5.7-2.1,8.4-3.5c10.8-5.6,20-13.5,28.2-22.1c8.2-8.6,15.5-18,21.7-28c6.1-9.7,11.2-20.1,15-30.8c1.4-0.2,2.7-0.5,4-0.9
	c2.7-0.7,5.5-1.5,8.1-2.4c2.7-0.9,5.3-1.8,7.9-2.8c2.6-1,5.3-2.1,7.9-3.5c2.6-1.4,5-3.2,7-5.4c1-1.1,2-2.2,2.8-3.5
	c0.9-1.3,1.6-2.7,2.1-4c1.1-2.8,1.9-5.3,3-7.8c2.2-5,4.7-9.9,7.6-14.6c1.4-2.3,3-4.7,4.4-7.2c1.4-2.5,2.7-5,3.9-7.6
	c2.4-5.2,4.2-10.7,6-15.9c0.9-2.6,1.9-5.2,2.9-7.6c1.1-2.5,2.2-4.9,3.6-7.3c2.6-4.8,5.6-9.3,8.9-13.6c6.7-8.5,14.6-16.2,23.5-22.4
	c2.2-1.6,4.5-3,6.8-4.4c2.3-1.3,4.7-2.6,7.2-3.8c2.5-1.2,5-2.4,7.7-4c0.7-0.4,1.3-0.9,2-1.4l1-0.8l0.5-0.4l0.5-0.5l0.9-0.9
	c0.3-0.3,0.5-0.7,0.8-1c0.6-0.7,1-1.4,1.4-2.2c0.8-1.5,1.4-3.1,1.8-4.7c0.4-1.6,0.6-3.3,0.6-5c0-3.4-1-6.5-1.8-9.2
	c-0.9-2.7-1.7-5.1-2-7.5c-0.4-2.4-0.3-4.7,0.2-7.1c0.4-2.4,1.3-4.7,2.5-6.8c1.2-2.1,2.8-3.9,4.7-6c1.9-2,4-4.4,5.6-7.2
	c1.6-2.8,2.5-6,3.1-9c0.2-1.6,0.4-3.2,0.3-4.9c-0.1-1.6-0.3-3.2-0.6-4.7c-0.6-3-1.4-5.6-2.1-8.3c0-0.1,0-0.2-0.1-0.3
	c3.5-2.4,6.6-5.2,9.3-8.3c11.6-13.5,12.1-29.5,12.6-48.1c0.2-7,0.4-14.2,1.2-22c1.6-15.8,5.5-31.9,11.5-47.7
	c1.9-1.9,3.7-4.1,5.5-6.5C991.4,462.5,1013.1,431.9,998.4,405z M232.3,369.3c67.3-28.4,142.3-48.7,216.6-58.7
	c3.6-0.5,7.2-1,10.8-1.4c-0.8,1.2-1.6,2.5-2.4,3.8c-0.8,1.5-1.6,3-2.3,4.6c-0.7,1.6-1.2,3.3-1.7,5.1c-0.4,1.8-0.7,3.7-0.6,5.8
	c0.1,1,0.3,2.1,0.6,3.2c0.4,1.1,1,2.2,1.8,3.2c1.4,1.6,2.9,2.5,4.4,3.2c-1.8,1.1-3.6,2.4-4.9,4.1c-0.9,1.2-1.6,2.7-1.5,4.3
	c0,1.7,0.8,3.1,1.7,4.4c1.9,2.5,4.4,4.1,6.9,5.6c2.5,1.5,5.2,2.6,7.9,3.7c5.4,2,11.1,3.4,16.9,4.3c5.7,0.8,11.8,0.9,17.7-0.3
	c5.9-1.2,11.2-3.2,16.5-4.7c5.3-1.5,10.7-2.6,16.2-3.4c5.5-0.8,10.9-1.2,16.3-1c2.7,0.1,5.4,0.4,8.1,0.7c2.8,0.4,5.6,0.8,8.5,1.2
	c5.8,0.7,11.9,0.6,17.7-0.2c1.5-0.2,2.9-0.4,4.3-0.7l2.2-0.4l2.1-0.4c2.8-0.6,5.6-1.2,8.4-1.9c5.6-1.4,11.2-3.2,16.6-5.5
	c5.4-2.3,10.7-5.3,15.1-9.6c2.2-2.1,4.2-4.6,5.6-7.5c0.7-1.4,1.3-2.9,1.7-4.4c0.1-0.4,0.2-0.8,0.3-1.2l0.2-1.2
	c0.1-0.8,0.3-1.5,0.2-2.3l0-2.3c-0.1-0.8-0.2-1.5-0.2-2.3c0-0.8-0.2-1.5-0.4-2.3c-0.2-0.7-0.3-1.5-0.5-2.2l-0.7-2.2
	c-0.2-0.7-0.6-1.4-0.9-2.1c-0.3-0.9-0.7-1.7-1.2-2.5c3.1,0.3,5.9,0.6,8.3,0.9c26.7,3,37.7,5.7,59.6,11
	c21.4,5.2,53.7,13.2,121.7,26.4l0.5,0.1c15.5,3,47.8,9.3,88.6,24.3c11.4,4.2,22.7,8.8,33.8,13.7c-0.1,0-0.1,0.1-0.2,0.1
	c-4.1,3-4.1,7.4-4.1,11.6c0,3.3,0,6.7-1.6,10.5c-4.6,10.8-30.3,18.2-51.1,22.4c-18.8,3.9-31.4,4.9-41.5,5.7
	c-14.3,1.1-23.7,1.9-36.3,10.2c-1.8,1.2-3.5,2.4-5.1,3.6c-5,3.7-9.3,6.8-16.9,9c-7.5,2.1-13,1.7-20.7,1.2c-3.9-0.3-8.2-0.6-13.6-0.6
	c-9.2,0-14.2,0.7-24.3,2.2c-3.2,0.5-6.9,1-11.4,1.6c-1.8,0.2-45,6.2-68.6,6.9c-20.4,0.6-29.7-2.8-40.5-6.6
	c-9.4-3.4-20.1-7.2-39.6-8.7c-30.1-2.4-48.9,3.2-65.5,8.1c-18,5.3-33.5,9.9-59.5,3.5c-5-1.2-9.5-2.6-14.3-4.1
	c-10.6-3.3-21.5-6.8-39.1-8.2c-8.6-0.7-15-0.6-20.6-0.5c-7.7,0.1-14.4,0.2-25-1.8c-11.5-2.2-16.9-4.8-22.7-7.6
	c-5.2-2.5-10.5-5.1-20-7.6c-19.6-5.2-31.9-3.2-41.8-1.5c-9.3,1.5-16.6,2.7-27.4-2.1c-10.8-4.8-16-11.6-21-18.2
	c-5.9-7.7-12.1-15.7-26.2-19.5c-2.7-0.7-5.5-1.2-8.4-1.3C201.1,382.9,216.7,375.8,232.3,369.3z M83.5,460.9c0-0.6,2.5-2.2,4.2-3.2
	c4-2.4,9.4-5.7,13.7-12.4c4-6.2,4.1-11.1,4.3-15.3c0.1-3.2,0.2-6,2-9.5c5.9-11.4,22.6-14.5,45.8-18.9c19.9-3.7,29.8-5.6,39-3.1
	c11.8,3.2,16.8,9.6,22.5,17c5.3,6.9,11.4,14.8,23.7,20.3c12.8,5.7,21.8,4.2,31.4,2.6c9.7-1.6,20.7-3.4,38.8,1.4
	c8.8,2.3,13.8,4.8,18.7,7.1c6.2,3,12.1,5.9,24.5,8.2c11.3,2.1,18.6,2,26.4,1.9c5.7-0.1,11.6-0.2,19.9,0.5
	c16.8,1.4,27.4,4.7,37.6,7.9c4.6,1.5,9.4,3,14.7,4.3c27.8,6.8,45,1.8,63.2-3.6c16.8-5,34.2-10.1,63-7.8c18.6,1.5,28.3,4.9,37.8,8.3
	c11,3.9,21.3,7.6,43,7c23.9-0.7,67.5-6.7,69.3-6.9c4.5-0.6,8.3-1.2,11.5-1.7c9.8-1.4,14.7-2.2,23.2-2.1c5.1,0,9.4,0.3,13.1,0.6
	c8.1,0.5,14.4,1,23.1-1.5c8.8-2.5,14-6.3,19.1-10c1.6-1.1,3.2-2.3,4.9-3.4c11-7.3,18.8-7.9,33-9c10.4-0.8,23.2-1.8,42.4-5.8
	c44.1-9.1,53.2-19.5,56.1-26.6c2.2-5.1,2.2-9.6,2.2-13.2c0-3.7,0.1-5.2,1.3-6.1c1.6-1.2,4.6-1.4,8.3-0.6c8.9,2,21.1,9.8,27.1,20.9
	c12.6,23.2-7.2,51.1-7.4,51.4c-7.3,10.2-16.1,14.9-29.4,21.9c-21.2,11.2-40.3,15-55.7,18c-11.9,2.4-19.9,3.1-26.3,3.8
	c-9.4,0.9-16.2,1.6-28,6.4c-4.4,1.8-7.6,3.4-10.4,4.8c-4.6,2.3-8.3,4.1-15.1,5.8c-9.3,2.3-15.2,2-21.9,1.6
	c-4.4-0.2-9.4-0.5-15.8-0.1c-13.9,0.9-21.2,4.1-28.9,7.5c-6.1,2.7-12.4,5.4-22.7,7.1c-11.5,1.9-17.4,0.8-24.9-0.6
	c-6-1.1-12.7-2.4-23.5-2.5c-25.9-0.3-41.6,6.5-55.5,12.5c-14,6-26,11.2-45.9,8.2c-9.3-1.4-14.2-3.7-19.4-6.1
	c-6.4-2.9-12.9-5.9-26.8-7c-3.1-0.2-5.9-0.3-8.5-0.3c-6,0-11,0.5-15.6,1c-8.9,0.9-15.9,1.6-26.4-2c-6.7-2.3-10.6-4.9-14.1-7.2
	c-4.7-3.1-8.8-5.8-16.8-6c-8.4-0.2-13.4,2.5-18.3,5.1c-4.5,2.4-8.8,4.7-16.3,4.8c-6.2,0.1-9-1.4-12.7-3.2c-3.8-1.9-8.5-4.4-17.6-5.2
	c-9.2-0.8-14.6,0.6-19.9,2.1c-5.2,1.4-10.1,2.8-19.2,1.8c-5.5-0.6-8.5-1.6-11.5-2.6c-3.6-1.2-7-2.4-13.6-2
	c-7.1,0.4-11.7,2.1-15.5,3.5c-3.8,1.4-6.1,2.3-9.3,1.2c-3.7-1.1-4.9-3.4-6.8-6.8c-1.9-3.5-4.4-7.9-10.1-11.2c-8-4.6-15.4-3-21.9-1.6
	c-6.1,1.3-11.4,2.4-17.3-0.7c-4.7-2.5-6.4-5.9-8.3-9.5c-2-4-4.4-8.6-10.7-10.6c-7.7-2.5-13.5,1.1-19.2,4.6
	c-5.2,3.2-10.6,6.6-18.3,5.9c-5.9-0.5-13.4-5.3-28.3-14.8c-5.7-3.6-8.5-5.8-10.6-7.3c-2.5-1.9-4-3-7.6-4.5c-7.5-3-12.7-2.9-18.1-2.7
	c-4.5,0.1-9.1,0.2-16.2-1.3C93.3,468.6,83.6,463.5,83.5,460.9z M361.9,760.2c-0.7-5.2-1.3-10.4-1.9-15.5
	c-2.3-19.1-4.3-38.5-6.1-57.7c9.7,4.7,22.7,9.7,38.7,15c38.8,12.8,89.7,25.3,143.3,35.1c8.5,1.6,16.8,3,24.9,4.4
	c40.4,7,78.5,13.7,131.5,32.2c9.5,3.3,18.9,6.9,28.3,10.5c-0.5,0.1-1,0.2-1.6,0.4c-3.3,1-6.1,3.4-7.8,6.3c-0.9,1.4-1.6,2.9-2.1,4.4
	c-0.6,1.5-1,3-1.4,4.5c-0.7,3-1.3,6.1-1.7,9.1c-0.9,6-1.6,12-2.9,17.7c-1.3,5.7-3.2,11.3-6.6,15.8c-3.3,4.6-7.9,8.1-13.1,10.7
	c-5.1,2.6-10.8,4.4-16.5,5.6c-5.8,1.2-11.7,2-17.6,2.5c-3,0.2-6,0.4-9,0.6c-1.5,0.1-3,0.2-4.5,0.2c-1.5,0-2.9,0.1-4.4,0.1
	c-5.9-0.1-11.7-0.8-17.5-1.8c-2.9-0.5-5.8-1.2-8.7-1.8c-2.9-0.8-5.8-1.5-8.6-2.3c-5.7-1.6-11.4-3.5-17.1-5.5
	c-11.3-3.9-22.6-8.2-33.8-12.6c-11.2-4.4-22.5-8.7-33.6-13.2c-11.2-4.5-22.2-9.2-33.3-14c-11.1-4.8-22.2-9.6-33.5-14
	c-5.7-2.2-11.4-4.2-17.2-6.2c-5.8-2-11.6-3.7-17.3-5.5c-2.8-0.9-5.6-1.9-8.2-3c-2.6-1.1-5.1-2.5-7.6-4c-2.5-1.5-4.9-3.1-7.3-4.8
	c-2.4-1.7-4.8-3.5-7.4-5.3c-2.5-1.8-5.2-3.5-8.2-4.9c-3-1.4-6.3-2.5-9.7-2.8C362.2,760.3,362.1,760.3,361.9,760.2z M786.4,850.9
	c-6.9,9.2-14.3,18-22.3,26.3c-7.9,8.3-16.3,16.1-25.8,22.1c-2.4,1.5-4.8,2.8-7.4,4c-2.6,1.2-5.2,2.2-7.9,3.2
	c-1.4,0.5-2.8,0.9-4.2,1.4c0.8-0.5,1.5-1.1,2.2-1.6c2.5-2,4.6-4.4,6.5-6.8c3.8-4.9,7-10,10.3-15.1c3.3-5.1,6.6-10.1,9.7-15.3
	c3.2-5.2,6.2-10.5,8.6-16.1c1.2-2.8,2.2-5.7,2.9-8.7c0.8-3,1.2-6,2-8.8c0.7-2.9,1.8-5.6,3.4-8c1.6-2.4,4-4.2,6.6-5.4
	c1.3-0.6,2.7-1,4.2-1.2c1.4-0.3,2.9-0.4,4.5-0.6c3.1-0.5,6-1.6,8.7-3.2c3.2-1.9,6-4.4,8.5-7.1c-0.4,0.7-0.8,1.4-1.2,2.1
	c-0.7,1.2-1.2,2.5-1.6,3.9c-0.4,1.4-0.7,2.9-0.2,4.4c0.1,0.4,0.3,0.7,0.5,1.1l0.4,0.5c0.1,0.1,0.3,0.3,0.4,0.4
	c0.6,0.5,1.3,0.8,2.1,1c1.5,0.4,2.9,0.5,4.4,0.4c1.4-0.1,2.7-0.2,4.1-0.5C799.3,832.7,793.1,842,786.4,850.9z M946.2,613.5
	c-0.4,2.4-1.1,4.7-2.3,6.7c-1.1,2-2.8,3.9-4.7,5.9c-1.9,2-4,4.4-5.6,7.2c-1.6,2.8-2.7,5.8-3.3,8.9c-0.6,3.1-0.7,6.4-0.2,9.5
	c0.5,3.1,1.5,6,2.4,8.6c0.9,2.6,1.5,4.9,1.5,7.1c0,1.1-0.1,2.2-0.4,3.3c-0.3,1.1-0.7,2.2-1.2,3.1c-1,1.9-2.5,3.3-4.6,4.6
	c-2.1,1.3-4.6,2.5-7.1,3.8c-2.5,1.3-5.1,2.6-7.6,4.1c-2.5,1.5-4.9,3.1-7.2,4.8c-4.7,3.4-9,7.1-13.1,11.2c-4.1,4-7.9,8.3-11.4,12.9
	c-3.5,4.6-6.6,9.4-9.2,14.6c-1.4,2.5-2.5,5.2-3.6,7.8c-1.1,2.7-2,5.4-2.9,8.1c-1.7,5.4-3.3,10.6-5.5,15.6c-1.1,2.5-2.3,4.9-3.6,7.4
	c-1.3,2.4-2.7,4.8-4.1,7.3c-2.8,5-5.3,10.1-7.3,15.4c-1.1,2.6-1.9,5.5-2.8,7.9c-0.5,1.2-1,2.3-1.7,3.4c-0.7,1.1-1.5,2.1-2.3,3.1
	c-3.4,4-8.3,6.5-13.4,8.7c-5.1,2.1-10.3,4.2-15.6,5.9c-2.6,0.8-5.3,1.5-8,1.7c-1.3,0.1-2.7,0.1-3.9-0.2c-1.2-0.3-2.3-1-2.7-2.1
	c-0.4-1.1-0.3-2.5,0-3.9c0.3-1.3,0.8-2.6,1.3-3.9c0.6-1.2,1.2-2.4,1.8-3.6c1.2-1.4,2.4-2.8,3.5-4.3c3.6-4.9,6.7-10.1,9.4-15.5
	c-2.9,5.3-6.1,10.4-9.9,15.1c-0.3,0.3-0.6,0.7-0.8,1c0,0,0-0.1,0.1-0.1c-0.1,0.1-0.1,0.2-0.2,0.2c-3.5,4.2-7.5,8.2-12.2,10.9
	c-2.6,1.5-5.4,2.5-8.3,2.8c-1.5,0.2-3,0.3-4.5,0.5c-1.5,0.2-3,0.6-4.5,1.2c-2.9,1.2-5.5,3.2-7.4,5.7c-1.9,2.5-3.1,5.5-3.9,8.5
	c-0.8,3-1.3,5.9-2.2,8.8c-0.8,2.9-1.8,5.7-3,8.4c-2.4,5.4-5.5,10.6-8.7,15.6c-3.2,5.1-6.6,10-10,15c-3.4,5-6.7,10-10.4,14.6
	c-1.9,2.3-3.8,4.4-6,6.2c-1.1,0.9-2.3,1.7-3.5,2.3c-0.6,0.4-1.3,0.6-1.9,0.9l-1,0.4c-0.3,0.2-0.6,0.3-1,0.4
	c-5.3,1.9-11.2,2.3-16.9,1.4c-5.8-0.8-11.4-2.5-17.1-4.6c-5.6-2-11.2-4.3-16.8-6.6c-5.6-2.3-11.3-4.5-17.1-6.4
	c-5.8-2-11.6-3.7-17.4-5.4c-11.7-3.3-23.4-6.2-35.1-9.1c-5.8-1.5-11.7-2.9-17.5-4.5c-5.8-1.5-11.5-3.2-17.4-4.9
	c-11.6-3.4-23.3-6.6-35-9.7c-23.4-6.2-46.9-11.8-70.4-17.5c-11.7-2.8-23.5-5.5-35.2-8.5c-5.8-1.5-11.6-3-17.3-4.8
	c-5.7-1.7-11.3-3.7-16.6-6c-5.4-2.3-10.4-5.2-14.8-8.7c-4.5-3.5-8.3-7.7-11.3-12.5c-3-4.9-5.8-10.2-7.6-15.5
	c-0.9-2.7-1.5-5.4-1.7-7.9c-0.2-2.5,0.3-4.8,1.5-6.2c1.1-1.4,3.2-2.4,5.7-2.9c1.2-0.2,2.6-0.3,3.9-0.4c0.7,0,1.5,0,2.1,0
	c0.7,0,1.3,0,2,0.1c2.6,0.3,5.1,1,7.6,2.2c2.5,1.2,4.8,2.7,7.3,4.4c2.4,1.7,4.8,3.5,7.4,5.2c2.5,1.8,5.1,3.5,7.8,5.1
	c2.7,1.6,5.5,3.1,8.4,4.4c2.9,1.3,5.9,2.3,8.8,3.3c5.8,1.9,11.6,3.5,17.2,5.5c5.7,1.9,11.3,3.9,16.9,6c11.2,4.2,22.2,9.1,33.3,13.8
	c11.1,4.7,22.3,9.4,33.5,13.8c11.3,4.5,22.5,8.8,33.8,13.1c11.3,4.3,22.6,8.5,34.1,12.4c5.8,1.9,11.6,3.8,17.4,5.4
	c2.9,0.9,5.9,1.5,8.9,2.3c3,0.6,6,1.3,9,1.8c6.1,1,12.2,1.7,18.5,1.7c1.6,0,3.1-0.1,4.7-0.1c1.6,0,3-0.2,4.6-0.3
	c3-0.2,6.1-0.4,9.1-0.7c6.1-0.6,12.2-1.4,18.2-2.8c6-1.4,12-3.3,17.6-6.3c5.6-2.9,10.7-7,14.4-12.3c3.8-5.3,5.7-11.5,7-17.5
	c1.3-6,1.9-12.1,2.7-18c0.4-3,0.9-5.9,1.5-8.7c0.7-2.8,1.5-5.6,3-7.9c0.7-1.2,1.5-2.2,2.5-3.1c0.5-0.5,1-0.8,1.6-1.1
	c0.6-0.3,1.2-0.6,1.8-0.8c1.2-0.5,2.6-0.6,4.2-0.9c0.5-0.1,1.1-0.2,1.7-0.5c0.2,0.1,0.5,0.2,0.7,0.3l0.3-0.7
	c0.8-0.4,1.5-0.9,2.1-1.5c1.3-1.2,2.3-2.8,2.7-4.5c0.5-1.7,0.5-3.4,0.4-5c-0.2-3.2-0.9-6.2-1.5-9.1c-0.6-2.9-1.1-5.9-1.3-8.8
	c-0.2-2.9,0-5.8,0.8-8.6c1.4-5.6,4.7-10.8,8.7-15.1c4-4.3,8.8-8,14-10.9c5.2-3,10.8-5.2,16.6-6.7c5.8-1.5,11.8-2.1,17.8-1.6
	c6,0.4,11.9,2.2,17.3,4.9c-5.3-2.9-11.2-4.8-17.2-5.4c-6-0.6-12.2-0.2-18.1,1.1c-3.4,0.8-6.8,1.8-10.1,3.2
	c3.1-9.8,7.2-19.1,12.8-27.3c2.9-4.2,6-8.3,9.4-12c3.4-3.7,7.1-7,11.2-9.8c8.2-5.6,17.7-9.1,27.7-10.9c10-1.9,20.5-2.3,31-1.7
	c-2.5-0.9-5.1-1.6-7.7-2.2c-2.6-0.6-5.2-1-7.9-1.3c-5.3-0.6-10.8-0.7-16.2-0.3c-9.3,0.8-18.6,3.4-27,8.1c2.1-6.7,4.8-13,8.5-18.6
	c4.5-7.1,10.2-13.1,16.9-18.2c6.6-5.1,14-9.2,21.8-12.6c7.8-3.4,16-6.2,24.5-8.6c-4.4-0.3-8.9,0-13.3,0.6c-4.4,0.6-8.8,1.6-13.1,2.8
	c-8.6,2.6-16.9,6.6-24.2,12.2c-7.3,5.6-13.4,12.8-17.4,21.1c-3.4,7-5.2,14.7-5.3,22.2c-0.8,0.5-1.6,1-2.4,1.6
	c-1.1,0.8-2.3,1.6-3.4,2.5c-1.1,0.9-2.1,1.8-3.2,2.7c-2,1.9-3.9,3.9-5.7,6c-3.5,4.2-6.5,8.8-9.1,13.5c-5.1,9.4-8,19.8-8.3,30.2
	c-2.3,0.9-4.5,2-6.7,3.2c-5.4,2.9-10.4,6.5-14.7,10.9c-4.3,4.4-7.8,9.7-9.5,15.8c-0.9,3-1.2,6.2-1,9.3c0.1,3.1,0.6,6.2,1.1,9.2
	c0.5,3,1.1,5.9,1.3,8.8c0.1,1.7-0.1,3.4-0.7,4.8c-11.2-4.5-22.6-8.8-34-12.8c-53.5-18.7-92-25.4-132.7-32.5
	c-8.1-1.4-16.4-2.9-24.9-4.4c-52.1-9.6-101.9-21.7-140.2-34.2c-21.6-7.1-35.4-12.9-43.8-17.2c0-0.2,0-0.4-0.1-0.6l-0.9,0.1
	c-8.4-4.5-11.2-7.4-11.3-8.5c0.2-0.9,2-3.4,4.3-5.6c4.1-4,10-6.2,17.5-6.7l0.2,0c15.6-1,30.7-5.4,45.4-9.5c12.7-3.6,25.9-7.4,39-8.9
	c7.8-0.9,48.5-9.6,129.8-26.9l0.3-0.1c72.2-15.4,108.4-23.1,115.6-25.3c3.6-1.1,7.3-2.3,11-3.4c30.5-9.5,65.1-20.3,110.2-16.4
	c5,0.4,10,1.1,14.9,1.8c-0.8,2-1.5,4-2.1,6c-0.8,2.7-1.3,5.6-1.5,8.4c-0.3,2.8-0.3,5.7,0,8.5c0.5,5.6,2,11.1,4.3,16.2
	c-2-5.2-3.1-10.8-3.2-16.3c-0.1-2.8,0.1-5.5,0.5-8.2c0.4-2.7,1-5.4,1.9-8c3.4-10.5,10.3-19.4,18.6-26.6c2.1-1.8,4.2-3.5,6.5-5
	c1.1-0.8,2.3-1.5,3.4-2.2c1.2-0.6,2.4-1.3,3.6-1.9c4.9-2.4,10-4.1,15.3-5.1c10.6-2.2,21.7-2,32.2,0.4c2.6,0.6,5.2,1.4,7.7,2.3
	c2.5,0.9,4.9,2,7.3,3.3c4.6,2.5,8.8,5.7,11.7,9.8c1.4,2,2.5,4.2,3,6.4c0.5,2.2,0.4,4.9,0.5,7.8c0.1,5.7,0.6,11.5,1.6,17.1
	c0.9,5.6,2.2,11.2,3.6,16.7c0.7,2.7,1.5,5.4,2,7.9C946.5,608.9,946.6,611.1,946.2,613.5z M966.6,517.3c-0.8,8.1-1,15.4-1.2,22.5
	c-0.5,17.9-0.9,32.1-10.9,43.7c-1.7,2-3.7,3.9-5.9,5.5c0-0.1-0.1-0.3-0.1-0.4c-0.6-2.7-1.2-5.4-1.7-8c-1-5.4-1.6-10.7-1.7-16.2
	c-0.1-2.7-0.1-5.7-0.7-8.9c-0.4-1.6-0.9-3.2-1.6-4.6c-0.2-0.4-0.4-0.7-0.5-1.1l-0.6-1l-0.6-1l-0.7-0.9c-3.7-5-8.7-8.7-13.9-11.4
	c-2.6-1.4-5.3-2.5-8.1-3.4c-2.8-0.9-5.6-1.7-8.4-2.3c-11.3-2.3-23.1-2.3-34.4,0.4c-5.6,1.3-11.1,3.4-16.2,6
	c-1.3,0.7-2.5,1.4-3.8,2.2c-1.2,0.8-2.4,1.6-3.6,2.5c-2.3,1.7-4.5,3.6-6.6,5.5c-4.2,3.9-7.9,8.3-11,13.1c-0.6,1-1.2,1.9-1.8,2.9
	c-5.8-1-11.7-1.7-17.6-2.2c-46.4-4.1-81.7,6.9-112.9,16.7c-3.7,1.2-7.4,2.3-11,3.4c-6.9,2.1-43,9.8-115,25.1l-0.3,0.1
	c-81,17.3-121.7,25.9-129.1,26.8c-13.7,1.5-27.2,5.4-40.2,9.1c-7.2,2-14.4,4.1-21.8,5.8c-65.5-9.3-117.8-18-140.7-22.5
	c-5.3-1-16.2-3.2-28-10.3c-4.1-2.5-10.1-6.7-20-17c-12.3-12.9-20.6-24.9-26.4-34c-9.3-14.5-14-23.5-18.5-32.3
	c-4.3-8.4-8.4-16.3-16-27.5c-5.6-8.3-11.7-16.2-18.1-23.8h0c2,0,3.8,0,5.5-0.1c5.1-0.1,9.1-0.2,15.3,2.2c2.8,1.1,3.6,1.8,6,3.5
	c2,1.5,5.1,3.9,11.1,7.7c15.9,10.1,23.9,15.2,31.4,15.8c10,0.9,17-3.4,22.7-6.9c5.6-3.5,9-5.4,13.3-3.9c3.4,1.1,4.6,3.2,6.6,7.2
	c2,4,4.6,9,11.2,12.5c8.2,4.4,15.5,2.8,22,1.4c6-1.3,11.3-2.4,16.9,0.8c4,2.3,5.7,5.3,7.5,8.5c2.1,3.8,4.5,8.2,10.9,10.2
	c5.5,1.7,9.6,0.2,13.8-1.4c3.5-1.3,7.4-2.7,13.4-3.1c5.2-0.3,7.7,0.5,11,1.7c3,1,6.6,2.2,12.9,2.9c10.4,1.1,16.2-0.5,21.8-2
	c4.8-1.3,9.4-2.6,17.4-1.9c7.7,0.7,11.4,2.6,15,4.5c4,2,8.1,4.1,16,4c9.1-0.2,14.6-3.1,19.5-5.7c4.5-2.4,8.3-4.4,14.9-4.3
	c6,0.1,8.9,2,13.1,4.9c3.6,2.4,8.1,5.4,15.7,8c12,4.1,20,3.3,29.4,2.3c6.2-0.6,13.3-1.3,22.8-0.6c12.6,1,18.3,3.6,24.4,6.4
	c5.4,2.5,11,5.1,21.3,6.6c4.4,0.7,8.4,1,12.2,1c15.1,0,26.1-4.7,37.5-9.7c13.9-6,28.2-12.2,52.6-11.9c10.2,0.1,16.6,1.3,22.3,2.4
	c7.8,1.5,14.6,2.7,27.3,0.6c11.2-1.9,18.2-4.9,24.4-7.6c7.5-3.3,13.9-6.1,26.6-6.9c6-0.4,10.6-0.1,14.9,0.1c7,0.4,13.6,0.8,24-1.8
	c7.6-1.9,11.8-3.9,16.6-6.3c2.9-1.4,5.8-2.9,9.9-4.6c10.8-4.4,16.9-5,26-5.9c6.5-0.6,14.7-1.4,26.9-3.9c15.8-3.1,35.6-7,57.6-18.7
	c6-3.2,11.3-6,16-9.1c0,0,0,0,0,0C970.6,491.6,967.9,504.5,966.6,517.3z"/>
</svg>
