<?xml version="1.0" encoding="utf-8"?>
<!-- Generator: Adobe Illustrator 25.0.0, SVG Export Plug-In . SVG Version: 6.00 Build 0)  -->
<svg version="1.1" id="Camada_1" xmlns="http://www.w3.org/2000/svg" xmlns:xlink="http://www.w3.org/1999/xlink" x="0px" y="0px"
	 viewBox="0 0 1080 1080" style="enable-background:new 0 0 1080 1080;" xml:space="preserve">
<g>
	<path d="M457.2,551.6c18.7,0,38.4-5.1,50.7-8.4c33.3-8.7,55.6-24.6,69-34.1c23.3-16.6,71.8-51.1,63.8-80.8
		c-4.5-16.6-24.1-24.4-30.6-26.9c-3-1.2-29.9-11.2-50.6,2.5c-6.5,4.3-8.8,8.6-10.9,12.4c-1.9,3.5-3.4,6.3-8.1,8.9
		c-7.3,4-13.4,2.6-21.2,0.7c-8-1.9-17-4.1-28.9-0.2c-1.9,0.6-19,6.6-28.9,22.5c-3.7,5.9-4.5,10.2-5.2,13.7c-0.6,3.4-1.1,5.8-3.8,9
		c-5.4,6.3-12.4,7.1-20,7.8c-7.1,0.7-14.4,1.5-19.8,7.4c-10.2,11.2-8,36.4,4.6,50.8C426.9,548.1,441.7,551.6,457.2,551.6z
		 M574,505.1c-13.1,9.3-35,24.9-67.4,33.3c-14.3,3.7-38.9,10.2-59.4,7.6c10.8-18.7,29.7-43.1,60.5-59.7c8.8-4.7,27-14.6,53.4-16.6
		c16.6-1.2,33.8,1,49.8,6.4C598.3,487.8,583.8,498.1,574,505.1z M416.5,489.7c4.1-4.5,9.9-5.1,16.6-5.8c7.8-0.8,16.6-1.7,23.2-9.6
		c3.5-4.2,4.2-7.6,4.9-11.3c0.6-3.4,1.3-6.9,4.5-12c9-14.4,24.5-19.8,26.2-20.4c4.3-1.4,8.2-1.9,11.8-1.9c5.2,0,9.9,1.1,14.4,2.2
		c8.1,1.9,15.8,3.8,24.8-1.2c6-3.3,8.1-7.2,10.1-10.9c1.9-3.6,3.8-7,9.2-10.6c18.6-12.4,43.2-3.1,45.9-2.1
		c5.9,2.3,23.8,9.5,27.6,23.6c3.7,13.5-6.8,28.9-20.9,42.7c-17.3-6.3-36-8.9-54.2-7.6c-27.5,2-46.3,12.2-55.4,17.1
		c-32.7,17.6-52.4,43.8-63.4,63.2c-8.3-1.7-15.6-5.2-20.9-11.4C410.2,521.4,407.9,499.1,416.5,489.7z"/>
	<path d="M893,420.3c0.7-7,0.9-13.9,0.6-20.5c-1.9-35.9-21.8-70.5-57.5-100.1c-27.6-22.9-64-42.3-99.8-53.1
		c-45.8-13.9-82.5-10.3-125-6.2c-115.3,11.1-201.4,56.8-242.4,83.1c-62.9,40.3-141.2,90.4-174.1,188.2
		c-28.5,84.8-5.2,153.3,6.2,178.8c4.4,9.9,16.4,36.8,35,46c14.8,15.9,31.1,30.4,48.6,43.1c23.1,16.8,71.4,46.8,135.1,58.6
		c18.9,3.5,36.6,5,53.6,5c50.7,0,95.1-13.7,144.5-28.9c38.2-11.8,90.5-27.9,147.1-70.1c19-14.2,58.5-43.7,88.7-91
		C908.4,566.8,901.9,470.4,893,420.3z M205.5,688.4c-11.1-24.9-34-92-6-175.1c32.3-96.1,109.8-145.7,172.1-185.6
		c40.7-26,125.9-71.3,240.2-82.3c42-4,78.2-7.5,123.1,6c51.2,15.5,149.3,66.5,153.7,148.6c2,37.3-14.1,84.7-44.6,99.5
		c-8,3.9-15.3,4.7-23,5.6c-10.3,1.1-21.9,2.4-36.9,11.4c-7.2,4.3-29.1,17.3-38.6,41.8c-6.7,17.4-4,32.3-1.7,44.2
		c2.1,11.1,3.6,19.1-2.4,25.5c-6,6.4-22.3,6.9-51.9,7.6c-8.3,0.2-14.9,0.1-20.2,0c-12.8-0.3-19.3-0.4-25.8,5.2
		c-6.2,5.4-7.8,12-9.1,17.9c-1.4,6.1-2.6,11.4-8.4,15.7c-3.9,2.9-7.1,3.1-17.6,3.9c-3.3,0.2-7.5,0.5-12.6,1
		c-25.8,2.3-37.6,3.4-43.1,6.4c-13.2,7.3-16.1,20.8-18.6,32.7c-2.3,10.7-4.2,19.9-12.4,24.2c-8.8,4.5-31.6-5.1-69.4-21.1
		c-3.4-1.4-6.5-2.8-9.5-4.1c-22.8-9.8-36.5-15.7-45.8-8.6c-4.1,3.1-4.9,7.2-5.7,11.1c-0.8,3.8-1.6,7.8-5.4,12.3
		c-8.3,9.9-24.3,14.8-37.3,11.4c-7.3-1.9-11.1-5.8-15.1-9.9c-4.5-4.7-9.2-9.5-18.7-11.5c-1.4-0.3-3-0.4-4.7-0.4
		c-5.9,0-13.9,1.7-26.2,4.3c-13.7,2.9-21.3,5.1-26.4,6.5c-5.3,1.5-7.3,2.1-10.5,1.9C225.4,732.9,210.4,699.4,205.5,688.4z
		 M849.1,650.6c-29.7,46.6-68.7,75.7-87.5,89.7C705.7,782,653.9,798,616.1,809.6c-65.3,20.1-121.7,37.5-195.7,23.7
		c-62.7-11.7-110.3-41.2-133-57.8c-14.9-10.8-28.9-23-41.8-36.2c0.4,0,0.8,0.1,1.1,0.1c4.1,0.3,6.8-0.5,12.2-2
		c5-1.4,12.5-3.6,26-6.4c15.9-3.3,23.8-4.9,28.8-3.8c8.1,1.7,12,5.8,16.2,10.1c4.3,4.5,8.7,9.1,17.4,11.3c3.1,0.8,6.3,1.2,9.6,1.2
		c12.4,0,25.3-5.4,32.7-14.2c4.6-5.5,5.6-10.5,6.4-14.5c0.7-3.5,1.2-6.1,3.9-8.1c6.9-5.3,19.7,0.2,40.8,9.2c3,1.3,6.2,2.7,9.6,4.1
		c44.7,18.9,63.2,26.3,73.7,20.9c10.3-5.4,12.7-16.7,15-27.6c2.4-11.4,4.9-23.2,16.1-29.4c4.6-2.5,17.6-3.7,41.1-5.8
		c5-0.5,9.2-0.8,12.5-1c11-0.8,15.1-1.1,20.2-4.9c7.3-5.4,8.9-12.4,10.3-18.6c1.3-5.6,2.5-10.9,7.5-15.2c5.1-4.4,10.2-4.3,22.5-4
		c5.3,0.1,12,0.2,20.4,0c31.9-0.8,47.9-1.3,55.3-9.2c7.7-8.2,5.8-18.2,3.6-29.8c-2.2-11.9-4.8-25.3,1.5-41.4
		c8.9-22.9,29.6-35.3,36.5-39.3c14.1-8.4,24.7-9.6,34.9-10.7c8.1-0.9,15.8-1.8,24.6-6c19.8-9.6,31.2-29.7,37.3-44.9
		c2.9-7.2,5.2-15,6.9-22.8C897.5,488.3,898.2,573.5,849.1,650.6z"/>
</g>
</svg>
