<?xml version="1.0" encoding="utf-8"?>
<!-- Generator: Adobe Illustrator 25.0.0, SVG Export Plug-In . SVG Version: 6.00 Build 0)  -->
<svg version="1.1" id="Camada_1" xmlns="http://www.w3.org/2000/svg" xmlns:xlink="http://www.w3.org/1999/xlink" x="0px" y="0px"
	 viewBox="0 0 1080 1080" style="enable-background:new 0 0 1080 1080;" xml:space="preserve">
<g>
	<path d="M542.06,194.43c3.46,3.02,7.66,3.36,9.37,3.36h0.05c3.6-0.02,5.69-1.4,7.55-2.63c1.08-0.71,2.1-1.39,3.56-1.94
		c2.52-0.96,10.2,0.07,20.83,1.48l1.31,0.18c5.63,0.75,7.96,1.07,10.69-0.58c5.26-3.18,7.06-10.99,5.73-16.4
		c-3.12-12.64-22.88-17.8-35.95-16.69c-3.79,0.33-22.92,2.6-27.08,15.62C536.42,182.16,536.92,189.93,542.06,194.43z M543.82,178.66
		c2.5-7.8,14.93-10.88,21.89-11.48c1.1-0.09,2.22-0.14,3.36-0.14c11.57,0,24.41,4.79,26.27,12.3c0.9,3.64-0.54,8.33-3.02,9.83
		c-0.85,0.51-1.81,0.45-6.79-0.23l-1.32-0.18c-14.09-1.87-19.96-2.58-23.76-1.14c-2.07,0.79-3.54,1.76-4.73,2.54
		c-0.79,0.53-1.4,0.93-2.05,1.21c-0.64,0.28-1.32,0.42-2.22,0.43h-0.03c-0.8,0-3.43-0.15-5.42-1.88
		C543.07,187.35,542.69,182.2,543.82,178.66z"/>
	<path d="M451.29,234.95c1.38-1.38,2.29-1.7,3.96-2.3c1.72-0.62,3.85-1.39,6.95-3.44c3.42-2.27,12.51-8.3,11.81-15.46
		c-0.74-7.72-12.18-13.21-21.48-12.76c-16.64,0.78-29.6,20.52-30.83,37.75c-0.48,6.8,0.12,15.4,5.74,17.82
		c0.93,0.4,1.92,0.58,2.92,0.58c5.24,0,11.1-4.96,14.19-8.93c2.5-3.21,3.29-5.87,3.92-8C449.06,238.19,449.5,236.73,451.29,234.95z
		 M442.72,238.5c-0.57,1.92-1.1,3.72-2.91,6.04c-3.4,4.37-8.34,7.23-10,6.52c-1.4-0.6-2.62-4.97-2.13-11.9
		c1.04-14.69,12.01-31.57,25.14-32.19c0.27-0.02,0.53-0.02,0.8-0.02c6.93,0,14.13,4.14,14.43,7.36c0.14,1.34-0.88,4.41-9.16,9.9
		c-2.49,1.65-4.11,2.23-5.67,2.79c-0.94,0.33-1.9,0.68-2.91,1.23c-1.02,0.56-2.09,1.31-3.25,2.47
		C444.19,233.56,443.41,236.19,442.72,238.5z"/>
	<path d="M490.48,272.41c0-11.72-9.53-21.25-21.24-21.25c-11.72,0-21.25,9.53-21.25,21.25c0,11.71,9.53,21.25,21.25,21.25
		C480.95,293.66,490.48,284.12,490.48,272.41z M469.24,287.66c-8.42,0-15.26-6.85-15.26-15.26c0-8.42,6.84-15.26,15.26-15.26
		c8.41,0,15.25,6.84,15.25,15.26C484.48,280.82,477.64,287.66,469.24,287.66z"/>
	<path d="M580.34,209.8c-11.72,0-21.25,9.54-21.25,21.25c0,11.72,9.53,21.25,21.25,21.25c11.71,0,21.24-9.53,21.24-21.25
		C601.58,219.34,592.05,209.8,580.34,209.8z M580.34,246.31c-8.42,0-15.26-6.84-15.26-15.26c0-8.41,6.84-15.26,15.26-15.26
		c8.41,0,15.25,6.85,15.25,15.26C595.59,239.47,588.75,246.31,580.34,246.31z"/>
	<path d="M522.19,350.36c11.64-0.07,47.07-0.27,70.41-26.35c18.09-20.2,18.14-34.44,15-42.83c-2.89-7.74-9.84-14.29-17.67-16.68
		c-10.8-3.3-20.6,1.82-25.87,4.58c-4.03,2.11-6.14,3.96-8.58,6.11c-2.17,1.91-4.61,4.07-9.19,7.17c-0.08,0.05-7.17,4.85-14.9,8.52
		c-10.58,5.03-18.22,5.54-24.96,5.99c-6.63,0.45-12.88,0.86-19.64,5.63c-9.72,6.85-17.92,20.8-14.22,31.41
		c5.06,14.52,29.3,16.45,47.92,16.45C521.06,350.36,521.63,350.36,522.19,350.36z M478.23,331.95c-2.65-7.6,4.2-19.04,12.01-24.54
		c5.38-3.8,10.33-4.14,16.59-4.55c6.91-0.46,15.51-1.04,27.12-6.56c8.16-3.88,15.39-8.76,15.69-8.96c4.91-3.33,7.62-5.72,9.8-7.65
		c2.32-2.05,4-3.53,7.4-5.3c4.82-2.52,12.89-6.74,21.34-4.16c6.11,1.87,11.54,6.99,13.81,13.05c2.56,6.84,2.23,18.77-13.86,36.74
		c-21.57,24.09-55,24.29-65.98,24.36C495.97,344.53,481.15,340.34,478.23,331.95z"/>
	<path d="M553.43,330.48c11.3-4.43,17.23-10.63,29.06-23.01c6.86-7.18,10.44-12.24,8.45-16.81c-2.01-4.64-8.57-5.51-12.11-5.3
		c-5.87,0.35-9.44,3.62-13.58,7.4c-1.81,1.66-3.88,3.55-6.4,5.44c-6.99,5.23-13.58,7.52-17.11,8.75c-5.91,2.05-10.6,2.64-15.56,3.24
		c-3.18,0.39-6.4,0.8-9.95,1.59c-3.55,0.8-7.42,2-11.88,4c-4.06,1.82-8.01,3.91-7.89,7.64c0.06,1.81,0.21,6.63,20,9.85
		c3.54,0.57,8.55,1.4,14.57,1.4C537.5,334.66,545.17,333.71,553.43,330.48z M502.95,323.25c0.6-0.41,1.73-1.06,3.84-2.01
		c8.1-3.63,13.94-4.35,20.11-5.11c5.06-0.62,10.3-1.27,16.81-3.54c3.84-1.34,10.99-3.82,18.73-9.61c2.77-2.06,4.94-4.06,6.87-5.82
		c3.69-3.37,6.13-5.61,9.88-5.83c3-0.19,5.86,0.78,6.26,1.7c0.13,0.31,0.4,2.23-7.29,10.29c-11.57,12.11-16.84,17.64-26.91,21.57
		c-14.37,5.62-26.56,3.65-33.83,2.46C509.27,326.03,504.64,324.33,502.95,323.25z"/>
	<path d="M570.27,499.28c18.12,0,32.85-14.74,32.85-32.86c0-18.12-14.73-32.85-32.85-32.85c-18.12,0-32.85,14.73-32.85,32.85
		C537.43,484.54,552.16,499.28,570.27,499.28z M570.27,439.57c14.81,0,26.86,12.05,26.86,26.86c0,14.81-12.05,26.86-26.86,26.86
		c-14.81,0-26.86-12.05-26.86-26.86C543.42,451.62,555.46,439.57,570.27,439.57z"/>
	<path d="M553.28,557.94c0,18.12,14.73,32.86,32.85,32.86c18.11,0,32.86-14.74,32.86-32.86c0-18.11-14.74-32.85-32.86-32.85
		C568.01,525.09,553.28,539.83,553.28,557.94z M612.99,557.94c0,14.81-12.05,26.86-26.86,26.86c-14.81,0-26.86-12.05-26.86-26.86
		c0-14.81,12.05-26.86,26.86-26.86C600.94,531.09,612.99,543.13,612.99,557.94z"/>
	<path d="M638.43,622.84c-12.22,0-23.19,2.59-27.33,3.58c-7.89,1.87-11.63,3.51-14.37,4.71c-2.51,1.1-3.77,1.65-6.91,1.76
		c-7.16,0.28-11.46-2.36-16.43-5.42c-5.22-3.21-11.14-6.85-20.93-7.25c-5.03-0.21-11.23,1.34-23.59,4.46
		c-5.34,1.34-9.72,2.66-13.23,3.72c-9.1,2.74-12.43,3.6-16.2,1.75c-2.25-1.11-3.3-2.55-4.53-4.22c-1.62-2.22-3.46-4.72-7.72-6.02
		c-8.43-2.56-19.34,1.8-22.03,8.79c-3.81,9.89,8.45,22.4,17.94,27.73c6.89,3.88,11.55,3.82,20.82,3.71
		c5.68-0.07,13.47-0.16,25.06,0.61c20.19,1.34,30.32,2.01,36.81,4.22l0.45,0.15c3.15,1.08,11.5,3.95,22.34,3.95h0.03
		c2.26-0.01,4.19-0.16,7.68-0.45c3.61-0.29,13.22-1.09,24.44-3.55c8.44-1.86,12.18-3.43,14.66-4.48c2.12-0.9,2.84-1.2,5.17-1.14
		c5.14,0.14,7.77,2.07,11.42,4.75c3.06,2.24,6.52,4.79,12.09,6.87c5.45,2.04,11.84,3.19,18.23,3.19c10.5,0,21.03-3.12,27.48-10.6
		c5.29-6.13,9.13-16.45,5.8-25.71c-0.59-1.64-2.16-6.01-6.37-8.89c-5.68-3.89-11.76-2.18-18.2-0.39c-2.8,0.78-5.69,1.59-8.87,2.08
		c-8.17,1.26-12.54-0.51-18.09-2.74c-5.71-2.29-12.82-5.16-25.61-5.16H638.43z M683.07,636.66c3.53-0.55,6.73-1.45,9.56-2.23
		c6.28-1.76,9.99-2.64,13.21-0.44c2.61,1.78,3.66,4.72,4.12,5.97c2.49,6.94-0.68,15.11-4.7,19.76c-8.29,9.61-26.39,10.45-39.08,5.71
		c-4.79-1.79-7.76-3.97-10.63-6.08c-4.02-2.95-7.81-5.73-14.82-5.92c-0.21,0-0.42-0.01-0.62-0.01c-3.19,0-4.82,0.69-7.03,1.62
		c-2.27,0.96-5.7,2.41-13.62,4.14c-5.41,1.2-10.44,1.99-14.56,2.51c-4.12,0.52-7.33,0.79-9.08,0.93c-3.44,0.28-5.17,0.42-7.18,0.43
		h-0.03c-9.85,0-17.24-2.53-20.4-3.62l-0.46-0.15c-7.23-2.46-17.63-3.15-38.36-4.53c-11.81-0.78-19.72-0.68-25.5-0.62
		c-8.97,0.1-12.33,0.15-17.82-2.94c-8.78-4.95-17.37-14.91-15.28-20.36c1.58-4.13,9.28-6.85,14.69-5.21
		c2.36,0.72,3.26,1.95,4.63,3.82c1.4,1.92,3.15,4.31,6.72,6.06c6.07,2.99,11.53,1.34,20.56-1.39c3.46-1.04,7.76-2.34,12.98-3.65
		c11.78-2.96,17.7-4.46,21.86-4.28c8.24,0.34,13,3.27,18.05,6.38c5.31,3.26,10.79,6.62,19.78,6.3c4.28-0.16,6.4-1.09,9.09-2.27
		c2.53-1.1,5.98-2.63,13.35-4.37c3.95-0.93,14.43-3.42,25.95-3.42h0.03c11.62,0,17.86,2.52,23.37,4.73
		C667.72,635.93,673.28,638.17,683.07,636.66z"/>
	<path d="M371.49,574.68c-3.4-1.87-6.24-1.89-9-1.93c-2.6-0.03-5.3-0.05-9.2-1.7c-0.78-0.33-1.98-0.84-3.36-1.64
		c-1.38-0.8-2.94-1.89-4.43-3.4c-2.87-2.88-3.73-5.44-4.57-7.92c-0.88-2.62-1.88-5.58-5.29-7.46c-3.75-2.06-7.41-1.24-10.34-0.59
		c-2.52,0.56-3.69,0.74-4.43,0.09c-0.62-0.55-0.74-1.45-0.86-3.21c-0.14-2.06-0.32-4.9-2.94-6.64c-1.8-1.21-4.22-1.49-6.99-0.83
		c-4.64,1.1-9.35,4.66-11.71,8.83c-4.83,8.55-1.16,19.71,5,25.14c3.97,3.51,7.93,3.85,11.43,4.15c3.23,0.28,6.02,0.52,9.3,2.99
		c2.57,1.93,3.24,3.56,4.24,6.01c1.02,2.5,2.29,5.62,5.88,9.4c1.16,1.22,11,11.17,24.52,11.17c1.1,0,2.23-0.06,3.38-0.21
		c2.74-0.34,16.55-2.56,19.14-12.72C383.21,586.55,377.7,578.1,371.49,574.68z M375.44,592.74c-1.67,6.53-12.82,8.11-14.07,8.26
		c-12.52,1.58-22.4-8.7-22.81-9.14c-2.81-2.97-3.77-5.3-4.68-7.54c-1.13-2.76-2.29-5.6-6.18-8.53c-4.65-3.5-8.94-3.87-12.39-4.17
		c-3.18-0.27-5.49-0.48-7.98-2.68c-4.34-3.83-6.94-12.04-3.74-17.7c1.82-3.24,5.37-5.36,7.88-5.96c0.57-0.14,1.03-0.18,1.39-0.18
		c0.51,0,0.79,0.09,0.88,0.15c0.18,0.27,0.26,1.4,0.3,2.07c0.14,2.14,0.33,5.08,2.89,7.32c3.09,2.71,6.74,1.9,9.67,1.25
		c2.36-0.52,4.39-0.98,6.16,0c1.31,0.72,1.69,1.72,2.5,4.12c0.91,2.69,2.15,6.37,6,10.23c3.83,3.84,7.94,5.58,9.7,6.33
		c4.99,2.12,8.6,2.16,11.49,2.18c2.37,0.03,4.08,0.04,6.16,1.18C372.79,582.24,376.63,588.07,375.44,592.74z"/>
	<path d="M801.29,263.34c-24.52-21.19-59.11-13.8-62.98-12.89c-11.61,2.74-32.86,10.32-44.72,30.23
		c-6.43,10.79-6.2,18.82-5.93,28.11c0.26,8.92,0.55,19.03-4.83,34.98c-3.58,10.61-10.23,30.36-28.38,40.76
		c-6.4,3.67-13.62,5.87-21.48,6.59c-0.85-0.69-1.38-1.08-1.48-1.16c-3.5-2.58-7.19-4.94-11.01-7.04
		c37.85-30.82,62.06-77.79,62.06-130.29c0-92.63-75.36-168-168-168s-168,75.37-168,168c0,81.2,57.9,149.12,134.59,164.66
		c-0.53,3.96-1.12,7.95-1.78,11.93c0,0,0,0.01,0,0.01c-20.07,4.41-39.99,10.32-59.22,17.6c-39.66,15.01-99.59,37.7-137.39,94.25
		c-14.16,21.18-31.78,47.55-23.12,78.11c7.47,26.39,31.85,47.58,59.28,51.55c2.03,0.29,5.56,0.68,10.05,0.68
		c10.53,0,26.34-2.13,40.27-12.62c11.21-8.44,15.12-17.69,19.25-27.48c3.43-8.13,6.98-16.53,15.23-25.32
		c10.5-11.18,25.04-18.99,43.26-23.23c0,0,0,0,0,0.01c-0.03,2.05-0.05,4.14-0.08,6.28c-0.29,24.17-0.64,54.25-5.07,97.43
		c-4.98,48.54-8.91,86.89-22.22,137.25c-5.8,21.93-11.7,39.95-16.92,55.83c-12.41,37.85-19.9,60.69-6.3,81.65
		c16.19,24.95,51.37,29.54,66.38,31.5c7.93,1.04,15.14,1.51,21.7,1.51c31.64-0.01,48.34-10.81,57.02-20.88
		c4.8-5.57,8.08-11.42,14.48-59.29c5.43-40.61,8.15-61.01,9.85-84.08c0.12-1.62,0.23-3.21,0.34-4.78
		c1.52-21.25,2.71-38.03,13.09-57.65c2.64-4.98,10.63-20.18,15.96-19.42c1.27,0.17,5.7,2.22,9.56,21.16
		c2.54,12.48,3.91,27.48,4.91,38.44c2.35,25.74,1.88,43.6,1.42,60.88c-0.51,19.19-0.99,37.3,2.53,63.83
		c4.59,34.57,12.17,54.96,22.52,60.59c3.99,2.17,7.7,2.97,11.67,2.97c4.26,0,8.82-0.92,14.35-2.03c9.36-1.87,22.16-4.44,42.31-4.51
		c6.4-0.01,11.48,0.22,15.56,0.42c9.85,0.47,15.28,0.73,21.53-3.56c17.58-12.07,15.37-42.54,14.43-55.55l-0.02-0.25
		c-1.51-20.79-1.53-42.09-1.55-62.7c-0.03-30.8-0.07-62.66-5.03-93.62c-2.13-13.29-3.98-25.15-5.6-35.83v-0.02
		c1.14-8.28-1.67-18.37-3.5-23.77c0-0.01-0.01-0.02-0.01-0.03c-4.05-28.41-6.11-46.28-7.77-60.75
		c-2.83-24.54-4.54-39.35-12.65-78.44l-0.09-0.3c-6.5-20.31-13-39.37-19.3-56.79c0,0,0,0,0,0c20.37-18.9,39.69-39.42,57.45-61.05
		c33.71-41.06,55.98-68.19,62.28-108.54C822.81,332.07,829.71,287.9,801.29,263.34z M352.53,252.65
		c0-89.33,72.67-162.01,162.01-162.01s162.01,72.68,162.01,162.01c0,89.33-72.67,162.01-162.01,162.01S352.53,341.98,352.53,252.65z
		 M399.33,601.92c-8.98,9.57-12.91,18.88-16.38,27.09c-3.98,9.42-7.41,17.56-17.34,25.03c-18.49,13.91-41.44,11.43-45.86,10.79
		c-25.17-3.64-47.53-23.07-54.38-47.25c-7.9-27.9,8.87-52.99,22.34-73.15c36.73-54.95,95.58-77.23,134.53-91.98
		c18.2-6.89,37.02-12.53,56-16.82c-6.75,37.2-17.12,64.4-20.57,73.44l-0.61,1.6c-8.26,21.96-9.57,40.68-10.02,65.95
		c0,0,0,0.01,0,0.01C426.99,581.07,410.94,589.56,399.33,601.92z M573.95,764.76c-10.97,20.74-12.26,38.94-13.77,60.02
		c-0.11,1.57-0.22,3.15-0.34,4.76c-1.69,22.9-4.4,43.23-9.82,83.76c-6.03,45.12-9.08,51.53-13.06,56.14
		c-9.52,11.04-29.99,23.02-73.41,17.34c-14.2-1.85-47.45-6.19-62.14-28.82c-12.05-18.55-5.29-39.14,6.98-76.51
		c5.24-15.97,11.17-34.06,17.01-56.17c8.3-31.4,12.97-58.12,16.52-85.46c1.1,0.03,2.21,0.03,3.3,0.04c0.83,0,1.64,0,2.43-0.02
		c-3.35,14.77-3.96,24.97,2.31,33.13c3.3,4.31,6.86,6.57,10.34,6.57c0.35,0,0.7-0.03,1.05-0.07c4.39-0.58,7.28-4.44,11.45-15.31
		c1.89-4.95,3.56-9.99,6.43-24.98c0.14,0.04,0.27,0.09,0.4,0.15c1.5,0.62,1.75,0.9,2.81,2.06c1.15,1.26,2.85,3.12,6.82,6.27
		c-1.34,8.82-0.67,14.39,3.56,18c2.67,2.28,6.05,3.18,9.26,3.18c2.33,0,4.57-0.47,6.38-1.24c1.62-0.68,3.36-1.97,5.36-5.26
		c1.63,0.36,3.28,0.55,4.97,0.55c0.17,0,0.34,0,0.52-0.01c6.23-0.14,9.62-2.81,12.61-5.17c1.1-0.86,2.14-1.69,3.3-2.39
		c-1.03,6.87-1.89,14.46-2.19,21.51c-0.68,15.47,1.4,23,6.7,24.42c0.55,0.15,1.08,0.21,1.61,0.21c3.88,0,7.42-3.59,10.33-6.54
		c5.49-5.55,7.36-11.72,8.61-15.81c2.51-8.24,4.43-14.55,5.87-20.01c1.18,0.74,2.66,1.49,4.54,1.94c1.61,0.39,3.26,0.56,4.96,0.49
		C575.09,762.61,574.51,763.69,573.95,764.76z M455.35,733.55c0.65-2.58,1.36-5.29,2.11-8.16c0.17-0.64,1.76-6.47,5.8-13.21
		c1.16-1.93,2.34-3.9,3.44-5.38c1.1-1.48,2.14-2.48,3.01-2.48c1.79,0,4.33,3.7,5.67,7.12c1.76,4.55,1.2,8.56,0.13,14.72
		c-0.37,2.12-0.72,4.11-1.05,5.97c-0.39,2.15-0.76,4.13-1.1,5.95c-2.77,14.49-4.35,19.29-6.14,23.95
		c-2.85,7.44-5.08,11.31-6.63,11.51c-1.14,0.15-3.3-0.87-5.86-4.2c-4.97-6.49-4.12-15.8-0.86-29.69
		C454.31,737.7,454.81,735.67,455.35,733.55z M495.78,745.14c0.96-4.96,2.45-11.04,4.25-18.34c0.92-3.8,1.82-6.87,2.96-9.56
		c1.15-2.69,2.55-4.99,4.54-7.24c4.52-5.16,7.48-6.51,8.83-6.51c0.18,0,0.33,0.03,0.45,0.07c1.38,0.49,3.06,3.48,3.24,15
		c0.03,1.77,0.12,7.16-4.25,22.14c-1.93,6.59-3.59,11.19-4.97,14.37c-1.12,2.57-2.07,4.23-2.84,5.3c-0.78,1.06-1.4,1.53-1.84,1.72
		c-2.68,1.13-6.89,1.17-9.43-0.98c-1.87-1.59-2.39-4.61-1.97-9.2C494.93,749.95,495.28,747.69,495.78,745.14z M542.73,747
		c0.25-1.31,0.5-2.54,0.74-3.69c2.09-9.98,4.52-16.78,10.15-19.84c2.96-1.61,7.03-2.48,9.09-1.05c2.6,1.81,2.02,8.22,0.78,19.36
		c-0.32,2.89-0.77,5.67-1.38,8.59c-0.39,1.87-0.86,3.82-1.39,5.87c-1.45,5.67-3.46,12.25-6.16,21.14
		c-1.13,3.73-2.69,8.84-7.13,13.34c-1.22,1.23-4.91,4.98-6.12,4.75c-0.03-0.02-3.05-2-2.26-18.87c0.37-7.77,1.41-16.21,2.6-23.47
		C542.01,750.97,542.37,748.9,542.73,747z M748.44,867.84c0.02,20.71,0.04,42.13,1.57,63.12l0.02,0.26
		c0.87,11.99,2.9,40.05-11.84,50.17c-4.59,3.15-8.48,2.97-17.86,2.53c-4.15-0.2-9.35-0.45-15.86-0.43
		c-20.73,0.07-33.88,2.71-43.46,4.63c-10.07,2.02-15.62,3.13-21.98-0.33c-8.34-4.55-15.25-24.48-19.44-56.13
		c-3.46-26.06-2.98-43.94-2.47-62.89c0.46-17.45,0.94-35.49-1.45-61.58c-1.49-16.21-3.14-31.65-5.94-43.42
		c0.62-0.16,1.25-0.33,1.87-0.52c2.99,16.78,8.73,36.11,18.55,36.64c0.15,0.01,0.28,0.01,0.42,0.01c3.68,0,6.27-2.63,8-4.4
		c8.37-8.54,6.76-21.74,5.2-34.52c-0.56-4.61-1.1-8.86-1.63-12.77c0.41-0.09,0.85-0.15,1.31-0.21c0.66-0.07,1.26-0.09,1.81-0.08
		c0.21,24.15,2.52,43.04,14.47,47.67c1.04,0.41,3.07,1.04,5.42,1.04c1.58,0,3.32-0.29,5-1.16c5.22-2.68,6.75-9.32,7.45-18.47
		c0.51-6.87,0.35-12.93-0.81-22.52c0.84-0.05,1.65-0.15,2.45-0.32c0.69,3.76,1.56,5.85,3.05,8.18c3.78,5.95,10.18,12.33,16.57,12.33
		c0.69,0,1.39-0.07,2.08-0.23c1.82-0.42,3.64-1.51,5.25-3.15c6.83-6.95,5.34-18.89,4.63-24.62c-1.13-8.99-2.07-16.54-3.17-22.73
		c1.12-0.25,2.27-0.42,3.44-0.54c0.68,2.65,1.46,5.55,2.31,8.68c2.92,10.83,4.63,14.84,9.01,17.28c2.29,1.28,4.97,1.91,7.61,1.91
		c2.96,0,5.86-0.8,8.11-2.36c0.39-0.27,0.76-0.57,1.1-0.88c1.28,8.33,2.7,17.33,4.26,27.1C748.37,805.66,748.4,837.27,748.44,867.84
		z M614.93,741.37c-0.07-1.32-0.09-2.03-0.1-2.97c-0.02-1.2-0.05-2.68-0.19-6.03c-0.23-5.45-0.5-9.86-0.73-13.42
		c-0.57-9.03-0.7-12.22,0.59-13.36c1.95-1.72,6.81-1.16,10.12,0.45c3.45,1.67,6.37,5.74,10.95,38.4c0.28,2.07,0.58,4.25,0.89,6.56
		c0.44,3.31,0.88,6.87,1.35,10.7c1.7,13.96,2.38,23.57-3.54,29.6c-1.14,1.16-2.55,2.6-3.74,2.6h-0.08
		c-4.47-0.25-10.02-14.99-13.18-32.56c-0.36-1.99-0.68-4.01-0.98-6.04C615.65,750.69,615.17,745.99,614.93,741.37z M670.7,754.27
		c1.22,9.71,1.4,15.64,0.9,22.3c-0.62,8.33-1.88,12.39-4.2,13.59c-2.1,1.08-4.96,0.07-5.51-0.15c-8.34-3.24-10.31-20.17-10.61-40.31
		c-0.03-2.14-0.05-4.31-0.05-6.51c0-5.13,0.07-10.38,0.14-15.62c0.11-8.82,0.93-13.57,2.43-14.14c1.37-0.5,5.25,2.22,8.31,5.84
		c3.61,4.27,4.72,8.74,6.9,23c0.32,2.1,0.61,4.05,0.87,5.88C670.2,750.36,670.47,752.39,670.7,754.27z M701.93,726.16
		c0.98,5.78,1.86,12.88,2.91,21.28c0.6,4.8,1.85,14.79-2.95,19.67c-1.08,1.1-1.92,1.42-2.32,1.52c-3.52,0.8-8.95-4.27-12.25-9.47
		c-1.15-1.8-1.8-3.41-2.4-7.16c-0.01-0.05-0.02-0.1-0.03-0.15c-0.29-1.82-0.56-4.14-0.88-7.23c-0.34-3.27-0.72-7.4-1.19-12.69
		c-0.97-10.67-1.6-17.71,0.5-20.27c1.86-2.27,5.39-4.24,8.61-4.24c0.67,0,1.31,0.08,1.93,0.26c3.26,0.95,5.27,5.09,6.89,12.31
		C701.17,721.84,701.57,723.9,701.93,726.16z M715.43,702.28c1.4-1.79,3.9-3.53,6.43-3.53c0.11,0,0.23,0,0.34,0.01
		c6.39,0.41,10.73,12.76,12.24,17.2c0.16,1.16,0.33,2.32,0.5,3.51c0.31,2.13,0.63,4.33,0.96,6.59c0.56,3.86,1.17,7.91,1.81,12.15
		v0.02c-0.45,2.62-1.43,4.67-3.06,5.8c-2.37,1.67-6.48,1.72-9.35,0.13c-1.07-0.6-1.93-1.46-2.85-3.44
		c-0.92-1.98-1.92-5.09-3.3-10.17c-0.7-2.6-1.36-5.05-1.95-7.33c-0.57-2.14-1.06-4.14-1.49-5.99
		C714.01,709.8,713.52,704.72,715.43,702.28z M714.02,576.76c8.04,38.7,9.73,53.41,12.53,77.75c1.3,11.27,2.84,24.63,5.37,43.4
		c-2.47-2.82-5.55-4.88-9.34-5.12c-5.17-0.33-9.62,2.92-11.87,5.8c-1.76,2.24-2.5,4.98-2.5,8.45c0,2.94,0.53,6.4,1.45,10.51
		c-1.08,0.13-2.16,0.3-3.22,0.53c-2.19-9.29-5.21-14.5-10.9-16.15c-6.35-1.85-13.29,1.58-16.85,5.93c-3.66,4.46-3,11.62-1.83,24.61
		c0.62,6.87,1.08,11.92,1.52,15.76c-0.74,0.18-1.52,0.28-2.38,0.32c-0.32-2.21-0.67-4.6-1.06-7.18c-2.24-14.66-3.46-20.3-8.25-25.97
		c-2.55-3.01-9.12-9.8-15.01-7.57c-5.61,2.12-6.18,10.51-6.3,19.66c-0.07,4.92-0.13,9.75-0.15,14.43c-0.75-0.01-1.56,0.03-2.43,0.12
		c-0.51,0.06-1.01,0.13-1.47,0.22c-4.76-33.59-8.13-38.73-14.09-41.61c-5.03-2.44-12.4-3.34-16.69,0.45
		c-3.56,3.13-3.3,7.24-2.61,18.23c0.11,1.76,0.24,3.73,0.36,5.94c0.13,2.21,0.26,4.66,0.37,7.35c0.14,3.28,0.16,4.73,0.18,5.89
		c0.03,1,0.03,1.76,0.11,3.18c0.17,3.28,0.69,8.99,1.67,15.6c-0.82,0.26-1.64,0.49-2.47,0.7c-2.83-9.13-6.64-15.03-12.11-15.79
		c-6.17-0.84-11.6,5.02-16.41,12.6c-2.67,0.84-5.19,0.98-7.48,0.43c-1.66-0.4-2.85-1.22-4.01-2.01c-0.15-0.1-0.28-0.2-0.43-0.29
		c0.79-3.57,1.36-6.93,1.76-10.49c1.46-13.09,2.34-20.99-3.3-24.93c-4.56-3.18-11.14-1.62-15.39,0.69
		c-4.25,2.31-7.03,5.89-9.01,10.08c-1.98,4.19-3.15,9.01-4.15,13.79c-0.39,1.85-0.79,3.91-1.19,6.13c-3.65,1.22-6.09,3.15-8.18,4.8
		c-2.69,2.11-4.8,3.78-9.04,3.88c-0.86,0.02-1.72-0.03-2.57-0.15c1.49-3.51,3.12-8.17,4.93-14.37c4.14-14.21,4.55-20.45,4.49-23.92
		c-0.1-6.33-0.29-18.1-7.24-20.55c-4.38-1.55-9.69,1.19-15.78,8.13c-5.23,5.96-7.09,12.28-8.82,19.33
		c-1.46,5.92-2.72,11.08-3.67,15.57c-1.9-1.65-2.91-2.76-3.65-3.57c-1.41-1.55-2.34-2.48-4.94-3.56c-0.54-0.22-1.08-0.42-1.6-0.59
		c0.34-1.88,0.69-3.9,1.07-6.04c1.04-5.95,2.01-11.58-0.45-17.92c-1-2.57-4.76-10.94-11.24-10.94h-0.01
		c-5.14,0-8.13,4.99-11.6,10.78c-2.23,3.72-3.79,7.23-4.83,9.91c-1.03,2.68-1.52,4.51-1.62,4.87c-0.92,3.52-1.79,6.83-2.56,9.97
		c-1.1,0.02-2.26,0.03-3.46,0.03h-0.4c-0.85,0-1.71-0.01-2.57-0.03c1.85-14.98,3.42-30.27,5.1-46.72
		c4.46-43.46,4.81-73.68,5.1-97.98c0.37-31.27,0.61-51.93,9.8-76.36l0.6-1.58c3.55-9.31,14.35-37.65,21.19-76.33
		c0.97-5.47,1.82-11,2.56-16.48c8.95,1.48,18.15,2.25,27.51,2.25c37.77,0,72.67-12.53,100.77-33.66c4.41,2.25,8.65,4.87,12.62,7.81
		c0.14,0.1,13.94,10.39,24.83,27.4C664.47,440.48,689.26,499.43,714.02,576.76z M814.29,347.77
		c-6.05,38.74-27.91,65.36-60.99,105.66c-17.05,20.77-35.56,40.49-55.05,58.73c-16.93-46.26-31.99-80.01-40.44-93.19
		c-6.37-9.94-13.57-17.63-18.83-22.58c0,0,0,0,0,0c6.64-1.19,12.82-3.41,18.46-6.64c20.12-11.53,27.25-32.68,31.08-44.05
		c5.72-16.96,5.4-28.11,5.14-37.06c-0.26-9.05-0.45-15.58,5.09-24.88c10.73-18.02,30.27-24.94,40.95-27.47
		c3.56-0.84,35.41-7.65,57.68,11.59C823.27,290.26,816.75,332.04,814.29,347.77z"/>
	<path d="M794.27,331.88c-2.04-2.76-4.82-5.21-8.54-5.71c-3.32-0.44-5.33,0.97-7.11,2.21c-1.18,0.83-2.4,1.69-4.35,2.27
		c-4.97,1.48-10.57-0.68-22.77-5.73c-5.6-2.31-8.02-3.62-9.62-4.49c-1.67-0.9-2.68-1.45-5.04-1.81c-8.56-1.35-18.94,1.65-25.83,7.47
		c-4.19,3.54-6.44,7.61-6.49,11.77c-0.08,6.5,5.36,12.46,10.77,14.99c4.94,2.3,8.79,1.38,12.52,0.49c3.11-0.74,6.32-1.52,10.86-0.56
		c3.84,0.8,5.63,2.19,7.53,3.66c2.29,1.8,4.91,3.83,10.34,4.25c3.33,0.27,5.85-0.21,8.07-0.62c2.74-0.51,5.1-0.96,8.95-0.03
		c1.45,0.35,2.24,0.68,3.18,1.07c1.2,0.51,2.55,1.07,5.1,1.58c2.46,0.49,5.35,1.06,8.18,1.06c2.97,0,5.86-0.63,8.11-2.65
		c6.11-5.52,2.16-17.05,0.17-21.75C797.6,337.69,796.31,334.64,794.27,331.88z M794.12,356.65c-2.15,1.93-7.54,0.86-11.11,0.16
		c-1.96-0.39-2.89-0.78-3.96-1.23c-1.02-0.42-2.17-0.9-4.08-1.37c-2.15-0.52-4-0.71-5.64-0.71c-2.23,0-4.09,0.35-5.81,0.68
		c-2.04,0.39-3.96,0.74-6.5,0.55c-3.64-0.29-5.1-1.43-7.13-3.01c-2.13-1.65-4.78-3.72-9.97-4.8c-5.86-1.22-10.09-0.21-13.49,0.6
		c-3.34,0.8-5.55,1.33-8.59-0.09c-3.63-1.7-7.35-5.7-7.31-9.49c0.03-2.33,1.58-4.91,4.37-7.26c5.55-4.69,14.19-7.22,21.03-6.14
		c1.35,0.21,1.62,0.36,3.12,1.17c1.61,0.87,4.3,2.33,10.19,4.76c12.19,5.03,19.55,8.08,26.77,5.93c2.89-0.86,4.73-2.16,6.08-3.11
		c1.56-1.09,1.94-1.29,2.87-1.17c4.02,0.54,6.9,7.33,7.84,9.56C795.24,347.51,796.61,354.4,794.12,356.65z"/>
	<path d="M542.55,852.1c-5.64-5.11-14.12-6.87-21.09-4.39c-3.4,1.21-5.03,2.98-6.21,4.27c-0.94,1.02-1.22,1.29-2,1.42
		c-2.17,0.34-4.16-1.74-7.23-5.16c-3.54-3.96-7.94-8.88-14.97-9.72c-4.78-0.58-9.01,1.04-17.45,4.25c-2.73,1.04-4.81,2-6.48,2.78
		c-3.44,1.6-4.3,1.92-5.56,1.52c-1.16-0.36-1.68-1.05-2.74-2.58c-1.21-1.75-2.87-4.13-6.37-5.96c-2.66-1.4-7.13-2.83-13.27-1.75
		c-7.05,1.24-17.08,6.74-17.34,15.1c-0.23,7.46,7.51,12.2,15.71,17.22c3.15,1.93,7.23,3.51,15.35,6.65
		c8.72,3.37,12.49,4.27,16.29,2.57c2.63-1.18,3.69-2.96,4.4-4.14c0.51-0.86,0.72-1.17,1.28-1.46c1.42-0.73,3.16,0.07,7.4,2.37
		c3.54,1.91,7.93,4.29,14.03,6c6.75,1.9,12.98,2.2,16.82,2.2c1.13,0,2.05-0.03,2.72-0.04c1.98-0.06,2.8-0.16,4.79-0.43
		c1.64-0.21,4.11-0.54,8.85-1.04c2.85-0.31,5.13-0.53,6.95-0.71c6.79-0.67,8.41-0.82,10.32-2.82c2.19-2.26,3.32-5.8,3.18-9.93
		C549.75,862.26,546.91,856.05,542.55,852.1z M542.46,874.09c-0.38,0.39-1.88,0.55-6.6,1.01c-1.84,0.18-4.13,0.41-7.01,0.72
		c-4.81,0.51-7.33,0.85-8.99,1.06c-1.93,0.26-2.51,0.33-4.18,0.38c-2.97,0.09-9.91,0.27-17.76-1.93c-5.46-1.54-9.52-3.74-12.79-5.51
		c-3.27-1.77-6.22-3.37-9.21-3.37c-1.24,0-2.5,0.28-3.78,0.94c-2.12,1.1-3.03,2.62-3.7,3.73c-0.55,0.92-0.8,1.34-1.7,1.74
		c-1.52,0.68-3.57,0.45-11.68-2.68c-7.79-3.02-11.69-4.53-14.38-6.18c-6.68-4.08-12.98-7.94-12.85-11.92
		c0.13-4.08,6.76-8.4,12.39-9.38c1.12-0.2,2.19-0.3,3.23-0.3c2.29,0,4.38,0.49,6.23,1.46c2.19,1.16,3.13,2.5,4.22,4.07
		c1.28,1.83,2.71,3.9,5.9,4.89c3.59,1.1,6.22-0.12,9.85-1.81c1.59-0.74,3.56-1.66,6.1-2.62c7.52-2.87,11.28-4.31,14.6-3.9
		c4.78,0.57,8.06,4.22,11.21,7.76c3.51,3.92,7.12,7.96,12.64,7.09c2.87-0.45,4.31-2.03,5.47-3.29c0.97-1.05,1.81-1.97,3.81-2.68
		c4.87-1.73,11.06-0.42,15.05,3.19c3.16,2.85,5.29,7.55,5.44,11.98C544.04,870.95,543.48,873.03,542.46,874.09z"/>
	<path d="M725.81,837.41c-4.29,0.97-6.2,3.87-7.72,6.2c-1.23,1.87-2.2,3.35-4.3,4.1c-2.36,0.86-3.96,0.09-7.36-1.74
		c-3.62-1.93-8.12-4.38-15.26-4.26c-3.51,0.04-14.19,0.17-21.51,6.91c-0.19,0.17-0.39,0.37-0.61,0.57c-1.2,1.15-2.69,2.57-5.13,3.49
		c-3.03,1.15-5.86,0.88-6.93,0.72c-1.86-0.29-2.71-0.82-3.99-1.62c-1.16-0.71-2.59-1.6-4.87-2.35c-5.56-1.83-10.43-1.78-14.46,0.15
		c-6.77,3.24-11.05,11.7-9.16,18.12c1.72,5.85,7.76,8.09,18.73,12.17c3.83,1.41,7.12,2.64,11.84,3.08c0.83,0.09,1.94,0.15,3.27,0.15
		c3,0,7.13-0.35,11.83-1.71c5.52-1.6,8.54-3.66,10.75-5.17c2.05-1.4,3.18-2.17,5.47-2.29c2.5-0.12,3.52,0.63,5.38,2
		c2.01,1.48,4.5,3.31,9.13,4.08c4.53,0.74,7-0.3,11.51-2.2c3.41-1.44,8.55-3.61,17.54-6.34l0.92-0.27
		c4.18-1.26,7.19-2.17,10.03-5.21c3.41-3.66,6.45-10.47,3.83-17.64C741.65,839.93,732.46,835.89,725.81,837.41z M736.52,861.89
		c-1.67,1.79-3.36,2.35-7.37,3.56l-0.92,0.27c-9.3,2.83-14.61,5.07-18.13,6.56c-4.25,1.79-5.38,2.28-8.2,1.81
		c-3.2-0.53-4.83-1.73-6.55-2.99c-2.17-1.6-4.61-3.42-9.25-3.17c-3.97,0.21-6.2,1.72-8.54,3.33c-2.08,1.42-4.44,3.03-9.04,4.36
		c-5.83,1.7-10.56,1.58-12.87,1.35c-3.94-0.37-6.75-1.41-10.32-2.74c-9.84-3.65-14.23-5.38-15.07-8.24c-1.06-3.6,1.91-9.07,6-11.02
		c1.4-0.68,2.9-0.91,4.31-0.91c2.5,0,4.73,0.73,5.69,1.04c1.59,0.53,2.56,1.12,3.58,1.75c0.74,0.46,1.53,0.96,2.52,1.39
		c0.99,0.44,2.17,0.82,3.71,1.05c1.92,0.3,5.76,0.57,9.97-1.03c3.58-1.35,5.73-3.41,7.15-4.77c0.19-0.18,0.36-0.34,0.52-0.5
		c5.63-5.18,14.59-5.29,17.53-5.32c5.57-0.09,9.03,1.77,12.35,3.55c3.57,1.92,7.26,3.9,12.23,2.1c3.97-1.44,5.8-4.22,7.27-6.46
		c1.38-2.11,2.19-3.23,4.04-3.65c4.08-0.92,10.06,1.93,11.97,7.15C740.69,854.72,738.94,859.28,736.52,861.89z"/>
</g>
</svg>
