<?xml version="1.0" encoding="utf-8"?>
<!-- Generator: Adobe Illustrator 25.0.0, SVG Export Plug-In . SVG Version: 6.00 Build 0)  -->
<svg version="1.1" id="Camada_1" xmlns="http://www.w3.org/2000/svg" xmlns:xlink="http://www.w3.org/1999/xlink" x="0px" y="0px"
	 viewBox="0 0 1080 1080" style="enable-background:new 0 0 1080 1080;" xml:space="preserve">
<style type="text/css">
	.st0{fill:#BA181E;}
	.st1{fill:#FFFFFF;}
	.st2{font-family:'CookbookTitle';}
	.st3{font-size:75.5381px;}
	.st4{font-family:'Foodlist-Regular';}
	.st5{font-size:36.6899px;}
</style>
<g>
	<g>
		<g>
			<path class="st0" d="M939.56,540c0,40.72-49.62,73.09-61.54,109.83c-12.36,38.08,8.32,93.35-14.75,125.05
				c-23.3,32.01-82.41,29.31-114.42,52.61c-31.69,23.07-47.27,80.25-85.34,92.61c-36.74,11.93-82.78-24.79-123.5-24.79
				c-40.72,0-86.76,36.72-123.5,24.79c-38.08-12.36-53.65-69.55-85.34-92.61c-32.01-23.3-91.13-20.6-114.42-52.61
				c-23.07-31.69-2.39-86.97-14.75-125.05c-11.93-36.74-61.54-69.12-61.54-109.83c0-40.72,49.62-73.09,61.54-109.83
				c12.36-38.08-8.32-93.35,14.75-125.05c23.3-32.01,82.41-29.31,114.42-52.61c31.69-23.07,47.27-80.25,85.34-92.61
				c36.74-11.93,82.78,24.79,123.5,24.79c40.72,0,86.76-36.72,123.5-24.79c38.08,12.36,53.65,69.55,85.34,92.61
				c32.01,23.3,91.13,20.6,114.42,52.61c23.07,31.69,2.39,86.97,14.75,125.05C889.94,466.9,939.56,499.28,939.56,540z"/>
		</g>
		<g>
			<path class="st0" d="M657.38,964.59c-19.58,0-40.11-7.61-60.14-15.04c-19.32-7.16-39.3-14.57-57.24-14.57
				c-17.94,0-37.92,7.41-57.24,14.57c-26.85,9.96-54.61,20.25-79.75,12.09c-26.35-8.55-43.04-33.83-59.18-58.27
				c-11.5-17.42-22.37-33.88-35.98-43.78c-13.86-10.09-33.06-15.43-53.38-21.09c-28.02-7.8-56.99-15.87-73.05-37.93
				c-15.87-21.81-14.65-51.7-13.46-80.6c0.83-20.29,1.69-41.27-3.7-57.85c-5.07-15.62-17.2-30.81-30.03-46.9
				c-18.41-23.06-37.44-46.91-37.44-75.2c0-28.28,19.04-52.13,37.44-75.2c12.84-16.08,24.96-31.27,30.03-46.89
				c5.39-16.59,4.53-37.57,3.7-57.86c-1.18-28.91-2.41-58.79,13.46-80.6c16.06-22.06,45.03-30.13,73.05-37.93
				c20.32-5.66,39.51-11,53.37-21.09c13.61-9.91,24.48-26.36,35.98-43.78c16.14-24.44,32.83-49.72,59.18-58.28
				c25.15-8.16,52.91,2.13,79.75,12.09c19.32,7.17,39.3,14.58,57.24,14.58c17.94,0,37.92-7.41,57.24-14.58
				c26.85-9.96,54.6-20.25,79.75-12.09c26.35,8.56,43.04,33.83,59.18,58.28c11.51,17.42,22.37,33.88,35.99,43.78
				c13.86,10.09,33.05,15.43,53.37,21.09c28.02,7.8,56.99,15.87,73.05,37.93c15.87,21.81,14.65,51.69,13.46,80.6
				c-0.83,20.29-1.69,41.27,3.7,57.86c5.07,15.62,17.19,30.81,30.03,46.89c18.41,23.07,37.44,46.91,37.44,75.2
				c0,28.28-19.03,52.13-37.44,75.2c-12.84,16.08-24.96,31.27-30.03,46.89c-5.39,16.59-4.53,37.57-3.7,57.86
				c1.18,28.91,2.41,58.79-13.46,80.6c-16.06,22.06-45.03,30.13-73.05,37.93c-20.32,5.66-39.51,11-53.38,21.09
				c-13.61,9.91-24.48,26.36-35.99,43.78c-16.14,24.44-32.83,49.72-59.18,58.27C670.61,963.71,664.05,964.59,657.38,964.59z
				 M540,919.86c20.65,0,41.92,7.89,62.49,15.52c25.55,9.47,49.69,18.42,69.83,11.88c21.32-6.92,35.86-28.93,51.24-52.23
				c11.74-17.78,23.88-36.16,39.7-47.67c16.07-11.7,37.5-17.66,58.21-23.43c26.7-7.44,51.93-14.46,64.89-32.27
				c12.78-17.55,11.71-43.56,10.58-71.1c-0.89-21.62-1.8-43.98,4.42-63.14c5.92-18.23,19.48-35.22,32.59-51.65
				c16.79-21.03,34.14-42.78,34.14-65.77c0-22.99-17.36-44.74-34.14-65.77c-13.11-16.43-26.67-33.42-32.59-51.65
				c-6.22-19.16-5.31-41.52-4.42-63.14c1.13-27.53,2.19-53.54-10.58-71.09c-12.96-17.81-38.18-24.83-64.89-32.27
				c-20.72-5.77-42.14-11.73-58.21-23.43c-15.82-11.52-27.96-29.9-39.7-47.67c-15.39-23.3-29.92-45.31-51.24-52.23
				c-20.15-6.55-44.28,2.41-69.83,11.88c-20.57,7.63-41.84,15.52-62.49,15.52s-41.92-7.89-62.49-15.52
				c-25.55-9.47-49.69-18.43-69.83-11.88c-21.32,6.92-35.85,28.93-51.24,52.23c-11.74,17.78-23.88,36.16-39.7,47.67
				c-16.07,11.7-37.49,17.66-58.21,23.43c-26.7,7.43-51.93,14.46-64.89,32.27c-12.78,17.55-11.71,43.56-10.58,71.09
				c0.89,21.62,1.8,43.98-4.42,63.14c-5.92,18.23-19.48,35.22-32.59,51.65c-16.79,21.03-34.14,42.78-34.14,65.77
				c0,22.99,17.36,44.74,34.14,65.77c13.11,16.43,26.67,33.42,32.59,51.65c6.22,19.16,5.31,41.52,4.42,63.14
				c-1.13,27.53-2.19,53.54,10.58,71.09c12.96,17.81,38.18,24.83,64.89,32.27c20.72,5.77,42.14,11.74,58.21,23.43
				c15.82,11.52,27.96,29.9,39.7,47.67c15.39,23.3,29.92,45.31,51.24,52.23c20.14,6.54,44.28-2.4,69.83-11.88
				C498.08,927.75,519.35,919.86,540,919.86z"/>
		</g>
	</g>
	<text transform="matrix(1 0 0 1 254.8592 549.497)"><tspan x="0" y="0" class="st1 st2 st3">A Gastronomia </tspan><tspan x="-47.97" y="90.65" class="st1 st2 st3">Através das Telas</tspan></text>
	<g>
		<g>
			<path class="st1" d="M464.1,348.57c-11.47-12.56-13.98-26.44-7.43-39.27c6.33-12.4,19.32-19.11,33.72-17.41
				c12.78,1.51,23.48,11.53,27.33,26.21c3.8-23.95,16.81-37.41,40.98-37.25c15.52,0.11,29.46,11.88,33.94,26.78
				c4.92,16.34-0.91,31.72-16.37,43.34c1.71,2.53,3.73,4.91,5.04,7.64c1.24,2.58,1.73,5.51,2.65,8.64
				c9.37-6.25,18.77-12.52,28.17-18.77c6.29-4.18,12.95-1.31,14.44,6.25c0.24,1.21,0.29,2.47,0.29,3.7
				c0.02,20.51-0.01,41.01,0.04,61.52c0.01,4.07-0.81,7.71-4.2,10.35c-3.29,2.55-6.2,3.15-9.84-0.07
				c-8.84-7.8-18.06-15.18-27.14-22.72c-0.55-0.46-1.14-0.86-1.96-1.48c-0.38,3.63-0.4,6.88-1.12,9.96
				c-2.32,9.97-10.6,16.68-20.77,16.71c-29.05,0.08-58.1,0.07-87.14-0.02c-11.04-0.03-20.65-7.95-21.15-18.89
				c-0.74-16.27-0.42-32.6-0.1-48.89C453.6,357.69,458.3,352.72,464.1,348.57z M518.22,421.93c13.97,0,27.94,0.05,41.92-0.02
				c8.25-0.04,12.58-4.47,12.61-12.71c0.04-13.19,0.07-26.38,0.04-39.57c-0.02-8.66-4.5-13.07-13.29-13.12
				c-10.25-0.05-20.49-0.03-30.74-0.03c-17.54,0-35.08-0.07-52.62,0.06c-7.94,0.06-12.14,4.42-12.16,12.1
				c-0.03,13.35-0.03,26.7-0.01,40.05c0.01,9.41,3.77,13.2,13.28,13.23C490.9,421.97,504.56,421.93,518.22,421.93z M583.38,318.83
				c0.1-15.17-11.83-27.33-26.94-27.46c-14.86-0.12-27.14,11.87-27.28,26.65c-0.15,15.57,11.75,27.89,26.96,27.9
				C571.26,345.94,583.27,334,583.38,318.83z M463.95,324.09c0.04,12.2,9.83,21.93,21.95,21.82c11.67-0.11,21.67-10.19,21.64-21.85
				c-0.02-11.82-10.39-22.06-22.14-21.86C473.53,302.4,463.91,312.21,463.95,324.09z M615.91,357.4c-0.78,0.16-1.12,0.14-1.34,0.29
				c-6.86,4.53-13.37,9.75-20.65,13.44c-8.8,4.46-12.59,10.68-10.49,20.26c0.42,1.9,1.23,4.09,2.6,5.34
				c4.92,4.51,10.14,8.69,15.28,12.96c4.67,3.87,9.37,7.7,14.6,11.99C615.91,399.66,615.91,378.68,615.91,357.4z M511.42,345.65
				c5.4,0,11.35,0,16.64,0c-3.42-6.83-6.86-13.71-9.38-18.75C516.7,332.02,514.07,338.81,511.42,345.65z"/>
		</g>
	</g>
	<text transform="matrix(1 0 0 1 326.2298 728.7392)" class="st1 st4 st5">memórias cinematográficas</text>
</g>
</svg>
